<svg xmlns="http://www.w3.org/2000/svg" xmlns:xlink="http://www.w3.org/1999/xlink" width="500" zoomAndPan="magnify" viewBox="0 0 375 374.999991" height="500" preserveAspectRatio="xMidYMid meet" version="1.0"><defs><clipPath id="6112eb2573"><path d="M 73.128906 0 L 302.148438 0 L 302.148438 208 L 73.128906 208 Z M 73.128906 0 " clip-rule="nonzero"/></clipPath></defs><path fill="#ffffff" d="M 189.234375 264.503906 C 189.234375 264.503906 183.1875 272.472656 175.511719 282.570312 C 169.464844 290.609375 169.332031 301.671875 175.210938 309.84375 C 181.058594 317.980469 191.527344 321.367188 201.097656 318.246094 C 204.785156 316.984375 208.507812 315.722656 212.195312 314.558594 C 216.117188 313.230469 220.472656 314.527344 222.996094 317.816406 C 225.523438 321.101562 225.6875 325.621094 223.429688 329.140625 C 211.929688 346.78125 200.898438 363.652344 200.898438 363.652344 C 198.839844 366.777344 199.734375 370.960938 202.890625 373.054688 C 206.015625 375.078125 210.203125 374.214844 212.261719 371.09375 C 212.261719 371.09375 223.296875 354.21875 234.792969 336.582031 C 240.242188 328.277344 239.8125 317.449219 233.730469 309.578125 C 227.683594 301.671875 217.3125 298.515625 207.910156 301.636719 C 204.222656 302.867188 200.5 304.097656 196.8125 305.359375 C 192.890625 306.621094 188.605469 305.226562 186.210938 301.871094 C 183.851562 298.582031 183.886719 294.066406 186.378906 290.777344 C 194.019531 280.679688 200.066406 272.707031 200.066406 272.707031 C 202.328125 269.71875 201.730469 265.398438 198.738281 263.171875 C 195.746094 260.882812 191.496094 261.511719 189.234375 264.503906 " fill-opacity="1" fill-rule="nonzero"/><path fill="#ffffff" d="M 220.835938 257.691406 L 210.769531 228.792969 C 209.074219 223.945312 204.453125 220.722656 199.269531 220.722656 L 176.007812 220.722656 C 170.824219 220.722656 166.207031 223.945312 164.511719 228.792969 C 162.21875 235.339844 157.402344 249.324219 154.410156 257.691406 C 153.113281 261.511719 153.710938 265.664062 156.003906 268.789062 C 158.265625 272.007812 161.988281 273.96875 165.90625 273.96875 L 209.339844 273.96875 C 213.292969 273.96875 216.980469 272.007812 219.273438 268.789062 C 221.566406 265.664062 222.164062 261.511719 220.835938 257.691406 " fill-opacity="1" fill-rule="nonzero"/><g clip-path="url(#6112eb2573)"><path fill="#ffffff" d="M 187.640625 20.761719 C 214.15625 -7.140625 259.617188 -5.449219 283.175781 17.039062 C 307.566406 40.292969 308.894531 86.859375 284.539062 133.429688 C 271.910156 159.171875 244.363281 185.113281 216.285156 205.742188 L 214.488281 207.105469 L 163.015625 207.105469 C 161.585938 207.105469 160.160156 206.671875 158.996094 205.742188 C 130.917969 185.113281 103.335938 159.171875 90.742188 133.429688 C 66.382812 86.859375 67.714844 40.292969 92.105469 17.039062 C 115.628906 -5.449219 161.121094 -7.140625 187.640625 20.761719 " fill-opacity="1" fill-rule="nonzero"/></g></svg>