<svg xmlns="http://www.w3.org/2000/svg" xmlns:xlink="http://www.w3.org/1999/xlink" width="500" zoomAndPan="magnify" viewBox="0 0 375 374.999991" height="500" preserveAspectRatio="xMidYMid meet" version="1.0"><defs><clipPath id="7edda96bfe"><path d="M 40 0 L 337.5 0 L 337.5 370.5 L 40 370.5 Z M 40 0 " clip-rule="nonzero"/></clipPath></defs><g clip-path="url(#7edda96bfe)"><path fill="#ffffff" d="M 221.847656 297.304688 C 222.042969 296.148438 221.847656 294.996094 221.078125 294.035156 L 216.269531 287.886719 C 214.152344 285.195312 211.457031 283.078125 208.378906 281.925781 C 206.839844 281.351562 205.492188 280.964844 203.761719 280.773438 C 199.71875 280.390625 197.410156 281.15625 195.292969 281.734375 C 193.945312 282.117188 192.984375 282.503906 191.445312 282.503906 C 189.90625 282.503906 188.941406 282.117188 187.597656 281.734375 C 185.671875 281.15625 183.171875 280.390625 179.128906 280.582031 C 177.398438 280.773438 176.242188 280.964844 175.28125 281.351562 C 171.625 282.503906 168.546875 284.808594 166.042969 288.078125 L 161.425781 294.226562 C 160.65625 295.1875 160.464844 296.34375 160.847656 297.496094 C 161.039062 298.648438 162.003906 299.609375 162.964844 299.992188 C 172.007812 304.222656 181.4375 306.144531 191.253906 306.144531 C 191.253906 306.144531 191.445312 306.144531 191.445312 306.144531 C 201.066406 306.144531 210.496094 304.03125 219.347656 299.992188 C 220.886719 299.417969 221.65625 298.457031 221.847656 297.304688 Z M 191.828125 298.457031 C 184.710938 298.457031 177.78125 297.304688 171.046875 294.804688 L 172.777344 292.691406 C 174.320312 290.769531 176.050781 289.421875 178.167969 288.847656 C 178.550781 288.652344 179.128906 288.652344 180.285156 288.460938 C 182.785156 288.269531 184.132812 288.652344 185.671875 289.230469 C 187.210938 289.808594 189.136719 290.382812 191.828125 290.382812 C 194.523438 290.382812 196.449219 289.808594 197.988281 289.421875 C 199.71875 288.847656 200.875 288.460938 203.375 288.847656 C 204.335938 289.039062 205.109375 289.039062 206.070312 289.421875 C 207.800781 290.191406 209.339844 291.34375 210.6875 292.882812 L 212.417969 294.996094 C 205.492188 297.304688 198.757812 298.457031 191.828125 298.457031 Z M 215.113281 310.371094 C 216.460938 312.101562 216.269531 314.410156 214.535156 315.753906 L 208.761719 320.367188 C 208.570312 320.558594 208.570312 320.558594 208.378906 320.75 C 205.878906 322.289062 203.183594 323.25 200.296875 323.632812 C 199.140625 323.828125 197.988281 323.828125 196.832031 323.828125 L 186.828125 323.828125 C 186.25 323.828125 185.480469 323.828125 184.902344 323.828125 C 181.824219 323.632812 178.9375 322.671875 176.433594 321.328125 C 176.242188 321.136719 176.050781 321.136719 175.859375 320.945312 L 169.121094 315.753906 C 167.390625 314.410156 167.199219 312.101562 168.351562 310.371094 C 169.699219 308.644531 172.007812 308.449219 173.742188 309.605469 L 180.089844 314.601562 C 181.824219 315.371094 183.554688 315.945312 185.480469 316.136719 C 185.863281 316.136719 186.25 316.136719 186.828125 316.136719 L 196.832031 316.136719 C 197.601562 316.136719 198.371094 316.136719 199.140625 315.945312 C 201.066406 315.753906 202.796875 314.984375 204.335938 314.214844 L 209.917969 309.796875 C 211.457031 308.449219 213.960938 308.644531 215.113281 310.371094 Z M 203.183594 249.445312 C 203.761719 247.523438 205.878906 246.371094 207.800781 246.945312 C 209.917969 247.523438 211.074219 249.445312 210.6875 251.558594 C 210.109375 254.441406 208.378906 255.59375 205.492188 257.324219 C 204.722656 257.902344 203.761719 258.476562 202.414062 259.4375 C 199.335938 261.554688 194.910156 262.707031 190.675781 262.707031 C 186.441406 262.707031 182.015625 261.554688 178.9375 259.4375 C 177.78125 258.671875 176.628906 257.902344 175.859375 257.324219 C 172.972656 255.402344 171.238281 254.25 170.664062 251.558594 C 170.085938 249.445312 171.433594 247.332031 173.546875 246.945312 C 175.472656 246.5625 177.589844 247.714844 178.167969 249.636719 C 178.550781 250.023438 179.515625 250.597656 180.285156 251.175781 C 181.054688 251.75 182.207031 252.519531 183.554688 253.289062 C 187.210938 255.789062 194.523438 255.789062 198.179688 253.289062 C 199.527344 252.328125 200.488281 251.75 201.453125 251.175781 C 202.027344 250.214844 202.796875 249.636719 203.183594 249.445312 Z M 121.207031 203.316406 C 119.859375 202.546875 118.707031 201.585938 117.359375 200.433594 C 116.78125 199.855469 114.472656 198.511719 111.585938 198.511719 C 108.890625 198.511719 107.160156 199.664062 106.199219 200.433594 C 104.464844 201.777344 102.15625 201.394531 100.808594 199.664062 C 99.460938 197.933594 99.847656 195.628906 101.578125 194.285156 C 103.3125 192.9375 106.773438 190.824219 111.585938 190.824219 C 116.78125 190.632812 120.628906 192.9375 122.363281 194.476562 C 126.019531 197.550781 129.867188 199.664062 134.101562 200.433594 C 138.140625 201.394531 141.605469 201.011719 143.335938 200.816406 C 145.261719 200.625 146.800781 200.433594 156.421875 197.742188 C 159.695312 196.78125 162.386719 196.011719 164.3125 195.4375 C 166.429688 194.859375 168.546875 196.011719 169.121094 198.128906 C 169.699219 200.242188 168.546875 202.355469 166.429688 202.933594 C 164.503906 203.507812 161.617188 204.277344 158.539062 205.238281 C 149.109375 207.929688 146.992188 208.3125 144.105469 208.699219 C 143.144531 208.699219 141.796875 208.890625 140.066406 208.890625 C 137.949219 208.890625 135.449219 208.699219 132.5625 208.121094 C 131.792969 207.929688 131.214844 207.738281 130.445312 207.546875 C 128.519531 207.929688 125.441406 209.082031 124.480469 211.582031 C 123.902344 213.117188 122.363281 214.078125 120.824219 214.078125 C 120.4375 214.078125 119.859375 214.078125 119.476562 213.886719 C 117.550781 213.117188 116.589844 210.8125 117.359375 208.890625 C 117.9375 206.585938 119.28125 204.664062 121.207031 203.316406 Z M 262.835938 200.433594 C 261.683594 201.394531 260.335938 202.355469 259.179688 203.125 C 261.105469 204.664062 262.453125 206.390625 263.222656 208.507812 C 263.992188 210.429688 263.027344 212.734375 261.105469 213.503906 C 260.71875 213.695312 260.144531 213.695312 259.757812 213.695312 C 258.21875 213.695312 256.679688 212.734375 256.101562 211.195312 C 255.140625 208.699219 252.0625 207.546875 250.136719 207.160156 C 249.367188 207.351562 248.789062 207.546875 248.019531 207.738281 C 245.132812 208.3125 242.4375 208.507812 240.515625 208.507812 C 238.78125 208.507812 237.4375 208.3125 236.472656 208.3125 C 233.585938 208.121094 231.46875 207.546875 222.042969 204.855469 C 218.769531 203.894531 216.074219 203.125 214.152344 202.546875 C 212.035156 201.972656 210.878906 199.855469 211.457031 197.742188 C 212.035156 195.628906 214.152344 194.476562 216.269531 195.050781 C 218.191406 195.628906 220.886719 196.398438 224.15625 197.359375 C 233.78125 200.050781 235.320312 200.433594 237.242188 200.433594 C 238.976562 200.625 242.4375 200.816406 246.480469 200.050781 C 250.714844 199.089844 254.5625 197.167969 258.027344 194.089844 C 259.949219 192.554688 263.605469 190.246094 268.800781 190.4375 C 273.613281 190.632812 277.078125 192.746094 278.808594 193.898438 C 280.539062 195.246094 280.734375 197.550781 279.578125 199.28125 C 278.230469 201.011719 275.921875 201.203125 274.191406 200.050781 C 273.226562 199.28125 271.496094 198.128906 268.800781 198.128906 C 265.722656 198.511719 263.605469 199.855469 262.835938 200.433594 Z M 277.269531 306.527344 C 259.179688 329.398438 233.78125 349.390625 215.5 362.265625 C 207.800781 367.648438 199.140625 370.339844 190.484375 370.339844 C 181.824219 370.339844 173.164062 367.648438 165.464844 362.265625 C 139.105469 343.625 93.304688 306.722656 83.105469 268.855469 C 77.910156 249.253906 71.753906 218.886719 72.328125 185.441406 C 72.328125 183.328125 74.0625 181.597656 76.179688 181.597656 C 78.296875 181.597656 80.027344 183.328125 80.027344 185.441406 C 79.449219 218.117188 85.414062 247.714844 90.417969 266.742188 C 99.847656 302.300781 144.105469 337.855469 169.699219 355.730469 C 182.402344 364.574219 197.988281 364.574219 210.6875 355.730469 C 228.390625 343.238281 253.214844 323.632812 270.726562 301.53125 C 272.074219 299.800781 274.382812 299.609375 276.113281 300.953125 C 278.421875 302.300781 278.617188 304.796875 277.269531 306.527344 Z M 297.472656 231.953125 C 299.398438 216.964844 300.167969 202.164062 299.785156 187.75 C 299.785156 185.632812 301.324219 183.90625 303.441406 183.710938 C 305.554688 183.710938 307.289062 185.25 307.480469 187.363281 C 307.867188 202.164062 307.097656 217.347656 305.171875 232.722656 C 304.980469 234.644531 303.246094 235.992188 301.324219 235.992188 C 301.128906 235.992188 300.9375 235.992188 300.746094 235.992188 C 298.628906 235.992188 297.089844 234.070312 297.472656 231.953125 Z M 59.050781 243.488281 C 57.898438 242.140625 56.742188 240.796875 55.78125 239.449219 C 45.773438 225.996094 45.96875 205.816406 56.164062 192.554688 C 58.28125 189.863281 60.589844 187.363281 63.285156 184.867188 C 67.902344 180.253906 72.523438 175.449219 75.214844 169.105469 C 75.410156 168.722656 75.410156 168.527344 75.410156 168.144531 C 78.488281 156.226562 82.722656 144.695312 88.109375 134.125 C 88.300781 133.546875 88.6875 132.972656 89.070312 132.394531 C 109.660156 93.378906 146.992188 69.929688 188.558594 69.351562 C 229.929688 68.777344 267.261719 91.070312 288.621094 128.933594 C 289.585938 130.664062 290.546875 132.203125 291.316406 133.933594 C 296.898438 144.695312 301.128906 156.226562 304.210938 168.335938 C 304.59375 170.066406 306.132812 171.21875 307.867188 171.21875 C 308.058594 171.21875 308.25 171.21875 308.25 171.21875 C 310.175781 171.027344 311.714844 169.296875 311.714844 167.375 L 311.714844 113.75 C 311.714844 113.75 311.714844 113.558594 311.714844 113.558594 C 310.753906 97.03125 306.902344 81.652344 300.167969 67.625 C 276.691406 18.804688 226.273438 0.929688 190.097656 0.351562 C 172.394531 0.160156 127.75 3.621094 96.960938 41.097656 C 74.832031 67.816406 70.214844 99.335938 67.902344 114.519531 C 65.402344 131.816406 65.402344 149.308594 67.710938 166.796875 C 65.402344 171.410156 61.746094 175.253906 57.707031 179.097656 C 55.011719 181.789062 52.316406 184.480469 50.007812 187.554688 C 37.886719 203.507812 37.5 227.535156 49.429688 243.679688 C 50.585938 245.214844 51.738281 246.753906 53.085938 248.097656 C 55.203125 250.789062 57.320312 253.097656 58.667969 255.980469 C 61.363281 261.554688 60.976562 268.664062 57.707031 273.855469 C 56.550781 275.585938 57.128906 278.082031 58.859375 279.234375 C 59.4375 279.621094 60.207031 279.8125 60.976562 279.8125 C 62.324219 279.8125 63.476562 279.234375 64.246094 278.082031 C 69.058594 270.585938 69.636719 260.59375 65.789062 252.519531 C 63.863281 249.253906 61.363281 246.371094 59.050781 243.488281 Z M 75.410156 115.671875 C 77.527344 101.066406 82.144531 70.890625 102.734375 45.90625 C 130.828125 12.078125 171.046875 8.042969 188.558594 8.042969 C 189.136719 8.042969 189.519531 8.042969 190.097656 8.042969 C 226.660156 8.617188 272.84375 28.222656 293.433594 70.890625 C 299.785156 83.960938 303.246094 98.375 304.210938 113.75 L 304.210938 143.15625 C 302.476562 138.738281 300.554688 134.507812 298.242188 130.472656 C 297.28125 128.742188 296.320312 126.820312 295.359375 125.089844 C 272.84375 85.113281 233.585938 61.472656 190.097656 61.472656 C 189.519531 61.472656 188.941406 61.472656 188.558594 61.472656 C 144.105469 62.242188 104.273438 87.226562 82.335938 128.742188 C 81.953125 129.320312 81.757812 129.894531 81.375 130.472656 C 78.488281 136.046875 75.984375 141.8125 73.675781 147.769531 C 73.292969 137.007812 73.871094 126.246094 75.410156 115.671875 Z M 109.277344 157.382812 C 108.890625 155.265625 110.429688 153.34375 112.546875 152.960938 C 113.316406 152.769531 130.828125 150.269531 145.453125 152.960938 C 160.847656 155.84375 167.777344 164.875 167.96875 165.261719 C 169.316406 166.992188 168.929688 169.296875 167.199219 170.644531 C 166.429688 171.21875 165.660156 171.410156 164.890625 171.410156 C 163.734375 171.410156 162.582031 170.835938 161.808594 169.875 C 161.617188 169.488281 156.230469 162.953125 143.914062 160.648438 C 130.636719 158.148438 113.703125 160.648438 113.511719 160.648438 C 111.585938 161.03125 109.660156 159.496094 109.277344 157.382812 Z M 204.914062 165.070312 C 205.109375 164.683594 212.035156 155.84375 227.429688 152.769531 C 242.054688 150.078125 259.566406 152.574219 260.335938 152.769531 C 262.453125 153.152344 263.800781 155.074219 263.605469 157.1875 C 263.222656 159.304688 261.296875 160.648438 259.179688 160.457031 C 258.988281 160.457031 242.054688 157.957031 228.777344 160.457031 C 216.460938 162.761719 211.074219 169.488281 210.878906 169.683594 C 210.109375 170.644531 208.957031 171.21875 207.800781 171.21875 C 207.03125 171.21875 206.261719 171.027344 205.492188 170.449219 C 203.953125 169.296875 203.761719 166.796875 204.914062 165.070312 Z M 335.191406 261.554688 C 335 261.554688 333.457031 260.785156 330.765625 260.015625 C 328.457031 259.246094 324.605469 258.285156 319.605469 257.324219 C 316.910156 256.75 312.484375 256.171875 306.324219 255.789062 C 301.128906 255.402344 296.898438 251.175781 296.320312 245.984375 C 295.742188 241.179688 294.972656 236.566406 294.011719 232.53125 C 292.855469 227.148438 291.703125 223.304688 290.933594 221.574219 C 289.96875 218.886719 289.390625 217.347656 289.199219 217.15625 C 288.621094 215.808594 287.277344 214.847656 285.542969 214.847656 C 284.003906 214.847656 282.65625 215.808594 282.078125 217.15625 C 282.078125 217.15625 281.308594 218.886719 280.539062 221.574219 C 279.964844 223.496094 278.808594 227.34375 277.847656 232.722656 C 277.078125 236.757812 276.5 241.179688 275.921875 245.984375 C 275.34375 251.175781 271.496094 255.402344 266.109375 255.980469 C 261.296875 256.554688 256.871094 257.324219 252.832031 258.285156 C 249.175781 259.054688 245.324219 260.207031 241.667969 261.363281 C 238.976562 262.324219 237.242188 263.089844 237.242188 263.089844 C 235.894531 263.667969 234.933594 265.207031 234.933594 266.742188 C 234.933594 268.28125 235.894531 269.625 237.4375 270.203125 C 237.4375 270.203125 239.167969 270.972656 241.863281 271.738281 C 245.519531 272.894531 249.367188 273.855469 253.023438 274.429688 C 255.71875 275.007812 260.144531 275.585938 266.300781 276.160156 C 271.496094 276.546875 275.730469 280.773438 276.308594 285.964844 C 276.882812 290.769531 277.652344 295.382812 278.617188 299.417969 C 279.578125 303.453125 280.539062 307.296875 281.695312 310.371094 C 282.65625 313.0625 283.234375 314.601562 283.425781 314.792969 C 284.003906 316.136719 285.351562 317.097656 286.890625 317.097656 C 288.429688 317.097656 289.777344 316.136719 290.355469 314.792969 C 290.355469 314.792969 291.125 313.0625 291.894531 310.371094 C 292.855469 307.296875 293.816406 303.261719 294.585938 299.226562 C 295.359375 295.1875 295.933594 290.769531 296.511719 285.964844 C 297.089844 280.773438 301.128906 276.546875 306.324219 275.96875 C 311.136719 275.390625 315.5625 274.625 319.410156 273.664062 C 324.414062 272.507812 328.261719 271.355469 330.378906 270.585938 C 333.074219 269.625 334.613281 269.050781 334.804688 269.050781 C 336.152344 268.472656 337.113281 267.128906 337.113281 265.589844 C 337.5 263.667969 336.730469 262.324219 335.191406 261.554688 Z M 318.257812 265.78125 C 314.601562 266.550781 310.367188 267.320312 305.75 267.894531 C 296.898438 269.050781 290.160156 275.96875 289.199219 284.808594 C 288.816406 289.421875 288.238281 293.652344 287.46875 297.304688 C 287.277344 298.070312 287.082031 298.839844 287.082031 299.609375 C 286.890625 298.839844 286.699219 298.070312 286.503906 297.304688 C 285.542969 293.457031 284.964844 289.230469 284.390625 284.617188 C 283.234375 275.777344 276.113281 268.855469 267.457031 268.089844 C 261.683594 267.511719 257.449219 267.128906 254.945312 266.550781 C 254.175781 266.359375 253.40625 266.359375 252.832031 266.167969 C 253.601562 265.972656 254.371094 265.78125 255.140625 265.589844 C 258.988281 264.820312 263.027344 264.050781 267.648438 263.476562 C 276.5 262.324219 283.234375 255.402344 284.195312 246.5625 C 284.582031 241.949219 285.160156 237.722656 285.929688 234.070312 C 286.121094 233.300781 286.121094 232.722656 286.3125 231.953125 C 286.503906 232.722656 286.699219 233.300781 286.890625 234.070312 C 287.851562 237.914062 288.429688 242.140625 289.007812 246.753906 C 290.160156 255.59375 297.28125 262.515625 305.941406 263.285156 C 311.714844 263.859375 315.949219 264.246094 318.449219 264.820312 C 319.21875 265.011719 319.988281 265.011719 320.566406 265.207031 C 319.605469 265.589844 319.027344 265.589844 318.257812 265.78125 Z M 318.257812 265.78125 " fill-opacity="1" fill-rule="nonzero"/></g></svg>