<svg xmlns="http://www.w3.org/2000/svg" xmlns:xlink="http://www.w3.org/1999/xlink" width="500" zoomAndPan="magnify" viewBox="0 0 375 374.999991" height="500" preserveAspectRatio="xMidYMid meet" version="1.0"><defs><clipPath id="4dce6f9308"><path d="M 84 3.011719 L 183 3.011719 L 183 372.011719 L 84 372.011719 Z M 84 3.011719 " clip-rule="nonzero"/></clipPath><clipPath id="864731cf77"><path d="M 179 113 L 292.054688 113 L 292.054688 365 L 179 365 Z M 179 113 " clip-rule="nonzero"/></clipPath></defs><g clip-path="url(#4dce6f9308)"><path fill="#ffffff" d="M 172.074219 334.113281 C 172.074219 337.492188 154.625 340.234375 133.097656 340.234375 C 111.574219 340.234375 94.121094 337.492188 94.121094 334.113281 L 94.121094 242.050781 C 94.121094 238.667969 111.574219 235.925781 133.097656 235.925781 C 154.625 235.925781 172.074219 238.667969 172.074219 242.050781 Z M 107.742188 160.1875 C 117.957031 142.097656 123.652344 109.421875 125.753906 95.195312 C 125.84375 94.582031 126.75 94.648438 126.746094 95.265625 C 126.675781 109.261719 125.628906 140.734375 118.085938 157.347656 C 108.566406 178.296875 100.921875 180.804688 95.949219 211.820312 C 95.898438 212.167969 95.382812 212.136719 95.394531 211.785156 C 95.605469 202.625 97.222656 178.820312 107.742188 160.1875 Z M 165.558594 154.667969 C 147.722656 123.085938 147.722656 58.316406 147.722656 58.316406 L 147.722656 17.4375 C 147.722656 17.089844 147.441406 16.808594 147.097656 16.808594 L 147.027344 16.808594 L 147.027344 6.953125 C 147.027344 4.769531 140.789062 3.003906 133.097656 3.003906 C 125.402344 3.003906 119.167969 4.769531 119.167969 6.953125 L 119.167969 16.808594 L 119.101562 16.808594 C 118.753906 16.808594 118.46875 17.089844 118.46875 17.4375 L 118.46875 58.316406 C 118.46875 58.316406 118.46875 123.085938 100.640625 154.667969 C 82.804688 186.25 84.078125 228.917969 84.078125 228.917969 L 84.078125 357.753906 C 84.078125 365.628906 106.023438 372.011719 133.097656 372.011719 C 160.171875 372.011719 182.121094 365.628906 182.121094 357.753906 L 182.121094 228.917969 C 182.121094 228.917969 183.386719 186.25 165.558594 154.667969 " fill-opacity="1" fill-rule="nonzero"/></g><g clip-path="url(#864731cf77)"><path fill="#ffffff" d="M 277.054688 113.949219 L 190.015625 113.949219 C 186.132812 113.949219 182.296875 129.445312 179.507812 146.710938 C 180.578125 149.328125 181.777344 151.820312 183.070312 154.136719 C 185.707031 136.472656 189.566406 119.332031 193.5 119.332031 L 273.566406 119.332031 C 280.613281 119.332031 287.410156 174.167969 287.410156 188.71875 C 287.410156 203.246094 283.527344 216.273438 272.671875 225.222656 C 263.183594 233.019531 250.140625 238.875 243.144531 241.691406 C 240.082031 242.933594 236.820312 243.558594 233.53125 243.558594 C 230.246094 243.558594 226.984375 242.933594 223.925781 241.691406 C 218.199219 239.394531 208.464844 235.0625 199.898438 229.28125 L 199.898438 235.335938 C 213.441406 243.808594 228.453125 248.941406 228.453125 248.941406 L 228.453125 349.148438 C 228.453125 355.828125 208.511719 358.46875 199.601562 359.316406 C 199.203125 359.339844 198.828125 359.390625 198.480469 359.414062 C 196.734375 359.5625 195.394531 361.035156 195.394531 362.800781 L 195.394531 364.746094 L 271.675781 364.746094 L 271.675781 362.800781 C 271.675781 361.035156 270.328125 359.5625 268.589844 359.414062 C 260.375 358.695312 238.613281 356.128906 238.613281 349.148438 L 238.613281 248.941406 C 238.613281 248.941406 261.292969 241.164062 276.054688 229.007812 C 287.859375 219.289062 292.089844 205.136719 292.089844 189.339844 C 292.089844 173.542969 284.695312 113.949219 277.054688 113.949219 " fill-opacity="1" fill-rule="nonzero"/></g><path fill="#ffffff" d="M 283.871094 188.246094 C 283.871094 201.824219 280.238281 214.007812 270.109375 222.355469 C 261.242188 229.65625 249.042969 235.109375 242.496094 237.753906 C 239.65625 238.898438 236.621094 239.496094 233.53125 239.496094 C 230.445312 239.496094 227.410156 238.898438 224.570312 237.753906 C 218.71875 235.386719 208.363281 230.773438 199.898438 224.621094 C 199.773438 217.84375 199.074219 203.84375 195.613281 188.246094 L 283.871094 188.246094 " fill-opacity="1" fill-rule="nonzero"/><path fill="#ffffff" d="M 120.378906 364.902344 C 120.726562 364.878906 121.097656 364.828125 121.496094 364.804688 C 120.925781 366.347656 119.457031 367.84375 117.289062 369.214844 L 117.289062 368.292969 C 117.289062 366.523438 118.636719 365.054688 120.378906 364.902344 " fill-opacity="1" fill-rule="nonzero"/></svg>