<svg xmlns="http://www.w3.org/2000/svg" xmlns:xlink="http://www.w3.org/1999/xlink" width="500" zoomAndPan="magnify" viewBox="0 0 375 374.999991" height="500" preserveAspectRatio="xMidYMid meet" version="1.0"><defs><clipPath id="ea29a60237"><path d="M 3.164062 204 L 272 204 L 272 330.75 L 3.164062 330.75 Z M 3.164062 204 " clip-rule="nonzero"/></clipPath><clipPath id="cbd4b0bc5b"><path d="M 66 37.5 L 208 37.5 L 208 181 L 66 181 Z M 66 37.5 " clip-rule="nonzero"/></clipPath></defs><path fill="#040606" d="M 325.523438 129.625 C 325.523438 156.617188 303.96875 178.621094 277.554688 178.621094 C 251.007812 178.621094 229.484375 156.617188 229.484375 129.625 C 229.484375 102.632812 251.039062 80.628906 277.554688 80.628906 C 303.96875 80.628906 325.523438 102.632812 325.523438 129.625 " fill-opacity="1" fill-rule="nonzero"/><path fill="#040606" d="M 370.101562 273.648438 C 372.09375 280.886719 366.289062 288.023438 358.789062 288.023438 L 287.304688 288.023438 C 286.847656 286.851562 286.261719 285.679688 285.804688 284.40625 C 285.21875 282.90625 284.664062 281.375 284.074219 279.875 C 282.804688 276.714844 281.402344 273.679688 279.902344 270.683594 C 279.414062 269.640625 278.859375 268.464844 278.269531 267.292969 C 276.28125 263.347656 273.933594 259.402344 271.617188 255.554688 C 271.03125 254.742188 270.476562 253.925781 269.890625 252.980469 C 267.902344 250.078125 265.910156 247.144531 263.824219 244.277344 C 262.878906 243.101562 261.964844 241.929688 261.019531 240.660156 C 258.933594 238.214844 256.976562 235.769531 254.757812 233.421875 C 253.8125 232.378906 252.867188 231.203125 251.824219 230.160156 C 249.050781 227.261719 246.117188 224.457031 243.082031 221.6875 C 242.757812 221.328125 242.398438 221 242.039062 220.644531 C 239.136719 218.066406 236.007812 215.523438 232.875 213.078125 C 246.507812 205.746094 261.640625 201.898438 277.554688 201.898438 C 321.609375 201.898438 358.851562 232.347656 370.101562 273.648438 " fill-opacity="1" fill-rule="nonzero"/><g clip-path="url(#ea29a60237)"><path fill="#040606" d="M 259.488281 330.828125 L 14.839844 330.828125 C 7.5 330.828125 2.023438 324.144531 3.359375 316.972656 C 15.132812 252.914062 70.375 204.308594 136.671875 204.113281 L 137.488281 204.113281 C 161.6875 204.210938 185.363281 210.632812 205.839844 222.957031 C 213.40625 227.359375 220.386719 232.507812 226.777344 238.214844 C 246.019531 255.328125 260.203125 277.660156 267.640625 302.890625 L 267.640625 303.019531 C 269.042969 307.617188 270.117188 312.34375 271 317.136719 C 272.238281 324.277344 266.726562 330.828125 259.488281 330.828125 " fill-opacity="1" fill-rule="nonzero"/></g><g clip-path="url(#cbd4b0bc5b)"><path fill="#040606" d="M 207.472656 109.285156 C 207.472656 148.597656 176.164062 180.609375 137.621094 180.839844 L 136.804688 180.839844 C 98.160156 180.609375 66.855469 148.597656 66.855469 109.285156 C 66.855469 69.804688 98.386719 37.695312 137.164062 37.695312 C 175.9375 37.695312 207.472656 69.804688 207.472656 109.285156 " fill-opacity="1" fill-rule="nonzero"/></g></svg>