<svg xmlns="http://www.w3.org/2000/svg" xmlns:xlink="http://www.w3.org/1999/xlink" width="500" zoomAndPan="magnify" viewBox="0 0 375 374.999991" height="500" preserveAspectRatio="xMidYMid meet" version="1.0"><path fill="#000000" d="M 180.710938 116.082031 C 180.113281 111.265625 179.929688 106.433594 180.152344 101.582031 C 180.140625 100.195312 180.296875 98.828125 180.621094 97.480469 C 180.945312 96.132812 181.429688 94.84375 182.070312 93.613281 C 182.710938 92.382812 183.488281 91.25 184.410156 90.210938 C 185.328125 89.175781 186.359375 88.261719 187.5 87.476562 C 191.472656 85.011719 194.921875 81.953125 197.847656 78.300781 C 198.546875 77.316406 199.15625 76.277344 199.675781 75.183594 C 200.195312 74.089844 200.617188 72.960938 200.941406 71.792969 C 201.261719 70.625 201.480469 69.441406 201.597656 68.238281 C 201.714844 67.03125 201.726562 65.824219 201.632812 64.621094 C 201.539062 63.414062 201.339844 62.222656 201.039062 61.050781 C 200.738281 59.878906 200.339844 58.742188 199.839844 57.640625 C 199.339844 56.535156 198.75 55.484375 198.066406 54.484375 C 197.386719 53.488281 196.621094 52.554688 195.777344 51.6875 C 194.910156 50.679688 193.929688 49.804688 192.832031 49.058594 C 191.734375 48.308594 190.558594 47.71875 189.304688 47.28125 C 188.050781 46.839844 186.765625 46.574219 185.441406 46.472656 C 184.117188 46.375 182.800781 46.449219 181.5 46.695312 C 180.746094 46.800781 180.019531 46.988281 179.3125 47.265625 C 178.605469 47.542969 177.941406 47.898438 177.320312 48.332031 C 176.699219 48.765625 176.136719 49.265625 175.632812 49.832031 C 175.125 50.398438 174.695312 51.019531 174.335938 51.6875 C 172.144531 55.394531 169.972656 59.121094 167.964844 62.933594 C 167.417969 63.886719 166.777344 64.769531 166.039062 65.585938 C 165.304688 66.402344 164.488281 67.128906 163.597656 67.769531 C 162.703125 68.40625 161.753906 68.945312 160.746094 69.378906 C 159.734375 69.816406 158.695312 70.136719 157.617188 70.347656 C 156.636719 70.570312 155.65625 70.570312 154.675781 70.347656 C 153.996094 70.28125 153.382812 70.039062 152.839844 69.621094 C 152.296875 69.203125 151.902344 68.675781 151.660156 68.03125 C 151.417969 67.390625 151.367188 66.734375 151.5 66.0625 C 151.632812 65.386719 151.933594 64.800781 152.402344 64.300781 C 152.980469 63.515625 153.640625 63.429688 154.46875 64.03125 C 154.710938 64.234375 154.96875 64.410156 155.25 64.550781 C 155.53125 64.691406 155.828125 64.800781 156.132812 64.871094 C 156.441406 64.941406 156.75 64.972656 157.066406 64.96875 C 157.382812 64.964844 157.691406 64.921875 157.996094 64.84375 C 158.300781 64.765625 158.589844 64.648438 158.867188 64.5 C 159.144531 64.351562 159.402344 64.171875 159.632812 63.960938 C 159.867188 63.746094 160.074219 63.511719 160.25 63.25 C 160.425781 62.988281 160.570312 62.710938 160.679688 62.414062 C 162.128906 59.742188 163.574219 57.09375 164.816406 54.378906 C 166.792969 50.484375 169.425781 47.109375 172.722656 44.25 C 173.519531 43.535156 174.371094 42.894531 175.273438 42.324219 C 176.179688 41.75 177.125 41.261719 178.113281 40.851562 C 179.101562 40.441406 180.117188 40.117188 181.160156 39.882812 C 182.203125 39.644531 183.257812 39.496094 184.324219 39.4375 C 185.394531 39.378906 186.457031 39.414062 187.519531 39.535156 C 188.582031 39.660156 189.625 39.871094 190.652344 40.171875 C 191.679688 40.472656 192.671875 40.855469 193.632812 41.324219 C 194.59375 41.796875 195.511719 42.34375 196.378906 42.96875 C 201.6875 46.90625 205.894531 51.796875 209.003906 57.632812 C 211.238281 61.773438 210.84375 66.164062 209.890625 70.492188 C 207.824219 79.523438 202.296875 86.152344 195.21875 91.660156 C 193.667969 92.882812 191.96875 93.898438 190.335938 94.976562 C 189.621094 95.425781 189.054688 96.019531 188.632812 96.75 C 188.210938 97.484375 187.984375 98.273438 187.957031 99.117188 C 187.707031 103.964844 187.519531 108.792969 187.292969 113.867188 C 189.902344 114.195312 192.46875 114.074219 194.972656 114.28125 C 206.582031 115.253906 215.894531 120.742188 224.070312 128.59375 C 229.320312 133.703125 234.136719 139.199219 238.515625 145.078125 C 243.757812 151.910156 249.628906 158.148438 256.132812 163.796875 C 262.632812 169.441406 269.632812 174.378906 277.132812 178.613281 C 287.996094 184.828125 299.398438 190.210938 310.097656 196.777344 C 317.589844 201.375 325.433594 205.207031 333.320312 209.058594 C 339.882812 212.324219 346.046875 216.226562 351.808594 220.761719 C 357.570312 225.296875 362.8125 230.371094 367.527344 235.984375 C 370.785156 240.167969 373.070312 244.828125 374.378906 249.964844 C 374.960938 253.042969 375.007812 256.128906 374.523438 259.226562 C 374.523438 260.945312 372.992188 261.546875 371.378906 261.421875 C 362.3125 260.714844 353.703125 258.832031 347.144531 251.808594 C 346.695312 251.355469 346.171875 251.011719 345.578125 250.773438 C 344.984375 250.535156 344.367188 250.425781 343.730469 250.441406 C 339.1875 250.4375 334.660156 250.71875 330.152344 251.292969 C 317.53125 251.972656 304.914062 251.875 292.300781 251.003906 C 271.316406 249.882812 250.289062 250.007812 229.261719 249.574219 C 221.710938 249.40625 214.136719 248.867188 206.5 249.097656 C 191.082031 249.59375 175.664062 249.386719 160.246094 249.65625 C 146.398438 249.90625 132.574219 250.089844 118.851562 249.449219 C 108.875 248.890625 98.898438 248.949219 88.929688 249.613281 C 73.695312 250.753906 58.402344 250.132812 43.171875 251.375 C 39.859375 251.675781 36.574219 252.167969 33.320312 252.847656 C 31.671875 253.246094 30.203125 254 28.910156 255.101562 C 25.652344 257.816406 22.265625 260.355469 18.75 262.726562 C 17.800781 263.34375 16.800781 263.871094 15.75 264.300781 C 15.320312 264.511719 14.871094 264.648438 14.398438 264.707031 C 13.921875 264.761719 13.453125 264.738281 12.988281 264.632812 C 12.519531 264.527344 12.085938 264.347656 11.683594 264.089844 C 11.28125 263.832031 10.929688 263.515625 10.636719 263.140625 C 8.566406 260.695312 6.292969 258.457031 4.429688 255.871094 C 0.0625 249.53125 0.289062 243.441406 5.878906 238.121094 C 12.578125 232.300781 19.789062 227.199219 27.503906 222.8125 C 43.730469 212.914062 60.988281 204.980469 77.710938 196.011719 C 97.371094 185.449219 116.554688 174.097656 133.980469 160.011719 C 139.191406 155.941406 143.300781 150.964844 146.316406 145.078125 C 149.523438 138.691406 153.660156 132.984375 158.734375 127.949219 C 161.523438 125.261719 164.605469 122.964844 167.980469 121.070312 C 171.355469 119.171875 174.917969 117.730469 178.664062 116.746094 C 179.390625 116.667969 180.074219 116.445312 180.710938 116.082031 Z M 190.398438 157.175781 C 188.742188 158.355469 187.3125 159.496094 185.761719 160.425781 C 171.648438 168.917969 157.492188 177.371094 143.066406 185.28125 C 128.640625 193.195312 113.597656 200.691406 99.191406 209.039062 C 90.109375 214.300781 81 219.519531 71.441406 223.929688 C 61.964844 228.457031 53.273438 234.171875 45.363281 241.082031 C 44.511719 241.636719 43.882812 242.382812 43.480469 243.316406 C 49.296875 243.007812 54.882812 242.882812 60.429688 242.367188 C 78.519531 240.730469 96.625 240.003906 114.777344 239.695312 C 135.949219 239.339844 157.121094 240.273438 178.289062 239.859375 C 184.953125 239.722656 191.601562 239.953125 198.242188 240.542969 C 219.082031 242.449219 239.941406 241.910156 260.804688 241.308594 C 268.742188 240.867188 276.675781 240.941406 284.601562 241.535156 C 292.054688 242.28125 299.484375 243.070312 306.996094 243.089844 C 315.605469 243.089844 324.234375 243.316406 332.84375 243.835938 C 334.4375 243.835938 336.050781 243.835938 337.644531 243.835938 C 337.121094 243.246094 336.484375 242.816406 335.742188 242.550781 C 331.996094 240.957031 328.144531 239.546875 324.484375 237.765625 C 315.085938 233.191406 306.394531 227.410156 297.578125 221.902344 C 275.992188 208.667969 254.613281 195.097656 233.09375 181.71875 C 221.152344 174.304688 208.050781 168.941406 196.441406 160.902344 C 194.453125 159.578125 192.425781 158.480469 190.398438 157.175781 Z M 190.398438 157.175781 " fill-opacity="1" fill-rule="nonzero"/></svg>