<svg xmlns="http://www.w3.org/2000/svg" xmlns:xlink="http://www.w3.org/1999/xlink" width="45" zoomAndPan="magnify" viewBox="0 0 33.75 33.749999" height="45" preserveAspectRatio="xMidYMid meet" version="1.0"><defs><clipPath id="93249e781e"><path d="M 0 2.636719 L 33.5 2.636719 L 33.5 31.136719 L 0 31.136719 Z M 0 2.636719 " clip-rule="nonzero"/></clipPath></defs><path fill="#f5a3b6" d="M 19.917969 8.78125 C 20.042969 8.550781 19.835938 8.257812 19.582031 8.1875 C 19.332031 8.113281 19.066406 8.191406 18.8125 8.25 C 17.980469 8.4375 17.117188 8.410156 16.269531 8.386719 C 15.34375 8.355469 14.417969 8.328125 13.492188 8.300781 C 13.410156 8.425781 13.371094 8.574219 13.378906 8.722656 C 13.597656 8.9375 13.925781 8.992188 14.230469 9.03125 C 15.945312 9.242188 17.6875 9.242188 19.398438 9.027344 C 19.597656 9 19.820312 8.953125 19.917969 8.78125 " fill-opacity="1" fill-rule="nonzero"/><g clip-path="url(#93249e781e)"><path fill="#eba1a1" d="M 28.929688 29.382812 C 28.0625 29.542969 27.171875 29.535156 26.304688 29.382812 C 25.964844 29.324219 25.660156 29.222656 25.386719 29.484375 C 25.078125 29.785156 24.863281 30.089844 24.480469 30.304688 C 23.765625 30.707031 22.902344 30.742188 22.113281 30.613281 C 21.71875 30.546875 21.339844 30.417969 20.976562 30.25 C 20.601562 30.082031 20.28125 29.859375 19.855469 29.886719 C 19.484375 29.90625 19.1875 30.296875 18.886719 30.476562 C 18.527344 30.691406 18.105469 30.777344 17.691406 30.808594 C 16.832031 30.871094 15.960938 30.609375 15.15625 30.339844 C 14.761719 30.207031 14.378906 30.046875 13.96875 29.960938 C 13.515625 29.867188 13.101562 30.015625 12.691406 30.1875 C 11.757812 30.574219 10.757812 30.699219 9.757812 30.589844 C 9.277344 30.539062 8.8125 30.414062 8.363281 30.25 C 7.878906 30.070312 7.453125 29.785156 7 29.546875 C 6.609375 29.34375 6.230469 29.214844 5.789062 29.230469 C 5.257812 29.25 4.777344 29.453125 4.234375 29.433594 C 3.207031 29.394531 2.238281 28.878906 1.382812 28.355469 C 1.179688 28.234375 0.980469 28.105469 0.78125 27.976562 C 0.5 27.792969 0.3125 27.621094 0.359375 27.257812 C 0.367188 27.191406 0.375 27.125 0.386719 27.058594 C 1.226562 27.351562 1.972656 27.910156 2.878906 27.992188 C 3.199219 28.023438 3.523438 27.972656 3.824219 27.863281 C 4.140625 28.21875 4.738281 28.402344 5.148438 28.542969 C 5.917969 28.808594 6.753906 28.917969 7.554688 28.757812 C 7.789062 28.710938 8.035156 28.636719 8.253906 28.523438 C 8.699219 28.957031 9.488281 29.179688 10.019531 29.292969 C 10.902344 29.480469 11.804688 29.449219 12.667969 29.195312 C 12.929688 29.121094 13.277344 29 13.554688 28.820312 C 13.742188 28.945312 13.972656 29.023438 14.160156 29.078125 C 14.636719 29.21875 15.125 29.304688 15.613281 29.367188 C 16.582031 29.488281 17.574219 29.441406 18.53125 29.265625 C 18.90625 29.195312 19.308594 29.125 19.632812 28.914062 C 19.953125 29.132812 20.4375 29.226562 20.796875 29.320312 C 21.289062 29.449219 21.796875 29.515625 22.308594 29.535156 C 23.363281 29.574219 24.605469 29.375 25.347656 28.582031 C 25.410156 28.609375 25.472656 28.636719 25.523438 28.652344 C 26.4375 28.976562 27.421875 29.066406 28.386719 28.992188 C 30.285156 28.847656 32.113281 27.925781 33.347656 26.476562 C 33.386719 26.597656 33.421875 26.714844 33.453125 26.832031 C 32.292969 28.1875 30.679688 29.066406 28.929688 29.382812 Z M 4.195312 27.277344 C 4.121094 27.378906 4.019531 27.457031 3.914062 27.523438 C 3.894531 27.488281 3.882812 27.453125 3.875 27.410156 C 3.78125 27.027344 4.367188 27.039062 4.195312 27.277344 Z M 8.238281 27.898438 C 8.304688 27.710938 8.40625 27.710938 8.539062 27.898438 C 8.515625 27.960938 8.480469 28.015625 8.4375 28.066406 C 8.402344 28.117188 8.355469 28.15625 8.300781 28.191406 C 8.242188 28.101562 8.210938 28.003906 8.238281 27.898438 Z M 13.480469 28.257812 C 13.480469 28.214844 13.480469 28.171875 13.480469 28.128906 C 13.511719 27.890625 13.597656 27.910156 13.742188 28.175781 C 13.742188 28.296875 13.667969 28.394531 13.582031 28.472656 C 13.535156 28.410156 13.5 28.339844 13.480469 28.257812 Z M 19.589844 28.53125 C 19.476562 28.457031 19.476562 28.398438 19.582031 28.367188 C 19.617188 28.429688 19.621094 28.488281 19.601562 28.542969 C 19.597656 28.539062 19.59375 28.535156 19.589844 28.53125 Z M 25.285156 28.257812 C 25.234375 28.199219 25.230469 28.105469 25.273438 27.984375 C 25.445312 28.027344 25.355469 28.167969 25.285156 28.257812 Z M 3.324219 19.339844 C 5.21875 16.214844 7.757812 13.539062 10.417969 11.058594 C 11.0625 10.457031 11.71875 9.863281 12.378906 9.277344 C 12.625 9.058594 12.878906 8.847656 13.121094 8.625 C 13.125 8.625 13.128906 8.628906 13.132812 8.632812 C 13.261719 8.734375 13.398438 8.816406 13.542969 8.886719 C 12.539062 9.632812 11.753906 10.660156 11.195312 11.769531 C 11.121094 11.921875 11.367188 12.015625 11.445312 11.863281 C 12.003906 10.75 12.8125 9.726562 13.832031 9.003906 C 13.980469 9.050781 14.128906 9.089844 14.28125 9.117188 C 13.609375 9.839844 12.996094 10.722656 12.945312 11.734375 C 12.9375 11.90625 13.203125 11.929688 13.210938 11.757812 C 13.261719 10.746094 13.917969 9.863281 14.601562 9.164062 C 14.667969 9.171875 14.734375 9.175781 14.800781 9.183594 C 15.050781 9.203125 15.296875 9.214844 15.546875 9.21875 C 12.746094 14.152344 11.878906 19.949219 11.007812 25.476562 C 10.980469 25.644531 11.246094 25.667969 11.273438 25.5 C 12.144531 19.96875 13 14.148438 15.847656 9.226562 C 16.253906 9.234375 16.65625 9.230469 17.0625 9.234375 C 17.195312 9.234375 17.328125 9.234375 17.460938 9.234375 C 17.933594 10.222656 18.136719 11.335938 18.414062 12.386719 C 18.777344 13.78125 19.132812 15.175781 19.421875 16.589844 C 20.007812 19.453125 20.273438 22.433594 19.621094 25.308594 C 19.582031 25.476562 19.847656 25.5 19.882812 25.335938 C 20.535156 22.476562 20.273438 19.523438 19.710938 16.671875 C 19.421875 15.21875 19.050781 13.78125 18.675781 12.34375 C 18.40625 11.3125 18.199219 10.214844 17.757812 9.234375 C 18.0625 9.234375 18.371094 9.234375 18.675781 9.222656 C 19.015625 9.792969 19.308594 10.390625 19.574219 10.996094 C 19.851562 11.621094 20.277344 12.40625 20.171875 13.101562 C 20.148438 13.273438 20.414062 13.296875 20.4375 13.128906 C 20.539062 12.4375 20.171875 11.714844 19.90625 11.097656 C 19.636719 10.453125 19.328125 9.816406 18.976562 9.210938 C 18.988281 9.210938 19 9.210938 19.007812 9.210938 C 19.082031 9.207031 19.152344 9.203125 19.226562 9.195312 C 21.660156 9.496094 23.265625 11.582031 24.417969 13.550781 C 24.503906 13.699219 24.75 13.589844 24.660156 13.441406 C 23.5625 11.5625 22.074219 9.617188 19.890625 9.050781 C 20.097656 8.980469 20.289062 8.878906 20.464844 8.738281 C 23.582031 10.453125 26.21875 13.148438 28.28125 15.992188 C 30.503906 19.0625 32.144531 22.554688 33.257812 26.175781 C 33.253906 26.179688 33.25 26.183594 33.242188 26.191406 C 32.125 27.570312 30.492188 28.429688 28.746094 28.6875 C 27.867188 28.816406 26.960938 28.765625 26.101562 28.550781 C 25.90625 28.5 25.710938 28.4375 25.523438 28.371094 C 25.519531 28.371094 25.519531 28.371094 25.519531 28.371094 C 25.578125 28.285156 25.636719 28.195312 25.6875 28.101562 C 25.707031 28.058594 25.691406 28.003906 25.667969 27.96875 C 25.449219 27.703125 25.113281 27.585938 24.933594 27.933594 C 24.820312 28.152344 24.945312 28.328125 25.121094 28.453125 C 24.796875 28.785156 24.335938 28.980469 23.902344 29.105469 C 22.898438 29.390625 21.769531 29.300781 20.769531 29.042969 C 20.53125 28.980469 20.292969 28.898438 20.0625 28.808594 C 19.976562 28.777344 19.890625 28.742188 19.8125 28.699219 C 19.898438 28.519531 19.902344 28.292969 19.761719 28.15625 C 19.621094 28.011719 19.386719 27.917969 19.265625 28.144531 C 19.148438 28.359375 19.261719 28.566406 19.414062 28.726562 C 19.023438 28.953125 18.175781 29.054688 18.011719 29.082031 C 16.988281 29.230469 15.941406 29.183594 14.925781 28.988281 C 14.617188 28.929688 14.105469 28.863281 13.777344 28.648438 C 13.976562 28.449219 14.074219 28.191406 13.9375 27.863281 C 13.828125 27.613281 13.589844 27.585938 13.398438 27.730469 C 13.167969 27.902344 13.1875 28.261719 13.277344 28.496094 C 13.296875 28.546875 13.324219 28.597656 13.359375 28.640625 C 13.15625 28.761719 12.910156 28.835938 12.699219 28.910156 C 11.507812 29.316406 10.171875 29.199219 9.039062 28.683594 C 8.90625 28.621094 8.671875 28.519531 8.492188 28.378906 C 8.496094 28.375 8.503906 28.371094 8.511719 28.363281 C 8.683594 28.238281 8.90625 27.921875 8.792969 27.695312 C 8.523438 27.152344 7.777344 27.667969 7.996094 28.160156 C 8.015625 28.214844 8.046875 28.261719 8.078125 28.308594 C 8.070312 28.3125 8.0625 28.316406 8.058594 28.320312 C 7.519531 28.566406 6.910156 28.601562 6.328125 28.542969 C 5.75 28.484375 5.1875 28.296875 4.65625 28.066406 C 4.457031 27.980469 4.234375 27.890625 4.074219 27.742188 C 4.285156 27.613281 4.515625 27.414062 4.535156 27.21875 C 4.585938 26.679688 3.65625 26.699219 3.609375 27.242188 C 3.597656 27.390625 3.625 27.523438 3.675781 27.640625 C 2.601562 28.082031 1.4375 27.144531 0.425781 26.792969 C 0.5 26.351562 0.59375 25.914062 0.699219 25.480469 C 1.226562 23.304688 2.164062 21.246094 3.324219 19.339844 Z M 13.0625 6.660156 C 12.921875 6.242188 12.839844 5.804688 12.785156 5.371094 C 12.691406 4.578125 12.753906 3.757812 12.988281 2.992188 C 14.292969 2.921875 15.574219 3.414062 16.5 4.34375 C 16.5 4.34375 16.503906 4.347656 16.507812 4.347656 C 16.539062 4.390625 16.59375 4.414062 16.65625 4.378906 C 17.753906 3.78125 19.289062 3.128906 20.515625 3.699219 C 20.535156 3.707031 20.558594 3.714844 20.574219 3.71875 C 20.984375 5.21875 20.5 6.84375 19.503906 8.011719 C 17.539062 8.429688 15.503906 8.398438 13.550781 7.917969 C 13.546875 7.917969 13.546875 7.917969 13.542969 7.914062 C 13.539062 7.824219 13.519531 7.734375 13.484375 7.636719 C 13.363281 7.304688 13.179688 7 13.0625 6.660156 Z M 20.207031 8.597656 C 19.910156 8.800781 19.566406 8.886719 19.214844 8.929688 C 19.207031 8.929688 19.203125 8.929688 19.199219 8.929688 C 19.0625 8.945312 18.925781 8.953125 18.785156 8.957031 C 18.175781 8.980469 17.5625 8.972656 16.949219 8.96875 C 16.566406 8.964844 16.183594 8.960938 15.800781 8.953125 C 15.777344 8.945312 15.753906 8.945312 15.734375 8.949219 C 15.515625 8.945312 15.296875 8.941406 15.078125 8.933594 C 14.917969 8.925781 14.753906 8.914062 14.597656 8.898438 C 14.574219 8.886719 14.550781 8.882812 14.527344 8.886719 C 14.09375 8.832031 13.675781 8.707031 13.316406 8.4375 C 13.324219 8.425781 13.335938 8.414062 13.347656 8.402344 C 13.417969 8.332031 13.46875 8.253906 13.5 8.175781 C 15.488281 8.660156 17.554688 8.699219 19.558594 8.273438 C 19.777344 8.375 19.992188 8.484375 20.207031 8.597656 Z M 33.738281 26.882812 C 33.742188 26.859375 33.734375 26.832031 33.722656 26.8125 C 32.621094 22.996094 30.957031 19.355469 28.679688 16.097656 C 26.496094 12.972656 23.601562 10.09375 20.214844 8.304688 C 20.074219 8.230469 19.929688 8.160156 19.789062 8.089844 C 20.84375 6.796875 21.347656 5.257812 20.816406 3.648438 C 20.777344 3.523438 20.625 3.460938 20.519531 3.414062 C 19.269531 2.902344 17.746094 3.492188 16.621094 4.097656 C 15.621094 3.132812 14.273438 2.640625 12.882812 2.734375 C 12.878906 2.734375 12.875 2.734375 12.875 2.734375 C 12.871094 2.734375 12.871094 2.734375 12.867188 2.734375 C 12.859375 2.734375 12.851562 2.734375 12.847656 2.738281 C 12.792969 2.75 12.765625 2.789062 12.761719 2.832031 C 12.492188 3.667969 12.433594 4.542969 12.523438 5.414062 C 12.566406 5.835938 12.65625 6.257812 12.785156 6.664062 C 12.851562 6.871094 12.929688 7.074219 13.015625 7.277344 C 13.167969 7.632812 13.4375 7.933594 13.09375 8.285156 C 12.730469 8.660156 12.304688 8.988281 11.914062 9.335938 C 11.488281 9.71875 11.0625 10.101562 10.640625 10.492188 C 9.828125 11.238281 9.03125 12 8.257812 12.78125 C 5.207031 15.863281 2.507812 19.378906 1.023438 23.492188 C 0.660156 24.496094 0.386719 25.53125 0.199219 26.578125 C 0.1875 26.628906 0.179688 26.679688 0.167969 26.734375 C 0.0585938 26.761719 0.0117188 26.921875 0.117188 26.972656 C 0.0664062 27.257812 0.0390625 27.554688 0.167969 27.800781 C 0.347656 28.144531 0.90625 28.375 1.222656 28.570312 C 2.011719 29.054688 2.84375 29.472656 3.757812 29.644531 C 4.183594 29.726562 4.617188 29.714844 5.039062 29.644531 C 5.269531 29.605469 5.492188 29.539062 5.71875 29.503906 C 6.058594 29.449219 6.378906 29.550781 6.6875 29.6875 C 7.125 29.878906 7.519531 30.164062 7.953125 30.367188 C 8.378906 30.5625 8.828125 30.691406 9.285156 30.785156 C 10.183594 30.96875 11.128906 30.921875 12.019531 30.695312 C 12.457031 30.582031 12.855469 30.375 13.289062 30.246094 C 13.828125 30.085938 14.375 30.347656 14.875 30.523438 C 15.636719 30.789062 16.421875 31.015625 17.226562 31.070312 C 17.871094 31.113281 18.558594 31.007812 19.105469 30.652344 C 19.527344 30.378906 19.78125 30.023438 20.328125 30.230469 C 20.699219 30.367188 21.03125 30.582031 21.40625 30.707031 C 22.683594 31.136719 24.265625 31.039062 25.257812 30.042969 C 25.351562 29.949219 25.4375 29.84375 25.519531 29.738281 C 25.714844 29.484375 26.019531 29.597656 26.277344 29.648438 C 26.683594 29.726562 27.09375 29.757812 27.507812 29.765625 C 28.308594 29.78125 29.109375 29.65625 29.878906 29.433594 C 31.355469 29.003906 32.6875 28.144531 33.683594 26.972656 C 33.714844 26.957031 33.738281 26.925781 33.738281 26.882812 " fill-opacity="1" fill-rule="nonzero"/></g></svg>