<svg xmlns="http://www.w3.org/2000/svg" xmlns:xlink="http://www.w3.org/1999/xlink" width="45" zoomAndPan="magnify" viewBox="0 0 33.75 33.749999" height="45" preserveAspectRatio="xMidYMid meet" version="1.0"><defs><clipPath id="01623b3497"><path d="M 1.378906 0.496094 L 32.128906 0.496094 L 32.128906 33.496094 L 1.378906 33.496094 Z M 1.378906 0.496094 " clip-rule="nonzero"/></clipPath></defs><g clip-path="url(#01623b3497)"><path fill="#eba1a1" d="M 31.292969 24.191406 C 30.109375 25.183594 29.398438 25.804688 29.1875 26.042969 C 28.976562 26.28125 28.882812 26.5 28.914062 26.691406 C 28.902344 26.6875 28.890625 26.683594 28.878906 26.683594 C 28.632812 25.59375 28.398438 24.464844 28.222656 23.382812 C 27.808594 20.796875 26.414062 17.644531 25.316406 15.457031 C 24.070312 12.964844 22.671875 10.660156 21.929688 9.667969 C 21.128906 8.59375 20.398438 7.359375 19.886719 6.429688 L 22.914062 10.242188 L 22.917969 10.246094 C 22.949219 10.285156 26.4375 14.21875 27.257812 15.992188 C 28.089844 17.785156 30.046875 20.304688 30.066406 20.332031 L 30.070312 20.335938 L 31.347656 21.488281 C 31.730469 21.835938 31.945312 22.332031 31.933594 22.851562 C 31.925781 23.371094 31.691406 23.859375 31.292969 24.191406 Z M 29.863281 27.808594 C 29.824219 28.027344 29.472656 28.164062 29.234375 28.226562 C 29.132812 27.792969 29.027344 27.34375 28.925781 26.886719 C 28.957031 26.898438 28.988281 26.90625 29.019531 26.917969 C 29.042969 26.945312 29.070312 26.964844 29.089844 26.976562 C 29.628906 27.300781 29.902344 27.597656 29.863281 27.808594 Z M 29.527344 29.792969 C 29.597656 29.988281 29.570312 30.207031 29.457031 30.378906 C 28.894531 31.21875 28.113281 31.71875 27.144531 31.859375 C 26.417969 31.96875 25.847656 31.824219 25.84375 31.824219 L 21.574219 30.996094 C 20.980469 30.882812 20.359375 30.972656 19.824219 31.253906 C 18.472656 31.953125 15.128906 33.492188 13.191406 32.585938 C 12.222656 32.132812 11.136719 31.988281 10.144531 31.988281 C 9.539062 31.988281 8.96875 32.042969 8.480469 32.113281 C 7.734375 32.222656 6.980469 32.082031 6.296875 31.707031 C 5.753906 31.410156 5.132812 31.234375 4.445312 31.1875 C 3.308594 31.109375 2.710938 30.765625 2.414062 30.488281 C 2.300781 30.382812 2.265625 30.207031 2.335938 30.0625 L 2.816406 29.039062 L 2.683594 29.027344 C 1.9375 28.972656 1.703125 28.789062 1.632812 28.6875 C 1.582031 28.617188 1.589844 28.5625 1.589844 28.546875 C 6.964844 16.894531 13.007812 7.621094 14.164062 5.878906 C 14.308594 5.65625 14.421875 5.417969 14.5 5.164062 C 14.519531 5.167969 14.539062 5.175781 14.558594 5.183594 L 8.917969 15.585938 C 8.878906 15.667969 5.03125 23.710938 4.21875 30.867188 L 4.207031 30.972656 L 6.15625 30.972656 C 6.25 31.011719 6.664062 31.171875 7.242188 31.171875 C 7.738281 31.171875 8.351562 31.054688 8.984375 30.640625 C 9.277344 30.449219 9.519531 30.253906 9.753906 30.066406 C 10.628906 29.367188 11.320312 28.816406 13.871094 29.125 C 14.378906 29.1875 14.855469 29.214844 15.300781 29.214844 C 17.71875 29.214844 19.199219 28.453125 19.214844 28.445312 L 19.234375 28.4375 L 19.238281 28.429688 C 19.566406 28.175781 19.722656 27.253906 19.714844 25.609375 C 19.710938 24.320312 19.601562 22.59375 19.398438 20.476562 C 19.074219 17.128906 18.605469 13.84375 18.535156 13.371094 C 18.78125 13.234375 19.023438 13.109375 19.25 13 L 19.53125 19.71875 C 19.53125 19.734375 19.53125 19.753906 19.53125 19.769531 C 19.523438 19.820312 19.511719 19.941406 19.585938 20.101562 C 19.617188 20.1875 19.660156 20.253906 19.714844 20.304688 C 19.921875 20.570312 20.351562 20.882812 21.207031 21.179688 L 22.132812 26.101562 C 22.136719 26.140625 22.144531 26.179688 22.15625 26.21875 C 22.222656 26.417969 22.390625 26.558594 22.597656 26.582031 C 23.460938 26.675781 24.730469 26.761719 25.867188 26.625 C 27.070312 26.480469 28.121094 26.671875 28.726562 26.832031 C 28.835938 27.320312 28.949219 27.800781 29.054688 28.265625 L 28.984375 28.277344 Z M 13.453125 2.023438 C 13.410156 1.945312 13.363281 1.867188 13.316406 1.789062 C 13.164062 1.542969 13.058594 1.285156 12.992188 1.019531 C 13.167969 1.183594 13.441406 1.40625 13.78125 1.574219 C 14.328125 1.851562 15.148438 2.035156 16.003906 1.386719 C 16.167969 1.59375 16.671875 2.355469 16.671875 3.933594 L 16.851562 3.933594 C 16.851562 2.355469 17.355469 1.59375 17.519531 1.386719 C 18.375 2.035156 19.195312 1.851562 19.742188 1.574219 C 20.074219 1.410156 20.34375 1.191406 20.515625 1.03125 C 20.453125 1.292969 20.34375 1.546875 20.199219 1.789062 C 20.152344 1.863281 20.105469 1.941406 20.058594 2.023438 C 19.546875 2.910156 19.195312 3.824219 19.09375 4.53125 C 19.078125 4.640625 19.054688 4.75 19.019531 4.855469 L 18.992188 4.867188 C 18.96875 4.875 16.628906 5.738281 14.511719 4.867188 L 14.496094 4.859375 C 14.460938 4.753906 14.4375 4.644531 14.421875 4.53125 C 14.316406 3.828125 13.964844 2.910156 13.453125 2.023438 Z M 21.167969 12.257812 C 21.328125 12.203125 21.457031 12.160156 21.554688 12.125 C 21.570312 12.117188 21.585938 12.113281 21.601562 12.105469 C 21.527344 12.636719 21.277344 14.15625 20.570312 15.988281 C 20.132812 17.136719 19.832031 18.039062 19.671875 18.71875 L 19.429688 12.914062 C 20.140625 12.589844 20.746094 12.394531 21.167969 12.257812 Z M 17.246094 13.988281 C 15.320312 15.394531 13.765625 17.378906 12.625 19.882812 C 12.558594 18.953125 12.40625 13.902344 15.925781 5.5 C 17.105469 5.621094 18.175781 5.394531 18.714844 5.242188 C 18.847656 5.542969 19.390625 6.726562 20.078125 7.828125 C 20.652344 8.742188 22 10.890625 21.734375 11.695312 C 21.691406 11.820312 21.613281 11.90625 21.492188 11.949219 C 21.398438 11.988281 21.273438 12.027344 21.113281 12.078125 C 20.324219 12.335938 18.859375 12.808594 17.246094 13.988281 Z M 19.066406 25.757812 C 18.128906 24.507812 14.050781 21.230469 12.820312 20.253906 C 12.777344 20.222656 12.742188 20.179688 12.710938 20.136719 C 14.335938 16.472656 16.535156 14.539062 18.367188 13.46875 C 18.460938 14.136719 18.90625 17.289062 19.214844 20.496094 C 19.515625 23.585938 19.570312 25.472656 19.511719 26.613281 C 19.429688 26.34375 19.289062 26.058594 19.066406 25.757812 Z M 15.734375 5.476562 C 12.222656 13.886719 12.375 18.960938 12.441406 19.894531 C 12.457031 20.09375 12.554688 20.277344 12.710938 20.402344 C 13.582031 21.09375 17.972656 24.605469 18.917969 25.871094 C 19.878906 27.15625 19.21875 28.152344 19.113281 28.289062 C 18.910156 28.390625 16.929688 29.308594 13.894531 28.941406 C 11.265625 28.625 10.550781 29.195312 9.640625 29.921875 C 9.410156 30.105469 9.171875 30.296875 8.882812 30.484375 C 7.53125 31.371094 6.222656 30.800781 6.210938 30.792969 L 6.191406 30.785156 L 4.414062 30.785156 C 5.246094 23.6875 9.046875 15.746094 9.082031 15.671875 L 14.730469 5.246094 C 15.066406 5.355469 15.40625 5.429688 15.734375 5.476562 Z M 22.304688 25.660156 C 22.285156 25.679688 22.265625 25.699219 22.246094 25.722656 L 21.40625 21.246094 C 21.847656 21.386719 22.390625 21.523438 23.058594 21.644531 C 23.789062 21.78125 24.214844 22.050781 24.328125 22.453125 C 24.59375 23.390625 23.175781 24.867188 22.304688 25.660156 Z M 21.785156 9.777344 C 23.214844 11.695312 27.300781 18.789062 28.042969 23.414062 C 28.210938 24.46875 28.441406 25.566406 28.679688 26.628906 C 28.046875 26.472656 27.015625 26.300781 25.847656 26.441406 C 24.726562 26.578125 23.472656 26.492188 22.617188 26.398438 C 22.480469 26.382812 22.371094 26.292969 22.332031 26.160156 L 22.328125 26.152344 L 22.316406 26.085938 C 22.304688 25.980469 22.34375 25.875 22.425781 25.800781 C 23.527344 24.792969 24.78125 23.386719 24.503906 22.402344 C 24.371094 21.925781 23.894531 21.613281 23.089844 21.464844 C 20.6875 21.023438 19.996094 20.425781 19.796875 20.109375 C 19.773438 20.066406 19.753906 20.03125 19.742188 19.996094 C 19.726562 19.941406 19.714844 19.875 19.710938 19.804688 L 19.710938 19.800781 L 19.714844 19.785156 L 19.710938 19.632812 C 19.734375 18.972656 20.082031 17.777344 20.742188 16.054688 C 21.566406 13.910156 21.777344 12.1875 21.804688 11.945312 C 21.847656 11.890625 21.882812 11.828125 21.90625 11.753906 C 22.164062 10.96875 21.203125 9.277344 20.230469 7.726562 C 19.566406 6.664062 19.039062 5.523438 18.890625 5.191406 C 18.9375 5.175781 18.972656 5.164062 19.003906 5.15625 C 19.0625 5.292969 19.132812 5.425781 19.210938 5.554688 C 19.648438 6.40625 20.648438 8.253906 21.785156 9.777344 Z M 31.46875 21.351562 L 30.203125 20.210938 C 30.09375 20.070312 28.226562 17.644531 27.421875 15.910156 C 26.59375 14.121094 23.21875 10.3125 23.054688 10.125 L 19.523438 5.675781 C 19.46875 5.605469 19.414062 5.535156 19.367188 5.457031 C 19.257812 5.246094 19.1875 5.097656 19.15625 5.035156 L 19.179688 4.953125 C 19.222656 4.824219 19.253906 4.695312 19.273438 4.558594 C 19.371094 3.875 19.714844 2.984375 20.214844 2.117188 C 20.261719 2.039062 20.308594 1.960938 20.351562 1.886719 C 20.550781 1.566406 20.679688 1.222656 20.738281 0.867188 C 20.757812 0.746094 20.769531 0.625 20.769531 0.511719 L 20.574219 0.710938 C 20.476562 0.816406 20.136719 1.171875 19.660156 1.410156 C 18.917969 1.785156 18.210938 1.710938 17.5625 1.1875 L 17.5 1.136719 L 17.445312 1.191406 C 17.417969 1.214844 16.960938 1.675781 16.761719 2.804688 C 16.5625 1.675781 16.105469 1.214844 16.078125 1.191406 L 16.023438 1.136719 L 15.960938 1.1875 C 15.316406 1.707031 14.609375 1.785156 13.867188 1.414062 C 13.371094 1.164062 13.019531 0.789062 12.9375 0.699219 L 12.742188 0.503906 C 12.746094 0.617188 12.753906 0.742188 12.777344 0.867188 C 12.835938 1.222656 12.964844 1.566406 13.160156 1.886719 C 13.207031 1.960938 13.253906 2.039062 13.296875 2.117188 C 13.796875 2.984375 14.140625 3.875 14.238281 4.558594 C 14.257812 4.695312 14.292969 4.828125 14.335938 4.960938 L 14.351562 5.019531 C 14.28125 5.289062 14.164062 5.542969 14.011719 5.773438 C 12.851562 7.519531 6.800781 16.808594 1.421875 28.476562 L 1.417969 28.488281 C 1.414062 28.503906 1.375 28.632812 1.476562 28.785156 C 1.621094 29.003906 1.980469 29.144531 2.539062 29.203125 L 2.171875 29.980469 C 2.066406 30.203125 2.113281 30.460938 2.292969 30.625 C 2.609375 30.921875 3.242188 31.292969 4.433594 31.371094 C 5.09375 31.417969 5.691406 31.585938 6.210938 31.867188 C 6.925781 32.261719 7.722656 32.410156 8.503906 32.296875 C 9.769531 32.113281 11.597656 32.042969 13.113281 32.753906 C 13.539062 32.953125 14.042969 33.050781 14.625 33.050781 C 15.234375 33.050781 15.929688 32.941406 16.707031 32.722656 C 17.949219 32.375 19.132812 31.820312 19.90625 31.417969 C 20.40625 31.15625 20.988281 31.074219 21.539062 31.179688 L 25.800781 32.003906 C 25.851562 32.015625 26.421875 32.152344 27.164062 32.046875 C 27.867188 31.941406 28.867188 31.589844 29.609375 30.484375 C 29.757812 30.261719 29.789062 29.980469 29.699219 29.730469 L 29.261719 28.511719 L 29.328125 28.414062 L 29.308594 28.402344 C 29.5625 28.332031 29.984375 28.167969 30.042969 27.84375 C 30.097656 27.554688 29.851562 27.242188 29.300781 26.890625 L 29.328125 26.828125 C 29.324219 26.824219 29.253906 26.796875 29.125 26.757812 C 29.113281 26.730469 29.097656 26.699219 29.09375 26.660156 C 29.074219 26.527344 29.15625 26.359375 29.324219 26.167969 C 29.527344 25.9375 30.246094 25.304688 31.410156 24.335938 C 31.847656 23.96875 32.105469 23.429688 32.117188 22.855469 C 32.128906 22.28125 31.890625 21.730469 31.46875 21.351562 " fill-opacity="1" fill-rule="nonzero"/></g></svg>