<svg xmlns="http://www.w3.org/2000/svg" xmlns:xlink="http://www.w3.org/1999/xlink" width="500" zoomAndPan="magnify" viewBox="0 0 375 374.999991" height="500" preserveAspectRatio="xMidYMid meet" version="1.0"><defs><clipPath id="2bdd6e57fd"><path d="M 30.1875 67 L 337.6875 67 L 337.6875 371.253906 L 30.1875 371.253906 Z M 30.1875 67 " clip-rule="nonzero"/></clipPath></defs><path fill="#ffffff" d="M 147.703125 18.34375 C 149.273438 15.964844 152.449219 15.324219 154.789062 16.859375 C 157.15625 18.40625 157.816406 21.574219 156.277344 23.9375 C 146.804688 38.417969 165.734375 52.78125 166.539062 53.382812 C 168.8125 55.070312 169.28125 58.273438 167.601562 60.535156 C 166.59375 61.890625 165.050781 62.601562 163.484375 62.601562 C 162.4375 62.601562 161.367188 62.28125 160.453125 61.597656 C 150.882812 54.53125 135.902344 36.390625 147.703125 18.34375 Z M 183.898438 86.019531 C 192.113281 81.734375 216.175781 68.054688 227.839844 49.410156 C 233.734375 39.972656 234.625 29.226562 230.285156 19.9375 C 226.660156 12.175781 220.023438 6.742188 212.957031 5.753906 C 198.328125 3.746094 189.804688 16.167969 189.445312 16.695312 C 188.214844 18.546875 186.125 19.675781 183.898438 19.675781 C 183.886719 19.675781 183.867188 19.675781 183.859375 19.675781 C 181.621094 19.660156 179.53125 18.539062 178.308594 16.660156 C 178 16.199219 170.714844 5.511719 158.066406 5.511719 C 157.027344 5.511719 155.945312 5.582031 154.835938 5.738281 C 147.761719 6.730469 141.125 12.171875 137.5 19.929688 C 133.164062 29.21875 134.0625 39.957031 139.957031 49.394531 C 151.609375 68.039062 175.683594 81.730469 183.898438 86.019531 " fill-opacity="1" fill-rule="nonzero"/><g clip-path="url(#2bdd6e57fd)"><path fill="#ffffff" d="M 317.140625 315.070312 C 317.140625 329.292969 263.992188 350.789062 183.898438 350.789062 C 103.800781 350.789062 50.65625 329.292969 50.65625 315.070312 L 50.65625 264.703125 C 50.726562 264.675781 50.8125 264.640625 50.882812 264.613281 C 52.214844 264.09375 53.359375 263.699219 54.316406 263.410156 C 54.511719 263.355469 54.683594 263.308594 54.863281 263.257812 C 55.621094 263.046875 56.273438 262.894531 56.796875 262.796875 C 56.90625 262.777344 57.050781 262.742188 57.148438 262.726562 C 57.683594 262.644531 58.074219 262.609375 58.351562 262.597656 C 58.453125 262.59375 58.546875 262.589844 58.621094 262.59375 C 58.726562 262.597656 58.835938 262.597656 58.863281 262.601562 C 58.886719 262.605469 58.9375 262.609375 58.9375 262.609375 C 58.96875 262.613281 58.988281 262.644531 59.011719 262.644531 C 62.382812 263.394531 64.863281 268.234375 68.246094 275.546875 C 72.390625 284.523438 78.066406 296.804688 91.660156 298.691406 C 103.910156 300.398438 114.125 292.597656 123.046875 285.699219 C 129.414062 280.773438 135.832031 275.703125 140.976562 276.019531 C 144.195312 276.242188 146.65625 279.03125 151.5 285.367188 C 157.875 293.675781 166.589844 305.050781 183.898438 305.050781 C 201.195312 305.050781 209.921875 293.675781 216.285156 285.371094 C 221.140625 279.039062 223.601562 276.242188 226.820312 276.019531 C 231.855469 275.742188 238.378906 280.773438 244.738281 285.695312 C 253.652344 292.585938 263.722656 300.386719 276.125 298.699219 C 289.707031 296.816406 295.394531 284.527344 299.539062 275.554688 C 302.949219 268.171875 305.445312 263.28125 308.867188 262.605469 C 308.878906 262.597656 309.035156 262.59375 309.140625 262.585938 C 309.230469 262.582031 309.351562 262.582031 309.496094 262.589844 C 309.765625 262.597656 310.140625 262.632812 310.621094 262.707031 C 310.753906 262.726562 310.933594 262.769531 311.082031 262.792969 C 311.613281 262.894531 312.253906 263.039062 313.019531 263.25 C 313.164062 263.289062 313.300781 263.324219 313.453125 263.367188 C 314.410156 263.648438 315.558594 264.042969 316.882812 264.558594 C 316.960938 264.589844 317.054688 264.628906 317.140625 264.660156 Z M 101.054688 158.757812 C 101.492188 158.65625 101.890625 158.441406 102.320312 158.320312 C 103.554688 157.976562 104.761719 157.570312 105.953125 157.078125 C 106.644531 156.792969 107.328125 156.515625 108.003906 156.1875 C 109.367188 155.535156 110.703125 154.820312 112.007812 154.039062 C 112.738281 153.597656 113.453125 153.132812 114.167969 152.664062 C 115.210938 151.980469 116.234375 151.292969 117.242188 150.570312 C 117.847656 150.136719 118.441406 149.710938 119.039062 149.269531 C 120.398438 148.253906 121.742188 147.230469 123.046875 146.222656 C 129.414062 141.300781 135.832031 136.175781 140.976562 136.542969 C 144.195312 136.765625 146.65625 139.558594 151.5 145.890625 C 157.875 154.199219 166.589844 165.574219 183.898438 165.574219 C 201.195312 165.574219 209.921875 154.199219 216.285156 145.894531 C 221.140625 139.5625 223.601562 136.765625 226.820312 136.542969 C 231.855469 136.214844 238.378906 141.300781 244.738281 146.21875 C 246.101562 147.277344 247.511719 148.347656 248.9375 149.410156 C 249.390625 149.75 249.839844 150.074219 250.304688 150.40625 C 251.691406 151.410156 253.101562 152.382812 254.550781 153.300781 C 254.769531 153.441406 254.976562 153.59375 255.195312 153.726562 C 256.78125 154.703125 258.417969 155.570312 260.085938 156.359375 C 260.539062 156.570312 260.992188 156.757812 261.453125 156.953125 C 262.945312 157.585938 264.472656 158.121094 266.039062 158.527344 C 266.277344 158.589844 266.492188 158.707031 266.734375 158.761719 L 266.742188 177.234375 C 265.585938 182.648438 238.351562 196.886719 183.898438 196.886719 C 129.433594 196.886719 102.199219 182.644531 101.054688 177.308594 Z M 287.199219 158.730469 L 287.199219 103.5 C 287.199219 84.765625 262.316406 73.015625 230.742188 67.40625 C 213.222656 86.929688 187.957031 98.902344 186.707031 99.484375 C 185.816406 99.902344 184.855469 100.105469 183.898438 100.105469 C 182.9375 100.105469 181.980469 99.902344 181.089844 99.484375 C 179.832031 98.902344 154.574219 86.925781 137.0625 67.40625 C 105.488281 73.011719 80.601562 84.761719 80.585938 103.5 L 80.585938 158.734375 C 50.53125 168.164062 30.191406 182.40625 30.191406 201.296875 L 30.191406 315.070312 C 30.191406 351.949219 107.519531 371.246094 183.898438 371.246094 C 260.277344 371.246094 337.605469 351.949219 337.605469 315.070312 L 337.605469 201.289062 C 337.597656 182.402344 317.253906 168.164062 287.199219 158.730469 " fill-opacity="1" fill-rule="nonzero"/></g></svg>