<svg xmlns="http://www.w3.org/2000/svg" xmlns:xlink="http://www.w3.org/1999/xlink" width="500" zoomAndPan="magnify" viewBox="0 0 375 374.999991" height="500" preserveAspectRatio="xMidYMid meet" version="1.0"><path fill="#ffffff" d="M 5.449219 186.953125 C 5.253906 168.335938 6.863281 155.707031 11.9375 154.601562 L 38.226562 151.195312 C 56.828125 142.628906 76.210938 131.976562 93.199219 127.695312 C 106.242188 125.105469 120.046875 123.523438 134.851562 123.269531 C 164.640625 123.742188 197.78125 121.714844 218.84375 128.71875 C 238.90625 137.960938 258.671875 147.796875 277.570312 159.367188 C 303.039062 161.101562 355.03125 168.167969 362.585938 176.394531 C 366.355469 181.441406 369.351562 186.871094 370.78125 193.082031 C 374.082031 194.445312 373.847656 199.332031 372.488281 205.34375 L 372.144531 217.601562 L 359.511719 222.710938 L 334.589844 225.777344 L 328.101562 227.480469 C 318.699219 249.484375 283.78125 246.753906 274.15625 226.457031 L 266.304688 227.820312 L 126.316406 226.457031 L 124.609375 228.839844 L 113.683594 228.5 C 106.351562 250.964844 64.484375 253.019531 58.03125 225.433594 L 52.566406 225.433594 L 36.179688 223.050781 L 11.253906 219.644531 C 4.460938 215.625 1.625 212.589844 1.011719 210.109375 L 2.71875 207.726562 L 1.351562 194.105469 C 2.273438 189.492188 3.113281 188.011719 5.449219 186.953125 Z M 156.722656 128.589844 C 141.695312 128.613281 127.007812 129.164062 113.789062 132.070312 L 116.867188 158.140625 L 163.269531 159.746094 C 165.175781 159.34375 167.15625 159.035156 166.78125 155.785156 L 161.945312 128.589844 Z M 111.574219 132.574219 C 102.679688 134.738281 94.488281 138.039062 87.386719 143.066406 C 84.574219 144.945312 83.542969 147.175781 83.65625 149.640625 C 84.960938 155.273438 88.292969 157.539062 93.117188 157.324219 L 114.65625 158.066406 Z M 172.066406 128.8125 L 181.964844 156.890625 C 183.210938 158.921875 185.027344 160.445312 188.34375 160.621094 L 236.511719 162.597656 C 229.644531 157.933594 235.292969 149.3125 242.230469 151.1875 C 229.214844 140.378906 215.082031 133.515625 199.78125 130.785156 C 190.804688 129.34375 181.449219 129.03125 172.066406 128.8125 Z M 12.566406 156.667969 C 8.609375 158.082031 7.648438 168.117188 7.488281 180.453125 L 20.402344 180.34375 C 20.898438 176.03125 20.992188 171.71875 20.457031 167.40625 C 19.1875 159.859375 15.648438 158.925781 12.566406 156.667969 Z M 98.320312 168.222656 L 110.546875 168.222656 C 111.519531 168.222656 112.300781 169.003906 112.300781 169.972656 C 112.300781 170.941406 111.519531 171.722656 110.546875 171.722656 L 98.320312 171.722656 C 97.347656 171.722656 96.5625 170.941406 96.5625 169.972656 C 96.5625 169.003906 97.347656 168.222656 98.320312 168.222656 Z M 182.644531 170.234375 L 194.871094 170.234375 C 195.84375 170.234375 196.625 171.015625 196.625 171.984375 C 196.625 172.953125 195.84375 173.734375 194.871094 173.734375 L 182.644531 173.734375 C 181.671875 173.734375 180.890625 172.953125 180.890625 171.984375 C 180.890625 171.015625 181.671875 170.234375 182.644531 170.234375 Z M 106.640625 217.191406 C 106.640625 228.34375 97.566406 237.398438 86.382812 237.398438 C 75.203125 237.398438 66.128906 228.34375 66.128906 217.191406 C 66.128906 206.039062 75.203125 196.988281 86.382812 196.988281 C 97.566406 196.988281 106.640625 206.039062 106.640625 217.191406 Z M 322.863281 214.632812 C 322.863281 225.785156 313.789062 234.835938 302.609375 234.835938 C 291.425781 234.835938 282.351562 225.785156 282.351562 214.632812 C 282.351562 203.480469 291.425781 194.425781 302.609375 194.425781 C 313.789062 194.425781 322.863281 203.480469 322.863281 214.632812 Z M 339.792969 190.222656 L 365.964844 190.390625 C 363.945312 186.046875 361.339844 182.203125 357.296875 179.050781 L 347.164062 179.835938 C 345.304688 180.117188 344.519531 180.933594 343.84375 181.800781 Z M 339.792969 190.222656 " fill-opacity="1" fill-rule="evenodd"/></svg>