<svg xmlns="http://www.w3.org/2000/svg" xmlns:xlink="http://www.w3.org/1999/xlink" width="500" zoomAndPan="magnify" viewBox="0 0 375 374.999991" height="500" preserveAspectRatio="xMidYMid meet" version="1.0"><defs><clipPath id="a99b481b11"><path d="M 2.261719 242 L 372.761719 242 L 372.761719 311.25 L 2.261719 311.25 Z M 2.261719 242 " clip-rule="nonzero"/></clipPath><clipPath id="8c71d3a271"><path d="M 145 37.5 L 230 37.5 L 230 84 L 145 84 Z M 145 37.5 " clip-rule="nonzero"/></clipPath></defs><g clip-path="url(#a99b481b11)"><path fill="#ffffff" d="M 36.773438 242.429688 L 338.46875 242.429688 C 347.800781 242.429688 356.484375 246.335938 362.777344 252.632812 C 368.855469 258.929688 372.761719 267.394531 372.761719 276.945312 C 372.761719 286.28125 368.855469 294.964844 362.777344 301.261719 C 356.484375 307.339844 347.800781 311.246094 338.46875 311.246094 L 36.773438 311.246094 C 27.222656 311.246094 18.542969 307.339844 12.464844 301.261719 C 6.167969 294.964844 2.261719 286.28125 2.261719 276.945312 C 2.261719 267.394531 6.167969 258.929688 12.464844 252.632812 C 18.542969 246.335938 27.222656 242.429688 36.773438 242.429688 Z M 36.773438 242.429688 " fill-opacity="1" fill-rule="nonzero"/></g><path fill="#ffffff" d="M 187.621094 96.984375 C 230.164062 96.984375 268.582031 114.351562 296.578125 142.136719 C 320.671875 166.234375 336.734375 198.144531 340.855469 233.964844 C 339.988281 233.964844 339.121094 233.746094 338.46875 233.746094 L 36.773438 233.746094 C 35.90625 233.746094 35.035156 233.964844 34.386719 233.964844 C 38.292969 198.144531 54.355469 166.234375 78.445312 142.136719 C 106.445312 114.351562 145.082031 96.984375 187.621094 96.984375 Z M 187.621094 96.984375 " fill-opacity="1" fill-rule="nonzero"/><g clip-path="url(#8c71d3a271)"><path fill="#ffffff" d="M 154.195312 37.503906 L 220.828125 37.503906 C 225.605469 37.503906 229.511719 41.410156 229.511719 46.1875 L 229.511719 75.277344 C 229.511719 80.050781 225.605469 83.960938 220.828125 83.960938 L 154.195312 83.960938 C 149.421875 83.960938 145.515625 80.050781 145.515625 75.277344 L 145.515625 46.1875 C 145.515625 41.410156 149.421875 37.503906 154.195312 37.503906 Z M 212.148438 54.871094 L 162.878906 54.871094 L 162.878906 66.59375 L 212.148438 66.59375 Z M 212.148438 54.871094 " fill-opacity="1" fill-rule="nonzero"/></g><path fill="#ffffff" d="M 178.941406 105.667969 C 178.941406 110.445312 182.847656 114.351562 187.621094 114.351562 C 192.398438 114.351562 196.304688 110.445312 196.304688 105.667969 L 196.304688 75.277344 C 196.304688 70.5 192.398438 66.59375 187.621094 66.59375 C 182.847656 66.59375 178.941406 70.5 178.941406 75.277344 Z M 178.941406 105.667969 " fill-opacity="1" fill-rule="nonzero"/></svg>