<svg xmlns="http://www.w3.org/2000/svg" xmlns:xlink="http://www.w3.org/1999/xlink" width="500" zoomAndPan="magnify" viewBox="0 0 375 374.999991" height="500" preserveAspectRatio="xMidYMid meet" version="1.0"><defs><clipPath id="cac01ce39e"><path d="M 34.109375 3.246094 L 340.859375 3.246094 L 340.859375 371.496094 L 34.109375 371.496094 Z M 34.109375 3.246094 " clip-rule="nonzero"/></clipPath></defs><g clip-path="url(#cac01ce39e)"><path fill="#ffffff" d="M 340.691406 217.304688 L 271.25 217.304688 C 272.941406 216.535156 274.328125 215.917969 274.945312 215.609375 C 285.105469 210.839844 300.042969 202.992188 312.667969 192.21875 C 330.53125 177.292969 339.613281 160.828125 339.613281 143.589844 C 339.613281 119.894531 323.136719 100.042969 301.273438 95.269531 L 329.296875 95.269531 L 329.296875 66.496094 L 277.714844 66.496094 L 277.714844 52.183594 L 334.996094 52.183594 L 334.996094 23.40625 L 277.714844 23.40625 L 277.714844 3.246094 L 249.074219 3.246094 L 249.074219 23.40625 L 191.796875 23.40625 L 191.796875 52.183594 L 249.074219 52.183594 L 249.074219 66.496094 L 197.492188 66.496094 L 197.492188 95.269531 L 225.515625 95.269531 C 205.347656 99.734375 189.792969 116.96875 187.484375 138.359375 C 185.175781 117.121094 169.621094 99.886719 149.453125 95.269531 L 177.476562 95.269531 L 177.476562 66.496094 L 125.894531 66.496094 L 125.894531 52.183594 L 183.171875 52.183594 L 183.171875 23.40625 L 125.894531 23.40625 L 125.894531 3.246094 L 97.253906 3.246094 L 97.253906 23.40625 L 39.972656 23.40625 L 39.972656 52.183594 L 97.253906 52.183594 L 97.253906 66.496094 L 45.671875 66.496094 L 45.671875 95.269531 L 73.695312 95.269531 C 51.832031 100.195312 35.355469 120.046875 35.355469 143.589844 C 35.355469 160.980469 44.4375 177.292969 62.300781 192.21875 C 75.082031 202.835938 89.863281 210.839844 100.023438 215.609375 C 100.640625 215.917969 102.027344 216.535156 103.71875 217.304688 L 34.277344 217.304688 L 34.277344 246.078125 L 73.695312 246.078125 C 51.832031 251.003906 35.355469 270.703125 35.355469 294.398438 C 35.355469 311.789062 44.4375 328.101562 62.300781 343.027344 C 75.082031 353.644531 89.863281 361.648438 100.023438 366.417969 C 101.71875 367.1875 111.574219 371.496094 111.574219 371.496094 C 111.574219 371.496094 121.429688 367.1875 123.121094 366.417969 C 133.285156 361.648438 148.21875 353.800781 160.847656 343.027344 C 177.015625 329.484375 185.789062 314.867188 187.484375 299.476562 C 189.023438 314.867188 197.953125 329.640625 214.121094 343.027344 C 226.902344 353.644531 241.683594 361.648438 251.847656 366.417969 C 253.539062 367.1875 263.394531 371.496094 263.394531 371.496094 C 263.394531 371.496094 273.25 367.1875 274.945312 366.417969 C 285.105469 361.648438 300.042969 353.800781 312.667969 343.027344 C 330.53125 328.101562 339.613281 311.636719 339.613281 294.398438 C 339.613281 270.703125 323.136719 250.851562 301.273438 246.078125 L 340.691406 246.078125 Z M 280.332031 95.269531 C 274.328125 96.65625 268.476562 99.117188 263.394531 102.65625 C 258.3125 99.117188 252.617188 96.503906 246.457031 95.269531 Z M 237.375 121.277344 C 256.003906 121.277344 263.394531 132.359375 263.394531 132.359375 C 263.394531 132.359375 270.785156 121.277344 289.417969 121.277344 C 300.964844 121.277344 311.4375 131.433594 311.4375 143.746094 C 311.4375 152.671875 305.894531 162.210938 294.804688 171.90625 C 284.488281 180.984375 272.019531 188.066406 263.394531 192.21875 C 254.773438 187.910156 242.300781 180.984375 231.984375 171.90625 C 220.898438 162.058594 215.355469 152.671875 215.355469 143.746094 C 215.199219 131.28125 225.824219 121.277344 237.375 121.277344 Z M 128.511719 95.269531 C 122.507812 96.65625 116.65625 99.117188 111.574219 102.65625 C 106.492188 99.117188 100.796875 96.503906 94.636719 95.269531 Z M 80.164062 171.90625 C 69.074219 162.058594 63.53125 152.671875 63.53125 143.746094 C 63.53125 131.28125 74.003906 121.277344 85.550781 121.277344 C 104.183594 121.277344 111.574219 132.359375 111.574219 132.359375 C 111.574219 132.359375 118.964844 121.277344 137.597656 121.277344 C 149.144531 121.277344 159.613281 131.433594 159.613281 143.746094 C 159.613281 152.671875 154.070312 162.210938 142.984375 171.90625 C 132.667969 180.984375 120.195312 188.066406 111.574219 192.21875 C 102.949219 188.066406 90.480469 181.140625 80.164062 171.90625 Z M 123.121094 215.609375 C 133.285156 210.839844 148.21875 202.992188 160.847656 192.21875 C 177.015625 178.675781 185.789062 164.058594 187.484375 148.667969 C 189.023438 164.058594 197.953125 178.832031 214.121094 192.21875 C 226.902344 202.835938 241.683594 210.839844 251.847656 215.609375 C 252.460938 215.917969 253.847656 216.535156 255.542969 217.304688 L 119.425781 217.304688 C 121.121094 216.535156 122.507812 215.917969 123.121094 215.609375 Z M 280.332031 246.078125 C 274.328125 247.464844 268.476562 249.925781 263.394531 253.464844 C 258.3125 249.925781 252.617188 247.3125 246.457031 246.078125 Z M 128.511719 246.078125 C 122.507812 247.464844 116.65625 249.925781 111.574219 253.464844 C 106.492188 249.925781 100.796875 247.3125 94.636719 246.078125 Z M 142.984375 322.714844 C 132.667969 331.792969 120.195312 338.875 111.574219 343.027344 C 102.949219 338.71875 90.480469 331.792969 80.164062 322.714844 C 69.074219 312.867188 63.53125 303.324219 63.53125 294.398438 C 63.53125 281.933594 74.003906 271.933594 85.550781 271.933594 C 104.183594 271.933594 111.574219 283.011719 111.574219 283.011719 C 111.574219 283.011719 118.964844 271.933594 137.597656 271.933594 C 149.144531 271.933594 159.613281 282.089844 159.613281 294.398438 C 159.769531 303.324219 154.070312 312.867188 142.984375 322.714844 Z M 187.484375 289.015625 C 185.175781 267.777344 169.621094 250.542969 149.453125 245.925781 L 225.515625 245.925781 C 205.347656 250.542969 189.792969 267.777344 187.484375 289.015625 Z M 311.4375 294.398438 C 311.4375 303.324219 305.894531 312.867188 294.808594 322.5625 C 284.488281 331.640625 272.019531 338.71875 263.394531 342.875 C 254.773438 338.566406 242.300781 331.640625 231.984375 322.5625 C 220.898438 312.710938 215.355469 303.324219 215.355469 294.398438 C 215.355469 281.933594 225.824219 271.933594 237.375 271.933594 C 256.003906 271.933594 263.394531 283.011719 263.394531 283.011719 C 263.394531 283.011719 270.785156 271.933594 289.417969 271.933594 C 300.964844 271.933594 311.4375 282.089844 311.4375 294.398438 Z M 311.4375 294.398438 " fill-opacity="1" fill-rule="nonzero"/></g></svg>