<svg xmlns="http://www.w3.org/2000/svg" xmlns:xlink="http://www.w3.org/1999/xlink" width="500" zoomAndPan="magnify" viewBox="0 0 375 374.999991" height="500" preserveAspectRatio="xMidYMid meet" version="1.0"><defs><clipPath id="bb72e520d1"><path d="M 4.527344 35.5625 L 342 35.5625 L 342 279 L 4.527344 279 Z M 4.527344 35.5625 " clip-rule="nonzero"/></clipPath><clipPath id="c06e98bd9a"><path d="M 14 244 L 108 244 L 108 337.8125 L 14 337.8125 Z M 14 244 " clip-rule="nonzero"/></clipPath><clipPath id="82f175369a"><path d="M 281 244 L 375 244 L 375 337.8125 L 281 337.8125 Z M 281 244 " clip-rule="nonzero"/></clipPath></defs><g clip-path="url(#bb72e520d1)"><path fill="#ffffff" d="M 338.992188 235.15625 C 340.5 235.101562 341.695312 233.847656 341.695312 232.3125 L 341.695312 204.164062 C 341.695312 202.941406 340.925781 201.859375 339.761719 201.460938 L 309.652344 191.355469 L 256.59375 56.878906 L 262.335938 56.878906 C 263.902344 56.878906 265.179688 55.628906 265.179688 54.035156 L 265.179688 38.410156 C 265.179688 36.84375 263.902344 35.5625 262.335938 35.5625 L 84.175781 35.5625 C 82.609375 35.5625 81.332031 36.84375 81.332031 38.410156 L 81.332031 54.035156 C 81.332031 55.628906 82.609375 56.878906 84.175781 56.878906 L 87.898438 56.878906 L 73.339844 130.507812 C 72.203125 137.992188 75.785156 142.289062 78.0625 144.226562 L 76.554688 155.609375 L 64.753906 155.609375 L 73.882812 86.765625 C 73.882812 86.765625 73.882812 86.734375 73.882812 86.707031 L 75.558594 73.957031 C 75.730469 72.589844 74.933594 71.308594 73.625 70.882812 C 54.460938 64.507812 50.109375 67.609375 48.691406 68.632812 C 47.351562 69.574219 45.503906 71.765625 45.136719 79.421875 C 44.992188 81.753906 45.789062 84.003906 47.382812 85.738281 C 48.945312 87.503906 51.105469 88.5 53.4375 88.585938 L 67.824219 89.097656 L 59.039062 155.609375 L 49.371094 155.609375 L 54.347656 117.984375 C 54.375 117.8125 54.40625 117.613281 54.40625 117.414062 L 56.082031 104.921875 C 56.28125 103.585938 55.457031 102.273438 54.175781 101.847656 C 41.410156 97.605469 33.023438 96.867188 29.210938 99.597656 C 27.875 100.539062 26.085938 102.671875 25.628906 110.414062 C 25.515625 112.75 26.3125 114.996094 27.875 116.734375 C 29.441406 118.46875 31.601562 119.464844 33.988281 119.578125 L 48.320312 120.0625 L 43.628906 155.609375 L 34.757812 155.609375 C 33.195312 155.609375 31.914062 156.890625 31.914062 158.457031 L 31.914062 212.132812 C 27.164062 213.726562 23.980469 214.921875 23.582031 215.0625 C 22.957031 215.292969 22.445312 215.71875 22.132812 216.289062 L 7.289062 242.101562 C 7.089844 242.441406 6.976562 242.785156 6.921875 243.152344 L 4.84375 259.320312 C 4.675781 260.65625 5.472656 261.9375 6.75 262.394531 C 7.320312 262.5625 10.277344 263.445312 12.949219 262.308594 C 13.632812 261.996094 14 261.625 15.367188 260.171875 C 32.253906 242.386719 49.171875 234.246094 65.691406 236.011719 C 83.605469 237.890625 100.496094 251.636719 115.90625 276.824219 C 116.417969 277.648438 117.328125 278.160156 118.324219 278.160156 L 271.039062 278.160156 C 272.289062 278.160156 273.371094 277.363281 273.738281 276.167969 C 273.882812 275.769531 286.390625 237.632812 338.992188 235.15625 Z M 263.246094 175.417969 C 262.507812 175.132812 261.65625 175.21875 260.945312 175.589844 C 260.234375 175.988281 259.722656 176.640625 259.550781 177.4375 L 255.515625 194.230469 L 202.515625 148.550781 L 213.234375 135.347656 L 208.824219 131.761719 L 183.578125 162.894531 L 187.984375 166.480469 L 198.929688 152.992188 L 254.0625 200.433594 L 247.070312 229.578125 C 246.726562 231 247.523438 232.425781 248.890625 232.910156 L 265.4375 238.742188 L 259.578125 258.410156 L 188.636719 258.496094 L 188.636719 193.035156 C 188.636719 192.097656 188.183594 191.242188 187.445312 190.703125 C 169.984375 178.320312 123.242188 191.667969 121.28125 192.238281 C 120.085938 192.578125 119.261719 193.632812 119.234375 194.855469 L 118.691406 206.410156 L 116.789062 178.207031 L 131.0625 161.8125 C 131.375 161.472656 131.574219 161.074219 131.6875 160.617188 C 135.78125 143.742188 130.75 120.601562 125.800781 119.351562 C 125.601562 119.292969 125.347656 119.265625 125.117188 119.265625 L 110.164062 119.265625 C 109.367188 119.265625 108.628906 119.605469 108.085938 120.175781 C 107.546875 120.746094 107.261719 121.542969 107.320312 122.3125 L 113.203125 209.171875 L 75.984375 203.820312 L 83.945312 143.285156 C 84.089844 142.148438 83.492188 141.007812 82.496094 140.441406 C 82.042969 140.15625 78.03125 137.652344 78.972656 131.476562 L 93.726562 56.878906 L 250.480469 56.878906 L 302.597656 188.992188 L 285.054688 183.101562 L 285.027344 183.101562 L 284.574219 182.960938 Z M 263.246094 175.417969 " fill-opacity="1" fill-rule="nonzero"/></g><g clip-path="url(#c06e98bd9a)"><path fill="#ffffff" d="M 60.914062 244.578125 C 35.210938 244.578125 14.3125 265.496094 14.3125 291.222656 C 14.3125 316.921875 35.210938 337.84375 60.914062 337.84375 C 86.589844 337.84375 107.488281 316.921875 107.488281 291.222656 C 107.488281 265.46875 86.589844 244.578125 60.914062 244.578125 Z M 60.914062 316.496094 C 46.984375 316.496094 35.636719 305.140625 35.636719 291.195312 C 35.636719 277.25 46.984375 265.894531 60.914062 265.894531 C 74.847656 265.894531 86.191406 277.25 86.191406 291.195312 C 86.191406 305.167969 74.847656 316.496094 60.914062 316.496094 Z M 60.914062 316.496094 " fill-opacity="1" fill-rule="nonzero"/></g><path fill="#ffffff" d="M 60.914062 280.976562 C 55.371094 280.976562 50.679688 285.675781 50.679688 291.222656 C 50.679688 296.773438 55.371094 301.46875 60.914062 301.46875 C 66.460938 301.46875 71.152344 296.773438 71.152344 291.222656 C 71.152344 285.675781 66.460938 280.976562 60.914062 280.976562 Z M 60.914062 280.976562 " fill-opacity="1" fill-rule="nonzero"/><path fill="#ffffff" d="M 327.875 280.976562 C 322.332031 280.976562 317.640625 285.675781 317.640625 291.222656 C 317.640625 296.773438 322.332031 301.46875 327.875 301.46875 C 333.421875 301.46875 338.085938 296.773438 338.085938 291.222656 C 338.085938 285.675781 333.421875 280.976562 327.875 280.976562 Z M 327.875 280.976562 " fill-opacity="1" fill-rule="nonzero"/><g clip-path="url(#82f175369a)"><path fill="#ffffff" d="M 327.875 244.578125 C 302.171875 244.578125 281.273438 265.496094 281.273438 291.222656 C 281.273438 316.921875 302.171875 337.84375 327.875 337.84375 C 353.550781 337.84375 374.449219 316.921875 374.449219 291.222656 C 374.449219 265.46875 353.550781 244.578125 327.875 244.578125 Z M 327.875 316.496094 C 313.914062 316.496094 302.597656 305.140625 302.597656 291.195312 C 302.597656 277.25 313.914062 265.894531 327.875 265.894531 C 341.808594 265.894531 353.152344 277.25 353.152344 291.195312 C 353.152344 305.167969 341.808594 316.496094 327.875 316.496094 Z M 327.875 316.496094 " fill-opacity="1" fill-rule="nonzero"/></g></svg>