<svg xmlns="http://www.w3.org/2000/svg" xmlns:xlink="http://www.w3.org/1999/xlink" width="500" zoomAndPan="magnify" viewBox="0 0 375 374.999991" height="500" preserveAspectRatio="xMidYMid meet" version="1.0"><defs><clipPath id="ac4e8f11ea"><path d="M 133.425781 1.625 L 241.425781 1.625 L 241.425781 373.625 L 133.425781 373.625 Z M 133.425781 1.625 " clip-rule="nonzero"/></clipPath></defs><g clip-path="url(#ac4e8f11ea)"><path fill="#000000" d="M 187.921875 1.972656 C 158.210938 1.671875 133.855469 25.585938 133.554688 55.351562 C 133.542969 56.53125 133.675781 57.660156 133.738281 58.820312 C 160.605469 66.902344 222.261719 67.523438 240.921875 60.371094 C 241.03125 59.0625 241.183594 57.78125 241.195312 56.449219 C 241.496094 26.679688 217.632812 2.277344 187.921875 1.972656 Z M 240.101562 66.578125 C 214.832031 77.011719 165.023438 72.316406 134.828125 67.214844 C 137.40625 79.269531 143.984375 89.835938 153.132812 97.421875 C 153.167969 97.425781 153.191406 97.503906 153.226562 97.511719 C 163.441406 99.214844 175.992188 100.238281 187.011719 100.339844 C 198.105469 100.441406 210.507812 99.804688 220.796875 98.058594 C 230.53125 90.316406 237.554688 79.277344 240.105469 66.578125 Z M 153.132812 103.351562 C 157.507812 170.027344 163.167969 282.660156 167.703125 349.082031 C 167.664062 353.089844 176.390625 356.453125 187.101562 356.5625 C 197.808594 356.671875 206.457031 353.542969 206.496094 349.539062 C 212.074219 282.953125 215.246094 170.425781 220.703125 103.808594 C 220.675781 103.8125 220.640625 103.800781 220.613281 103.808594 L 220.523438 103.988281 C 216.714844 104.5 212.734375 104.929688 208.683594 105.265625 C 208.625 105.273438 208.558594 105.261719 208.5 105.265625 C 201.480469 105.820312 194.21875 106.074219 186.644531 105.996094 C 179.1875 105.921875 171.972656 105.492188 165.0625 104.8125 C 165.035156 104.800781 164.996094 104.824219 164.972656 104.8125 C 160.910156 104.398438 156.972656 103.941406 153.132812 103.351562 Z M 173.804688 357.839844 L 173.988281 366.511719 C 174.054688 370.429688 177.269531 373.558594 181.183594 373.535156 L 194.023438 373.445312 C 197.933594 373.425781 201.007812 370.335938 200.941406 366.417969 L 200.761719 358.113281 C 192.371094 361.230469 182.367188 360.910156 173.804688 357.839844 Z M 173.804688 357.839844 " fill-opacity="1" fill-rule="nonzero"/></g></svg>