<svg xmlns="http://www.w3.org/2000/svg" xmlns:xlink="http://www.w3.org/1999/xlink" width="500" zoomAndPan="magnify" viewBox="0 0 375 374.999991" height="500" preserveAspectRatio="xMidYMid meet" version="1.0"><path fill="#000000" d="M 187.605469 371.777344 C 185.382812 371.777344 183.578125 369.976562 183.578125 367.757812 L 183.578125 47.21875 C 183.578125 44.996094 185.382812 43.199219 187.605469 43.199219 C 189.828125 43.199219 191.628906 44.996094 191.628906 47.21875 L 191.628906 367.757812 C 191.628906 369.976562 189.828125 371.777344 187.605469 371.777344 Z M 187.605469 371.777344 " fill-opacity="1" fill-rule="nonzero"/><path fill="#000000" d="M 245.808594 169.222656 C 245.808594 169.222656 256.089844 223.335938 238.375 282.136719 C 220.65625 340.941406 190.128906 375.054688 187.804688 374.355469 C 185.484375 373.660156 173.839844 332.480469 193.003906 268.863281 C 212.175781 205.238281 245.808594 169.222656 245.808594 169.222656 Z M 245.808594 169.222656 " fill-opacity="1" fill-rule="nonzero"/><path fill="#000000" d="M 129.429688 169.222656 C 129.429688 169.222656 119.152344 223.335938 136.867188 282.136719 C 154.582031 340.941406 185.113281 375.054688 187.433594 374.355469 C 189.757812 373.660156 201.402344 332.480469 182.234375 268.863281 C 163.066406 205.242188 129.429688 169.222656 129.429688 169.222656 Z M 129.429688 169.222656 " fill-opacity="1" fill-rule="nonzero"/><path fill="#040606" d="M 247.34375 1.558594 C 247.359375 1.542969 247.519531 1.523438 247.535156 1.503906 C 223.058594 0.015625 187.605469 1.484375 187.605469 27.457031 C 187.605469 85.046875 187.605469 116.964844 187.605469 117.203125 C 187.605469 118.199219 203.636719 116.371094 204.378906 116.222656 C 217.433594 113.59375 226.800781 106.707031 231.796875 96.839844 C 247.523438 65.777344 223.613281 31.476562 247.34375 1.558594 Z M 247.34375 1.558594 " fill-opacity="1" fill-rule="nonzero"/><path fill="#100f0d" d="M 127.296875 1.558594 C 127.28125 1.542969 127.40625 1.523438 127.390625 1.503906 C 151.867188 0.015625 187.605469 1.484375 187.605469 27.453125 C 187.605469 85.042969 187.605469 116.960938 187.605469 117.203125 C 187.605469 118.199219 171.289062 116.371094 170.542969 116.222656 C 157.488281 113.59375 147.976562 106.707031 142.984375 96.839844 C 127.257812 65.777344 151.023438 31.476562 127.296875 1.558594 Z M 127.296875 1.558594 " fill-opacity="1" fill-rule="nonzero"/></svg>