<svg xmlns="http://www.w3.org/2000/svg" xmlns:xlink="http://www.w3.org/1999/xlink" width="500" zoomAndPan="magnify" viewBox="0 0 375 374.999991" height="500" preserveAspectRatio="xMidYMid meet" version="1.0"><defs><clipPath id="8228d7df10"><path d="M 110 136 L 265 136 L 265 372.761719 L 110 372.761719 Z M 110 136 " clip-rule="nonzero"/></clipPath><clipPath id="bfe6eb690b"><path d="M 72.421875 2.261719 L 302.671875 2.261719 L 302.671875 150 L 72.421875 150 Z M 72.421875 2.261719 " clip-rule="nonzero"/></clipPath><clipPath id="9325b7e07d"><path d="M 144 262 L 265 262 L 265 372.761719 L 144 372.761719 Z M 144 262 " clip-rule="nonzero"/></clipPath></defs><g clip-path="url(#8228d7df10)"><path fill="#ffffff" d="M 174.765625 136.410156 L 200.328125 136.410156 L 200.328125 181.125 C 200.328125 197.492188 206.839844 213.1875 218.398438 224.742188 L 246.152344 252.488281 C 257.710938 264.042969 264.226562 279.738281 264.226562 296.109375 C 264.226562 312.476562 257.710938 328.171875 246.152344 339.726562 L 213.105469 372.761719 L 161.988281 372.761719 L 128.9375 339.726562 C 117.382812 328.171875 110.867188 312.476562 110.867188 296.109375 C 110.867188 279.738281 117.382812 264.042969 128.9375 252.488281 L 156.695312 224.742188 C 168.25 213.1875 174.765625 197.492188 174.765625 181.125 L 174.765625 136.410156 " fill-opacity="1" fill-rule="nonzero"/></g><path fill="#ffffff" d="M 104.476562 206.675781 C 100.957031 206.675781 98.085938 203.808594 98.085938 200.289062 L 98.085938 149.183594 C 98.085938 145.667969 100.957031 142.796875 104.476562 142.796875 C 107.996094 142.796875 110.867188 145.667969 110.867188 149.183594 L 110.867188 200.289062 C 110.867188 203.808594 107.996094 206.675781 104.476562 206.675781 " fill-opacity="1" fill-rule="nonzero"/><g clip-path="url(#bfe6eb690b)"><path fill="#ffffff" d="M 110.867188 2.261719 L 72.527344 149.183594 L 302.566406 149.183594 L 264.226562 2.261719 L 110.867188 2.261719 " fill-opacity="1" fill-rule="nonzero"/></g><g clip-path="url(#9325b7e07d)"><path fill="#ffffff" d="M 144.839844 355.621094 L 161.988281 372.761719 L 213.105469 372.761719 L 246.152344 339.726562 C 257.710938 328.171875 264.226562 312.476562 264.226562 296.109375 C 264.226562 283.929688 260.605469 272.128906 254.015625 262.121094 C 225.285156 301 187.945312 333.0625 144.839844 355.621094 " fill-opacity="1" fill-rule="nonzero"/></g></svg>