<svg xmlns="http://www.w3.org/2000/svg" xmlns:xlink="http://www.w3.org/1999/xlink" width="500" zoomAndPan="magnify" viewBox="0 0 375 374.999991" height="500" preserveAspectRatio="xMidYMid meet" version="1.0"><defs><clipPath id="1c88705f46"><path d="M 93.75 0 L 169 0 L 169 151 L 93.75 151 Z M 93.75 0 " clip-rule="nonzero"/></clipPath><clipPath id="3f1d2b1d41"><path d="M 93.75 168 L 169 168 L 169 375 L 93.75 375 Z M 93.75 168 " clip-rule="nonzero"/></clipPath><clipPath id="6eb3a24937"><path d="M 206 217 L 281.082031 217 L 281.082031 375 L 206 375 Z M 206 217 " clip-rule="nonzero"/></clipPath></defs><g clip-path="url(#1c88705f46)"><path fill="#040606" d="M 150.113281 0 L 112.394531 0 C 108.5 0 104.769531 1.5 102.007812 4.195312 C 99.242188 6.890625 97.613281 10.585938 97.511719 14.449219 L 93.75 150.011719 L 168.757812 150.011719 L 164.996094 14.449219 C 164.863281 10.585938 163.261719 6.890625 160.5 4.195312 C 157.703125 1.5 154.007812 0 150.113281 0 " fill-opacity="1" fill-rule="nonzero"/></g><g clip-path="url(#3f1d2b1d41)"><path fill="#040606" d="M 110.996094 207.410156 C 110.996094 203.148438 114.457031 199.683594 118.71875 199.683594 C 122.980469 199.683594 126.410156 203.148438 126.410156 207.410156 L 126.410156 335.914062 C 126.410156 340.175781 122.980469 343.640625 118.71875 343.640625 C 114.457031 343.640625 110.996094 340.175781 110.996094 335.914062 Z M 93.882812 367.277344 C 93.882812 369.339844 94.714844 371.304688 96.148438 372.734375 C 97.613281 374.199219 99.574219 375 101.605469 375 L 160.867188 375 C 162.929688 375 164.894531 374.199219 166.328125 372.734375 C 167.792969 371.304688 168.589844 369.339844 168.589844 367.277344 L 168.589844 168.324219 L 93.882812 168.324219 L 93.882812 367.277344 " fill-opacity="1" fill-rule="nonzero"/></g><g clip-path="url(#6eb3a24937)"><path fill="#040606" d="M 275.722656 225.019531 L 257.414062 225.019531 L 257.414062 219.394531 C 257.414062 218.828125 257.214844 218.296875 256.8125 217.894531 C 256.414062 217.496094 255.847656 217.261719 255.316406 217.261719 L 232.210938 217.261719 C 231.046875 217.261719 230.082031 218.226562 230.082031 219.394531 L 230.082031 225.019531 L 211.804688 225.019531 C 210.339844 225.019531 208.941406 225.585938 207.941406 226.652344 C 206.910156 227.683594 206.375 229.082031 206.410156 230.546875 L 210.003906 360.550781 C 210.136719 364.414062 211.738281 368.074219 214.5 370.773438 C 217.296875 373.5 220.992188 375 224.886719 375 L 262.640625 375 C 266.5 375 270.230469 373.5 272.992188 370.773438 C 275.757812 368.074219 277.386719 364.414062 277.488281 360.550781 L 281.082031 230.546875 C 281.148438 229.082031 280.585938 227.683594 279.585938 226.652344 C 278.554688 225.585938 277.1875 225.019531 275.722656 225.019531 " fill-opacity="1" fill-rule="nonzero"/></g><path fill="#040606" d="M 254.183594 63.386719 L 251.488281 63.386719 L 251.488281 34.058594 C 251.453125 29.230469 250.023438 24.503906 247.324219 20.472656 L 244.429688 16.011719 C 244.261719 15.78125 244.03125 15.679688 243.761719 15.679688 C 243.496094 15.679688 243.265625 15.78125 243.097656 16.011719 L 240.167969 20.472656 C 237.503906 24.503906 236.039062 29.230469 236.007812 34.058594 L 236.007812 63.386719 L 233.34375 63.386719 L 233.34375 200.582031 L 254.183594 200.582031 L 254.183594 63.386719 " fill-opacity="1" fill-rule="nonzero"/></svg>