<svg xmlns="http://www.w3.org/2000/svg" xmlns:xlink="http://www.w3.org/1999/xlink" width="500" zoomAndPan="magnify" viewBox="0 0 375 374.999991" height="500" preserveAspectRatio="xMidYMid meet" version="1.0"><defs><clipPath id="b7706c5766"><path d="M 13.722656 1.75 L 357.972656 1.75 L 357.972656 373 L 13.722656 373 Z M 13.722656 1.75 " clip-rule="nonzero"/></clipPath></defs><path fill="#000000" d="M 155.523438 64.324219 C 159.847656 64.324219 162.320312 60.214844 162.320312 54.722656 C 162.320312 49.652344 159.886719 45.292969 155.480469 45.292969 C 151.15625 45.292969 148.640625 49.402344 148.640625 54.890625 C 148.640625 60.429688 151.242188 64.324219 155.523438 64.324219 " fill-opacity="1" fill-rule="nonzero"/><g clip-path="url(#b7706c5766)"><path fill="#000000" d="M 280.214844 128.046875 C 280.214844 135.910156 273.804688 142.308594 265.933594 142.308594 L 239.585938 142.308594 C 231.710938 142.308594 225.304688 135.910156 225.304688 128.046875 L 225.304688 101.722656 C 225.304688 93.859375 231.710938 87.460938 239.585938 87.460938 L 265.933594 87.460938 C 273.804688 87.460938 280.214844 93.859375 280.214844 101.722656 Z M 280.214844 197.476562 C 280.214844 205.339844 273.804688 211.738281 265.933594 211.738281 L 239.585938 211.738281 C 231.710938 211.738281 225.304688 205.339844 225.304688 197.476562 L 225.304688 171.152344 C 225.304688 163.289062 231.710938 156.890625 239.585938 156.890625 L 265.933594 156.890625 C 273.804688 156.890625 280.214844 163.289062 280.214844 171.152344 Z M 280.214844 266.910156 C 280.214844 274.777344 273.804688 281.171875 265.933594 281.171875 L 239.585938 281.171875 C 231.710938 281.171875 225.304688 274.777344 225.304688 266.910156 L 225.304688 240.585938 C 225.304688 232.722656 231.710938 226.324219 239.585938 226.324219 L 265.933594 226.324219 C 273.804688 226.324219 280.214844 232.722656 280.214844 240.585938 Z M 221.136719 351.625 C 219.984375 351.582031 218.832031 351.542969 217.679688 351.507812 C 209.359375 351.230469 200.941406 351.058594 192.496094 350.992188 L 192.496094 305.613281 L 212.035156 305.613281 C 217.054688 305.613281 221.136719 309.222656 221.136719 313.65625 Z M 172.605469 281.171875 C 164.734375 281.171875 158.328125 274.777344 158.328125 266.910156 L 158.328125 240.585938 C 158.328125 232.722656 164.734375 226.324219 172.605469 226.324219 L 198.957031 226.324219 C 206.832031 226.324219 213.234375 232.722656 213.234375 240.585938 L 213.234375 266.910156 C 213.234375 274.777344 206.832031 281.171875 198.957031 281.171875 Z M 179.066406 350.988281 C 170.625 351.046875 162.203125 351.203125 153.886719 351.472656 C 152.730469 351.507812 151.578125 351.546875 150.425781 351.59375 L 150.425781 313.65625 C 150.425781 309.222656 154.511719 305.613281 159.53125 305.613281 L 179.066406 305.613281 Z M 146.257812 128.046875 C 146.257812 135.910156 139.851562 142.308594 131.980469 142.308594 L 105.628906 142.308594 C 97.753906 142.308594 91.351562 135.910156 91.351562 128.046875 L 91.351562 101.722656 C 91.351562 93.859375 97.753906 87.460938 105.628906 87.460938 L 131.980469 87.460938 C 139.851562 87.460938 146.257812 93.859375 146.257812 101.722656 Z M 146.257812 197.476562 C 146.257812 205.339844 139.851562 211.738281 131.980469 211.738281 L 105.628906 211.738281 C 97.753906 211.738281 91.351562 205.339844 91.351562 197.476562 L 91.351562 171.152344 C 91.351562 163.289062 97.753906 156.890625 105.628906 156.890625 L 131.980469 156.890625 C 139.851562 156.890625 146.257812 163.289062 146.257812 171.152344 Z M 146.257812 266.910156 C 146.257812 274.777344 139.851562 281.171875 131.980469 281.171875 L 105.628906 281.171875 C 97.753906 281.171875 91.351562 274.777344 91.351562 266.910156 L 91.351562 240.585938 C 91.351562 232.722656 97.753906 226.324219 105.628906 226.324219 L 131.980469 226.324219 C 139.851562 226.324219 146.257812 232.722656 146.257812 240.585938 Z M 103.351562 40.679688 L 109.773438 40.679688 L 109.773438 51.539062 L 120.308594 51.539062 L 120.308594 40.679688 L 126.6875 40.679688 L 126.6875 68.9375 L 120.308594 68.9375 L 120.308594 57.113281 L 109.773438 57.113281 L 109.773438 68.9375 L 103.351562 68.9375 Z M 155.648438 40.21875 C 164.335938 40.21875 169.082031 46.71875 169.082031 54.515625 C 169.082031 63.78125 163.457031 69.398438 155.1875 69.398438 C 146.792969 69.398438 141.882812 63.066406 141.882812 55.019531 C 141.882812 46.550781 147.296875 40.21875 155.648438 40.21875 Z M 213.234375 171.152344 L 213.234375 197.476562 C 213.234375 205.339844 206.832031 211.738281 198.957031 211.738281 L 172.605469 211.738281 C 164.734375 211.738281 158.328125 205.339844 158.328125 197.476562 L 158.328125 171.152344 C 158.328125 163.289062 164.734375 156.890625 172.605469 156.890625 L 198.957031 156.890625 C 206.832031 156.890625 213.234375 163.289062 213.234375 171.152344 Z M 198.957031 87.460938 C 206.832031 87.460938 213.234375 93.859375 213.234375 101.722656 L 213.234375 128.046875 C 213.234375 135.910156 206.832031 142.308594 198.957031 142.308594 L 172.605469 142.308594 C 164.734375 142.308594 158.328125 135.910156 158.328125 128.046875 L 158.328125 101.722656 C 158.328125 93.859375 164.734375 87.460938 172.605469 87.460938 Z M 180.875 40.679688 L 202.617188 40.679688 L 202.617188 46.046875 L 194.894531 46.046875 L 194.894531 68.9375 L 188.472656 68.9375 L 188.472656 46.046875 L 180.875 46.046875 Z M 216.925781 40.679688 L 234.390625 40.679688 L 234.390625 45.917969 L 223.351562 45.917969 L 223.351562 51.789062 L 233.757812 51.789062 L 233.757812 56.988281 L 223.351562 56.988281 L 223.351562 63.699219 L 234.976562 63.699219 L 234.976562 68.9375 L 216.925781 68.9375 Z M 250.253906 40.679688 L 256.675781 40.679688 L 256.675781 63.570312 L 267.925781 63.570312 L 267.925781 68.9375 L 250.253906 68.9375 Z M 357.058594 369.75 L 356.777344 369.667969 C 356.777344 369.667969 356.441406 369.574219 355.796875 369.386719 C 355.148438 369.203125 354.1875 368.910156 352.9375 368.585938 C 351.683594 368.25 350.136719 367.839844 348.324219 367.40625 C 347.417969 367.183594 346.4375 366.941406 345.398438 366.6875 C 344.359375 366.449219 343.25 366.195312 342.082031 365.929688 C 339.742188 365.375 337.15625 364.847656 334.335938 364.257812 C 331.519531 363.640625 328.472656 363.109375 325.214844 362.476562 C 324.476562 362.335938 323.722656 362.195312 322.960938 362.050781 C 322.992188 361.71875 323.011719 361.390625 323.011719 361.050781 L 323.011719 30.777344 C 323.011719 14.238281 311.472656 1.761719 296.171875 1.761719 L 75.390625 1.761719 C 60.09375 1.761719 48.554688 14.238281 48.554688 30.777344 L 48.554688 361.050781 C 48.554688 361.375 48.570312 361.695312 48.597656 362.015625 C 47.839844 362.148438 47.085938 362.289062 46.347656 362.4375 C 39.835938 363.660156 34.160156 364.832031 29.484375 365.90625 C 28.3125 366.175781 27.207031 366.433594 26.167969 366.671875 C 25.125 366.925781 24.148438 367.167969 23.242188 367.390625 C 21.425781 367.832031 19.882812 368.242188 18.628906 368.582031 C 17.378906 368.90625 16.417969 369.203125 15.769531 369.386719 C 15.121094 369.570312 14.789062 369.667969 14.789062 369.667969 L 14.5 369.75 C 14.054688 369.882812 13.726562 370.289062 13.722656 370.773438 C 13.710938 371.375 14.191406 371.863281 14.789062 371.871094 C 14.789062 371.871094 20.132812 371.9375 29.484375 372.054688 C 34.160156 372.113281 39.835938 372.1875 46.347656 372.265625 C 49.605469 372.308594 53.070312 372.351562 56.722656 372.398438 C 60.375 372.425781 64.21875 372.460938 68.222656 372.488281 C 76.238281 372.546875 84.921875 372.605469 94.105469 372.671875 C 103.292969 372.738281 112.976562 372.820312 122.996094 372.824219 C 143.035156 372.871094 164.410156 372.921875 185.78125 372.972656 C 207.15625 372.921875 228.53125 372.871094 248.570312 372.824219 C 258.589844 372.820312 268.273438 372.730469 277.457031 372.671875 C 286.640625 372.605469 295.324219 372.542969 303.339844 372.488281 C 307.351562 372.457031 311.191406 372.425781 314.84375 372.394531 C 318.496094 372.351562 321.957031 372.308594 325.214844 372.265625 C 331.726562 372.183594 337.40625 372.113281 342.082031 372.054688 C 351.433594 371.9375 356.777344 371.871094 356.777344 371.871094 C 357.242188 371.863281 357.664062 371.558594 357.800781 371.085938 C 357.96875 370.515625 357.636719 369.917969 357.058594 369.75 " fill-opacity="1" fill-rule="nonzero"/></g></svg>