<svg xmlns="http://www.w3.org/2000/svg" xmlns:xlink="http://www.w3.org/1999/xlink" width="500" zoomAndPan="magnify" viewBox="0 0 375 374.999991" height="500" preserveAspectRatio="xMidYMid meet" version="1.0"><defs><clipPath id="577afc0fc6"><path d="M 4.039062 4.039062 L 370.789062 4.039062 L 370.789062 370.789062 L 4.039062 370.789062 Z M 4.039062 4.039062 " clip-rule="nonzero"/></clipPath></defs><g clip-path="url(#577afc0fc6)"><path fill="#ffffff" d="M 293.429688 317.230469 C 293.429688 320.257812 292.226562 323.1875 290.074219 325.304688 C 287.925781 327.453125 284.996094 328.691406 281.96875 328.691406 L 92.863281 328.691406 C 89.835938 328.691406 86.90625 327.453125 84.757812 325.304688 C 82.605469 323.1875 81.402344 320.257812 81.402344 317.230469 L 81.402344 259.925781 C 81.402344 252.210938 83.84375 244.6875 88.402344 238.4375 C 92.929688 232.183594 99.277344 227.527344 106.601562 225.121094 L 106.601562 187.414062 C 106.601562 179.828125 109.632812 172.535156 115.003906 167.164062 C 120.375 161.792969 127.667969 158.761719 135.253906 158.761719 L 239.445312 158.761719 C 247.066406 158.761719 254.324219 161.792969 259.699219 167.164062 C 265.070312 172.535156 268.097656 179.828125 268.097656 187.414062 L 268.097656 225.28125 C 275.425781 227.722656 281.804688 232.378906 286.332031 238.632812 C 290.855469 244.851562 293.300781 252.371094 293.300781 260.089844 Z M 323.449219 139.585938 L 323.449219 33.867188 C 323.449219 30.804688 322.246094 27.90625 320.097656 25.757812 C 317.945312 23.609375 315.015625 22.40625 311.988281 22.40625 L 245.46875 22.40625 C 242.410156 22.40625 239.511719 23.609375 237.363281 25.757812 C 235.214844 27.90625 234.007812 30.804688 234.007812 33.867188 L 234.007812 47.214844 L 195.652344 7.558594 C 193.503906 5.3125 190.542969 4.039062 187.414062 4.039062 C 184.289062 4.039062 181.328125 5.3125 179.179688 7.558594 L 7.265625 185.167969 C 5.179688 187.351562 4.007812 190.28125 4.039062 193.277344 C 4.074219 196.304688 5.3125 199.167969 7.460938 201.285156 C 9.609375 203.433594 12.507812 204.605469 15.5 204.605469 L 44.152344 204.605469 L 44.152344 359.328125 C 44.152344 362.359375 45.359375 365.289062 47.507812 367.4375 C 49.65625 369.585938 52.585938 370.789062 55.613281 370.789062 L 319.214844 370.789062 C 322.246094 370.789062 325.175781 369.585938 327.292969 367.4375 C 329.441406 365.289062 330.675781 362.359375 330.675781 359.328125 L 330.675781 204.605469 L 359.328125 204.605469 C 362.324219 204.605469 365.253906 203.433594 367.40625 201.285156 C 369.519531 199.167969 370.757812 196.304688 370.789062 193.277344 C 370.824219 190.28125 369.652344 187.351562 367.566406 185.167969 L 323.449219 139.585938 " fill-opacity="1" fill-rule="nonzero"/></g><path fill="#ffffff" d="M 256.769531 246.511719 C 253.121094 246.511719 249.636719 247.976562 247.066406 250.546875 C 244.460938 253.121094 242.996094 256.605469 242.996094 260.25 L 242.996094 271.0625 C 242.996094 274.121094 241.789062 277.050781 239.640625 279.199219 C 237.492188 281.351562 234.5625 282.523438 231.535156 282.523438 L 143.296875 282.523438 C 140.269531 282.523438 137.339844 281.351562 135.191406 279.199219 C 133.042969 277.050781 131.835938 274.121094 131.835938 271.0625 L 131.835938 260.25 C 131.835938 255.335938 129.199219 250.777344 124.96875 248.335938 C 120.703125 245.894531 115.460938 245.894531 111.195312 248.335938 C 106.960938 250.777344 104.324219 255.335938 104.324219 260.25 L 104.324219 306.09375 L 270.507812 306.09375 L 270.507812 260.25 C 270.507812 256.605469 269.042969 253.121094 266.46875 250.546875 C 263.867188 247.976562 260.414062 246.511719 256.769531 246.511719 " fill-opacity="1" fill-rule="nonzero"/><path fill="#ffffff" d="M 134.246094 227.527344 L 134.996094 227.855469 C 136.429688 228.636719 137.796875 229.449219 139.097656 230.394531 L 139.976562 231.011719 C 141.277344 232.023438 142.550781 233.097656 143.753906 234.238281 C 144.894531 235.410156 145.96875 236.613281 146.976562 237.882812 L 147.660156 238.761719 L 147.628906 238.761719 C 148.605469 240.066406 149.484375 241.433594 150.234375 242.898438 C 150.363281 243.125 150.527344 243.386719 150.625 243.613281 C 151.308594 244.980469 151.894531 246.347656 152.414062 247.75 L 152.738281 248.5625 C 153.261719 250.15625 153.683594 251.753906 154.011719 253.382812 L 154.011719 254.457031 C 154.304688 256.179688 154.464844 257.941406 154.53125 259.664062 L 220.074219 259.664062 C 220.136719 257.941406 220.300781 256.179688 220.59375 254.457031 L 220.59375 253.382812 C 220.917969 251.753906 221.34375 250.15625 221.863281 248.5625 L 222.191406 247.75 C 222.679688 246.347656 223.296875 244.980469 223.980469 243.613281 C 224.078125 243.386719 224.207031 243.125 224.371094 242.898438 C 225.121094 241.433594 226 240.066406 226.941406 238.761719 L 227.660156 237.882812 C 228.636719 236.613281 229.710938 235.410156 230.851562 234.238281 C 232.023438 233.097656 233.324219 232.023438 234.628906 231.011719 L 235.507812 230.394531 C 236.808594 229.449219 238.175781 228.636719 239.609375 227.855469 L 240.359375 227.527344 C 241.726562 226.84375 243.09375 226.257812 244.523438 225.738281 L 245.046875 225.738281 L 245.046875 187.414062 C 245.046875 185.917969 244.460938 184.453125 243.386719 183.378906 C 242.3125 182.304688 240.847656 181.683594 239.316406 181.683594 L 135.386719 181.683594 C 132.226562 181.683594 129.65625 184.257812 129.65625 187.414062 L 129.65625 225.25 L 130.175781 225.25 C 131.578125 225.902344 132.945312 226.683594 134.246094 227.527344 " fill-opacity="1" fill-rule="nonzero"/></svg>