<svg xmlns="http://www.w3.org/2000/svg" xmlns:xlink="http://www.w3.org/1999/xlink" width="500" zoomAndPan="magnify" viewBox="0 0 375 374.999991" height="500" preserveAspectRatio="xMidYMid meet" version="1.0"><defs><clipPath id="ec56ca9cdb"><path d="M 60.9375 118 L 314.4375 118 L 314.4375 375 L 60.9375 375 Z M 60.9375 118 " clip-rule="nonzero"/></clipPath></defs><g clip-path="url(#ec56ca9cdb)"><path fill="#ffffff" d="M 242.253906 133.792969 C 233.71875 129.15625 228.570312 122.800781 225.632812 118.003906 L 204.242188 141.144531 C 226.9375 144.589844 247.894531 155.019531 264.429688 171.53125 C 284.917969 191.988281 296.199219 219.191406 296.199219 248.121094 C 296.199219 277.050781 284.914062 304.25 264.429688 324.707031 C 243.941406 345.164062 216.703125 356.429688 187.730469 356.429688 C 158.753906 356.429688 131.515625 345.164062 111.027344 324.707031 C 90.539062 304.25 79.257812 277.050781 79.257812 248.117188 C 79.257812 219.1875 90.539062 191.984375 111.027344 171.53125 C 127.554688 155.027344 148.5 144.597656 171.183594 141.144531 L 149.808594 118.027344 C 146.867188 122.820312 141.71875 129.164062 133.203125 133.792969 C 90.46875 154.148438 60.9375 197.691406 60.9375 248.117188 C 60.9375 318.039062 117.703125 374.722656 187.730469 374.722656 C 257.753906 374.722656 314.519531 318.039062 314.519531 248.117188 C 314.519531 197.691406 284.988281 154.148438 242.253906 133.792969 Z M 242.253906 133.792969 " fill-opacity="1" fill-rule="nonzero"/></g><path fill="#ffffff" d="M 94.964844 35.230469 C 95.085938 41.832031 98.332031 49.210938 108.964844 49.210938 C 98.332031 49.210938 95.085938 56.585938 94.964844 63.191406 C 94.839844 56.585938 91.59375 49.210938 80.960938 49.210938 C 91.59375 49.210938 94.839844 41.832031 94.964844 35.230469 Z M 94.964844 35.230469 " fill-opacity="1" fill-rule="nonzero"/><path fill="#ffffff" d="M 128.574219 94.414062 C 128.664062 99.367188 131.097656 104.898438 139.074219 104.898438 C 131.097656 104.898438 128.664062 110.433594 128.574219 115.382812 C 128.480469 110.433594 126.046875 104.898438 118.070312 104.898438 C 126.046875 104.898438 128.484375 99.367188 128.574219 94.414062 Z M 128.574219 94.414062 " fill-opacity="1" fill-rule="nonzero"/><path fill="#ffffff" d="M 135.746094 0.277344 C 135.851562 6.054688 138.691406 12.511719 147.996094 12.511719 C 138.691406 12.511719 135.851562 18.964844 135.746094 24.742188 C 135.636719 18.964844 132.796875 12.511719 123.492188 12.511719 C 132.796875 12.511719 135.636719 6.054688 135.746094 0.277344 Z M 135.746094 0.277344 " fill-opacity="1" fill-rule="nonzero"/><path fill="#ffffff" d="M 280.496094 35.230469 C 280.375 41.832031 277.128906 49.210938 266.496094 49.210938 C 277.128906 49.210938 280.375 56.585938 280.496094 63.191406 C 280.617188 56.585938 283.867188 49.210938 294.496094 49.210938 C 283.867188 49.210938 280.617188 41.832031 280.496094 35.230469 Z M 280.496094 35.230469 " fill-opacity="1" fill-rule="nonzero"/><path fill="#ffffff" d="M 246.886719 94.414062 C 246.792969 99.367188 244.359375 104.898438 236.386719 104.898438 C 244.359375 104.898438 246.796875 110.433594 246.886719 115.382812 C 246.976562 110.433594 249.410156 104.898438 257.386719 104.898438 C 249.414062 104.898438 246.976562 99.367188 246.886719 94.414062 Z M 246.886719 94.414062 " fill-opacity="1" fill-rule="nonzero"/><path fill="#ffffff" d="M 239.714844 0.277344 C 239.605469 6.054688 236.765625 12.511719 227.460938 12.511719 C 236.765625 12.511719 239.605469 18.964844 239.714844 24.742188 C 239.820312 18.964844 242.660156 12.511719 251.964844 12.511719 C 242.660156 12.511719 239.820312 6.054688 239.714844 0.277344 Z M 239.714844 0.277344 " fill-opacity="1" fill-rule="nonzero"/><path fill="#ffffff" d="M 112.972656 63.351562 L 182.46875 140.777344 L 145.582031 63.351562 Z M 112.972656 63.351562 " fill-opacity="1" fill-rule="nonzero"/><path fill="#ffffff" d="M 193.046875 140.714844 L 262.488281 63.351562 L 229.886719 63.351562 Z M 193.046875 140.714844 " fill-opacity="1" fill-rule="nonzero"/><path fill="#ffffff" d="M 184.183594 58.5 L 167.691406 32.089844 L 150.453125 58.5 Z M 184.183594 58.5 " fill-opacity="1" fill-rule="nonzero"/><path fill="#ffffff" d="M 225.003906 58.5 L 207.761719 32.089844 L 191.269531 58.5 Z M 225.003906 58.5 " fill-opacity="1" fill-rule="nonzero"/><path fill="#ffffff" d="M 129.753906 30.136719 L 112.972656 58.5 L 143.269531 58.5 Z M 129.753906 30.136719 " fill-opacity="1" fill-rule="nonzero"/><path fill="#ffffff" d="M 262.488281 58.5 L 245.703125 30.136719 L 232.195312 58.5 Z M 262.488281 58.5 " fill-opacity="1" fill-rule="nonzero"/><path fill="#ffffff" d="M 163.339844 30.136719 L 134.953125 30.136719 L 146.929688 55.277344 Z M 163.339844 30.136719 " fill-opacity="1" fill-rule="nonzero"/><path fill="#ffffff" d="M 203.429688 30.136719 L 172.027344 30.136719 L 187.730469 55.285156 Z M 203.429688 30.136719 " fill-opacity="1" fill-rule="nonzero"/><path fill="#ffffff" d="M 240.511719 30.136719 L 212.117188 30.136719 L 228.53125 55.289062 Z M 240.511719 30.136719 " fill-opacity="1" fill-rule="nonzero"/><path fill="#ffffff" d="M 190.160156 63.351562 L 190.160156 135.878906 L 224.691406 63.351562 Z M 190.160156 63.351562 " fill-opacity="1" fill-rule="nonzero"/><path fill="#ffffff" d="M 185.296875 63.351562 L 150.777344 63.351562 L 185.296875 135.8125 Z M 185.296875 63.351562 " fill-opacity="1" fill-rule="nonzero"/></svg>