<svg xmlns="http://www.w3.org/2000/svg" xmlns:xlink="http://www.w3.org/1999/xlink" width="500" zoomAndPan="magnify" viewBox="0 0 375 374.999991" height="500" preserveAspectRatio="xMidYMid meet" version="1.0"><defs><clipPath id="14794a8c5c"><path d="M 84.140625 0 L 291.140625 0 L 291.140625 375 L 84.140625 375 Z M 84.140625 0 " clip-rule="nonzero"/></clipPath></defs><path fill="#100f0d" d="M 240.558594 151.679688 L 151.5 151.679688 L 149.378906 140.640625 C 147.898438 132.945312 141.132812 127.363281 133.285156 127.363281 L 121.546875 127.363281 C 119.566406 127.363281 117.957031 128.96875 117.957031 130.949219 C 117.957031 132.925781 119.566406 134.535156 121.546875 134.535156 L 133.285156 134.535156 C 137.695312 134.535156 141.496094 137.671875 142.328125 141.992188 L 155.523438 210.574219 C 151.085938 212.566406 147.984375 217.023438 147.984375 222.1875 C 147.984375 229.203125 153.703125 234.914062 160.730469 234.914062 L 229.476562 234.914062 C 231.457031 234.914062 233.066406 233.308594 233.066406 231.328125 C 233.066406 229.347656 231.457031 227.746094 229.476562 227.746094 L 160.730469 227.746094 C 157.664062 227.746094 155.167969 225.25 155.167969 222.1875 C 155.167969 219.125 157.664062 216.628906 160.730469 216.628906 L 229.476562 216.628906 C 229.59375 216.628906 229.710938 216.625 229.820312 216.613281 L 229.945312 216.597656 C 230.011719 216.589844 230.085938 216.578125 230.15625 216.566406 L 230.296875 216.535156 C 230.359375 216.519531 230.417969 216.503906 230.476562 216.484375 L 230.628906 216.441406 C 230.683594 216.421875 230.738281 216.398438 230.789062 216.378906 L 230.9375 216.316406 L 231.09375 216.242188 L 231.230469 216.175781 C 231.285156 216.144531 231.339844 216.109375 231.390625 216.074219 L 231.503906 216.003906 C 231.578125 215.953125 231.652344 215.898438 231.71875 215.84375 L 231.761719 215.808594 C 231.847656 215.742188 231.925781 215.667969 232.003906 215.589844 L 232.074219 215.519531 C 232.125 215.464844 232.175781 215.410156 232.226562 215.351562 L 232.300781 215.253906 C 232.34375 215.199219 232.382812 215.148438 232.421875 215.089844 L 232.5 214.976562 L 232.597656 214.816406 L 232.667969 214.6875 L 232.742188 214.527344 L 232.808594 214.378906 L 232.867188 214.222656 L 232.917969 214.0625 L 232.960938 213.902344 C 232.972656 213.847656 232.988281 213.792969 233 213.738281 L 233.003906 213.71875 L 244.082031 155.9375 C 244.285156 154.886719 244.007812 153.804688 243.324219 152.980469 C 242.640625 152.15625 241.628906 151.679688 240.558594 151.679688 " fill-opacity="1" fill-rule="nonzero"/><path fill="#100f0d" d="M 171.320312 237.960938 C 167.257812 237.960938 163.960938 241.25 163.960938 245.3125 C 163.960938 249.371094 167.257812 252.660156 171.320312 252.660156 C 175.386719 252.660156 178.679688 249.371094 178.679688 245.3125 C 178.679688 241.25 175.386719 237.960938 171.320312 237.960938 " fill-opacity="1" fill-rule="nonzero"/><path fill="#100f0d" d="M 215.476562 237.960938 C 211.410156 237.960938 208.117188 241.25 208.117188 245.3125 C 208.117188 249.371094 211.410156 252.660156 215.476562 252.660156 C 219.542969 252.660156 222.835938 249.371094 222.835938 245.3125 C 222.835938 241.25 219.542969 237.960938 215.476562 237.960938 " fill-opacity="1" fill-rule="nonzero"/><g clip-path="url(#14794a8c5c)"><path fill="#100f0d" d="M 278.347656 336.15625 C 278.347656 339.4375 275.679688 342.101562 272.394531 342.101562 L 102.886719 342.101562 C 99.601562 342.101562 96.929688 339.4375 96.929688 336.15625 L 96.929688 39.855469 C 96.929688 36.574219 99.601562 33.910156 102.886719 33.910156 L 272.394531 33.910156 C 275.679688 33.910156 278.347656 36.574219 278.347656 39.855469 Z M 152.546875 13.410156 L 222.734375 13.410156 C 225.535156 13.410156 227.800781 15.675781 227.800781 18.472656 C 227.800781 21.265625 225.535156 23.535156 222.734375 23.535156 L 152.546875 23.535156 C 149.746094 23.535156 147.480469 21.265625 147.480469 18.472656 C 147.480469 15.675781 149.746094 13.410156 152.546875 13.410156 Z M 272.394531 0 L 102.886719 0 C 92.597656 0 84.261719 8.328125 84.261719 18.597656 L 84.261719 356.402344 C 84.261719 366.671875 92.597656 375 102.886719 375 L 272.394531 375 C 282.679688 375 291.019531 366.671875 291.019531 356.402344 L 291.019531 18.597656 C 291.019531 8.328125 282.679688 0 272.394531 0 " fill-opacity="1" fill-rule="nonzero"/></g></svg>