<svg xmlns="http://www.w3.org/2000/svg" xmlns:xlink="http://www.w3.org/1999/xlink" width="45" zoomAndPan="magnify" viewBox="0 0 33.75 33.749999" height="45" preserveAspectRatio="xMidYMid meet" version="1.0"><defs><clipPath id="49732893fa"><path d="M 0 0.273438 L 33.5 0.273438 L 33.5 33.273438 L 0 33.273438 Z M 0 0.273438 " clip-rule="nonzero"/></clipPath></defs><path fill="#eba1a1" d="M 29.589844 18.660156 L 28.023438 20.21875 C 27.808594 20.433594 27.808594 20.785156 28.023438 21 C 28.136719 21.101562 28.273438 21.15625 28.417969 21.15625 C 28.5625 21.15625 28.699219 21.101562 28.808594 21 L 30.375 19.441406 C 30.59375 19.226562 30.59375 18.875 30.375 18.660156 C 30.160156 18.445312 29.804688 18.445312 29.589844 18.660156 Z M 29.589844 18.660156 " fill-opacity="1" fill-rule="nonzero"/><path fill="#eba1a1" d="M 22.546875 15.554688 C 22.757812 15.757812 23.035156 15.871094 23.332031 15.871094 C 23.625 15.871094 23.90625 15.757812 24.113281 15.554688 L 24.898438 14.773438 C 25.328125 14.34375 25.328125 13.644531 24.898438 13.214844 L 24.113281 12.441406 C 23.699219 12.023438 22.96875 12.023438 22.546875 12.441406 L 21.765625 13.214844 C 21.335938 13.644531 21.335938 14.34375 21.765625 14.773438 Z M 23.332031 13.214844 L 24.113281 13.996094 L 23.332031 14.773438 L 22.546875 13.996094 Z M 23.332031 13.214844 " fill-opacity="1" fill-rule="nonzero"/><path fill="#eba1a1" d="M 22.257812 19.507812 C 21.714844 19.457031 21.183594 19.835938 21.050781 20.382812 C 20.96875 20.730469 21.058594 21.070312 21.296875 21.304688 C 21.058594 21.070312 20.714844 20.980469 20.367188 21.0625 C 19.820312 21.195312 19.4375 21.722656 19.488281 22.261719 C 19.554688 22.894531 20.105469 23.324219 20.753906 23.238281 L 22.9375 22.941406 L 23.238281 20.765625 C 23.328125 20.125 22.894531 19.574219 22.257812 19.507812 Z M 22.257812 19.507812 " fill-opacity="1" fill-rule="nonzero"/><path fill="#eba1a1" d="M 19.421875 28.773438 L 18.632812 29.550781 C 18.417969 29.765625 18.417969 30.117188 18.632812 30.332031 C 18.746094 30.4375 18.882812 30.492188 19.027344 30.492188 C 19.171875 30.492188 19.308594 30.4375 19.421875 30.332031 L 20.199219 29.550781 C 20.417969 29.335938 20.417969 28.988281 20.199219 28.773438 C 19.984375 28.5625 19.636719 28.5625 19.421875 28.773438 Z M 19.421875 28.773438 " fill-opacity="1" fill-rule="nonzero"/><path fill="#eba1a1" d="M 17.855469 17.886719 C 15.914062 19.816406 15.914062 22.957031 17.855469 24.886719 C 18.824219 25.847656 20.101562 26.332031 21.375 26.332031 C 22.652344 26.332031 23.925781 25.847656 24.898438 24.886719 C 25.867188 23.925781 26.351562 22.652344 26.351562 21.382812 C 26.351562 20.117188 25.867188 18.851562 24.898438 17.886719 C 22.957031 15.953125 19.796875 15.953125 17.855469 17.886719 Z M 24.113281 24.105469 C 22.601562 25.605469 20.144531 25.605469 18.632812 24.105469 C 17.125 22.605469 17.125 20.164062 18.632812 18.660156 C 19.394531 17.914062 20.382812 17.539062 21.375 17.539062 C 22.371094 17.539062 23.359375 17.914062 24.113281 18.660156 C 25.621094 20.164062 25.621094 22.605469 24.113281 24.105469 Z M 24.113281 24.105469 " fill-opacity="1" fill-rule="nonzero"/><g clip-path="url(#49732893fa)"><path fill="#eba1a1" d="M 25.484375 10.300781 C 25.191406 10.007812 24.847656 9.800781 24.484375 9.667969 L 24.484375 1.925781 C 24.484375 1.015625 23.734375 0.273438 22.824219 0.273438 L 1.796875 0.273438 C 0.882812 0.273438 0.136719 1.015625 0.136719 1.925781 L 0.136719 28.324219 C 0.136719 29.230469 0.882812 29.972656 1.796875 29.972656 L 14.753906 29.972656 L 17.269531 32.472656 C 17.804688 33.003906 18.511719 33.273438 19.222656 33.273438 C 19.929688 33.273438 20.636719 33.003906 21.179688 32.472656 L 32.527344 21.191406 C 33.605469 20.117188 33.605469 18.375 32.527344 17.300781 Z M 4.5625 17.875 L 4.5625 18.972656 L 3.457031 18.972656 L 3.457031 3.574219 L 21.164062 3.574219 L 21.164062 10.707031 L 15.773438 16.066406 C 15.675781 15.992188 15.570312 15.933594 15.457031 15.878906 C 15.914062 15.386719 16.183594 14.738281 16.183594 14.023438 C 16.183594 12.507812 14.945312 11.273438 13.417969 11.273438 C 11.890625 11.273438 10.648438 12.507812 10.648438 14.023438 C 10.648438 14.738281 10.925781 15.394531 11.378906 15.882812 C 11.097656 16.007812 10.847656 16.191406 10.648438 16.421875 C 10.449219 16.191406 10.203125 16.007812 9.917969 15.882812 C 10.375 15.394531 10.648438 14.738281 10.648438 14.023438 C 10.648438 12.507812 9.410156 11.273438 7.882812 11.273438 C 6.355469 11.273438 5.117188 12.507812 5.117188 14.023438 C 5.117188 14.738281 5.394531 15.394531 5.847656 15.882812 C 5.089844 16.230469 4.5625 16.988281 4.5625 17.875 Z M 13.417969 15.675781 C 12.503906 15.675781 11.757812 14.933594 11.757812 14.023438 C 11.757812 13.117188 12.503906 12.375 13.417969 12.375 C 14.328125 12.375 15.078125 13.117188 15.078125 14.023438 C 15.078125 14.933594 14.328125 15.675781 13.417969 15.675781 Z M 14.964844 16.867188 L 13.164062 18.667969 L 12.769531 18.277344 C 12.441406 17.953125 12.023438 17.792969 11.589844 17.792969 L 11.203125 17.835938 C 11.226562 17.246094 11.710938 16.773438 12.308594 16.773438 L 14.523438 16.773438 C 14.679688 16.773438 14.828125 16.808594 14.964844 16.867188 Z M 9.542969 14.023438 C 9.542969 14.933594 8.796875 15.675781 7.882812 15.675781 C 6.96875 15.675781 6.222656 14.933594 6.222656 14.023438 C 6.222656 13.117188 6.96875 12.375 7.882812 12.375 C 8.796875 12.375 9.542969 13.117188 9.542969 14.023438 Z M 10.097656 18.59375 L 9.714844 18.972656 L 5.671875 18.972656 L 5.671875 17.875 C 5.671875 17.269531 6.167969 16.773438 6.777344 16.773438 L 8.988281 16.773438 C 9.597656 16.773438 10.097656 17.269531 10.097656 17.875 Z M 10.257812 20.21875 C 10.257812 20.070312 10.316406 19.929688 10.417969 19.828125 L 11.203125 19.050781 C 11.417969 18.835938 11.769531 18.835938 11.984375 19.050781 L 12.375 19.441406 L 10.8125 21 L 10.417969 20.609375 C 10.316406 20.503906 10.257812 20.367188 10.257812 20.21875 Z M 31.742188 20.414062 L 20.398438 31.691406 C 19.746094 32.332031 18.695312 32.332031 18.046875 31.691406 L 15.105469 28.765625 L 11.003906 24.6875 C 10.363281 24.046875 10.363281 23 11.003906 22.355469 L 11.175781 22.1875 C 11.1875 22.179688 11.191406 22.175781 11.203125 22.164062 L 13.550781 19.828125 L 22.351562 11.078125 C 22.679688 10.757812 23.101562 10.597656 23.527344 10.597656 C 23.953125 10.597656 24.378906 10.757812 24.699219 11.078125 L 31.742188 18.078125 C 32.390625 18.722656 32.390625 19.773438 31.742188 20.414062 Z M 31.742188 20.414062 " fill-opacity="1" fill-rule="nonzero"/></g><path fill="#eba1a1" d="M 13.15625 22.550781 L 12.375 23.332031 C 12.160156 23.542969 12.160156 23.890625 12.375 24.105469 C 12.480469 24.214844 12.625 24.269531 12.769531 24.269531 C 12.90625 24.269531 13.050781 24.214844 13.15625 24.105469 L 13.941406 23.332031 C 14.15625 23.117188 14.15625 22.769531 13.941406 22.550781 C 13.726562 22.335938 13.371094 22.335938 13.15625 22.550781 Z M 13.15625 22.550781 " fill-opacity="1" fill-rule="nonzero"/><path fill="#eba1a1" d="M 8.453125 7.851562 L 10.648438 9.625 L 12.847656 7.851562 C 13.496094 7.332031 13.605469 6.40625 13.101562 5.753906 C 12.664062 5.191406 11.855469 5.058594 11.257812 5.445312 C 10.878906 5.691406 10.648438 6.097656 10.648438 6.539062 C 10.648438 6.097656 10.421875 5.691406 10.042969 5.445312 C 9.445312 5.058594 8.636719 5.191406 8.199219 5.753906 C 7.695312 6.40625 7.804688 7.332031 8.453125 7.851562 Z M 8.453125 7.851562 " fill-opacity="1" fill-rule="nonzero"/></svg>