<svg xmlns="http://www.w3.org/2000/svg" xmlns:xlink="http://www.w3.org/1999/xlink" width="500" zoomAndPan="magnify" viewBox="0 0 375 374.999991" height="500" preserveAspectRatio="xMidYMid meet" version="1.0"><defs><clipPath id="42a488c471"><path d="M 2.507812 26.285156 L 372.679688 26.285156 L 372.679688 117 L 2.507812 117 Z M 2.507812 26.285156 " clip-rule="nonzero"/></clipPath><clipPath id="47526212cb"><path d="M 180 78 L 196 78 L 196 348.785156 L 180 348.785156 Z M 180 78 " clip-rule="nonzero"/></clipPath></defs><g clip-path="url(#42a488c471)"><path fill="#ffffff" d="M 244.035156 52.0625 C 253.136719 56.527344 260.164062 63.769531 266.957031 70.78125 C 271.980469 75.96875 277.1875 81.34375 283.082031 85.347656 C 295.449219 93.761719 309.886719 94.679688 321.714844 87.796875 C 322.90625 87.105469 324.433594 87.507812 325.121094 88.695312 C 325.820312 89.894531 325.421875 91.421875 324.222656 92.113281 C 318.167969 95.636719 311.523438 97.386719 304.78125 97.386719 C 296.46875 97.386719 287.996094 94.730469 280.265625 89.472656 C 273.949219 85.179688 268.574219 79.625 263.371094 74.257812 C 256.574219 67.246094 250.160156 60.632812 241.828125 56.535156 C 225.535156 48.535156 204.933594 55.976562 190.136719 63.929688 C 190.117188 64.320312 190.097656 64.707031 190.085938 65.085938 C 190.085938 65.226562 190.085938 65.359375 190.085938 65.496094 C 190.085938 68.136719 190.417969 70.761719 191.085938 73.308594 C 194.324219 85.527344 207.289062 95.277344 217.601562 101.292969 C 243.308594 116.296875 275.617188 120.484375 306.28125 112.78125 C 325.511719 107.957031 357.601562 91.03125 368.734375 68.535156 C 373.609375 58.683594 373.957031 48.785156 369.792969 39.101562 C 367.644531 34.097656 363.726562 29.992188 359.050781 27.835938 C 357.332031 27.046875 355.554688 26.546875 353.765625 26.335938 C 353.4375 26.304688 353.214844 26.296875 353.078125 26.304688 C 353.117188 26.644531 353.296875 27.285156 353.757812 28.074219 C 354.496094 29.34375 355.285156 30.613281 356.0625 31.878906 C 359.019531 36.636719 362.089844 41.550781 362.929688 47.375 C 364.316406 56.984375 358.761719 67.394531 349.410156 72.699219 C 341.539062 77.15625 331.40625 78.226562 320.875 75.707031 C 304.351562 71.761719 291.792969 61.472656 279.652344 51.511719 C 273.050781 46.097656 266.214844 40.503906 258.863281 36.035156 C 250.621094 31.042969 240.410156 27.792969 230.230469 27.792969 C 219.03125 27.792969 207.859375 31.730469 199.398438 41.582031 C 195.191406 46.484375 192.34375 52.101562 190.996094 57.855469 C 206.53125 50.042969 227.03125 43.71875 244.035156 52.0625 Z M 185.089844 65.496094 C 185.089844 68.136719 184.769531 70.761719 184.09375 73.308594 C 180.855469 85.527344 167.886719 95.277344 157.578125 101.292969 C 131.878906 116.296875 99.558594 120.484375 68.898438 112.78125 C 49.664062 107.957031 17.574219 91.03125 6.457031 68.535156 C 1.578125 58.683594 1.21875 48.785156 5.386719 39.101562 C 7.542969 34.097656 11.460938 29.992188 16.136719 27.835938 C 17.84375 27.046875 19.625 26.546875 21.421875 26.335938 C 21.75 26.304688 21.972656 26.296875 22.109375 26.296875 C 22.0625 26.644531 21.890625 27.273438 21.429688 28.074219 C 20.691406 29.34375 19.902344 30.613281 19.113281 31.878906 C 16.15625 36.636719 13.097656 41.5625 12.261719 47.375 C 10.871094 56.984375 16.425781 67.394531 25.765625 72.699219 C 33.640625 77.15625 43.78125 78.226562 54.3125 75.707031 C 70.824219 71.761719 83.382812 61.472656 95.523438 51.511719 C 102.128906 46.097656 108.960938 40.503906 116.3125 36.035156 C 133.636719 25.527344 159.644531 22.78125 175.78125 41.582031 C 179.996094 46.484375 182.832031 52.101562 184.183594 57.855469 C 168.65625 50.050781 148.144531 43.71875 131.152344 52.0625 C 122.050781 56.527344 115.015625 63.769531 108.230469 70.78125 C 103.195312 75.96875 98 81.34375 92.105469 85.347656 C 79.738281 93.761719 65.292969 94.679688 53.472656 87.796875 C 52.273438 87.105469 50.746094 87.507812 50.054688 88.695312 C 49.367188 89.894531 49.765625 91.421875 50.953125 92.113281 C 57.019531 95.636719 63.652344 97.386719 70.40625 97.386719 C 78.71875 97.386719 87.179688 94.730469 94.914062 89.472656 C 101.226562 85.179688 106.613281 79.625 111.820312 74.257812 C 118.613281 67.246094 125.027344 60.632812 133.347656 56.535156 C 149.652344 48.535156 170.253906 55.976562 185.050781 63.929688 C 185.070312 64.320312 185.089844 64.699219 185.089844 65.085938 C 185.089844 65.226562 185.089844 65.359375 185.089844 65.496094 " fill-opacity="1" fill-rule="nonzero"/></g><g clip-path="url(#47526212cb)"><path fill="#ffffff" d="M 180.027344 89.742188 C 183.191406 86.238281 185.839844 82.371094 187.589844 78.164062 C 189.335938 82.371094 191.996094 86.238281 195.152344 89.742188 L 195.152344 341.328125 C 195.152344 345.492188 191.765625 348.890625 187.589844 348.890625 C 183.421875 348.890625 180.027344 345.492188 180.027344 341.328125 L 180.027344 89.742188 " fill-opacity="1" fill-rule="nonzero"/></g></svg>