<svg xmlns="http://www.w3.org/2000/svg" xmlns:xlink="http://www.w3.org/1999/xlink" width="500" zoomAndPan="magnify" viewBox="0 0 375 374.999991" height="500" preserveAspectRatio="xMidYMid meet" version="1.0"><defs><clipPath id="40229a9a9c"><path d="M 30 4 L 344.929688 4 L 344.929688 372.480469 L 30 372.480469 Z M 30 4 " clip-rule="nonzero"/></clipPath></defs><g clip-path="url(#40229a9a9c)"><path fill="#ffffff" d="M 180.636719 6.15625 C 174.464844 8.742188 170.800781 11.113281 161.609375 18.371094 L 153.140625 24.984375 L 147.394531 24.914062 C 143.660156 24.84375 139.066406 24.191406 134.328125 22.902344 C 121.046875 19.453125 115.878906 19.667969 111.140625 23.695312 C 108.054688 26.28125 105.898438 30.230469 102.601562 39.503906 C 96.425781 56.820312 94.847656 58.398438 78.117188 63.789062 C 64.765625 68.171875 59.738281 71.410156 57.945312 76.941406 C 56.800781 80.320312 57.515625 88.726562 59.523438 96.847656 C 60.386719 100.441406 61.175781 105.6875 61.175781 108.703125 C 61.246094 115.460938 59.957031 118.117188 50.910156 129.546875 C 43.441406 138.886719 40.714844 143.917969 40.210938 149.023438 C 39.78125 153.910156 42.078125 158.292969 50.476562 168.425781 C 62.039062 182.222656 62.46875 184.164062 58.664062 202.558594 C 56.148438 214.488281 56.222656 218.367188 58.875 223.039062 C 60.957031 226.707031 65.265625 229.578125 72.515625 232.019531 C 75.675781 233.027344 78.402344 234.320312 78.617188 234.894531 C 78.832031 235.46875 68.0625 254.730469 54.78125 277.652344 C 41.5 300.648438 30.445312 320.480469 30.230469 321.777344 C 29.941406 323.503906 30.300781 324.507812 31.664062 326.089844 C 33.605469 328.390625 33.53125 328.390625 63.039062 329.898438 C 75.3125 330.542969 79.40625 331.765625 84.71875 336.4375 C 86.152344 337.65625 91.753906 345.777344 97.207031 354.546875 C 107.113281 370.28125 108.980469 372.441406 112.5 372.441406 C 113.359375 372.441406 114.941406 371.578125 116.085938 370.429688 C 117.234375 369.351562 128.9375 349.875 142.074219 327.167969 C 155.140625 304.460938 166.484375 285.273438 167.128906 284.484375 C 168.421875 283.1875 168.496094 283.261719 171.796875 285.777344 C 176.820312 289.585938 182.566406 292.171875 186.945312 292.535156 C 190.25 292.824219 191.539062 292.535156 195.34375 290.664062 C 197.785156 289.441406 201.160156 287.285156 202.808594 285.921875 C 204.390625 284.484375 206.113281 283.335938 206.46875 283.335938 C 206.828125 283.335938 218.242188 302.449219 231.8125 325.800781 C 245.382812 349.160156 257.300781 369.0625 258.234375 369.996094 C 260.171875 372.007812 263.617188 372.296875 265.988281 370.640625 C 266.777344 370.066406 272.015625 362.378906 277.617188 353.46875 C 288.097656 336.867188 289.460938 335.214844 296.425781 331.695312 C 299.871094 329.972656 301.234375 329.753906 313.511719 329.179688 C 340.214844 327.960938 340.144531 327.960938 342.445312 325.730469 C 344.882812 323.289062 344.957031 321.636719 342.945312 317.609375 C 342.082031 315.957031 331.101562 296.914062 318.535156 275.355469 C 305.984375 253.71875 295.644531 235.679688 295.5 235.175781 C 295.355469 234.675781 297.507812 233.527344 301.027344 232.300781 C 304.183594 231.226562 307.773438 229.859375 308.921875 229.214844 C 311.792969 227.777344 315.453125 223.824219 316.386719 221.308594 C 317.683594 217.929688 317.25 210.457031 315.3125 201.546875 C 314.308594 196.949219 313.445312 191.054688 313.445312 188.46875 C 313.375 182.285156 315.242188 178.625 323.570312 168.707031 C 331.609375 159.003906 333.90625 154.980469 333.90625 150.09375 C 333.90625 145.207031 331.824219 141.257812 323.207031 129.757812 C 319.402344 124.726562 315.527344 118.90625 314.59375 116.964844 C 312.292969 112.148438 312.363281 105.824219 314.734375 95.550781 C 315.738281 91.09375 316.601562 85.203125 316.601562 82.328125 C 316.746094 72.269531 312.726562 68.671875 295.207031 63.070312 C 280.5625 58.398438 277.257812 55.453125 272.953125 43.449219 C 264.40625 19.378906 260.964844 17.21875 239.640625 22.464844 C 228.011719 25.339844 222.269531 25.414062 217.171875 22.898438 C 215.089844 21.890625 210.351562 18.441406 206.617188 15.355469 C 193.773438 4.574219 188.679688 2.78125 180.636719 6.15625 Z M 210.933594 43.527344 C 231.605469 48.484375 248.261719 57.683594 262.621094 72.054688 C 281.714844 91.167969 292.265625 114.378906 294.132812 141.042969 C 297.507812 189.046875 269.152344 232.878906 223.847656 249.769531 C 201.953125 257.886719 175.964844 258.324219 153.207031 250.917969 C 116.671875 238.914062 89.894531 208.589844 81.566406 169.496094 C 79.484375 159.652344 79.265625 138.882812 81.203125 129.183594 C 87.664062 96.992188 107.625 69.464844 135.335938 54.300781 C 145.964844 48.550781 158.8125 44.167969 170.65625 42.226562 C 180.636719 40.578125 201.382812 41.296875 210.933594 43.527344 Z M 210.933594 43.527344 " fill-opacity="1" fill-rule="nonzero"/></g><path fill="#ffffff" d="M 173.242188 58.683594 C 160.03125 60.839844 147.039062 65.945312 136.054688 73.273438 C 129.375 77.65625 119.183594 87.503906 114.011719 94.402344 C 103.03125 109.132812 96.0625 130.1875 96.0625 148.582031 C 96.0625 172.65625 106.621094 197.230469 124.207031 213.976562 C 137.921875 227.054688 155.292969 235.675781 173.382812 238.410156 C 222.203125 245.808594 267.285156 213.613281 276.546875 164.824219 C 279.058594 151.816406 277.621094 132.773438 273.242188 119.90625 C 262.976562 89.582031 237.707031 67.019531 205.902344 59.757812 C 197.863281 57.898438 181.066406 57.394531 173.242188 58.683594 Z M 190.757812 93.542969 C 191.550781 94.332031 194.921875 100.441406 198.367188 107.195312 C 207.414062 125.085938 209.136719 126.3125 229.953125 129.472656 C 244.457031 131.699219 246.105469 132.417969 246.105469 136.226562 C 246.105469 138.023438 244.308594 140.179688 235.410156 149.234375 C 225.144531 159.726562 224.640625 160.375 223.203125 165.042969 C 221.269531 171.292969 221.269531 172.011719 223.851562 186.886719 C 225 193.714844 225.71875 199.894531 225.503906 200.542969 C 224.78125 202.625 222.992188 204.28125 221.410156 204.28125 C 220.550781 204.28125 214.019531 201.335938 206.835938 197.667969 L 193.773438 191.054688 L 181.421875 191.054688 L 168.644531 197.667969 C 161.539062 201.332031 155.074219 204.28125 154.140625 204.28125 C 151.699219 204.28125 149.902344 202.269531 149.902344 199.394531 C 149.902344 198.027344 150.765625 192.0625 151.773438 186.027344 C 155.144531 166.269531 153.710938 161.882812 139.78125 148.804688 C 130.589844 140.253906 128.722656 137.664062 129.371094 134.863281 C 130.089844 132.207031 132.816406 131.273438 145.234375 129.546875 C 165.625 126.671875 168.496094 124.660156 177.324219 106.980469 C 180.480469 100.585938 183.714844 94.695312 184.578125 93.757812 C 186.378906 91.816406 188.964844 91.742188 190.757812 93.542969 Z M 190.757812 93.542969 " fill-opacity="1" fill-rule="nonzero"/></svg>