<svg xmlns="http://www.w3.org/2000/svg" xmlns:xlink="http://www.w3.org/1999/xlink" width="45" zoomAndPan="magnify" viewBox="0 0 33.75 33.749999" height="45" preserveAspectRatio="xMidYMid meet" version="1.0"><defs><clipPath id="b6a427084e"><path d="M 1.054688 10 L 6 10 L 6 15 L 1.054688 15 Z M 1.054688 10 " clip-rule="nonzero"/></clipPath><clipPath id="60ff9c5889"><path d="M 1.054688 18 L 4 18 L 4 22 L 1.054688 22 Z M 1.054688 18 " clip-rule="nonzero"/></clipPath><clipPath id="2fc0ecbf3b"><path d="M 7 22 L 27 22 L 27 33.5 L 7 33.5 Z M 7 22 " clip-rule="nonzero"/></clipPath><clipPath id="38c31a1759"><path d="M 28 10 L 32.554688 10 L 32.554688 15 L 28 15 Z M 28 10 " clip-rule="nonzero"/></clipPath><clipPath id="797cc1e78b"><path d="M 29 18 L 32.554688 18 L 32.554688 22 L 29 22 Z M 29 18 " clip-rule="nonzero"/></clipPath></defs><path fill="#eba1a1" d="M 15.335938 7.539062 L 15.152344 8.621094 C 15.125 8.832031 15.203125 9.015625 15.359375 9.148438 C 15.519531 9.253906 15.753906 9.28125 15.914062 9.175781 L 16.804688 8.675781 C 16.804688 8.675781 17.695312 9.175781 17.695312 9.175781 C 17.855469 9.28125 18.089844 9.253906 18.25 9.148438 C 18.40625 9.042969 18.484375 8.832031 18.457031 8.621094 L 18.273438 7.539062 L 19.007812 6.777344 C 19.140625 6.644531 19.195312 6.433594 19.140625 6.25 C 19.089844 6.0625 18.90625 5.933594 18.722656 5.90625 L 17.722656 5.746094 L 17.277344 4.796875 C 17.199219 4.613281 17.015625 4.480469 16.804688 4.480469 C 16.59375 4.480469 16.410156 4.585938 16.332031 4.796875 L 15.886719 5.746094 L 14.886719 5.90625 C 14.703125 5.933594 14.519531 6.0625 14.46875 6.25 C 14.414062 6.433594 14.441406 6.644531 14.601562 6.777344 Z M 16.304688 6.75 C 16.488281 6.722656 16.621094 6.617188 16.699219 6.460938 L 16.804688 6.25 L 16.910156 6.460938 C 16.988281 6.617188 17.121094 6.722656 17.304688 6.75 L 17.566406 6.800781 L 17.355469 7.011719 C 17.25 7.144531 17.199219 7.304688 17.226562 7.460938 L 17.277344 7.726562 L 17.066406 7.621094 C 16.988281 7.566406 16.910156 7.566406 16.804688 7.566406 C 16.699219 7.566406 16.621094 7.59375 16.542969 7.621094 L 16.359375 7.726562 L 16.410156 7.460938 C 16.4375 7.304688 16.382812 7.117188 16.28125 7.011719 L 16.070312 6.800781 Z M 16.304688 6.75 " fill-opacity="1" fill-rule="nonzero"/><path fill="#eba1a1" d="M 11.554688 24.785156 C 11.265625 24.785156 11.03125 25.023438 11.03125 25.3125 L 11.03125 25.574219 L 10.765625 25.574219 C 10.476562 25.574219 10.242188 25.8125 10.242188 26.101562 C 10.242188 26.394531 10.476562 26.628906 10.765625 26.628906 L 11.03125 26.628906 L 11.03125 26.894531 C 11.03125 27.183594 11.265625 27.421875 11.554688 27.421875 C 11.84375 27.421875 12.078125 27.183594 12.078125 26.894531 L 12.078125 26.628906 L 12.34375 26.628906 C 12.632812 26.628906 12.867188 26.394531 12.867188 26.101562 C 12.867188 25.8125 12.632812 25.574219 12.34375 25.574219 L 12.078125 25.574219 L 12.078125 25.3125 C 12.078125 25.023438 11.84375 24.785156 11.554688 24.785156 Z M 11.554688 24.785156 " fill-opacity="1" fill-rule="nonzero"/><path fill="#eba1a1" d="M 22.054688 24.785156 C 21.765625 24.785156 21.53125 25.023438 21.53125 25.3125 L 21.53125 25.574219 L 21.265625 25.574219 C 20.976562 25.574219 20.742188 25.8125 20.742188 26.101562 C 20.742188 26.394531 20.976562 26.628906 21.265625 26.628906 L 21.53125 26.628906 L 21.53125 26.894531 C 21.53125 27.183594 21.765625 27.421875 22.054688 27.421875 C 22.34375 27.421875 22.578125 27.183594 22.578125 26.894531 L 22.578125 26.628906 L 22.84375 26.628906 C 23.132812 26.628906 23.367188 26.394531 23.367188 26.101562 C 23.367188 25.8125 23.132812 25.574219 22.84375 25.574219 L 22.578125 25.574219 L 22.578125 25.3125 C 22.578125 25.023438 22.34375 24.785156 22.054688 24.785156 Z M 22.054688 24.785156 " fill-opacity="1" fill-rule="nonzero"/><path fill="#eba1a1" d="M 3.679688 6.855469 C 3.679688 7 3.628906 7.125 3.527344 7.226562 C 3.421875 7.332031 3.300781 7.382812 3.15625 7.382812 C 3.007812 7.382812 2.886719 7.332031 2.785156 7.226562 C 2.679688 7.125 2.628906 7 2.628906 6.855469 C 2.628906 6.710938 2.679688 6.585938 2.785156 6.484375 C 2.886719 6.378906 3.007812 6.328125 3.15625 6.328125 C 3.300781 6.328125 3.421875 6.378906 3.527344 6.484375 C 3.628906 6.585938 3.679688 6.710938 3.679688 6.855469 Z M 3.679688 6.855469 " fill-opacity="1" fill-rule="nonzero"/><path fill="#eba1a1" d="M 8.40625 12.65625 C 8.40625 12.800781 8.351562 12.925781 8.25 13.027344 C 8.148438 13.132812 8.023438 13.183594 7.878906 13.183594 C 7.734375 13.183594 7.609375 13.132812 7.507812 13.027344 C 7.40625 12.925781 7.355469 12.800781 7.355469 12.65625 C 7.355469 12.511719 7.40625 12.386719 7.507812 12.285156 C 7.609375 12.179688 7.734375 12.128906 7.878906 12.128906 C 8.023438 12.128906 8.148438 12.179688 8.25 12.285156 C 8.351562 12.386719 8.40625 12.511719 8.40625 12.65625 Z M 8.40625 12.65625 " fill-opacity="1" fill-rule="nonzero"/><path fill="#eba1a1" d="M 12.078125 3.164062 C 12.078125 3.308594 12.027344 3.433594 11.925781 3.535156 C 11.824219 3.640625 11.699219 3.691406 11.554688 3.691406 C 11.410156 3.691406 11.285156 3.640625 11.183594 3.535156 C 11.082031 3.433594 11.03125 3.308594 11.03125 3.164062 C 11.03125 3.019531 11.082031 2.894531 11.183594 2.792969 C 11.285156 2.6875 11.410156 2.636719 11.554688 2.636719 C 11.699219 2.636719 11.824219 2.6875 11.925781 2.792969 C 12.027344 2.894531 12.078125 3.019531 12.078125 3.164062 Z M 12.078125 3.164062 " fill-opacity="1" fill-rule="nonzero"/><g clip-path="url(#b6a427084e)"><path fill="#eba1a1" d="M 5.070312 11.757812 L 4.257812 11.628906 L 3.890625 10.835938 C 3.8125 10.652344 3.628906 10.546875 3.417969 10.546875 C 3.207031 10.546875 3.023438 10.652344 2.945312 10.835938 L 2.578125 11.628906 L 1.761719 11.757812 C 1.578125 11.785156 1.394531 11.917969 1.34375 12.101562 C 1.289062 12.285156 1.316406 12.496094 1.476562 12.65625 L 2.078125 13.289062 L 1.945312 14.160156 C 1.921875 14.371094 2 14.554688 2.15625 14.6875 C 2.316406 14.792969 2.523438 14.816406 2.707031 14.710938 L 3.417969 14.316406 L 4.125 14.710938 C 4.285156 14.816406 4.519531 14.792969 4.675781 14.6875 C 4.835938 14.582031 4.914062 14.371094 4.886719 14.160156 L 4.757812 13.289062 L 5.359375 12.65625 C 5.492188 12.523438 5.542969 12.3125 5.492188 12.128906 C 5.4375 11.945312 5.253906 11.785156 5.070312 11.757812 Z M 3.835938 12.734375 C 3.730469 12.867188 3.679688 13.023438 3.707031 13.183594 L 3.707031 13.261719 L 3.679688 13.234375 C 3.601562 13.183594 3.496094 13.183594 3.417969 13.183594 C 3.339844 13.183594 3.234375 13.210938 3.15625 13.234375 L 3.128906 13.261719 L 3.128906 13.183594 C 3.15625 13.023438 3.101562 12.839844 2.996094 12.734375 L 2.917969 12.65625 L 2.996094 12.65625 C 3.179688 12.628906 3.3125 12.523438 3.390625 12.367188 L 3.390625 12.339844 L 3.390625 12.367188 C 3.46875 12.523438 3.601562 12.628906 3.785156 12.65625 L 3.863281 12.65625 Z M 3.835938 12.734375 " fill-opacity="1" fill-rule="nonzero"/></g><path fill="#eba1a1" d="M 7.617188 6.589844 L 7.617188 6.855469 L 7.355469 6.855469 C 7.066406 6.855469 6.828125 7.09375 6.828125 7.382812 C 6.828125 7.671875 7.066406 7.910156 7.355469 7.910156 L 7.617188 7.910156 L 7.617188 8.171875 C 7.617188 8.464844 7.851562 8.699219 8.140625 8.699219 C 8.429688 8.699219 8.667969 8.464844 8.667969 8.171875 L 8.667969 7.910156 L 8.929688 7.910156 C 9.21875 7.910156 9.453125 7.671875 9.453125 7.382812 C 9.453125 7.09375 9.21875 6.855469 8.929688 6.855469 L 8.667969 6.855469 L 8.667969 6.589844 C 8.667969 6.300781 8.429688 6.0625 8.140625 6.0625 C 7.851562 6.0625 7.617188 6.300781 7.617188 6.589844 Z M 7.617188 6.589844 " fill-opacity="1" fill-rule="nonzero"/><g clip-path="url(#60ff9c5889)"><path fill="#eba1a1" d="M 3.15625 19.511719 L 2.890625 19.511719 L 2.890625 19.246094 C 2.890625 18.957031 2.65625 18.71875 2.367188 18.71875 C 2.078125 18.71875 1.84375 18.957031 1.84375 19.246094 L 1.84375 19.511719 L 1.578125 19.511719 C 1.289062 19.511719 1.054688 19.75 1.054688 20.039062 C 1.054688 20.328125 1.289062 20.566406 1.578125 20.566406 L 1.84375 20.566406 L 1.84375 20.828125 C 1.84375 21.121094 2.078125 21.355469 2.367188 21.355469 C 2.65625 21.355469 2.890625 21.121094 2.890625 20.828125 L 2.890625 20.566406 L 3.15625 20.566406 C 3.445312 20.566406 3.679688 20.328125 3.679688 20.039062 C 3.679688 19.75 3.445312 19.511719 3.15625 19.511719 Z M 3.15625 19.511719 " fill-opacity="1" fill-rule="nonzero"/></g><path fill="#eba1a1" d="M 6.304688 3.164062 C 7.171875 3.164062 7.878906 2.453125 7.878906 1.582031 C 7.878906 0.710938 7.171875 0 6.304688 0 C 5.4375 0 4.730469 0.710938 4.730469 1.582031 C 4.730469 2.453125 5.4375 3.164062 6.304688 3.164062 Z M 6.304688 1.054688 C 6.59375 1.054688 6.828125 1.292969 6.828125 1.582031 C 6.828125 1.871094 6.59375 2.109375 6.304688 2.109375 C 6.015625 2.109375 5.78125 1.871094 5.78125 1.582031 C 5.78125 1.292969 6.015625 1.054688 6.304688 1.054688 Z M 6.304688 1.054688 " fill-opacity="1" fill-rule="nonzero"/><g clip-path="url(#2fc0ecbf3b)"><path fill="#eba1a1" d="M 25.46875 29.53125 L 19.691406 29.53125 L 19.691406 30.585938 L 25.46875 30.585938 L 25.46875 32.167969 C 25.46875 32.457031 25.230469 32.695312 24.941406 32.695312 L 18.640625 32.695312 L 18.640625 22.675781 L 17.59375 22.675781 L 17.59375 32.695312 L 16.015625 32.695312 L 16.015625 22.675781 L 14.96875 22.675781 L 14.96875 32.695312 L 8.667969 32.695312 C 8.378906 32.695312 8.140625 32.457031 8.140625 32.167969 L 8.140625 30.585938 L 13.917969 30.585938 L 13.917969 29.53125 L 8.140625 29.53125 L 8.140625 22.675781 L 7.09375 22.675781 L 7.09375 32.167969 C 7.09375 33.039062 7.800781 33.75 8.667969 33.75 L 24.941406 33.75 C 25.808594 33.75 26.515625 33.039062 26.515625 32.167969 L 26.515625 22.675781 L 25.46875 22.675781 Z M 25.46875 29.53125 " fill-opacity="1" fill-rule="nonzero"/></g><path fill="#eba1a1" d="M 30.980469 6.855469 C 30.980469 7 30.929688 7.125 30.824219 7.226562 C 30.722656 7.332031 30.601562 7.382812 30.453125 7.382812 C 30.308594 7.382812 30.1875 7.332031 30.082031 7.226562 C 29.980469 7.125 29.929688 7 29.929688 6.855469 C 29.929688 6.710938 29.980469 6.585938 30.082031 6.484375 C 30.1875 6.378906 30.308594 6.328125 30.453125 6.328125 C 30.601562 6.328125 30.722656 6.378906 30.824219 6.484375 C 30.929688 6.585938 30.980469 6.710938 30.980469 6.855469 Z M 30.980469 6.855469 " fill-opacity="1" fill-rule="nonzero"/><path fill="#eba1a1" d="M 26.253906 12.65625 C 26.253906 12.800781 26.203125 12.925781 26.101562 13.027344 C 26 13.132812 25.875 13.183594 25.730469 13.183594 C 25.585938 13.183594 25.460938 13.132812 25.359375 13.027344 C 25.257812 12.925781 25.203125 12.800781 25.203125 12.65625 C 25.203125 12.511719 25.257812 12.386719 25.359375 12.285156 C 25.460938 12.179688 25.585938 12.128906 25.730469 12.128906 C 25.875 12.128906 26 12.179688 26.101562 12.285156 C 26.203125 12.386719 26.253906 12.511719 26.253906 12.65625 Z M 26.253906 12.65625 " fill-opacity="1" fill-rule="nonzero"/><path fill="#eba1a1" d="M 22.578125 3.164062 C 22.578125 3.308594 22.527344 3.433594 22.425781 3.535156 C 22.324219 3.640625 22.199219 3.691406 22.054688 3.691406 C 21.910156 3.691406 21.785156 3.640625 21.683594 3.535156 C 21.582031 3.433594 21.53125 3.308594 21.53125 3.164062 C 21.53125 3.019531 21.582031 2.894531 21.683594 2.792969 C 21.785156 2.6875 21.910156 2.636719 22.054688 2.636719 C 22.199219 2.636719 22.324219 2.6875 22.425781 2.792969 C 22.527344 2.894531 22.578125 3.019531 22.578125 3.164062 Z M 22.578125 3.164062 " fill-opacity="1" fill-rule="nonzero"/><g clip-path="url(#38c31a1759)"><path fill="#eba1a1" d="M 30.902344 14.710938 C 31.085938 14.816406 31.292969 14.792969 31.453125 14.6875 C 31.609375 14.582031 31.6875 14.371094 31.664062 14.160156 L 31.53125 13.289062 L 32.132812 12.65625 C 32.265625 12.523438 32.320312 12.3125 32.265625 12.128906 C 32.214844 11.945312 32.03125 11.8125 31.847656 11.785156 L 31.03125 11.652344 L 30.664062 10.863281 C 30.585938 10.679688 30.402344 10.574219 30.191406 10.574219 C 29.980469 10.574219 29.796875 10.679688 29.71875 10.863281 L 29.351562 11.652344 L 28.539062 11.785156 C 28.355469 11.8125 28.171875 11.945312 28.117188 12.128906 C 28.066406 12.3125 28.09375 12.523438 28.25 12.65625 L 28.851562 13.289062 L 28.722656 14.160156 C 28.695312 14.371094 28.773438 14.554688 28.933594 14.6875 C 29.089844 14.792969 29.300781 14.816406 29.484375 14.710938 L 30.191406 14.316406 Z M 29.902344 13.261719 L 29.902344 13.183594 C 29.929688 13.023438 29.878906 12.839844 29.773438 12.734375 L 29.695312 12.65625 L 29.773438 12.65625 C 29.957031 12.628906 30.085938 12.523438 30.164062 12.367188 L 30.164062 12.339844 L 30.164062 12.367188 C 30.246094 12.523438 30.375 12.628906 30.558594 12.65625 L 30.636719 12.65625 L 30.558594 12.734375 C 30.453125 12.867188 30.402344 13.023438 30.429688 13.183594 L 30.429688 13.261719 L 30.402344 13.234375 C 30.324219 13.183594 30.246094 13.183594 30.140625 13.183594 C 30.035156 13.183594 29.957031 13.210938 29.878906 13.234375 Z M 29.902344 13.261719 " fill-opacity="1" fill-rule="nonzero"/></g><path fill="#eba1a1" d="M 24.679688 7.910156 L 24.941406 7.910156 L 24.941406 8.171875 C 24.941406 8.464844 25.179688 8.699219 25.46875 8.699219 C 25.757812 8.699219 25.992188 8.464844 25.992188 8.171875 L 25.992188 7.910156 L 26.253906 7.910156 C 26.542969 7.910156 26.78125 7.671875 26.78125 7.382812 C 26.78125 7.09375 26.542969 6.855469 26.253906 6.855469 L 25.992188 6.855469 L 25.992188 6.589844 C 25.992188 6.300781 25.757812 6.0625 25.46875 6.0625 C 25.179688 6.0625 24.941406 6.300781 24.941406 6.589844 L 24.941406 6.855469 L 24.679688 6.855469 C 24.390625 6.855469 24.15625 7.09375 24.15625 7.382812 C 24.15625 7.671875 24.390625 7.910156 24.679688 7.910156 Z M 24.679688 7.910156 " fill-opacity="1" fill-rule="nonzero"/><g clip-path="url(#797cc1e78b)"><path fill="#eba1a1" d="M 32.03125 19.511719 L 31.765625 19.511719 L 31.765625 19.246094 C 31.765625 18.957031 31.53125 18.71875 31.242188 18.71875 C 30.953125 18.71875 30.71875 18.957031 30.71875 19.246094 L 30.71875 19.511719 L 30.453125 19.511719 C 30.164062 19.511719 29.929688 19.75 29.929688 20.039062 C 29.929688 20.328125 30.164062 20.566406 30.453125 20.566406 L 30.71875 20.566406 L 30.71875 20.828125 C 30.71875 21.121094 30.953125 21.355469 31.242188 21.355469 C 31.53125 21.355469 31.765625 21.121094 31.765625 20.828125 L 31.765625 20.566406 L 32.03125 20.566406 C 32.320312 20.566406 32.554688 20.328125 32.554688 20.039062 C 32.554688 19.75 32.320312 19.511719 32.03125 19.511719 Z M 32.03125 19.511719 " fill-opacity="1" fill-rule="nonzero"/></g><path fill="#eba1a1" d="M 28.878906 1.582031 C 28.878906 0.710938 28.171875 0 27.304688 0 C 26.4375 0 25.730469 0.710938 25.730469 1.582031 C 25.730469 2.453125 26.4375 3.164062 27.304688 3.164062 C 28.171875 3.164062 28.878906 2.453125 28.878906 1.582031 Z M 27.304688 2.109375 C 27.015625 2.109375 26.78125 1.871094 26.78125 1.582031 C 26.78125 1.292969 27.015625 1.054688 27.304688 1.054688 C 27.59375 1.054688 27.828125 1.292969 27.828125 1.582031 C 27.828125 1.871094 27.59375 2.109375 27.304688 2.109375 Z M 27.304688 2.109375 " fill-opacity="1" fill-rule="nonzero"/><path fill="#eba1a1" d="M 25.730469 16.875 L 21.1875 16.875 C 21.738281 16.503906 22.132812 15.925781 22.265625 15.238281 C 22.449219 14.316406 22.132812 13.394531 21.449219 12.761719 C 20.742188 12.128906 19.796875 11.945312 18.90625 12.234375 C 18.011719 12.523438 17.355469 13.261719 17.171875 14.183594 C 17.171875 14.183594 16.988281 15.214844 16.804688 16.082031 C 16.648438 15.214844 16.4375 14.183594 16.4375 14.183594 C 16.253906 13.261719 15.597656 12.523438 14.703125 12.234375 C 13.8125 11.945312 12.867188 12.128906 12.160156 12.761719 C 11.449219 13.394531 11.132812 14.316406 11.34375 15.238281 C 11.476562 15.925781 11.871094 16.480469 12.421875 16.875 L 7.878906 16.875 C 7.011719 16.875 6.304688 17.585938 6.304688 18.457031 L 6.304688 21.09375 C 6.304688 21.382812 6.539062 21.621094 6.828125 21.621094 L 26.78125 21.621094 C 27.070312 21.621094 27.304688 21.382812 27.304688 21.09375 L 27.304688 18.457031 C 27.304688 17.585938 26.597656 16.875 25.730469 16.875 Z M 18.195312 14.421875 C 18.300781 13.867188 18.695312 13.445312 19.21875 13.261719 C 19.71875 13.105469 20.347656 13.210938 20.742188 13.578125 C 21.164062 13.949219 21.347656 14.5 21.242188 15.054688 C 21.136719 15.609375 20.742188 16.03125 20.242188 16.214844 C 19.378906 16.453125 18.351562 16.714844 17.75 16.820312 C 17.828125 16.375 17.960938 15.636719 18.195312 14.421875 Z M 12.867188 13.578125 C 13.289062 13.210938 13.863281 13.105469 14.390625 13.261719 C 14.914062 13.445312 15.308594 13.867188 15.414062 14.421875 C 15.648438 15.636719 15.78125 16.375 15.859375 16.820312 C 15.257812 16.714844 14.257812 16.453125 13.390625 16.214844 C 12.867188 16.03125 12.472656 15.609375 12.367188 15.054688 C 12.261719 14.5 12.445312 13.949219 12.867188 13.578125 Z M 26.253906 20.566406 L 7.355469 20.566406 L 7.355469 18.457031 C 7.355469 18.167969 7.589844 17.929688 7.878906 17.929688 L 25.730469 17.929688 C 26.019531 17.929688 26.253906 18.167969 26.253906 18.457031 Z M 26.253906 20.566406 " fill-opacity="1" fill-rule="nonzero"/><path fill="#eba1a1" d="M 9.980469 19.246094 C 9.980469 19.394531 9.929688 19.519531 9.824219 19.621094 C 9.722656 19.722656 9.601562 19.773438 9.453125 19.773438 C 9.308594 19.773438 9.1875 19.722656 9.082031 19.621094 C 8.980469 19.519531 8.929688 19.394531 8.929688 19.246094 C 8.929688 19.101562 8.980469 18.976562 9.082031 18.875 C 9.1875 18.773438 9.308594 18.71875 9.453125 18.71875 C 9.601562 18.71875 9.722656 18.773438 9.824219 18.875 C 9.929688 18.976562 9.980469 19.101562 9.980469 19.246094 Z M 9.980469 19.246094 " fill-opacity="1" fill-rule="nonzero"/><path fill="#eba1a1" d="M 12.078125 19.246094 C 12.078125 19.394531 12.027344 19.519531 11.925781 19.621094 C 11.824219 19.722656 11.699219 19.773438 11.554688 19.773438 C 11.410156 19.773438 11.285156 19.722656 11.183594 19.621094 C 11.082031 19.519531 11.03125 19.394531 11.03125 19.246094 C 11.03125 19.101562 11.082031 18.976562 11.183594 18.875 C 11.285156 18.773438 11.410156 18.71875 11.554688 18.71875 C 11.699219 18.71875 11.824219 18.773438 11.925781 18.875 C 12.027344 18.976562 12.078125 19.101562 12.078125 19.246094 Z M 12.078125 19.246094 " fill-opacity="1" fill-rule="nonzero"/><path fill="#eba1a1" d="M 14.179688 19.246094 C 14.179688 19.394531 14.128906 19.519531 14.027344 19.621094 C 13.921875 19.722656 13.800781 19.773438 13.65625 19.773438 C 13.507812 19.773438 13.386719 19.722656 13.285156 19.621094 C 13.179688 19.519531 13.128906 19.394531 13.128906 19.246094 C 13.128906 19.101562 13.179688 18.976562 13.285156 18.875 C 13.386719 18.773438 13.507812 18.71875 13.65625 18.71875 C 13.800781 18.71875 13.921875 18.773438 14.027344 18.875 C 14.128906 18.976562 14.179688 19.101562 14.179688 19.246094 Z M 14.179688 19.246094 " fill-opacity="1" fill-rule="nonzero"/><path fill="#eba1a1" d="M 16.28125 19.246094 C 16.28125 19.394531 16.226562 19.519531 16.125 19.621094 C 16.023438 19.722656 15.898438 19.773438 15.753906 19.773438 C 15.609375 19.773438 15.484375 19.722656 15.382812 19.621094 C 15.28125 19.519531 15.230469 19.394531 15.230469 19.246094 C 15.230469 19.101562 15.28125 18.976562 15.382812 18.875 C 15.484375 18.773438 15.609375 18.71875 15.753906 18.71875 C 15.898438 18.71875 16.023438 18.773438 16.125 18.875 C 16.226562 18.976562 16.28125 19.101562 16.28125 19.246094 Z M 16.28125 19.246094 " fill-opacity="1" fill-rule="nonzero"/><path fill="#eba1a1" d="M 18.378906 19.246094 C 18.378906 19.394531 18.328125 19.519531 18.226562 19.621094 C 18.125 19.722656 18 19.773438 17.855469 19.773438 C 17.710938 19.773438 17.585938 19.722656 17.484375 19.621094 C 17.382812 19.519531 17.328125 19.394531 17.328125 19.246094 C 17.328125 19.101562 17.382812 18.976562 17.484375 18.875 C 17.585938 18.773438 17.710938 18.71875 17.855469 18.71875 C 18 18.71875 18.125 18.773438 18.226562 18.875 C 18.328125 18.976562 18.378906 19.101562 18.378906 19.246094 Z M 18.378906 19.246094 " fill-opacity="1" fill-rule="nonzero"/><path fill="#eba1a1" d="M 20.480469 19.246094 C 20.480469 19.394531 20.429688 19.519531 20.324219 19.621094 C 20.222656 19.722656 20.101562 19.773438 19.953125 19.773438 C 19.808594 19.773438 19.6875 19.722656 19.582031 19.621094 C 19.480469 19.519531 19.429688 19.394531 19.429688 19.246094 C 19.429688 19.101562 19.480469 18.976562 19.582031 18.875 C 19.6875 18.773438 19.808594 18.71875 19.953125 18.71875 C 20.101562 18.71875 20.222656 18.773438 20.324219 18.875 C 20.429688 18.976562 20.480469 19.101562 20.480469 19.246094 Z M 20.480469 19.246094 " fill-opacity="1" fill-rule="nonzero"/><path fill="#eba1a1" d="M 22.578125 19.246094 C 22.578125 19.394531 22.527344 19.519531 22.425781 19.621094 C 22.324219 19.722656 22.199219 19.773438 22.054688 19.773438 C 21.910156 19.773438 21.785156 19.722656 21.683594 19.621094 C 21.582031 19.519531 21.53125 19.394531 21.53125 19.246094 C 21.53125 19.101562 21.582031 18.976562 21.683594 18.875 C 21.785156 18.773438 21.910156 18.71875 22.054688 18.71875 C 22.199219 18.71875 22.324219 18.773438 22.425781 18.875 C 22.527344 18.976562 22.578125 19.101562 22.578125 19.246094 Z M 22.578125 19.246094 " fill-opacity="1" fill-rule="nonzero"/><path fill="#eba1a1" d="M 24.679688 19.246094 C 24.679688 19.394531 24.628906 19.519531 24.527344 19.621094 C 24.421875 19.722656 24.300781 19.773438 24.15625 19.773438 C 24.007812 19.773438 23.886719 19.722656 23.785156 19.621094 C 23.679688 19.519531 23.628906 19.394531 23.628906 19.246094 C 23.628906 19.101562 23.679688 18.976562 23.785156 18.875 C 23.886719 18.773438 24.007812 18.71875 24.15625 18.71875 C 24.300781 18.71875 24.421875 18.773438 24.527344 18.875 C 24.628906 18.976562 24.679688 19.101562 24.679688 19.246094 Z M 24.679688 19.246094 " fill-opacity="1" fill-rule="nonzero"/></svg>