<svg xmlns="http://www.w3.org/2000/svg" xmlns:xlink="http://www.w3.org/1999/xlink" width="500" zoomAndPan="magnify" viewBox="0 0 375 374.999991" height="500" preserveAspectRatio="xMidYMid meet" version="1.0"><defs><clipPath id="ce624356ae"><path d="M 13.65625 165 L 367.820312 165 L 367.820312 375 L 13.65625 375 Z M 13.65625 165 " clip-rule="nonzero"/></clipPath></defs><g clip-path="url(#ce624356ae)"><path fill="#040606" d="M 302.230469 217.761719 L 309.832031 217.761719 C 327.328125 217.796875 341.558594 231.976562 341.558594 249.488281 C 341.523438 263.605469 332.125 276.054688 318.527344 279.953125 L 290.335938 288.007812 C 297.933594 270.464844 302.230469 251.1875 302.230469 230.878906 Z M 39.882812 191.5625 L 275.96875 191.5625 L 275.96875 230.878906 C 275.96875 295.898438 223.015625 348.800781 157.925781 348.800781 C 92.839844 348.800781 39.882812 295.898438 39.882812 230.878906 Z M 13.65625 165.359375 L 13.65625 230.878906 C 13.65625 310.347656 78.375 375 157.925781 375 C 203.351562 375 243.910156 353.859375 270.371094 320.96875 L 325.761719 305.152344 C 350.589844 297.996094 367.71875 275.289062 367.820312 249.488281 C 367.785156 217.496094 341.824219 191.59375 309.832031 191.5625 L 302.230469 191.5625 L 302.230469 165.359375 L 13.65625 165.359375 " fill-opacity="1" fill-rule="nonzero"/></g><path fill="#040606" d="M 223.582031 26.132812 C 217.382812 26.367188 212.617188 31.59375 212.882812 37.785156 C 212.949219 39.652344 213.515625 41.480469 214.484375 43.078125 C 217.414062 48.140625 217.117188 49.570312 216.75 50.9375 C 216.382812 52.335938 214.816406 54.863281 211.515625 58.425781 C 204.917969 65.617188 192.386719 78.035156 193.488281 97.777344 C 193.6875 101.273438 194.351562 103.105469 195.253906 105.636719 C 196.121094 108.164062 197.285156 110.761719 198.550781 113.492188 C 201.152344 118.953125 203.652344 124.378906 208.550781 129.074219 C 212.949219 133.433594 220.082031 133.402344 224.480469 128.972656 C 228.847656 124.546875 228.78125 117.421875 224.382812 113.058594 C 224.28125 112.960938 224.179688 112.894531 224.113281 112.792969 C 223.914062 112.625 220.816406 108.199219 218.847656 104.070312 C 217.847656 101.972656 216.949219 99.910156 216.382812 98.3125 C 215.984375 97.113281 215.75 96.015625 215.683594 96.046875 C 215.25 85.660156 220.449219 81.796875 227.945312 73.640625 C 231.746094 69.546875 236.378906 64.453125 238.445312 56.894531 C 240.542969 49.304688 238.84375 40.351562 233.914062 31.894531 C 231.847656 28.164062 227.847656 25.902344 223.582031 26.132812 Z M 90.808594 26.132812 C 84.609375 26.402344 79.84375 31.628906 80.109375 37.785156 C 80.210938 39.652344 80.742188 41.480469 81.707031 43.078125 C 84.675781 48.140625 84.375 49.570312 83.976562 50.9375 C 83.609375 52.335938 81.875 54.863281 78.578125 58.425781 C 71.945312 65.617188 59.445312 78.035156 60.546875 97.777344 C 60.746094 101.273438 61.578125 103.105469 62.445312 105.636719 C 63.347656 108.164062 64.480469 110.761719 65.777344 113.492188 C 68.378906 118.953125 70.878906 124.378906 75.777344 129.074219 C 80.175781 133.433594 87.308594 133.402344 91.671875 128.972656 C 96.039062 124.546875 96.007812 117.421875 91.605469 113.058594 C 91.507812 112.960938 91.40625 112.894531 91.308594 112.792969 C 91.140625 112.625 87.875 108.199219 85.90625 104.070312 C 84.941406 101.972656 84.207031 99.910156 83.640625 98.3125 C 83.242188 97.113281 83.007812 96.015625 82.941406 96.046875 C 82.507812 85.660156 87.675781 81.796875 95.171875 73.640625 C 98.972656 69.546875 103.40625 64.453125 105.503906 56.894531 C 107.570312 49.304688 106.070312 40.351562 101.105469 31.894531 C 99.070312 28.164062 95.039062 25.902344 90.808594 26.132812 Z M 155.160156 0 C 154.695312 0 154.226562 0.0351562 153.792969 0.101562 C 147.664062 0.867188 143.332031 6.492188 144.097656 12.617188 C 144.261719 13.714844 144.5625 14.816406 145.03125 15.8125 C 155.5625 39.949219 151.128906 53.566406 144.328125 66.484375 C 140.929688 72.941406 136.699219 79 132.964844 85.359375 C 129.199219 91.71875 125.300781 99.175781 126.667969 108.433594 C 128.433594 120.285156 136.664062 128.941406 146.261719 135.164062 C 151.296875 138.761719 158.292969 137.5625 161.859375 132.5 C 165.425781 127.441406 164.226562 120.484375 159.195312 116.921875 C 158.960938 116.753906 158.726562 116.621094 158.492188 116.453125 C 151.929688 112.195312 149.328125 108.164062 148.894531 105.101562 C 148.761719 104.304688 149.261719 101.738281 152.195312 96.746094 C 155.160156 91.753906 159.828125 85.128906 164.125 76.972656 C 172.691406 60.65625 178.523438 36.6875 165.492188 6.890625 C 163.757812 2.730469 159.695312 0 155.160156 0 " fill-opacity="1" fill-rule="nonzero"/></svg>