<svg xmlns="http://www.w3.org/2000/svg" xmlns:xlink="http://www.w3.org/1999/xlink" width="500" zoomAndPan="magnify" viewBox="0 0 375 374.999991" height="500" preserveAspectRatio="xMidYMid meet" version="1.0"><path fill="#000000" d="M 319.355469 325.144531 C 319.355469 325.144531 268.101562 250.074219 258.308594 184.390625 C 248.558594 118.945312 212.578125 99.140625 212.320312 98.992188 C 206.6875 84.671875 207.777344 71.804688 212.574219 58.753906 C 218.328125 43.09375 219.894531 38.710938 217.136719 32.085938 C 217.136719 32.085938 235.28125 14.527344 235.28125 13.976562 C 235.28125 13.421875 233.257812 13.789062 233.074219 11.578125 C 232.886719 9.371094 229.089844 12.21875 229.644531 9.828125 C 230.191406 7.4375 227.644531 10.175781 227.460938 8.148438 C 227.277344 6.128906 223.546875 8.441406 223.546875 6.605469 C 223.546875 4.761719 220.804688 6.34375 220.804688 5.054688 C 220.804688 3.769531 216.738281 5.714844 215.996094 3.417969 C 215.253906 1.121094 212.910156 3.65625 211.527344 2.460938 C 210.148438 1.265625 209.503906 4.851562 209.054688 2.648438 C 208.605469 0.4375 202.152344 1.726562 202.152344 1.726562 L 209.054688 24.628906 C 207.125 24.628906 194.703125 28.3125 192.21875 34.9375 C 189.738281 41.558594 188.699219 41.605469 186.425781 34.980469 C 184.160156 28.359375 170.445312 26.199219 168.683594 26.199219 L 171.617188 2.882812 C 171.617188 2.882812 168.265625 0.570312 166.605469 2.597656 C 164.953125 4.628906 164.457031 0.015625 161.511719 2.960938 C 158.570312 5.910156 158.828125 1.839844 156.988281 4.511719 C 155.152344 7.179688 153.78125 4.46875 152.683594 6.859375 C 150.613281 11.34375 148.882812 7.191406 148.640625 8.164062 C 147.902344 11.109375 145.332031 7.65625 144.414062 11.152344 C 143.492188 14.648438 143.515625 10.679688 142.230469 12.515625 C 140.941406 14.359375 160.957031 32.820312 160.957031 32.820312 C 158.4375 39.449219 161.414062 44.050781 166.421875 58.753906 C 170.8125 71.644531 171.125 84.53125 165.65625 98.847656 L 165.597656 98.828125 C 141.40625 108.214844 117.796875 161.757812 110.3125 198.1875 C 102.824219 234.621094 84.398438 287.609375 62.511719 322.9375 C 45.742188 350.007812 80.371094 338.832031 100.320312 335.859375 L 100.40625 335.847656 C 101.796875 335.636719 103.105469 335.476562 104.328125 335.367188 C 108.550781 335.066406 110.871094 335.667969 111.175781 335.753906 L 111.21875 335.769531 C 112.386719 336.597656 113.265625 337.714844 113.941406 338.980469 C 117.8125 347.4375 112.488281 359.828125 123.554688 358.816406 C 129.066406 358.3125 136.378906 353.335938 143.625 349.484375 L 143.628906 349.480469 C 148.214844 347.042969 152.773438 345.058594 156.839844 344.9375 C 161.515625 345.277344 164.683594 348.09375 166.675781 350.785156 C 175.816406 365.414062 172.207031 379.566406 187.476562 367.097656 C 192.21875 363.226562 194.542969 359.15625 196.132812 355.78125 C 199.097656 349.351562 203.453125 348.644531 207.246094 349.714844 C 209.300781 350.714844 211.859375 352.234375 215.121094 354.398438 C 237.574219 369.304688 244.492188 367.097656 242.765625 350.902344 C 242.691406 349.480469 242.621094 348.070312 242.550781 346.660156 C 242.535156 346.820312 242.523438 346.980469 242.515625 347.136719 C 242.511719 346.84375 242.519531 346.574219 242.53125 346.304688 C 242.535156 346.425781 242.542969 346.542969 242.550781 346.660156 C 242.75 344.496094 243.566406 342.21875 246 341.710938 C 246.738281 341.632812 247.605469 341.65625 248.628906 341.769531 C 254.726562 342.992188 260.855469 344.402344 263.425781 345.003906 C 263.664062 345.058594 263.90625 345.117188 264.148438 345.171875 C 264.488281 345.25 264.695312 345.300781 264.695312 345.300781 C 270.851562 346.738281 278.574219 348.417969 288.257812 349.984375 C 329.148438 356.609375 319.355469 325.144531 319.355469 325.144531 " fill-opacity="1" fill-rule="nonzero"/></svg>