<svg xmlns="http://www.w3.org/2000/svg" xmlns:xlink="http://www.w3.org/1999/xlink" width="500" zoomAndPan="magnify" viewBox="0 0 375 374.999991" height="500" preserveAspectRatio="xMidYMid meet" version="1.0"><defs><clipPath id="a11e2e133f"><path d="M 57.582031 1.71875 L 317.570312 1.71875 L 317.570312 372.960938 L 57.582031 372.960938 Z M 57.582031 1.71875 " clip-rule="nonzero"/></clipPath></defs><g clip-path="url(#a11e2e133f)"><path fill="#000000" d="M 276.207031 362.296875 C 263.382812 362.074219 250.078125 361.480469 236.921875 358.9375 C 235.035156 358.574219 233.09375 358.507812 231.203125 358.046875 C 229.777344 357.695312 229.007812 358.363281 228.953125 359.859375 C 228.90625 361.152344 228.9375 362.425781 229.214844 363.699219 C 229.511719 365.082031 229.734375 366.480469 229.695312 367.914062 C 229.632812 370.140625 229.25 370.554688 226.976562 370.761719 C 226.46875 370.808594 225.929688 370.816406 225.457031 370.988281 C 217.292969 373.921875 208.9375 372.898438 200.601562 372.226562 C 199.96875 372.171875 199.339844 371.960938 198.722656 371.773438 C 194.691406 370.554688 194.644531 370.457031 194.613281 366.347656 C 194.601562 364.9375 194.328125 363.523438 194.347656 362.113281 C 194.371094 360.46875 193.527344 360.195312 192.140625 360.308594 C 187.632812 360.679688 183.164062 361.257812 178.796875 362.480469 C 176.382812 363.15625 175.578125 364.453125 176.25 366.914062 C 176.660156 368.390625 175.679688 368.738281 174.699219 369.085938 C 171.265625 370.296875 167.648438 370.601562 164.078125 371.050781 C 154.859375 372.203125 145.597656 372.851562 136.300781 372.582031 C 132.164062 372.464844 128.097656 371.839844 124.082031 370.800781 C 122.222656 370.316406 121.550781 369.398438 121.992188 367.453125 C 122.375 365.769531 122.394531 364.011719 122.609375 362.289062 C 122.753906 361.117188 122.265625 360.652344 121.097656 360.632812 C 119.375 360.609375 117.785156 361.070312 116.246094 361.769531 C 110.0625 364.566406 103.605469 364.558594 97.117188 363.386719 C 93.699219 362.769531 92.773438 361.371094 92.871094 357.882812 C 92.972656 354.222656 93.117188 350.554688 93.359375 346.898438 C 93.445312 345.640625 93.183594 345.125 91.84375 345.195312 C 87.398438 345.421875 83.203125 346.644531 79.160156 348.390625 C 77.855469 348.953125 76.792969 349.929688 76.65625 351.566406 C 76.550781 352.839844 75.785156 353.484375 74.5 353.59375 C 69.039062 354.066406 63.875 352.824219 58.828125 350.917969 C 57.421875 350.386719 57.53125 349.226562 57.644531 348.011719 C 58.507812 338.722656 59.953125 329.519531 61.578125 320.328125 C 65.730469 296.898438 72.117188 274.03125 78.679688 251.199219 C 82.933594 236.394531 88.230469 221.976562 94.195312 207.789062 C 97.265625 200.492188 100.089844 193.085938 103.394531 185.898438 C 105.992188 180.242188 108.847656 174.6875 111.859375 169.222656 C 115.183594 163.191406 118.554688 157.191406 122.039062 151.261719 C 126.832031 143.101562 131.675781 134.96875 137.332031 127.355469 C 140.644531 122.894531 143.394531 118.09375 145.871094 113.125 C 147.519531 109.816406 147.695312 106.257812 147.347656 102.753906 C 145.761719 86.617188 143.457031 70.574219 140.023438 54.71875 C 138.8125 49.140625 140.160156 49.828125 133.886719 47.671875 C 129.515625 46.167969 125.054688 44.828125 121.074219 42.300781 C 119.496094 41.300781 118.707031 40.265625 118.75 38.300781 C 118.957031 28.644531 120.101562 19.046875 120.402344 9.394531 C 120.542969 4.75 122.808594 2.050781 126.289062 1.800781 C 128.472656 1.644531 130.667969 1.71875 132.859375 1.957031 C 142.417969 3.015625 150.992188 6.765625 159.179688 11.554688 C 166.1875 15.65625 173.28125 19.632812 180.101562 24.03125 C 184.035156 26.566406 187.519531 26.90625 191.742188 24.785156 C 201.472656 19.898438 211.441406 15.5 220.859375 9.988281 C 227.863281 5.890625 235.324219 2.898438 243.46875 1.90625 C 244.296875 1.804688 245.136719 1.746094 245.972656 1.742188 C 251.488281 1.726562 253.191406 3.578125 253.742188 9.0625 C 254.664062 18.296875 254.820312 27.554688 255.214844 36.808594 C 255.386719 40.839844 254.199219 42.40625 250.234375 43.675781 C 245.582031 45.167969 240.773438 46.269531 236.648438 49.101562 C 234.671875 50.460938 233.164062 51.96875 233.882812 54.667969 C 234.1875 55.820312 233.984375 56.875 233.203125 57.921875 C 232.464844 58.910156 232.546875 60.265625 232.441406 61.464844 C 231.734375 69.488281 230.332031 77.414062 229.054688 85.351562 C 227.761719 93.425781 226.636719 101.519531 226.28125 109.691406 C 226.144531 112.824219 227.886719 115.488281 229.125 118.222656 C 232.21875 125.046875 236.449219 131.230469 240.507812 137.492188 C 246.777344 147.160156 252.960938 156.871094 258.550781 166.957031 C 263.484375 175.859375 267.640625 185.140625 272.121094 194.261719 C 279.863281 210.019531 285.59375 226.578125 291.609375 243.019531 C 298.789062 262.632812 303.84375 282.878906 309.054688 303.070312 C 311.753906 313.535156 314.332031 324.03125 316.160156 334.695312 C 316.648438 337.550781 317.039062 340.417969 317.457031 343.285156 C 317.835938 345.859375 317.320312 346.816406 314.761719 347.246094 C 311.515625 347.792969 308.117188 348.113281 305.011719 346.921875 C 302.667969 346.019531 300.402344 345.894531 298.019531 346.003906 C 295.707031 346.109375 293.390625 346.277344 291.074219 346.308594 C 289.796875 346.328125 289.394531 346.707031 289.636719 348.039062 C 290.300781 351.640625 290.847656 355.265625 291.394531 358.886719 C 291.746094 361.21875 291.5 361.460938 289.089844 361.859375 C 284.988281 362.535156 280.851562 362.128906 276.207031 362.296875 " fill-opacity="1" fill-rule="nonzero"/></g></svg>