<svg xmlns="http://www.w3.org/2000/svg" xmlns:xlink="http://www.w3.org/1999/xlink" width="500" zoomAndPan="magnify" viewBox="0 0 375 374.999991" height="500" preserveAspectRatio="xMidYMid meet" version="1.0"><path fill="#ffffff" d="M 371.460938 287.855469 L 371.285156 293.46875 C 371.253906 294.347656 371.1875 295.222656 371.078125 296.097656 C 370.96875 296.96875 370.824219 297.835938 370.636719 298.695312 C 370.453125 299.554688 370.226562 300.40625 369.964844 301.246094 C 369.703125 302.082031 369.40625 302.910156 369.066406 303.722656 C 368.730469 304.535156 368.359375 305.332031 367.953125 306.109375 C 367.542969 306.890625 367.101562 307.648438 366.628906 308.386719 C 366.152344 309.128906 365.644531 309.84375 365.101562 310.539062 C 364.5625 311.230469 363.992188 311.898438 363.394531 312.542969 C 362.792969 313.183594 362.164062 313.800781 361.511719 314.386719 C 360.855469 314.972656 360.175781 315.527344 359.46875 316.050781 C 358.765625 316.578125 358.039062 317.070312 357.289062 317.527344 C 356.539062 317.988281 355.769531 318.414062 354.984375 318.804688 C 354.195312 319.195312 353.390625 319.546875 352.574219 319.867188 C 351.753906 320.183594 350.921875 320.464844 350.078125 320.710938 C 349.234375 320.953125 348.378906 321.15625 347.515625 321.324219 C 346.65625 321.492188 345.785156 321.617188 344.910156 321.707031 C 344.660156 320.546875 344.359375 319.402344 344.007812 318.269531 C 343.660156 317.132812 343.261719 316.019531 342.816406 314.917969 C 342.371094 313.820312 341.882812 312.738281 341.347656 311.679688 C 340.808594 310.625 340.230469 309.589844 339.605469 308.582031 C 338.984375 307.574219 338.316406 306.59375 337.609375 305.640625 C 336.902344 304.6875 336.15625 303.765625 335.371094 302.878906 C 334.585938 301.988281 333.765625 301.136719 332.910156 300.316406 C 332.050781 299.496094 331.160156 298.714844 330.238281 297.972656 C 329.3125 297.230469 328.359375 296.527344 327.375 295.867188 C 326.390625 295.203125 325.382812 294.585938 324.347656 294.007812 C 323.308594 293.429688 322.25 292.898438 321.171875 292.414062 C 320.089844 291.929688 318.988281 291.488281 317.871094 291.09375 C 316.753906 290.703125 315.621094 290.359375 314.472656 290.0625 C 313.324219 289.765625 312.167969 289.519531 310.996094 289.320312 C 309.828125 289.121094 308.652344 288.972656 307.472656 288.875 C 306.292969 288.777344 305.109375 288.730469 303.921875 288.734375 C 302.738281 288.734375 301.554688 288.789062 300.375 288.890625 C 299.191406 288.996094 298.019531 289.148438 296.851562 289.351562 C 295.683594 289.554688 294.527344 289.804688 293.378906 290.105469 C 292.234375 290.410156 291.101562 290.757812 289.984375 291.15625 C 288.867188 291.554688 287.769531 291.996094 286.691406 292.488281 C 285.613281 292.980469 284.554688 293.515625 283.523438 294.09375 C 282.488281 294.675781 281.480469 295.300781 280.5 295.964844 C 279.519531 296.632812 278.570312 297.339844 277.648438 298.085938 C 276.730469 298.832031 275.839844 299.617188 274.988281 300.441406 C 274.132812 301.261719 273.316406 302.121094 272.535156 303.011719 C 271.753906 303.90625 271.011719 304.828125 270.308594 305.785156 C 269.605469 306.738281 268.945312 307.722656 268.324219 308.734375 C 267.703125 309.746094 267.128906 310.78125 266.597656 311.84375 C 266.066406 312.902344 265.582031 313.984375 265.140625 315.085938 C 264.703125 316.1875 264.308594 317.304688 263.964844 318.441406 C 263.621094 319.574219 263.324219 320.722656 263.074219 321.882812 L 124.027344 321.882812 C 123.792969 320.792969 123.515625 319.710938 123.195312 318.640625 C 122.875 317.574219 122.515625 316.519531 122.109375 315.480469 C 121.707031 314.4375 121.261719 313.417969 120.777344 312.410156 C 120.292969 311.40625 119.769531 310.421875 119.203125 309.460938 C 118.640625 308.5 118.039062 307.558594 117.402344 306.644531 C 116.761719 305.730469 116.089844 304.84375 115.378906 303.980469 C 114.667969 303.121094 113.925781 302.289062 113.152344 301.488281 C 112.375 300.6875 111.570312 299.917969 110.734375 299.179688 C 109.894531 298.445312 109.03125 297.742188 108.136719 297.074219 C 107.246094 296.40625 106.324219 295.773438 105.382812 295.179688 C 104.4375 294.585938 103.472656 294.03125 102.484375 293.511719 C 101.5 292.996094 100.492188 292.519531 99.464844 292.082031 C 98.441406 291.644531 97.398438 291.25 96.339844 290.894531 C 95.285156 290.542969 94.214844 290.230469 93.132812 289.960938 C 92.050781 289.695312 90.957031 289.46875 89.859375 289.289062 C 88.757812 289.105469 87.652344 288.96875 86.542969 288.878906 C 85.429688 288.785156 84.316406 288.738281 83.203125 288.734375 C 82.089844 288.730469 80.976562 288.769531 79.863281 288.855469 C 78.753906 288.941406 77.644531 289.070312 76.542969 289.242188 C 75.441406 289.417969 74.351562 289.636719 73.265625 289.894531 C 72.183594 290.15625 71.109375 290.460938 70.050781 290.808594 C 68.992188 291.152344 67.949219 291.542969 66.917969 291.972656 C 65.890625 292.402344 64.878906 292.871094 63.890625 293.382812 C 62.898438 293.894531 61.929688 294.441406 60.980469 295.03125 C 60.035156 295.621094 59.109375 296.246094 58.214844 296.90625 C 57.316406 297.570312 56.445312 298.265625 55.605469 298.996094 C 54.761719 299.726562 53.953125 300.492188 53.171875 301.289062 C 52.390625 302.085938 51.640625 302.910156 50.925781 303.765625 C 50.210938 304.621094 49.53125 305.503906 48.886719 306.414062 C 48.242188 307.324219 47.632812 308.261719 47.0625 309.21875 C 46.496094 310.179688 45.964844 311.160156 45.472656 312.160156 C 44.980469 313.160156 44.527344 314.179688 44.117188 315.21875 L 32.902344 315.21875 C 31.988281 315.21875 31.074219 315.175781 30.164062 315.09375 C 29.25 315.007812 28.347656 314.882812 27.445312 314.714844 C 26.546875 314.542969 25.660156 314.335938 24.777344 314.082031 C 23.898438 313.832031 23.03125 313.539062 22.179688 313.207031 C 21.328125 312.871094 20.492188 312.5 19.675781 312.089844 C 18.855469 311.679688 18.0625 311.230469 17.285156 310.746094 C 16.507812 310.257812 15.757812 309.738281 15.03125 309.183594 C 14.300781 308.628906 13.601562 308.039062 12.929688 307.417969 C 12.257812 306.796875 11.613281 306.148438 11.003906 305.464844 C 10.390625 304.785156 9.8125 304.078125 9.265625 303.339844 C 8.722656 302.605469 8.210938 301.847656 7.734375 301.066406 C 7.261719 300.28125 6.824219 299.480469 6.421875 298.65625 C 6.023438 297.832031 5.664062 296.992188 5.339844 296.132812 C 5.019531 295.277344 4.738281 294.40625 4.496094 293.523438 C 4.257812 292.636719 4.058594 291.746094 3.902344 290.84375 C 3.746094 289.941406 3.628906 289.03125 3.558594 288.121094 C 3.484375 287.207031 3.453125 286.292969 3.46875 285.378906 C 3.480469 284.460938 3.535156 283.546875 3.632812 282.636719 C 3.730469 281.726562 3.871094 280.824219 4.054688 279.925781 C 4.238281 279.027344 4.460938 278.140625 4.726562 277.265625 C 4.992188 276.386719 5.296875 275.527344 5.640625 274.679688 C 5.988281 273.828125 6.371094 273 6.792969 272.1875 C 7.214844 271.375 7.675781 270.585938 8.171875 269.816406 C 8.667969 269.046875 9.199219 268.300781 9.765625 267.582031 C 10.332031 266.863281 10.929688 266.171875 11.5625 265.507812 C 12.191406 264.84375 12.851562 264.210938 13.542969 263.609375 C 14.230469 263.007812 14.949219 262.4375 15.691406 261.902344 C 16.433594 261.367188 17.199219 260.871094 17.988281 260.40625 C 18.777344 259.941406 19.585938 259.515625 20.414062 259.128906 C 21.246094 258.742188 22.089844 258.394531 22.953125 258.085938 C 23.8125 257.777344 24.6875 257.507812 25.574219 257.28125 C 26.460938 257.054688 27.355469 256.867188 28.257812 256.722656 L 33.429688 255.933594 C 35.144531 255.65625 36.839844 255.285156 38.511719 254.820312 C 40.1875 254.355469 41.832031 253.796875 43.445312 253.148438 C 45.058594 252.503906 46.628906 251.765625 48.160156 250.945312 C 49.691406 250.121094 51.175781 249.21875 52.605469 248.230469 C 54.035156 247.246094 55.410156 246.183594 56.722656 245.042969 C 58.035156 243.90625 59.285156 242.695312 60.464844 241.417969 C 61.644531 240.140625 62.75 238.804688 63.78125 237.402344 C 64.8125 236.003906 65.765625 234.550781 66.636719 233.046875 L 79.691406 210.421875 C 80.328125 209.304688 81.039062 208.238281 81.816406 207.21875 C 82.597656 206.195312 83.4375 205.230469 84.34375 204.320312 C 85.25 203.410156 86.210938 202.5625 87.226562 201.777344 C 88.246094 200.996094 89.308594 200.28125 90.417969 199.636719 C 91.527344 198.992188 92.675781 198.425781 93.863281 197.929688 C 95.046875 197.4375 96.257812 197.027344 97.5 196.691406 C 98.738281 196.359375 99.996094 196.109375 101.265625 195.941406 C 102.539062 195.773438 103.816406 195.6875 105.101562 195.6875 L 212.871094 195.6875 C 216.316406 195.667969 219.660156 196.25 222.898438 197.425781 C 226.140625 198.601562 229.074219 200.300781 231.707031 202.527344 L 278.757812 241.726562 C 282.207031 244.625 285.996094 246.96875 290.128906 248.761719 C 294.257812 250.550781 298.558594 251.714844 303.03125 252.25 L 345.699219 257.601562 C 346.601562 257.710938 347.5 257.863281 348.386719 258.058594 C 349.273438 258.253906 350.152344 258.488281 351.019531 258.761719 C 351.886719 259.039062 352.738281 259.355469 353.574219 259.710938 C 354.414062 260.0625 355.230469 260.457031 356.03125 260.890625 C 356.835938 261.320312 357.613281 261.789062 358.371094 262.289062 C 359.128906 262.792969 359.859375 263.332031 360.566406 263.902344 C 361.277344 264.476562 361.957031 265.078125 362.605469 265.714844 C 363.257812 266.347656 363.878906 267.011719 364.46875 267.707031 C 365.058594 268.398438 365.613281 269.117188 366.136719 269.863281 C 366.660156 270.605469 367.148438 271.375 367.601562 272.164062 C 368.050781 272.953125 368.46875 273.761719 368.84375 274.589844 C 369.21875 275.417969 369.558594 276.265625 369.855469 277.125 C 370.15625 277.984375 370.414062 278.855469 370.628906 279.738281 C 370.847656 280.625 371.023438 281.515625 371.15625 282.414062 C 371.292969 283.316406 371.382812 284.21875 371.433594 285.128906 C 371.484375 286.039062 371.492188 286.945312 371.460938 287.855469 Z M 371.460938 287.855469 " fill-opacity="1" fill-rule="nonzero"/><path fill="#ffffff" d="M 107.464844 330.652344 C 107.46875 331.828125 107.378906 332.996094 107.203125 334.160156 C 107.09375 334.890625 106.953125 335.613281 106.78125 336.328125 C 106.609375 337.042969 106.402344 337.75 106.167969 338.449219 C 105.929688 339.144531 105.664062 339.832031 105.363281 340.503906 C 105.066406 341.179688 104.738281 341.835938 104.378906 342.480469 C 104.019531 343.125 103.632812 343.75 103.21875 344.359375 C 102.804688 344.96875 102.363281 345.554688 101.894531 346.125 C 101.425781 346.695312 100.933594 347.242188 100.417969 347.765625 C 99.898438 348.289062 99.359375 348.789062 98.796875 349.265625 C 98.234375 349.738281 97.652344 350.1875 97.050781 350.609375 C 96.445312 351.035156 95.824219 351.429688 95.1875 351.792969 C 94.546875 352.160156 93.894531 352.496094 93.226562 352.804688 C 92.558594 353.113281 91.875 353.386719 91.179688 353.632812 C 90.488281 353.878906 89.785156 354.09375 89.070312 354.273438 C 88.355469 354.457031 87.636719 354.605469 86.910156 354.722656 C 86.183594 354.839844 85.453125 354.921875 84.71875 354.972656 C 83.984375 355.023438 83.25 355.042969 82.511719 355.023438 C 81.777344 355.007812 81.042969 354.960938 80.3125 354.878906 C 79.578125 354.796875 78.851562 354.679688 78.132812 354.53125 C 77.410156 354.382812 76.699219 354.203125 75.992188 353.992188 C 75.289062 353.777344 74.59375 353.535156 73.914062 353.257812 C 73.230469 352.984375 72.558594 352.675781 71.90625 352.339844 C 71.25 352.003906 70.613281 351.640625 69.988281 351.246094 C 69.367188 350.851562 68.765625 350.433594 68.179688 349.984375 C 67.597656 349.535156 67.03125 349.0625 66.492188 348.5625 C 65.949219 348.0625 65.433594 347.539062 64.9375 346.992188 C 64.445312 346.449219 63.976562 345.878906 63.535156 345.292969 C 63.089844 344.703125 62.675781 344.097656 62.285156 343.46875 C 61.898438 342.84375 61.539062 342.203125 61.210938 341.542969 C 60.878906 340.882812 60.582031 340.210938 60.3125 339.527344 C 60.042969 338.839844 59.804688 338.144531 59.597656 337.4375 C 59.390625 336.730469 59.21875 336.015625 59.074219 335.292969 C 58.933594 334.570312 58.824219 333.839844 58.75 333.109375 C 58.675781 332.289062 58.644531 331.472656 58.660156 330.652344 C 58.660156 329.851562 58.703125 329.054688 58.78125 328.257812 C 58.859375 327.460938 58.976562 326.671875 59.132812 325.886719 C 59.285156 325.101562 59.480469 324.328125 59.710938 323.5625 C 59.945312 322.796875 60.214844 322.042969 60.519531 321.304688 C 60.824219 320.566406 61.167969 319.84375 61.542969 319.140625 C 61.921875 318.433594 62.332031 317.75 62.773438 317.082031 C 63.21875 316.417969 63.695312 315.777344 64.199219 315.160156 C 64.707031 314.539062 65.242188 313.949219 65.808594 313.382812 C 66.375 312.816406 66.964844 312.28125 67.582031 311.773438 C 68.203125 311.265625 68.84375 310.789062 69.507812 310.34375 C 70.171875 309.902344 70.855469 309.488281 71.5625 309.113281 C 72.265625 308.734375 72.988281 308.394531 73.726562 308.089844 C 74.464844 307.78125 75.214844 307.511719 75.980469 307.28125 C 76.746094 307.046875 77.519531 306.855469 78.304688 306.699219 C 79.085938 306.542969 79.875 306.425781 80.671875 306.347656 C 81.46875 306.269531 82.265625 306.230469 83.0625 306.230469 C 83.863281 306.230469 84.660156 306.269531 85.457031 306.347656 C 86.25 306.425781 87.039062 306.542969 87.824219 306.699219 C 88.609375 306.855469 89.382812 307.046875 90.148438 307.28125 C 90.910156 307.511719 91.664062 307.78125 92.402344 308.089844 C 93.140625 308.394531 93.863281 308.734375 94.566406 309.113281 C 95.273438 309.488281 95.957031 309.902344 96.621094 310.34375 C 97.285156 310.789062 97.925781 311.265625 98.542969 311.773438 C 99.160156 312.28125 99.753906 312.816406 100.320312 313.382812 C 100.882812 313.949219 101.417969 314.539062 101.925781 315.160156 C 102.433594 315.777344 102.910156 316.417969 103.351562 317.082031 C 103.796875 317.75 104.207031 318.433594 104.585938 319.140625 C 104.960938 319.84375 105.300781 320.566406 105.609375 321.304688 C 105.914062 322.042969 106.183594 322.796875 106.414062 323.5625 C 106.648438 324.328125 106.839844 325.101562 106.996094 325.886719 C 107.152344 326.671875 107.269531 327.460938 107.347656 328.257812 C 107.425781 329.054688 107.464844 329.851562 107.464844 330.652344 Z M 107.464844 330.652344 " fill-opacity="1" fill-rule="nonzero"/><path fill="#ffffff" d="M 328.4375 330.652344 C 328.414062 333.476562 327.949219 336.222656 327.039062 338.894531 L 326.949219 338.894531 C 318.71875 364.101562 278.996094 357.203125 279.636719 330.652344 C 279.199219 299.089844 328.863281 298.988281 328.4375 330.652344 Z M 328.4375 330.652344 " fill-opacity="1" fill-rule="nonzero"/><path fill="#ffffff" d="M 371.460938 287.855469 L 371.285156 293.46875 C 371.253906 294.347656 371.1875 295.222656 371.078125 296.097656 C 370.96875 296.96875 370.824219 297.835938 370.636719 298.695312 C 370.453125 299.554688 370.226562 300.40625 369.964844 301.246094 C 369.703125 302.082031 369.40625 302.910156 369.066406 303.722656 C 368.730469 304.535156 368.359375 305.332031 367.953125 306.109375 C 367.542969 306.890625 367.101562 307.648438 366.628906 308.386719 C 366.152344 309.128906 365.644531 309.84375 365.101562 310.539062 C 364.5625 311.230469 363.992188 311.898438 363.394531 312.542969 C 362.792969 313.183594 362.164062 313.800781 361.511719 314.386719 C 360.855469 314.972656 360.175781 315.527344 359.46875 316.050781 C 358.765625 316.578125 358.039062 317.070312 357.289062 317.527344 C 356.539062 317.988281 355.769531 318.414062 354.984375 318.804688 C 354.195312 319.195312 353.390625 319.546875 352.574219 319.867188 C 351.753906 320.183594 350.921875 320.464844 350.078125 320.710938 C 349.234375 320.953125 348.378906 321.15625 347.515625 321.324219 C 346.65625 321.492188 345.785156 321.617188 344.910156 321.707031 C 344.660156 320.546875 344.359375 319.402344 344.007812 318.269531 C 343.660156 317.132812 343.261719 316.019531 342.816406 314.917969 C 342.371094 313.820312 341.882812 312.738281 341.347656 311.679688 C 340.808594 310.625 340.230469 309.589844 339.605469 308.582031 C 338.984375 307.574219 338.316406 306.59375 337.609375 305.640625 C 336.902344 304.6875 336.15625 303.765625 335.371094 302.878906 C 334.585938 301.988281 333.765625 301.136719 332.910156 300.316406 C 332.050781 299.496094 331.160156 298.714844 330.238281 297.972656 C 329.3125 297.230469 328.359375 296.527344 327.375 295.867188 C 326.390625 295.203125 325.382812 294.585938 324.347656 294.007812 C 323.308594 293.429688 322.25 292.898438 321.171875 292.414062 C 320.089844 291.929688 318.988281 291.488281 317.871094 291.09375 C 316.753906 290.703125 315.621094 290.359375 314.472656 290.0625 C 313.324219 289.765625 312.167969 289.519531 310.996094 289.320312 C 309.828125 289.121094 308.652344 288.972656 307.472656 288.875 C 306.292969 288.777344 305.109375 288.730469 303.921875 288.734375 C 302.738281 288.734375 301.554688 288.789062 300.375 288.890625 C 299.191406 288.996094 298.019531 289.148438 296.851562 289.351562 C 295.683594 289.554688 294.527344 289.804688 293.378906 290.105469 C 292.234375 290.410156 291.101562 290.757812 289.984375 291.15625 C 288.867188 291.554688 287.769531 291.996094 286.691406 292.488281 C 285.613281 292.980469 284.554688 293.515625 283.523438 294.09375 C 282.488281 294.675781 281.480469 295.300781 280.5 295.964844 C 279.519531 296.632812 278.570312 297.339844 277.648438 298.085938 C 276.730469 298.832031 275.839844 299.617188 274.988281 300.441406 C 274.132812 301.261719 273.316406 302.121094 272.535156 303.011719 C 271.753906 303.90625 271.011719 304.828125 270.308594 305.785156 C 269.605469 306.738281 268.945312 307.722656 268.324219 308.734375 C 267.703125 309.746094 267.128906 310.78125 266.597656 311.84375 C 266.066406 312.902344 265.582031 313.984375 265.140625 315.085938 C 264.703125 316.1875 264.308594 317.304688 263.964844 318.441406 C 263.621094 319.574219 263.324219 320.722656 263.074219 321.882812 L 124.027344 321.882812 C 123.792969 320.792969 123.515625 319.710938 123.195312 318.640625 C 122.875 317.574219 122.515625 316.519531 122.109375 315.480469 C 121.707031 314.4375 121.261719 313.417969 120.777344 312.410156 C 120.292969 311.40625 119.769531 310.421875 119.203125 309.460938 C 118.640625 308.5 118.039062 307.558594 117.402344 306.644531 C 116.761719 305.730469 116.089844 304.84375 115.378906 303.980469 C 114.667969 303.121094 113.925781 302.289062 113.152344 301.488281 C 112.375 300.6875 111.570312 299.917969 110.734375 299.179688 C 109.894531 298.445312 109.03125 297.742188 108.136719 297.074219 C 107.246094 296.40625 106.324219 295.773438 105.382812 295.179688 C 104.4375 294.585938 103.472656 294.03125 102.484375 293.511719 C 101.5 292.996094 100.492188 292.519531 99.464844 292.082031 C 98.441406 291.644531 97.398438 291.25 96.339844 290.894531 C 95.285156 290.542969 94.214844 290.230469 93.132812 289.960938 C 92.050781 289.695312 90.957031 289.46875 89.859375 289.289062 C 88.757812 289.105469 87.652344 288.96875 86.542969 288.878906 C 85.429688 288.785156 84.316406 288.738281 83.203125 288.734375 C 82.089844 288.730469 80.976562 288.769531 79.863281 288.855469 C 78.753906 288.941406 77.644531 289.070312 76.542969 289.242188 C 75.441406 289.417969 74.351562 289.636719 73.265625 289.894531 C 72.183594 290.15625 71.109375 290.460938 70.050781 290.808594 C 68.992188 291.152344 67.949219 291.542969 66.917969 291.972656 C 65.890625 292.402344 64.878906 292.871094 63.890625 293.382812 C 62.898438 293.894531 61.929688 294.441406 60.980469 295.03125 C 60.035156 295.621094 59.109375 296.246094 58.214844 296.90625 C 57.316406 297.570312 56.445312 298.265625 55.605469 298.996094 C 54.761719 299.726562 53.953125 300.492188 53.171875 301.289062 C 52.390625 302.085938 51.640625 302.910156 50.925781 303.765625 C 50.210938 304.621094 49.53125 305.503906 48.886719 306.414062 C 48.242188 307.324219 47.632812 308.261719 47.0625 309.21875 C 46.496094 310.179688 45.964844 311.160156 45.472656 312.160156 C 44.980469 313.160156 44.527344 314.179688 44.117188 315.21875 L 32.902344 315.21875 C 31.988281 315.21875 31.074219 315.175781 30.164062 315.09375 C 29.25 315.007812 28.347656 314.882812 27.445312 314.714844 C 26.546875 314.542969 25.660156 314.335938 24.777344 314.082031 C 23.898438 313.832031 23.03125 313.539062 22.179688 313.207031 C 21.328125 312.871094 20.492188 312.5 19.675781 312.089844 C 18.855469 311.679688 18.0625 311.230469 17.285156 310.746094 C 16.507812 310.257812 15.757812 309.738281 15.03125 309.183594 C 14.300781 308.628906 13.601562 308.039062 12.929688 307.417969 C 12.257812 306.796875 11.613281 306.148438 11.003906 305.464844 C 10.390625 304.785156 9.8125 304.078125 9.265625 303.339844 C 8.722656 302.605469 8.210938 301.847656 7.734375 301.066406 C 7.261719 300.28125 6.824219 299.480469 6.421875 298.65625 C 6.023438 297.832031 5.664062 296.992188 5.339844 296.132812 C 5.019531 295.277344 4.738281 294.40625 4.496094 293.523438 C 4.257812 292.636719 4.058594 291.746094 3.902344 290.84375 C 3.746094 289.941406 3.628906 289.03125 3.558594 288.121094 C 3.484375 287.207031 3.453125 286.292969 3.46875 285.378906 C 3.480469 284.460938 3.535156 283.546875 3.632812 282.636719 C 3.730469 281.726562 3.871094 280.824219 4.054688 279.925781 C 4.238281 279.027344 4.460938 278.140625 4.726562 277.265625 C 4.992188 276.386719 5.296875 275.527344 5.640625 274.679688 C 5.988281 273.828125 6.371094 273 6.792969 272.1875 C 7.214844 271.375 7.675781 270.585938 8.171875 269.816406 C 8.667969 269.046875 9.199219 268.300781 9.765625 267.582031 C 10.332031 266.863281 10.929688 266.171875 11.5625 265.507812 C 12.191406 264.84375 12.851562 264.210938 13.542969 263.609375 C 14.230469 263.007812 14.949219 262.4375 15.691406 261.902344 C 16.433594 261.367188 17.199219 260.871094 17.988281 260.40625 C 18.777344 259.941406 19.585938 259.515625 20.414062 259.128906 C 21.246094 258.742188 22.089844 258.394531 22.953125 258.085938 C 23.8125 257.777344 24.6875 257.507812 25.574219 257.28125 C 26.460938 257.054688 27.355469 256.867188 28.257812 256.722656 L 33.429688 255.933594 C 35.144531 255.65625 36.839844 255.285156 38.511719 254.820312 C 40.1875 254.355469 41.832031 253.796875 43.445312 253.148438 C 45.058594 252.503906 46.628906 251.765625 48.160156 250.945312 C 49.691406 250.121094 51.175781 249.21875 52.605469 248.230469 C 54.035156 247.246094 55.410156 246.183594 56.722656 245.042969 C 58.035156 243.90625 59.285156 242.695312 60.464844 241.417969 C 61.644531 240.140625 62.75 238.804688 63.78125 237.402344 C 64.8125 236.003906 65.765625 234.550781 66.636719 233.046875 L 79.691406 210.421875 C 80.328125 209.304688 81.039062 208.238281 81.816406 207.21875 C 82.597656 206.195312 83.4375 205.230469 84.34375 204.320312 C 85.25 203.410156 86.210938 202.5625 87.226562 201.777344 C 88.246094 200.996094 89.308594 200.28125 90.417969 199.636719 C 91.527344 198.992188 92.675781 198.425781 93.863281 197.929688 C 95.046875 197.4375 96.257812 197.027344 97.5 196.691406 C 98.738281 196.359375 99.996094 196.109375 101.265625 195.941406 C 102.539062 195.773438 103.816406 195.6875 105.101562 195.6875 L 212.871094 195.6875 C 216.316406 195.667969 219.660156 196.25 222.898438 197.425781 C 226.140625 198.601562 229.074219 200.300781 231.707031 202.527344 L 278.757812 241.726562 C 282.207031 244.625 285.996094 246.96875 290.128906 248.761719 C 294.257812 250.550781 298.558594 251.714844 303.03125 252.25 L 345.699219 257.601562 C 346.601562 257.710938 347.5 257.863281 348.386719 258.058594 C 349.273438 258.253906 350.152344 258.488281 351.019531 258.761719 C 351.886719 259.039062 352.738281 259.355469 353.574219 259.710938 C 354.414062 260.0625 355.230469 260.457031 356.03125 260.890625 C 356.835938 261.320312 357.613281 261.789062 358.371094 262.289062 C 359.128906 262.792969 359.859375 263.332031 360.566406 263.902344 C 361.277344 264.476562 361.957031 265.078125 362.605469 265.714844 C 363.257812 266.347656 363.878906 267.011719 364.46875 267.707031 C 365.058594 268.398438 365.613281 269.117188 366.136719 269.863281 C 366.660156 270.605469 367.148438 271.375 367.601562 272.164062 C 368.050781 272.953125 368.46875 273.761719 368.84375 274.589844 C 369.21875 275.417969 369.558594 276.265625 369.855469 277.125 C 370.15625 277.984375 370.414062 278.855469 370.628906 279.738281 C 370.847656 280.625 371.023438 281.515625 371.15625 282.414062 C 371.292969 283.316406 371.382812 284.21875 371.433594 285.128906 C 371.484375 286.039062 371.492188 286.945312 371.460938 287.855469 Z M 371.460938 287.855469 " fill-opacity="1" fill-rule="nonzero"/><path fill="#ffffff" d="M 360.421875 119.917969 C 359.34375 118.894531 358.179688 117.988281 356.925781 117.191406 C 355.671875 116.394531 354.355469 115.726562 352.976562 115.1875 C 351.59375 114.644531 350.171875 114.242188 348.714844 113.976562 C 347.253906 113.707031 345.78125 113.585938 344.296875 113.605469 C 341.3125 113.523438 338.40625 113.957031 335.574219 114.90625 C 332.742188 115.855469 330.160156 117.261719 327.824219 119.128906 L 322.917969 123.074219 C 322.535156 123.402344 322.121094 123.691406 321.683594 123.945312 C 321.25 124.199219 320.792969 124.414062 320.316406 124.589844 C 319.84375 124.761719 319.359375 124.894531 318.859375 124.980469 C 318.363281 125.070312 317.859375 125.113281 317.355469 125.113281 C 316.851562 125.113281 316.347656 125.070312 315.851562 124.980469 C 315.355469 124.894531 314.867188 124.761719 314.394531 124.589844 C 313.917969 124.414062 313.460938 124.199219 313.027344 123.945312 C 312.589844 123.691406 312.175781 123.402344 311.792969 123.074219 L 309.425781 121.144531 C 307.101562 119.363281 304.550781 118.007812 301.773438 117.074219 C 298.996094 116.144531 296.144531 115.6875 293.214844 115.707031 C 291.699219 115.683594 290.191406 115.804688 288.699219 116.074219 C 287.203125 116.34375 285.75 116.757812 284.335938 117.316406 C 282.921875 117.871094 281.578125 118.5625 280.300781 119.382812 C 279.023438 120.203125 277.835938 121.144531 276.746094 122.199219 C 275.714844 123.273438 274.800781 124.4375 273.992188 125.691406 C 273.1875 126.941406 272.507812 128.261719 271.949219 129.640625 C 271.394531 131.023438 270.976562 132.445312 270.691406 133.90625 C 270.40625 135.371094 270.265625 136.84375 270.261719 138.335938 C 270.164062 139.429688 270.199219 140.519531 270.363281 141.605469 C 270.53125 142.691406 270.824219 143.742188 271.242188 144.757812 C 271.664062 145.773438 272.195312 146.722656 272.84375 147.609375 C 273.492188 148.496094 274.238281 149.292969 275.078125 149.996094 C 280.425781 153.59375 285.679688 157.011719 291.113281 160.519531 C 299.523438 165.957031 308.285156 171.484375 317.222656 178.0625 C 326.863281 170.871094 336.148438 164.730469 345.261719 158.855469 C 350.871094 155.171875 356.476562 151.578125 361.910156 147.804688 C 362.652344 147.226562 363.324219 146.574219 363.921875 145.847656 C 364.523438 145.117188 365.035156 144.332031 365.457031 143.492188 C 365.882812 142.648438 366.210938 141.769531 366.4375 140.855469 C 366.667969 139.941406 366.792969 139.015625 366.816406 138.070312 C 366.972656 136.417969 366.953125 134.765625 366.75 133.113281 C 366.546875 131.464844 366.171875 129.855469 365.617188 128.289062 C 365.066406 126.722656 364.351562 125.230469 363.476562 123.820312 C 362.597656 122.40625 361.582031 121.105469 360.421875 119.917969 Z M 360.421875 119.917969 " fill-opacity="1" fill-rule="nonzero"/><path fill="#ffffff" d="M 366.816406 138.070312 C 366.792969 139.015625 366.667969 139.941406 366.4375 140.855469 C 366.210938 141.769531 365.882812 142.648438 365.457031 143.492188 C 365.035156 144.332031 364.523438 145.117188 363.921875 145.847656 C 363.324219 146.574219 362.652344 147.226562 361.910156 147.804688 C 356.476562 151.578125 350.871094 155.171875 345.261719 158.855469 C 336.148438 164.730469 326.863281 170.871094 317.222656 178.0625 C 308.285156 171.484375 299.523438 165.957031 291.113281 160.519531 C 285.679688 157.011719 280.425781 153.59375 275.078125 149.996094 C 274.238281 149.292969 273.492188 148.496094 272.84375 147.609375 C 272.195312 146.722656 271.664062 145.773438 271.242188 144.757812 C 270.824219 143.742188 270.53125 142.691406 270.363281 141.605469 C 270.199219 140.519531 270.164062 139.429688 270.261719 138.335938 C 270.265625 136.84375 270.40625 135.371094 270.691406 133.90625 C 270.976562 132.445312 271.394531 131.023438 271.949219 129.640625 C 272.507812 128.261719 273.1875 126.941406 273.992188 125.691406 C 274.800781 124.4375 275.714844 123.273438 276.746094 122.199219 C 277.835938 121.144531 279.023438 120.203125 280.300781 119.382812 C 281.578125 118.5625 282.921875 117.871094 284.335938 117.316406 C 285.75 116.757812 287.203125 116.34375 288.699219 116.074219 C 290.191406 115.804688 291.699219 115.683594 293.214844 115.707031 C 296.144531 115.6875 298.996094 116.144531 301.773438 117.074219 C 304.550781 118.007812 307.101562 119.363281 309.425781 121.144531 L 311.792969 123.074219 C 312.175781 123.402344 312.589844 123.691406 313.027344 123.945312 C 313.460938 124.199219 313.917969 124.414062 314.394531 124.589844 C 314.867188 124.761719 315.355469 124.894531 315.851562 124.980469 C 316.347656 125.070312 316.851562 125.113281 317.355469 125.113281 C 317.859375 125.113281 318.363281 125.070312 318.859375 124.980469 C 319.359375 124.894531 319.84375 124.761719 320.316406 124.589844 C 320.792969 124.414062 321.25 124.199219 321.683594 123.945312 C 322.121094 123.691406 322.535156 123.402344 322.917969 123.074219 L 327.824219 119.128906 C 330.160156 117.261719 332.742188 115.855469 335.574219 114.90625 C 338.40625 113.957031 341.3125 113.523438 344.296875 113.605469 C 345.085938 113.578125 345.867188 113.59375 346.652344 113.652344 C 347.4375 113.714844 348.214844 113.8125 348.988281 113.957031 C 349.761719 114.097656 350.523438 114.28125 351.277344 114.507812 C 352.03125 114.730469 352.773438 114.996094 353.496094 115.300781 C 354.222656 115.605469 354.929688 115.949219 355.617188 116.328125 C 356.304688 116.707031 356.972656 117.125 357.613281 117.578125 C 358.257812 118.027344 358.875 118.511719 359.46875 119.03125 C 360.058594 119.550781 360.621094 120.097656 361.152344 120.675781 C 361.6875 121.257812 362.1875 121.863281 362.65625 122.496094 C 363.121094 123.128906 363.554688 123.78125 363.953125 124.460938 C 364.347656 125.140625 364.707031 125.839844 365.03125 126.558594 C 365.351562 127.273438 365.636719 128.007812 365.878906 128.757812 C 366.125 129.503906 366.324219 130.265625 366.488281 131.035156 C 366.648438 131.804688 366.769531 132.582031 366.847656 133.363281 C 366.929688 134.144531 366.964844 134.929688 366.960938 135.71875 C 366.953125 136.503906 366.90625 137.289062 366.816406 138.070312 Z M 366.816406 138.070312 " fill-opacity="1" fill-rule="nonzero"/><path fill="#ffffff" d="M 255.890625 40.992188 C 255.84375 42.125 255.675781 43.242188 255.382812 44.335938 C 255.089844 45.433594 254.683594 46.488281 254.160156 47.496094 C 253.636719 48.5 253.011719 49.441406 252.285156 50.3125 C 251.558594 51.179688 250.746094 51.960938 249.84375 52.65625 C 243.710938 56.953125 237.402344 61.074219 231.007812 65.195312 C 220.667969 71.949219 209.890625 78.875 198.9375 87.296875 C 188.601562 79.664062 178.613281 73.261719 168.886719 67.035156 C 162.753906 63.089844 156.792969 59.230469 150.925781 55.199219 C 149.878906 54.371094 148.953125 53.429688 148.148438 52.371094 C 147.339844 51.3125 146.675781 50.167969 146.15625 48.945312 C 145.636719 47.71875 145.273438 46.445312 145.074219 45.128906 C 144.871094 43.8125 144.835938 42.492188 144.964844 41.167969 C 144.949219 40.285156 144.976562 39.402344 145.050781 38.523438 C 145.121094 37.644531 145.238281 36.769531 145.398438 35.902344 C 145.558594 35.035156 145.765625 34.179688 146.011719 33.332031 C 146.257812 32.484375 146.550781 31.652344 146.882812 30.835938 C 147.214844 30.019531 147.585938 29.21875 148 28.441406 C 148.414062 27.660156 148.863281 26.902344 149.355469 26.171875 C 149.84375 25.4375 150.371094 24.730469 150.929688 24.050781 C 151.492188 23.371094 152.085938 22.71875 152.714844 22.097656 C 153.34375 21.480469 154 20.894531 154.6875 20.339844 C 155.375 19.785156 156.085938 19.269531 156.824219 18.789062 C 157.566406 18.308594 158.328125 17.867188 159.109375 17.464844 C 159.894531 17.058594 160.699219 16.699219 161.519531 16.375 C 162.339844 16.054688 163.175781 15.773438 164.023438 15.539062 C 164.875 15.300781 165.734375 15.109375 166.601562 14.957031 C 167.46875 14.808594 168.34375 14.703125 169.222656 14.644531 C 170.105469 14.582031 170.984375 14.566406 171.863281 14.59375 C 175.285156 14.59375 178.613281 15.140625 181.855469 16.238281 C 185.09375 17.332031 188.074219 18.917969 190.789062 20.996094 L 193.507812 23.1875 C 193.894531 23.503906 194.304688 23.785156 194.738281 24.03125 C 195.171875 24.277344 195.625 24.484375 196.097656 24.652344 C 196.566406 24.820312 197.046875 24.949219 197.539062 25.035156 C 198.03125 25.121094 198.527344 25.160156 199.027344 25.160156 C 199.527344 25.160156 200.023438 25.121094 200.515625 25.035156 C 201.007812 24.949219 201.488281 24.820312 201.957031 24.652344 C 202.429688 24.484375 202.878906 24.277344 203.316406 24.03125 C 203.75 23.785156 204.160156 23.503906 204.546875 23.1875 L 210.15625 18.628906 C 212.902344 16.488281 215.933594 14.875 219.242188 13.792969 C 222.554688 12.707031 225.949219 12.214844 229.429688 12.316406 C 231.164062 12.277344 232.886719 12.414062 234.59375 12.71875 C 236.304688 13.019531 237.964844 13.488281 239.582031 14.121094 C 241.199219 14.753906 242.738281 15.539062 244.199219 16.472656 C 245.660156 17.410156 247.015625 18.476562 248.269531 19.679688 C 249.632812 21.078125 250.835938 22.601562 251.871094 24.257812 C 252.90625 25.914062 253.753906 27.660156 254.410156 29.5 C 255.070312 31.339844 255.523438 33.226562 255.773438 35.164062 C 256.023438 37.101562 256.0625 39.046875 255.890625 40.992188 Z M 255.890625 40.992188 " fill-opacity="1" fill-rule="nonzero"/></svg>