<svg xmlns="http://www.w3.org/2000/svg" xmlns:xlink="http://www.w3.org/1999/xlink" width="500" zoomAndPan="magnify" viewBox="0 0 375 374.999991" height="500" preserveAspectRatio="xMidYMid meet" version="1.0"><defs><clipPath id="4499868ae8"><path d="M 35 2.40625 L 343 2.40625 L 343 372 L 35 372 Z M 35 2.40625 " clip-rule="nonzero"/></clipPath></defs><g clip-path="url(#4499868ae8)"><path fill="#000000" d="M 174.085938 213.390625 C 169.4375 208.628906 159.085938 200.125 148.773438 190.429688 C 138.457031 180.734375 128.222656 169.707031 118.011719 157.320312 C 107.800781 144.9375 97.503906 131.246094 89.976562 118.953125 C 82.453125 106.664062 78.464844 96.683594 76.058594 87.597656 C 73.652344 78.515625 72.792969 70.34375 73.398438 63.074219 C 74.007812 55.808594 76.03125 49.375 78.503906 45.855469 C 80.972656 42.335938 83.921875 40.707031 86.816406 40.027344 C 89.714844 39.351562 92.75 39.539062 96.148438 40.691406 C 99.542969 41.84375 103.339844 44.085938 106.53125 46.582031 C 109.722656 49.078125 111.933594 51.011719 113.984375 52.9375 C 116.035156 54.859375 117.925781 56.773438 119.65625 58.675781 C 121.386719 60.574219 122.957031 62.460938 124.402344 64.238281 C 125.847656 66.011719 127.507812 68.210938 129.964844 71.777344 C 132.417969 75.339844 135.617188 80.210938 139.539062 86.363281 C 143.460938 92.515625 148.101562 99.941406 150.976562 104.558594 C 153.851562 109.171875 154.550781 110.085938 155.359375 110.914062 C 156.171875 111.746094 157.101562 112.472656 158.152344 113.058594 C 159.207031 113.648438 160.351562 114.058594 166.640625 105.769531 C 172.925781 97.476562 178.089844 85.324219 183.207031 74.957031 C 188.324219 64.589844 193.378906 56.019531 198.320312 49.257812 C 203.265625 42.5 208.042969 37.558594 213.867188 32.902344 C 219.691406 28.242188 226.484375 23.820312 233.582031 20.574219 C 240.679688 17.328125 248.113281 15.234375 255.921875 14.289062 C 263.734375 13.34375 271.953125 13.550781 281.957031 15.992188 C 291.957031 18.4375 302.359375 23.523438 310.359375 30.152344 C 318.359375 36.785156 324.105469 45 327.710938 54.976562 C 331.316406 64.957031 332.75 76.84375 331.019531 91.953125 C 329.292969 107.066406 323.886719 124.863281 315.496094 143.15625 C 307.101562 161.445312 295.699219 180.222656 281.265625 199.46875 C 266.832031 218.714844 249.359375 238.421875 231.71875 255.597656 C 214.078125 272.773438 197.019531 286.46875 178.085938 299.136719 C 159.148438 311.804688 138.398438 323.578125 115.960938 334.855469 C 93.523438 346.136719 69.300781 356.929688 50.214844 364.902344 C 31.128906 372.875 31.128906 372.875 44.160156 368.402344 C 44.160156 368.402344 71.148438 361.988281 95.898438 352.914062 C 120.652344 343.835938 143.445312 333.175781 164.171875 320.960938 C 184.898438 308.742188 203.726562 295.363281 220.6875 280.878906 C 237.644531 266.394531 257.507812 246.015625 274.347656 226.011719 C 291.183594 206.003906 305.011719 186.335938 315.8125 166.988281 C 326.617188 147.640625 334.375 128.605469 339.074219 109.804688 C 343.769531 91.003906 343.867188 76.230469 341.378906 63.398438 C 338.890625 50.566406 333.761719 39.453125 326.003906 30.257812 C 318.246094 21.0625 307.980469 13.902344 295.316406 8.757812 C 282.648438 3.617188 272.742188 2.433594 263.597656 2.636719 C 254.453125 2.84375 245.65625 4.367188 237.25 7.207031 C 228.847656 10.046875 220.867188 14.195312 213.421875 19.550781 C 205.976562 24.902344 200.496094 29.367188 194.941406 35.714844 C 189.386719 42.066406 183.960938 50.070312 178.601562 59.746094 C 173.242188 69.425781 167.917969 80.785156 162.671875 93.707031 C 157.421875 106.625 163.53125 103.378906 163.539062 103.382812 C 163.550781 103.386719 163.511719 103.359375 163.40625 103.269531 C 163.304688 103.175781 163.132812 102.984375 162.910156 102.667969 C 162.6875 102.347656 157.558594 94.054688 153.121094 87 C 148.6875 79.945312 144.953125 74.140625 141.917969 69.574219 C 138.878906 65.007812 136.511719 61.65625 134.847656 59.558594 C 133.179688 57.464844 131.625 55.46875 129.785156 53.320312 C 127.945312 51.175781 125.949219 49.046875 123.800781 46.925781 C 121.65625 44.808594 119.355469 42.703125 116.851562 40.566406 C 114.351562 38.429688 109.546875 34.832031 104.546875 32.304688 C 99.550781 29.78125 94.457031 28.527344 89.371094 28.703125 C 84.285156 28.878906 79.417969 30.515625 74.574219 33.886719 C 69.730469 37.257812 65.707031 45.207031 63.765625 53.523438 C 61.824219 61.84375 61.667969 70.855469 63.21875 80.5 C 64.769531 90.148438 67.976562 100.429688 72.894531 111.558594 C 77.8125 122.683594 88.535156 137.851562 99.4375 151.144531 C 110.339844 164.4375 121.503906 176.097656 132.863281 186.132812 C 144.222656 196.164062 155.761719 204.519531 162.046875 207.414062 C 173.878906 213.726562 168.539062 209.976562 174.085938 213.390625 Z M 174.085938 213.390625 " fill-opacity="1" fill-rule="nonzero"/></g><path fill="#000000" d="M 196.3125 108.011719 C 198.058594 106.375 201.082031 102.859375 204.429688 99.539062 C 207.777344 96.214844 211.53125 93.089844 215.726562 90.160156 C 219.921875 87.230469 224.585938 84.503906 229.457031 82.070312 C 234.328125 79.636719 238.910156 77.765625 243.285156 76.460938 C 247.65625 75.15625 251.832031 74.421875 255.804688 74.21875 C 259.78125 74.011719 263.578125 74.320312 268.761719 76.082031 C 273.945312 77.847656 279.691406 81.433594 283.53125 85.808594 C 287.371094 90.1875 289.585938 95.582031 290.171875 102.402344 C 290.757812 109.222656 289.554688 117.585938 284.65625 130.3125 C 279.753906 143.035156 269.546875 160.375 255.121094 179.109375 C 240.699219 197.84375 222.050781 217.929688 199.480469 239.667969 C 176.910156 261.410156 150.679688 285.199219 129.203125 304.199219 C 107.722656 323.199219 107.722656 323.199219 122.726562 311.378906 C 122.726562 311.378906 154.796875 290.277344 181.453125 268.613281 C 208.109375 246.945312 230.011719 225.722656 247.679688 205.589844 C 265.351562 185.453125 278.875 166.464844 288.222656 148.554688 C 297.574219 130.648438 300.457031 119.84375 301.144531 110.378906 C 301.828125 100.914062 300.277344 92.472656 296.339844 85.300781 C 292.402344 78.128906 286.136719 72.609375 277.949219 68.832031 C 269.765625 65.054688 264.578125 64.339844 259.824219 64.433594 C 255.070312 64.53125 250.261719 65.265625 245.421875 66.660156 C 240.582031 68.054688 235.714844 70.085938 230.832031 72.722656 C 225.949219 75.359375 220.933594 78.589844 216.449219 82.042969 C 211.960938 85.496094 208.046875 89.191406 204.722656 93.097656 C 201.398438 97.003906 198.707031 101.128906 197.90625 103.464844 C 195.96875 107.816406 197.449219 105.992188 196.3125 108.011719 Z M 196.3125 108.011719 " fill-opacity="1" fill-rule="nonzero"/></svg>