<svg xmlns="http://www.w3.org/2000/svg" xmlns:xlink="http://www.w3.org/1999/xlink" width="500" zoomAndPan="magnify" viewBox="0 0 375 374.999991" height="500" preserveAspectRatio="xMidYMid meet" version="1.0"><defs><clipPath id="693e21c049"><path d="M 8.082031 349 L 366.582031 349 L 366.582031 366.582031 L 8.082031 366.582031 Z M 8.082031 349 " clip-rule="nonzero"/></clipPath><clipPath id="7abfc89473"><path d="M 238 310 L 349 310 L 349 366.582031 L 238 366.582031 Z M 238 310 " clip-rule="nonzero"/></clipPath><clipPath id="651c0b7acc"><path d="M 25 310 L 136 310 L 136 366.582031 L 25 366.582031 Z M 25 310 " clip-rule="nonzero"/></clipPath><clipPath id="ec3a9b0372"><path d="M 52 8.082031 L 322 8.082031 L 322 328 L 52 328 Z M 52 8.082031 " clip-rule="nonzero"/></clipPath></defs><g clip-path="url(#693e21c049)"><path fill="#000000" d="M 358.09375 366.484375 L 16.570312 366.484375 C 16.019531 366.484375 15.476562 366.429688 14.933594 366.324219 C 14.394531 366.214844 13.871094 366.054688 13.359375 365.84375 C 12.851562 365.632812 12.367188 365.375 11.910156 365.070312 C 11.453125 364.761719 11.027344 364.414062 10.636719 364.027344 C 10.246094 363.636719 9.898438 363.210938 9.59375 362.753906 C 9.289062 362.296875 9.03125 361.8125 8.820312 361.304688 C 8.609375 360.792969 8.449219 360.269531 8.339844 359.730469 C 8.234375 359.1875 8.179688 358.644531 8.179688 358.09375 C 8.179688 357.539062 8.234375 356.996094 8.339844 356.453125 C 8.449219 355.914062 8.609375 355.390625 8.820312 354.878906 C 9.03125 354.371094 9.289062 353.886719 9.59375 353.429688 C 9.898438 352.972656 10.246094 352.546875 10.636719 352.15625 C 11.027344 351.769531 11.453125 351.421875 11.910156 351.113281 C 12.367188 350.808594 12.851562 350.550781 13.359375 350.339844 C 13.871094 350.128906 14.394531 349.96875 14.933594 349.859375 C 15.476562 349.753906 16.019531 349.699219 16.570312 349.699219 L 358.09375 349.699219 C 358.644531 349.699219 359.1875 349.753906 359.730469 349.859375 C 360.269531 349.96875 360.792969 350.128906 361.304688 350.339844 C 361.8125 350.550781 362.296875 350.808594 362.753906 351.113281 C 363.210938 351.421875 363.636719 351.769531 364.027344 352.15625 C 364.414062 352.546875 364.761719 352.972656 365.070312 353.429688 C 365.375 353.886719 365.632812 354.371094 365.84375 354.878906 C 366.054688 355.390625 366.214844 355.914062 366.324219 356.453125 C 366.429688 356.996094 366.484375 357.539062 366.484375 358.09375 C 366.484375 358.644531 366.429688 359.1875 366.324219 359.730469 C 366.214844 360.269531 366.054688 360.792969 365.84375 361.304688 C 365.632812 361.8125 365.375 362.296875 365.070312 362.753906 C 364.761719 363.210938 364.414062 363.636719 364.027344 364.027344 C 363.636719 364.414062 363.210938 364.761719 362.753906 365.070312 C 362.296875 365.375 361.8125 365.632812 361.304688 365.84375 C 360.792969 366.054688 360.269531 366.214844 359.730469 366.324219 C 359.1875 366.429688 358.644531 366.484375 358.09375 366.484375 Z M 358.09375 366.484375 " fill-opacity="1" fill-rule="nonzero"/></g><path fill="#000000" d="M 218.292969 147.878906 C 201.820312 140.320312 187.414062 157.851562 187.414062 157.851562 C 187.414062 157.851562 173.007812 140.320312 156.535156 147.878906 C 155.617188 148.246094 154.722656 148.660156 153.851562 149.125 C 152.980469 149.589844 152.140625 150.101562 151.324219 150.664062 C 150.511719 151.222656 149.734375 151.828125 148.988281 152.476562 C 148.242188 153.121094 147.535156 153.808594 146.867188 154.535156 C 146.203125 155.261719 145.578125 156.027344 144.996094 156.824219 C 144.410156 157.621094 143.875 158.449219 143.386719 159.304688 C 142.898438 160.164062 142.457031 161.046875 142.070312 161.953125 C 141.679688 162.859375 141.339844 163.785156 141.054688 164.730469 C 140.769531 165.675781 140.539062 166.632812 140.359375 167.605469 C 140.183594 168.574219 140.058594 169.550781 139.992188 170.539062 C 139.921875 171.523438 139.910156 172.507812 139.953125 173.496094 C 139.996094 174.480469 140.09375 175.460938 140.246094 176.4375 C 140.402344 177.410156 140.609375 178.375 140.871094 179.328125 C 141.132812 180.277344 141.445312 181.214844 141.8125 182.128906 C 142.179688 183.046875 142.59375 183.941406 143.0625 184.808594 C 143.527344 185.679688 144.042969 186.519531 144.605469 187.332031 C 152.328125 197.335938 187.332031 228.671875 187.332031 228.671875 C 187.332031 228.671875 222.335938 197.335938 230.058594 187.332031 C 230.621094 186.523438 231.136719 185.683594 231.601562 184.816406 C 232.070312 183.949219 232.488281 183.058594 232.855469 182.144531 C 233.222656 181.230469 233.539062 180.296875 233.804688 179.347656 C 234.066406 178.398438 234.277344 177.4375 234.429688 176.464844 C 234.585938 175.492188 234.6875 174.511719 234.734375 173.53125 C 234.777344 172.546875 234.769531 171.5625 234.703125 170.578125 C 234.640625 169.59375 234.519531 168.617188 234.347656 167.648438 C 234.171875 166.679688 233.945312 165.722656 233.664062 164.777344 C 233.382812 163.832031 233.046875 162.90625 232.664062 162 C 232.277344 161.09375 231.839844 160.210938 231.355469 159.351562 C 230.871094 158.496094 230.34375 157.667969 229.765625 156.867188 C 229.1875 156.070312 228.566406 155.304688 227.902344 154.578125 C 227.242188 153.847656 226.539062 153.160156 225.796875 152.507812 C 225.058594 151.859375 224.285156 151.25 223.476562 150.6875 C 222.667969 150.125 221.828125 149.609375 220.964844 149.140625 C 220.097656 148.667969 219.207031 148.25 218.292969 147.878906 Z M 218.292969 147.878906 " fill-opacity="1" fill-rule="nonzero"/><path fill="#000000" d="M 187.332031 237.082031 C 186.296875 237.082031 185.296875 236.898438 184.328125 236.527344 C 183.363281 236.15625 182.496094 235.625 181.726562 234.929688 C 166.414062 221.523438 151.824219 207.367188 137.957031 192.464844 C 136.476562 190.515625 135.230469 188.429688 134.21875 186.199219 C 133.210938 183.96875 132.460938 181.65625 131.976562 179.257812 C 131.488281 176.859375 131.277344 174.4375 131.335938 171.988281 C 131.398438 169.542969 131.730469 167.132812 132.335938 164.761719 C 133.019531 162.078125 133.992188 159.507812 135.257812 157.042969 C 136.523438 154.582031 138.050781 152.292969 139.835938 150.175781 C 141.621094 148.058594 143.621094 146.167969 145.832031 144.503906 C 148.046875 142.839844 150.417969 141.445312 152.949219 140.320312 C 154.367188 139.726562 155.816406 139.238281 157.304688 138.851562 C 158.792969 138.464844 160.296875 138.183594 161.824219 138.011719 C 163.351562 137.835938 164.882812 137.773438 166.417969 137.8125 C 167.953125 137.855469 169.476562 138.007812 170.992188 138.265625 C 172.503906 138.523438 173.992188 138.886719 175.457031 139.355469 C 176.917969 139.824219 178.34375 140.394531 179.722656 141.066406 C 181.105469 141.734375 182.433594 142.5 183.710938 143.355469 C 184.984375 144.214844 186.191406 145.15625 187.332031 146.1875 C 188.472656 145.15625 189.675781 144.207031 190.949219 143.347656 C 192.222656 142.488281 193.550781 141.722656 194.933594 141.046875 C 196.3125 140.375 197.734375 139.800781 199.199219 139.332031 C 200.660156 138.859375 202.148438 138.492188 203.664062 138.230469 C 205.175781 137.96875 206.703125 137.816406 208.238281 137.769531 C 209.773438 137.726562 211.304688 137.789062 212.832031 137.960938 C 214.359375 138.132812 215.867188 138.410156 217.355469 138.792969 C 218.84375 139.175781 220.296875 139.664062 221.714844 140.253906 C 224.246094 141.378906 226.617188 142.773438 228.832031 144.4375 C 231.042969 146.101562 233.042969 147.992188 234.828125 150.109375 C 236.613281 152.226562 238.140625 154.515625 239.40625 156.976562 C 240.671875 159.441406 241.644531 162.015625 242.328125 164.699219 C 242.933594 167.070312 243.265625 169.476562 243.328125 171.925781 C 243.386719 174.371094 243.175781 176.792969 242.6875 179.191406 C 242.203125 181.589844 241.453125 183.90625 240.445312 186.132812 C 239.433594 188.363281 238.1875 190.453125 236.707031 192.398438 C 222.839844 207.300781 208.25 221.457031 192.9375 234.867188 C 192.171875 235.570312 191.308594 236.113281 190.339844 236.496094 C 189.375 236.878906 188.371094 237.074219 187.332031 237.082031 Z M 164.910156 154.429688 C 163.203125 154.433594 161.570312 154.792969 160.019531 155.507812 C 158.640625 156.109375 157.347656 156.855469 156.136719 157.75 C 154.929688 158.648438 153.835938 159.664062 152.859375 160.808594 C 151.878906 161.953125 151.042969 163.191406 150.34375 164.523438 C 149.648438 165.855469 149.109375 167.25 148.726562 168.707031 C 148.417969 169.855469 148.246094 171.023438 148.203125 172.214844 C 148.160156 173.402344 148.25 174.582031 148.472656 175.75 C 148.699219 176.917969 149.050781 178.046875 149.53125 179.136719 C 150.011719 180.222656 150.605469 181.246094 151.320312 182.199219 C 162.722656 194.535156 174.726562 206.257812 187.332031 217.363281 C 199.960938 206.257812 211.984375 194.539062 223.410156 182.199219 C 224.121094 181.246094 224.71875 180.222656 225.199219 179.136719 C 225.679688 178.046875 226.03125 176.917969 226.253906 175.75 C 226.480469 174.582031 226.570312 173.402344 226.527344 172.214844 C 226.484375 171.023438 226.308594 169.855469 226 168.707031 C 225.621094 167.25 225.082031 165.855469 224.382812 164.523438 C 223.6875 163.191406 222.847656 161.953125 221.871094 160.808594 C 220.894531 159.664062 219.800781 158.648438 218.589844 157.75 C 217.382812 156.855469 216.085938 156.109375 214.707031 155.507812 C 204.394531 150.75 193.898438 163.085938 193.800781 163.214844 C 192.992188 164.175781 192.019531 164.921875 190.878906 165.449219 C 189.738281 165.976562 188.539062 166.238281 187.28125 166.230469 C 186.023438 166.234375 184.824219 165.96875 183.683594 165.4375 C 182.542969 164.902344 181.570312 164.152344 180.765625 163.183594 C 179.769531 161.996094 178.671875 160.914062 177.476562 159.929688 C 176.28125 158.949219 175.003906 158.082031 173.648438 157.335938 C 172.292969 156.585938 170.882812 155.96875 169.414062 155.480469 C 167.945312 154.992188 166.441406 154.644531 164.910156 154.429688 Z M 164.910156 154.429688 " fill-opacity="1" fill-rule="nonzero"/><path fill="#000000" d="M 340.625 319.195312 L 340.625 358.109375 L 247.121094 358.109375 L 247.121094 319.195312 Z M 340.625 319.195312 " fill-opacity="1" fill-rule="nonzero"/><path fill="#000000" d="M 127.578125 319.210938 L 127.578125 358.125 L 34.074219 358.125 L 34.074219 319.210938 Z M 127.578125 319.210938 " fill-opacity="1" fill-rule="nonzero"/><g clip-path="url(#7abfc89473)"><path fill="#000000" d="M 340.589844 366.484375 L 247.105469 366.484375 C 246.550781 366.484375 246.007812 366.429688 245.464844 366.324219 C 244.925781 366.214844 244.402344 366.054688 243.890625 365.84375 C 243.382812 365.632812 242.898438 365.375 242.441406 365.070312 C 241.984375 364.761719 241.558594 364.414062 241.167969 364.027344 C 240.78125 363.636719 240.433594 363.210938 240.125 362.753906 C 239.820312 362.296875 239.5625 361.8125 239.351562 361.304688 C 239.140625 360.792969 238.980469 360.269531 238.871094 359.730469 C 238.765625 359.1875 238.710938 358.644531 238.710938 358.09375 L 238.710938 319.179688 C 238.710938 318.628906 238.765625 318.082031 238.871094 317.542969 C 238.980469 317 239.140625 316.476562 239.351562 315.96875 C 239.5625 315.457031 239.820312 314.972656 240.125 314.515625 C 240.433594 314.058594 240.78125 313.632812 241.167969 313.246094 C 241.558594 312.855469 241.984375 312.507812 242.441406 312.199219 C 242.898438 311.894531 243.382812 311.636719 243.890625 311.425781 C 244.402344 311.214844 244.925781 311.054688 245.464844 310.949219 C 246.007812 310.839844 246.550781 310.785156 247.105469 310.785156 L 340.589844 310.785156 C 341.140625 310.785156 341.6875 310.839844 342.230469 310.949219 C 342.769531 311.054688 343.296875 311.214844 343.804688 311.425781 C 344.3125 311.636719 344.796875 311.894531 345.257812 312.199219 C 345.714844 312.507812 346.140625 312.855469 346.53125 313.242188 C 346.921875 313.632812 347.269531 314.058594 347.578125 314.515625 C 347.882812 314.972656 348.144531 315.457031 348.355469 315.964844 C 348.566406 316.476562 348.726562 317 348.835938 317.539062 C 348.941406 318.082031 348.996094 318.628906 349 319.179688 L 349 358.09375 C 348.996094 358.644531 348.941406 359.1875 348.835938 359.730469 C 348.726562 360.269531 348.566406 360.796875 348.355469 361.304688 C 348.144531 361.8125 347.882812 362.296875 347.578125 362.753906 C 347.269531 363.214844 346.921875 363.636719 346.53125 364.027344 C 346.140625 364.417969 345.714844 364.765625 345.257812 365.070312 C 344.796875 365.375 344.3125 365.636719 343.804688 365.84375 C 343.296875 366.054688 342.769531 366.214844 342.230469 366.324219 C 341.6875 366.429688 341.140625 366.484375 340.589844 366.484375 Z M 255.496094 349.699219 L 332.199219 349.699219 L 332.199219 327.585938 L 255.496094 327.585938 Z M 255.496094 349.699219 " fill-opacity="1" fill-rule="nonzero"/></g><g clip-path="url(#651c0b7acc)"><path fill="#000000" d="M 127.558594 366.484375 L 34.15625 366.484375 C 33.601562 366.484375 33.058594 366.429688 32.515625 366.324219 C 31.976562 366.214844 31.449219 366.054688 30.941406 365.84375 C 30.429688 365.636719 29.945312 365.375 29.488281 365.070312 C 29.03125 364.765625 28.605469 364.417969 28.214844 364.027344 C 27.824219 363.636719 27.476562 363.214844 27.167969 362.753906 C 26.863281 362.296875 26.601562 361.8125 26.390625 361.304688 C 26.179688 360.796875 26.019531 360.269531 25.910156 359.730469 C 25.800781 359.1875 25.746094 358.644531 25.746094 358.09375 L 25.746094 319.179688 C 25.746094 318.628906 25.800781 318.082031 25.910156 317.539062 C 26.019531 317 26.179688 316.476562 26.390625 315.964844 C 26.601562 315.457031 26.863281 314.972656 27.167969 314.515625 C 27.476562 314.058594 27.824219 313.632812 28.214844 313.242188 C 28.605469 312.855469 29.03125 312.507812 29.488281 312.199219 C 29.945312 311.894531 30.429688 311.636719 30.941406 311.425781 C 31.449219 311.214844 31.976562 311.054688 32.515625 310.949219 C 33.058594 310.839844 33.601562 310.785156 34.15625 310.785156 L 127.558594 310.785156 C 128.109375 310.785156 128.65625 310.839844 129.199219 310.949219 C 129.738281 311.054688 130.261719 311.214844 130.773438 311.425781 C 131.28125 311.636719 131.765625 311.894531 132.222656 312.199219 C 132.679688 312.507812 133.105469 312.855469 133.496094 313.246094 C 133.882812 313.632812 134.230469 314.058594 134.539062 314.515625 C 134.84375 314.972656 135.101562 315.457031 135.3125 315.96875 C 135.523438 316.476562 135.683594 317 135.792969 317.542969 C 135.898438 318.082031 135.953125 318.628906 135.953125 319.179688 L 135.953125 358.09375 C 135.953125 358.644531 135.898438 359.1875 135.792969 359.730469 C 135.683594 360.269531 135.523438 360.792969 135.3125 361.304688 C 135.101562 361.8125 134.84375 362.296875 134.539062 362.753906 C 134.230469 363.210938 133.882812 363.636719 133.496094 364.027344 C 133.105469 364.414062 132.679688 364.761719 132.222656 365.070312 C 131.765625 365.375 131.28125 365.632812 130.773438 365.84375 C 130.261719 366.054688 129.738281 366.214844 129.199219 366.324219 C 128.65625 366.429688 128.109375 366.484375 127.558594 366.484375 Z M 42.464844 349.699219 L 119.167969 349.699219 L 119.167969 327.585938 L 42.464844 327.585938 Z M 42.464844 349.699219 " fill-opacity="1" fill-rule="nonzero"/></g><path fill="#ffffff" d="M 274.398438 144.964844 L 274.398438 319.179688 L 313.296875 319.179688 L 313.296875 142.535156 C 313.296875 140.472656 313.246094 138.414062 313.144531 136.355469 C 313.042969 134.296875 312.890625 132.242188 312.6875 130.1875 C 312.488281 128.136719 312.234375 126.09375 311.933594 124.054688 C 311.628906 122.015625 311.277344 119.984375 310.875 117.960938 C 310.472656 115.941406 310.023438 113.929688 309.519531 111.929688 C 309.019531 109.929688 308.46875 107.941406 307.871094 105.96875 C 307.273438 103.996094 306.625 102.039062 305.933594 100.101562 C 305.238281 98.160156 304.496094 96.234375 303.707031 94.332031 C 302.917969 92.425781 302.082031 90.542969 301.203125 88.679688 C 300.320312 86.816406 299.394531 84.976562 298.421875 83.15625 C 297.449219 81.339844 296.433594 79.546875 295.375 77.777344 C 294.316406 76.007812 293.210938 74.269531 292.066406 72.554688 C 290.921875 70.839844 289.734375 69.15625 288.507812 67.5 C 287.277344 65.84375 286.011719 64.21875 284.703125 62.625 C 283.394531 61.03125 282.050781 59.472656 280.664062 57.945312 C 279.28125 56.417969 277.859375 54.921875 276.402344 53.464844 C 274.945312 52.007812 273.453125 50.585938 271.925781 49.203125 C 270.398438 47.816406 268.835938 46.472656 267.242188 45.164062 C 265.648438 43.855469 264.023438 42.589844 262.367188 41.359375 C 260.710938 40.132812 259.027344 38.945312 257.3125 37.800781 C 255.597656 36.65625 253.859375 35.554688 252.089844 34.492188 C 250.320312 33.433594 248.527344 32.417969 246.710938 31.445312 C 244.894531 30.472656 243.050781 29.546875 241.1875 28.664062 C 239.324219 27.785156 237.441406 26.949219 235.535156 26.160156 C 233.632812 25.371094 231.707031 24.628906 229.769531 23.933594 C 227.828125 23.242188 225.871094 22.59375 223.898438 21.996094 C 221.925781 21.398438 219.9375 20.847656 217.9375 20.347656 C 215.9375 19.847656 213.929688 19.394531 211.90625 18.992188 C 209.882812 18.589844 207.855469 18.238281 205.816406 17.933594 C 203.777344 17.632812 201.730469 17.378906 199.679688 17.179688 C 197.625 16.976562 195.570312 16.824219 193.511719 16.722656 C 191.453125 16.621094 189.394531 16.570312 187.332031 16.570312 C 185.269531 16.570312 183.210938 16.621094 181.152344 16.722656 C 179.09375 16.824219 177.035156 16.976562 174.984375 17.179688 C 172.933594 17.378906 170.886719 17.632812 168.847656 17.933594 C 166.808594 18.238281 164.78125 18.589844 162.757812 18.992188 C 160.734375 19.394531 158.726562 19.847656 156.726562 20.347656 C 154.726562 20.847656 152.738281 21.398438 150.765625 21.996094 C 148.792969 22.59375 146.835938 23.242188 144.894531 23.933594 C 142.953125 24.628906 141.03125 25.371094 139.128906 26.160156 C 137.222656 26.949219 135.339844 27.785156 133.476562 28.664062 C 131.613281 29.546875 129.769531 30.472656 127.953125 31.445312 C 126.136719 32.417969 124.339844 33.433594 122.574219 34.492188 C 120.804688 35.554688 119.0625 36.65625 117.351562 37.800781 C 115.636719 38.945312 113.949219 40.132812 112.296875 41.359375 C 110.640625 42.589844 109.015625 43.855469 107.421875 45.164062 C 105.828125 46.472656 104.265625 47.816406 102.738281 49.203125 C 101.210938 50.585938 99.71875 52.007812 98.261719 53.464844 C 96.804688 54.921875 95.382812 56.417969 94 57.945312 C 92.613281 59.472656 91.269531 61.03125 89.960938 62.625 C 88.652344 64.21875 87.386719 65.84375 86.15625 67.5 C 84.929688 69.15625 83.742188 70.839844 82.597656 72.554688 C 81.453125 74.269531 80.347656 76.007812 79.289062 77.777344 C 78.230469 79.546875 77.214844 81.339844 76.242188 83.15625 C 75.269531 84.976562 74.34375 86.816406 73.460938 88.679688 C 72.582031 90.542969 71.746094 92.425781 70.957031 94.332031 C 70.167969 96.234375 69.425781 98.160156 68.730469 100.101562 C 68.035156 102.039062 67.390625 103.996094 66.792969 105.96875 C 66.195312 107.941406 65.644531 109.929688 65.144531 111.929688 C 64.640625 113.929688 64.191406 115.941406 63.789062 117.960938 C 63.386719 119.984375 63.035156 122.015625 62.730469 124.054688 C 62.429688 126.09375 62.175781 128.136719 61.972656 130.1875 C 61.773438 132.242188 61.621094 134.296875 61.519531 136.355469 C 61.417969 138.414062 61.367188 140.472656 61.367188 142.535156 L 61.367188 319.179688 L 100.265625 319.179688 L 100.265625 144.964844 C 100.265625 143.539062 100.300781 142.113281 100.371094 140.691406 C 100.441406 139.269531 100.542969 137.847656 100.683594 136.429688 C 100.824219 135.011719 101 133.597656 101.207031 132.1875 C 101.417969 130.777344 101.660156 129.375 101.9375 127.976562 C 102.214844 126.582031 102.527344 125.191406 102.875 123.808594 C 103.222656 122.425781 103.601562 121.054688 104.015625 119.691406 C 104.429688 118.324219 104.875 116.972656 105.355469 115.632812 C 105.835938 114.289062 106.347656 112.960938 106.894531 111.644531 C 107.4375 110.328125 108.015625 109.027344 108.625 107.738281 C 109.234375 106.449219 109.875 105.175781 110.546875 103.921875 C 111.21875 102.664062 111.917969 101.425781 112.652344 100.203125 C 113.386719 98.980469 114.148438 97.777344 114.9375 96.59375 C 115.730469 95.40625 116.550781 94.242188 117.398438 93.097656 C 118.25 91.953125 119.125 90.832031 120.027344 89.730469 C 120.933594 88.628906 121.863281 87.550781 122.820312 86.492188 C 123.777344 85.4375 124.757812 84.40625 125.765625 83.398438 C 126.773438 82.390625 127.804688 81.410156 128.863281 80.453125 C 129.917969 79.496094 130.996094 78.5625 132.097656 77.660156 C 133.199219 76.757812 134.320312 75.878906 135.464844 75.03125 C 136.609375 74.183594 137.777344 73.363281 138.960938 72.570312 C 140.144531 71.777344 141.347656 71.015625 142.570312 70.285156 C 143.792969 69.550781 145.03125 68.847656 146.289062 68.179688 C 147.546875 67.507812 148.816406 66.867188 150.105469 66.257812 C 151.394531 65.648438 152.695312 65.070312 154.011719 64.523438 C 155.328125 63.980469 156.660156 63.464844 158 62.988281 C 159.339844 62.507812 160.695312 62.058594 162.058594 61.644531 C 163.421875 61.234375 164.792969 60.851562 166.175781 60.507812 C 167.558594 60.160156 168.949219 59.847656 170.347656 59.570312 C 171.742188 59.292969 173.148438 59.046875 174.554688 58.839844 C 175.964844 58.628906 177.378906 58.457031 178.796875 58.316406 C 180.214844 58.175781 181.636719 58.070312 183.058594 58.003906 C 184.484375 57.933594 185.90625 57.898438 187.332031 57.898438 C 188.757812 57.898438 190.179688 57.933594 191.605469 58.003906 C 193.027344 58.070312 194.449219 58.175781 195.867188 58.316406 C 197.285156 58.457031 198.699219 58.628906 200.105469 58.839844 C 201.515625 59.046875 202.921875 59.292969 204.316406 59.570312 C 205.714844 59.847656 207.105469 60.160156 208.488281 60.507812 C 209.871094 60.851562 211.242188 61.234375 212.605469 61.644531 C 213.96875 62.058594 215.320312 62.507812 216.664062 62.988281 C 218.003906 63.464844 219.335938 63.980469 220.652344 64.523438 C 221.96875 65.070312 223.269531 65.648438 224.558594 66.257812 C 225.847656 66.867188 227.117188 67.507812 228.375 68.179688 C 229.632812 68.847656 230.871094 69.550781 232.09375 70.285156 C 233.316406 71.015625 234.519531 71.777344 235.703125 72.570312 C 236.886719 73.363281 238.054688 74.183594 239.199219 75.03125 C 240.34375 75.878906 241.464844 76.757812 242.566406 77.660156 C 243.667969 78.5625 244.746094 79.496094 245.800781 80.453125 C 246.859375 81.410156 247.890625 82.390625 248.898438 83.398438 C 249.90625 84.40625 250.886719 85.4375 251.84375 86.492188 C 252.800781 87.550781 253.730469 88.628906 254.636719 89.730469 C 255.539062 90.832031 256.414062 91.953125 257.265625 93.097656 C 258.113281 94.242188 258.933594 95.40625 259.726562 96.59375 C 260.515625 97.777344 261.277344 98.980469 262.011719 100.203125 C 262.742188 101.425781 263.445312 102.664062 264.117188 103.921875 C 264.789062 105.175781 265.429688 106.449219 266.039062 107.738281 C 266.648438 109.027344 267.226562 110.328125 267.769531 111.644531 C 268.316406 112.960938 268.828125 114.289062 269.308594 115.632812 C 269.789062 116.972656 270.234375 118.324219 270.648438 119.691406 C 271.0625 121.054688 271.441406 122.425781 271.789062 123.808594 C 272.136719 125.191406 272.449219 126.582031 272.726562 127.976562 C 273.003906 129.375 273.246094 130.777344 273.457031 132.1875 C 273.664062 133.597656 273.839844 135.011719 273.980469 136.429688 C 274.117188 137.847656 274.222656 139.269531 274.292969 140.691406 C 274.363281 142.113281 274.398438 143.539062 274.398438 144.964844 Z M 274.398438 144.964844 " fill-opacity="1" fill-rule="nonzero"/><g clip-path="url(#ec3a9b0372)"><path fill="#000000" d="M 313.296875 327.585938 L 274.398438 327.585938 C 273.847656 327.585938 273.300781 327.53125 272.757812 327.425781 C 272.214844 327.316406 271.691406 327.160156 271.179688 326.945312 C 270.671875 326.734375 270.1875 326.476562 269.726562 326.167969 C 269.269531 325.863281 268.84375 325.515625 268.453125 325.125 C 268.0625 324.734375 267.714844 324.308594 267.40625 323.851562 C 267.101562 323.390625 266.839844 322.90625 266.628906 322.394531 C 266.417969 321.886719 266.257812 321.359375 266.152344 320.820312 C 266.042969 320.277344 265.988281 319.730469 265.988281 319.179688 L 265.988281 144.964844 C 265.988281 143.675781 265.957031 142.390625 265.894531 141.105469 C 265.832031 139.820312 265.738281 138.535156 265.609375 137.253906 C 265.484375 135.972656 265.328125 134.695312 265.140625 133.421875 C 264.949219 132.148438 264.730469 130.878906 264.480469 129.617188 C 264.226562 128.355469 263.945312 127.101562 263.632812 125.851562 C 263.320312 124.601562 262.976562 123.363281 262.601562 122.128906 C 262.230469 120.898438 261.824219 119.675781 261.390625 118.464844 C 260.957031 117.253906 260.496094 116.050781 260.003906 114.863281 C 259.511719 113.671875 258.988281 112.496094 258.4375 111.332031 C 257.886719 110.167969 257.308594 109.019531 256.703125 107.882812 C 256.09375 106.75 255.460938 105.628906 254.800781 104.523438 C 254.136719 103.421875 253.449219 102.332031 252.734375 101.261719 C 252.019531 100.191406 251.277344 99.140625 250.511719 98.105469 C 249.742188 97.074219 248.953125 96.058594 248.136719 95.0625 C 247.320312 94.070312 246.476562 93.09375 245.613281 92.140625 C 244.75 91.1875 243.863281 90.253906 242.953125 89.34375 C 242.042969 88.433594 241.109375 87.546875 240.15625 86.683594 C 239.203125 85.816406 238.226562 84.976562 237.230469 84.160156 C 236.238281 83.34375 235.222656 82.550781 234.1875 81.785156 C 233.15625 81.019531 232.101562 80.277344 231.03125 79.5625 C 229.960938 78.847656 228.875 78.15625 227.769531 77.496094 C 226.667969 76.835938 225.546875 76.199219 224.410156 75.59375 C 223.277344 74.988281 222.125 74.40625 220.960938 73.859375 C 219.800781 73.308594 218.621094 72.785156 217.433594 72.292969 C 216.242188 71.800781 215.042969 71.335938 213.832031 70.902344 C 212.617188 70.46875 211.398438 70.066406 210.164062 69.691406 C 208.933594 69.320312 207.691406 68.976562 206.445312 68.664062 C 205.195312 68.351562 203.941406 68.066406 202.675781 67.816406 C 201.414062 67.566406 200.148438 67.347656 198.875 67.15625 C 197.601562 66.96875 196.324219 66.808594 195.042969 66.683594 C 193.761719 66.558594 192.476562 66.464844 191.191406 66.398438 C 189.90625 66.335938 188.621094 66.304688 187.332031 66.304688 C 186.042969 66.304688 184.757812 66.335938 183.472656 66.398438 C 182.1875 66.464844 180.902344 66.558594 179.621094 66.683594 C 178.339844 66.808594 177.0625 66.96875 175.789062 67.15625 C 174.515625 67.347656 173.25 67.566406 171.988281 67.816406 C 170.722656 68.066406 169.46875 68.351562 168.21875 68.664062 C 166.972656 68.976562 165.730469 69.320312 164.5 69.691406 C 163.265625 70.066406 162.042969 70.46875 160.832031 70.902344 C 159.621094 71.335938 158.421875 71.800781 157.230469 72.292969 C 156.042969 72.785156 154.863281 73.308594 153.703125 73.859375 C 152.539062 74.40625 151.386719 74.988281 150.253906 75.59375 C 149.117188 76.199219 147.996094 76.835938 146.894531 77.496094 C 145.789062 78.15625 144.703125 78.847656 143.632812 79.5625 C 142.5625 80.277344 141.507812 81.019531 140.476562 81.785156 C 139.441406 82.550781 138.425781 83.34375 137.433594 84.160156 C 136.4375 84.976562 135.460938 85.816406 134.507812 86.683594 C 133.554688 87.546875 132.621094 88.433594 131.710938 89.34375 C 130.800781 90.253906 129.914062 91.1875 129.050781 92.140625 C 128.183594 93.09375 127.34375 94.070312 126.527344 95.0625 C 125.710938 96.058594 124.917969 97.074219 124.152344 98.105469 C 123.386719 99.140625 122.644531 100.191406 121.929688 101.261719 C 121.214844 102.332031 120.527344 103.421875 119.863281 104.523438 C 119.203125 105.628906 118.570312 106.75 117.960938 107.882812 C 117.355469 109.019531 116.777344 110.167969 116.226562 111.332031 C 115.675781 112.496094 115.152344 113.671875 114.660156 114.863281 C 114.167969 116.050781 113.707031 117.253906 113.273438 118.464844 C 112.839844 119.675781 112.433594 120.898438 112.0625 122.128906 C 111.6875 123.363281 111.34375 124.601562 111.03125 125.851562 C 110.71875 127.101562 110.4375 128.355469 110.183594 129.617188 C 109.933594 130.878906 109.714844 132.148438 109.523438 133.421875 C 109.335938 134.695312 109.179688 135.972656 109.050781 137.253906 C 108.925781 138.535156 108.832031 139.820312 108.769531 141.105469 C 108.707031 142.390625 108.671875 143.675781 108.671875 144.964844 L 108.671875 319.179688 C 108.671875 319.730469 108.621094 320.277344 108.511719 320.820312 C 108.40625 321.359375 108.246094 321.886719 108.035156 322.394531 C 107.824219 322.90625 107.5625 323.390625 107.257812 323.851562 C 106.949219 324.308594 106.601562 324.734375 106.210938 325.125 C 105.820312 325.515625 105.394531 325.863281 104.9375 326.167969 C 104.476562 326.476562 103.992188 326.734375 103.484375 326.945312 C 102.972656 327.15625 102.445312 327.316406 101.90625 327.425781 C 101.363281 327.53125 100.816406 327.585938 100.265625 327.585938 L 61.367188 327.585938 C 60.816406 327.585938 60.269531 327.53125 59.726562 327.425781 C 59.1875 327.316406 58.660156 327.160156 58.148438 326.945312 C 57.640625 326.734375 57.15625 326.476562 56.695312 326.167969 C 56.238281 325.863281 55.8125 325.515625 55.421875 325.125 C 55.03125 324.734375 54.683594 324.308594 54.375 323.851562 C 54.070312 323.390625 53.8125 322.90625 53.601562 322.394531 C 53.386719 321.886719 53.230469 321.359375 53.121094 320.820312 C 53.011719 320.277344 52.960938 319.730469 52.960938 319.179688 L 52.960938 142.535156 C 52.960938 140.335938 53.011719 138.140625 53.121094 135.941406 C 53.230469 133.746094 53.390625 131.554688 53.605469 129.363281 C 53.820312 127.175781 54.089844 124.996094 54.414062 122.820312 C 54.738281 120.644531 55.113281 118.476562 55.542969 116.320312 C 55.96875 114.164062 56.453125 112.019531 56.988281 109.886719 C 57.519531 107.753906 58.105469 105.632812 58.746094 103.53125 C 59.382812 101.425781 60.074219 99.335938 60.8125 97.265625 C 61.554688 95.195312 62.347656 93.144531 63.1875 91.113281 C 64.03125 89.082031 64.921875 87.070312 65.859375 85.085938 C 66.800781 83.097656 67.789062 81.132812 68.824219 79.191406 C 69.863281 77.253906 70.945312 75.339844 72.078125 73.453125 C 73.207031 71.566406 74.382812 69.710938 75.605469 67.882812 C 76.828125 66.054688 78.09375 64.257812 79.402344 62.492188 C 80.714844 60.722656 82.066406 58.992188 83.460938 57.289062 C 84.855469 55.589844 86.292969 53.925781 87.769531 52.296875 C 89.246094 50.667969 90.761719 49.074219 92.316406 47.519531 C 93.871094 45.964844 95.464844 44.449219 97.09375 42.972656 C 98.722656 41.496094 100.386719 40.058594 102.085938 38.664062 C 103.785156 37.269531 105.519531 35.917969 107.285156 34.605469 C 109.050781 33.296875 110.851562 32.03125 112.679688 30.808594 C 114.507812 29.585938 116.363281 28.410156 118.25 27.28125 C 120.136719 26.148438 122.050781 25.066406 123.988281 24.03125 C 125.929688 22.992188 127.890625 22.003906 129.878906 21.066406 C 131.867188 20.125 133.878906 19.234375 135.910156 18.390625 C 137.941406 17.550781 139.992188 16.757812 142.0625 16.019531 C 144.132812 15.277344 146.222656 14.585938 148.324219 13.949219 C 150.429688 13.3125 152.550781 12.726562 154.683594 12.191406 C 156.816406 11.65625 158.960938 11.175781 161.117188 10.746094 C 163.273438 10.316406 165.441406 9.941406 167.617188 9.617188 C 169.789062 9.296875 171.972656 9.027344 174.160156 8.808594 C 176.351562 8.59375 178.542969 8.433594 180.738281 8.324219 C 182.933594 8.21875 185.132812 8.164062 187.332031 8.164062 C 189.53125 8.164062 191.730469 8.21875 193.925781 8.324219 C 196.121094 8.433594 198.3125 8.59375 200.503906 8.808594 C 202.691406 9.027344 204.875 9.296875 207.046875 9.617188 C 209.222656 9.941406 211.390625 10.316406 213.546875 10.746094 C 215.703125 11.175781 217.847656 11.65625 219.980469 12.191406 C 222.113281 12.726562 224.234375 13.3125 226.339844 13.949219 C 228.441406 14.585938 230.53125 15.277344 232.601562 16.019531 C 234.671875 16.757812 236.722656 17.550781 238.753906 18.390625 C 240.785156 19.234375 242.796875 20.125 244.785156 21.066406 C 246.769531 22.003906 248.734375 22.992188 250.675781 24.03125 C 252.613281 25.066406 254.527344 26.148438 256.414062 27.28125 C 258.300781 28.410156 260.15625 29.585938 261.984375 30.808594 C 263.8125 32.03125 265.609375 33.296875 267.378906 34.605469 C 269.144531 35.917969 270.875 37.269531 272.578125 38.664062 C 274.277344 40.058594 275.941406 41.496094 277.570312 42.972656 C 279.199219 44.449219 280.792969 45.964844 282.347656 47.519531 C 283.902344 49.074219 285.417969 50.667969 286.894531 52.296875 C 288.371094 53.925781 289.808594 55.589844 291.203125 57.289062 C 292.597656 58.992188 293.949219 60.722656 295.261719 62.492188 C 296.570312 64.257812 297.835938 66.054688 299.058594 67.882812 C 300.28125 69.710938 301.457031 71.566406 302.585938 73.453125 C 303.71875 75.339844 304.800781 77.253906 305.835938 79.191406 C 306.875 81.132812 307.863281 83.097656 308.804688 85.085938 C 309.742188 87.070312 310.632812 89.082031 311.476562 91.113281 C 312.316406 93.144531 313.109375 95.195312 313.847656 97.265625 C 314.589844 99.335938 315.28125 101.425781 315.917969 103.53125 C 316.554688 105.632812 317.144531 107.753906 317.675781 109.886719 C 318.210938 112.019531 318.691406 114.164062 319.121094 116.320312 C 319.550781 118.476562 319.925781 120.644531 320.25 122.820312 C 320.574219 124.996094 320.839844 127.175781 321.058594 129.363281 C 321.273438 131.554688 321.433594 133.746094 321.542969 135.941406 C 321.648438 138.140625 321.703125 140.335938 321.703125 142.535156 L 321.703125 319.179688 C 321.703125 319.730469 321.652344 320.277344 321.542969 320.820312 C 321.433594 321.359375 321.277344 321.886719 321.0625 322.394531 C 320.851562 322.90625 320.59375 323.390625 320.289062 323.851562 C 319.980469 324.308594 319.632812 324.734375 319.242188 325.125 C 318.851562 325.515625 318.425781 325.863281 317.96875 326.167969 C 317.507812 326.476562 317.023438 326.734375 316.511719 326.945312 C 316.003906 327.15625 315.476562 327.316406 314.9375 327.425781 C 314.394531 327.53125 313.847656 327.585938 313.296875 327.585938 Z M 282.789062 310.785156 L 304.902344 310.785156 L 304.902344 142.535156 C 304.902344 140.613281 304.855469 138.6875 304.761719 136.765625 C 304.667969 134.84375 304.527344 132.925781 304.335938 131.011719 C 304.148438 129.097656 303.914062 127.1875 303.632812 125.285156 C 303.347656 123.382812 303.019531 121.484375 302.644531 119.597656 C 302.269531 117.710938 301.847656 115.835938 301.378906 113.96875 C 300.914062 112.101562 300.398438 110.246094 299.839844 108.40625 C 299.28125 106.566406 298.679688 104.738281 298.03125 102.925781 C 297.382812 101.117188 296.691406 99.320312 295.953125 97.542969 C 295.21875 95.765625 294.4375 94.007812 293.617188 92.265625 C 292.792969 90.527344 291.929688 88.808594 291.019531 87.113281 C 290.113281 85.414062 289.164062 83.742188 288.175781 82.09375 C 287.1875 80.441406 286.15625 78.816406 285.089844 77.214844 C 284.019531 75.617188 282.914062 74.042969 281.765625 72.5 C 280.621094 70.953125 279.4375 69.4375 278.214844 67.949219 C 276.996094 66.460938 275.738281 65.003906 274.445312 63.578125 C 273.15625 62.152344 271.828125 60.761719 270.46875 59.398438 C 269.105469 58.039062 267.714844 56.714844 266.289062 55.421875 C 264.863281 54.128906 263.40625 52.871094 261.917969 51.652344 C 260.429688 50.429688 258.914062 49.246094 257.371094 48.101562 C 255.824219 46.953125 254.25 45.847656 252.652344 44.777344 C 251.050781 43.710938 249.425781 42.679688 247.777344 41.691406 C 246.125 40.703125 244.453125 39.753906 242.753906 38.847656 C 241.058594 37.941406 239.339844 37.074219 237.601562 36.253906 C 235.859375 35.429688 234.101562 34.648438 232.324219 33.914062 C 230.546875 33.175781 228.753906 32.484375 226.941406 31.835938 C 225.128906 31.1875 223.300781 30.585938 221.460938 30.027344 C 219.621094 29.46875 217.765625 28.953125 215.898438 28.488281 C 214.03125 28.019531 212.15625 27.597656 210.269531 27.222656 C 208.382812 26.847656 206.488281 26.519531 204.582031 26.238281 C 202.679688 25.953125 200.769531 25.71875 198.855469 25.53125 C 196.941406 25.339844 195.023438 25.199219 193.101562 25.105469 C 191.179688 25.011719 189.257812 24.964844 187.332031 24.964844 C 185.40625 24.964844 183.484375 25.011719 181.5625 25.105469 C 179.640625 25.199219 177.722656 25.339844 175.808594 25.53125 C 173.894531 25.71875 171.984375 25.953125 170.082031 26.238281 C 168.175781 26.519531 166.28125 26.847656 164.394531 27.222656 C 162.507812 27.597656 160.628906 28.019531 158.765625 28.488281 C 156.898438 28.953125 155.042969 29.46875 153.203125 30.027344 C 151.359375 30.585938 149.535156 31.1875 147.722656 31.835938 C 145.910156 32.484375 144.117188 33.175781 142.339844 33.914062 C 140.5625 34.648438 138.804688 35.429688 137.0625 36.253906 C 135.324219 37.074219 133.605469 37.941406 131.910156 38.847656 C 130.210938 39.753906 128.539062 40.703125 126.886719 41.691406 C 125.238281 42.679688 123.613281 43.710938 122.011719 44.777344 C 120.414062 45.847656 118.839844 46.953125 117.292969 48.101562 C 115.75 49.246094 114.234375 50.429688 112.746094 51.652344 C 111.257812 52.871094 109.800781 54.128906 108.375 55.421875 C 106.949219 56.714844 105.558594 58.039062 104.195312 59.398438 C 102.835938 60.761719 101.507812 62.152344 100.21875 63.578125 C 98.925781 65.003906 97.667969 66.460938 96.449219 67.949219 C 95.226562 69.4375 94.042969 70.953125 92.898438 72.5 C 91.75 74.042969 90.644531 75.617188 89.574219 77.214844 C 88.503906 78.816406 87.476562 80.441406 86.488281 82.089844 C 85.5 83.742188 84.550781 85.414062 83.644531 87.113281 C 82.734375 88.808594 81.871094 90.527344 81.046875 92.265625 C 80.226562 94.007812 79.445312 95.765625 78.710938 97.542969 C 77.972656 99.320312 77.28125 101.117188 76.632812 102.925781 C 75.984375 104.738281 75.382812 106.566406 74.824219 108.40625 C 74.265625 110.246094 73.75 112.101562 73.285156 113.96875 C 72.816406 115.835938 72.394531 117.710938 72.019531 119.597656 C 71.644531 121.484375 71.316406 123.382812 71.03125 125.285156 C 70.75 127.1875 70.515625 129.097656 70.328125 131.011719 C 70.136719 132.925781 69.996094 134.84375 69.902344 136.765625 C 69.808594 138.6875 69.761719 140.613281 69.761719 142.535156 L 69.761719 310.785156 L 91.875 310.785156 L 91.875 144.964844 C 91.875 143.402344 91.910156 141.839844 91.988281 140.28125 C 92.066406 138.71875 92.179688 137.160156 92.332031 135.605469 C 92.484375 134.050781 92.675781 132.503906 92.90625 130.957031 C 93.136719 129.410156 93.402344 127.871094 93.707031 126.339844 C 94.011719 124.808594 94.355469 123.285156 94.734375 121.769531 C 95.113281 120.253906 95.53125 118.75 95.984375 117.253906 C 96.4375 115.757812 96.925781 114.277344 97.453125 112.804688 C 97.980469 111.332031 98.542969 109.875 99.140625 108.433594 C 99.738281 106.988281 100.371094 105.5625 101.039062 104.148438 C 101.707031 102.738281 102.410156 101.34375 103.144531 99.964844 C 103.882812 98.585938 104.652344 97.226562 105.453125 95.886719 C 106.257812 94.546875 107.09375 93.230469 107.960938 91.929688 C 108.828125 90.628906 109.726562 89.355469 110.660156 88.097656 C 111.589844 86.84375 112.550781 85.613281 113.542969 84.40625 C 114.53125 83.199219 115.550781 82.015625 116.601562 80.859375 C 117.652344 79.699219 118.726562 78.570312 119.832031 77.464844 C 120.9375 76.359375 122.066406 75.28125 123.226562 74.234375 C 124.382812 73.183594 125.566406 72.164062 126.773438 71.171875 C 127.980469 70.183594 129.210938 69.222656 130.46875 68.289062 C 131.722656 67.359375 133 66.460938 134.296875 65.59375 C 135.597656 64.726562 136.917969 63.890625 138.257812 63.085938 C 139.597656 62.28125 140.957031 61.511719 142.332031 60.777344 C 143.710938 60.039062 145.105469 59.339844 146.519531 58.671875 C 147.929688 58.003906 149.359375 57.371094 150.800781 56.769531 C 152.246094 56.171875 153.703125 55.613281 155.171875 55.085938 C 156.644531 54.558594 158.125 54.070312 159.621094 53.617188 C 161.117188 53.160156 162.621094 52.746094 164.136719 52.367188 C 165.652344 51.984375 167.175781 51.644531 168.707031 51.339844 C 170.242188 51.035156 171.78125 50.765625 173.324219 50.539062 C 174.871094 50.308594 176.421875 50.117188 177.976562 49.964844 C 179.53125 49.8125 181.085938 49.695312 182.648438 49.621094 C 184.207031 49.542969 185.769531 49.503906 187.332031 49.503906 C 188.894531 49.503906 190.457031 49.542969 192.015625 49.621094 C 193.578125 49.695312 195.132812 49.8125 196.6875 49.964844 C 198.242188 50.117188 199.792969 50.308594 201.339844 50.539062 C 202.882812 50.765625 204.421875 51.035156 205.953125 51.339844 C 207.488281 51.644531 209.011719 51.984375 210.527344 52.367188 C 212.042969 52.746094 213.546875 53.160156 215.042969 53.617188 C 216.535156 54.070312 218.019531 54.558594 219.492188 55.085938 C 220.960938 55.613281 222.417969 56.171875 223.863281 56.769531 C 225.304688 57.371094 226.734375 58.003906 228.144531 58.671875 C 229.558594 59.339844 230.953125 60.039062 232.332031 60.777344 C 233.707031 61.511719 235.066406 62.28125 236.40625 63.085938 C 237.746094 63.890625 239.066406 64.726562 240.367188 65.59375 C 241.664062 66.460938 242.941406 67.359375 244.195312 68.289062 C 245.453125 69.222656 246.683594 70.183594 247.890625 71.171875 C 249.097656 72.164062 250.28125 73.183594 251.4375 74.234375 C 252.59375 75.28125 253.726562 76.359375 254.832031 77.464844 C 255.9375 78.570312 257.011719 79.699219 258.0625 80.859375 C 259.109375 82.015625 260.132812 83.199219 261.121094 84.40625 C 262.113281 85.613281 263.074219 86.84375 264.003906 88.097656 C 264.9375 89.355469 265.835938 90.628906 266.703125 91.929688 C 267.570312 93.230469 268.40625 94.546875 269.210938 95.886719 C 270.011719 97.226562 270.78125 98.585938 271.519531 99.964844 C 272.253906 101.34375 272.957031 102.738281 273.625 104.148438 C 274.292969 105.5625 274.925781 106.988281 275.523438 108.433594 C 276.121094 109.875 276.683594 111.332031 277.210938 112.804688 C 277.738281 114.277344 278.226562 115.757812 278.679688 117.253906 C 279.132812 118.75 279.550781 120.253906 279.929688 121.769531 C 280.308594 123.285156 280.652344 124.808594 280.957031 126.339844 C 281.261719 127.871094 281.527344 129.410156 281.757812 130.957031 C 281.988281 132.503906 282.179688 134.050781 282.332031 135.605469 C 282.484375 137.160156 282.597656 138.71875 282.675781 140.28125 C 282.753906 141.839844 282.789062 143.402344 282.789062 144.964844 Z M 282.789062 310.785156 " fill-opacity="1" fill-rule="nonzero"/></g></svg>