<svg xmlns="http://www.w3.org/2000/svg" xmlns:xlink="http://www.w3.org/1999/xlink" width="45" zoomAndPan="magnify" viewBox="0 0 33.75 33.749999" height="45" preserveAspectRatio="xMidYMid meet" version="1.0"><defs><clipPath id="07529cdeae"><path d="M 3.375 0 L 28.125 0 L 28.125 33.5 L 3.375 33.5 Z M 3.375 0 " clip-rule="nonzero"/></clipPath></defs><g clip-path="url(#07529cdeae)"><path fill="#eba1a1" d="M 7.03125 27.308594 C 7.042969 27.292969 7.050781 27.289062 7.054688 27.285156 C 6.996094 27.222656 6.953125 27.160156 6.90625 27.109375 C 6.878906 27.132812 6.847656 27.160156 6.800781 27.203125 C 6.710938 27.28125 6.585938 27.40625 6.441406 27.574219 C 6.292969 27.742188 6.125 27.957031 5.96875 28.207031 C 5.890625 28.332031 5.816406 28.46875 5.769531 28.597656 C 5.761719 28.621094 5.757812 28.644531 5.753906 28.667969 L 6.117188 28.75 L 5.933594 29.042969 C 5.835938 29.195312 5.710938 29.34375 5.652344 29.515625 C 5.546875 29.8125 5.890625 29.753906 6.113281 29.746094 C 6.199219 29.746094 6.285156 29.738281 6.371094 29.730469 C 6.453125 29.726562 6.535156 29.71875 6.617188 29.714844 C 6.644531 29.710938 6.667969 29.710938 6.683594 29.707031 C 6.683594 29.691406 6.679688 29.679688 6.675781 29.664062 C 6.640625 29.617188 6.609375 29.566406 6.59375 29.515625 C 6.523438 29.316406 6.542969 29.160156 6.554688 29.03125 C 6.5625 28.984375 6.566406 28.941406 6.570312 28.898438 C 6.519531 28.878906 6.464844 28.855469 6.40625 28.8125 C 6.367188 28.785156 6.335938 28.738281 6.308594 28.695312 C 6.28125 28.65625 6.269531 28.605469 6.257812 28.5625 C 6.242188 28.476562 6.25 28.398438 6.261719 28.339844 C 6.320312 28.085938 6.429688 27.9375 6.539062 27.785156 C 6.566406 27.746094 6.585938 27.71875 6.621094 27.683594 C 6.65625 27.640625 6.691406 27.609375 6.722656 27.582031 C 6.785156 27.523438 6.84375 27.476562 6.898438 27.433594 C 6.949219 27.386719 6.996094 27.347656 7.03125 27.308594 Z M 7.429688 25.664062 C 7.429688 25.632812 7.433594 25.605469 7.433594 25.578125 C 7.433594 25.546875 7.433594 25.523438 7.429688 25.496094 C 7.429688 25.488281 7.425781 25.480469 7.425781 25.472656 C 7.410156 25.460938 7.398438 25.453125 7.382812 25.441406 L 7.375 25.4375 L 7.328125 25.441406 C 7.300781 25.445312 7.257812 25.445312 7.222656 25.449219 L 7.132812 25.449219 L 7.121094 25.453125 L 7.117188 25.453125 L 7.085938 25.445312 L 7.082031 25.441406 L 7.066406 25.4375 L 7.035156 25.425781 C 7.003906 25.425781 6.914062 25.394531 6.84375 25.359375 C 6.722656 25.285156 6.628906 25.1875 6.570312 25.09375 C 6.511719 25 6.46875 24.90625 6.433594 24.824219 C 6.421875 24.785156 6.402344 24.746094 6.390625 24.703125 C 6.371094 24.65625 6.359375 24.613281 6.347656 24.570312 C 6.316406 24.460938 6.296875 24.355469 6.289062 24.25 C 6.171875 24.414062 6.015625 24.589844 5.789062 24.742188 C 5.753906 24.765625 5.710938 24.785156 5.667969 24.808594 C 5.621094 24.828125 5.589844 24.851562 5.527344 24.871094 C 5.453125 24.890625 5.332031 24.921875 5.222656 24.921875 C 5.121094 24.925781 5.003906 24.910156 4.890625 24.84375 C 4.855469 25.019531 4.851562 25.214844 4.882812 25.410156 C 4.90625 25.542969 4.953125 25.675781 5.023438 25.765625 C 5.09375 25.855469 5.175781 25.902344 5.296875 25.914062 L 5.574219 25.933594 L 5.515625 26.210938 C 5.480469 26.378906 5.472656 26.578125 5.519531 26.707031 C 5.539062 26.757812 5.5625 26.789062 5.585938 26.808594 C 5.589844 26.820312 5.640625 26.84375 5.695312 26.847656 C 5.796875 26.855469 5.902344 26.824219 6.011719 26.75 C 6.230469 26.601562 6.410156 26.359375 6.582031 26.132812 L 6.75 25.910156 L 6.921875 26.132812 C 6.929688 26.140625 6.933594 26.144531 6.933594 26.152344 C 7.023438 26.113281 7.105469 26.082031 7.171875 26.046875 C 7.210938 26.03125 7.242188 26.015625 7.273438 26 C 7.363281 25.890625 7.414062 25.769531 7.429688 25.664062 Z M 9.53125 21.894531 C 9.542969 21.824219 9.554688 21.734375 9.542969 21.640625 C 9.535156 21.546875 9.488281 21.433594 9.441406 21.300781 C 9.414062 21.230469 9.386719 21.160156 9.363281 21.078125 L 9.339844 21.015625 L 9.332031 20.988281 L 9.324219 20.972656 L 9.324219 20.964844 L 9.320312 20.941406 C 9.308594 20.898438 9.300781 20.855469 9.292969 20.8125 C 9.28125 20.769531 9.269531 20.730469 9.265625 20.679688 C 9.261719 20.628906 9.257812 20.578125 9.253906 20.523438 C 9.242188 20.410156 9.25 20.3125 9.25 20.210938 C 9.265625 19.890625 9.320312 19.574219 9.3125 19.269531 C 9.167969 19.351562 9.058594 19.507812 8.972656 19.699219 C 8.855469 19.953125 8.78125 20.234375 8.710938 20.492188 C 8.640625 20.75 8.566406 20.988281 8.484375 21.1875 C 8.449219 21.277344 8.40625 21.363281 8.363281 21.433594 C 8.371094 21.4375 8.378906 21.433594 8.386719 21.4375 C 8.425781 21.441406 8.480469 21.449219 8.535156 21.460938 C 8.585938 21.46875 8.632812 21.484375 8.679688 21.496094 C 8.914062 21.566406 9.136719 21.671875 9.328125 21.84375 C 9.390625 21.898438 9.449219 21.964844 9.5 22.035156 C 9.507812 21.996094 9.519531 21.953125 9.53125 21.894531 Z M 9.574219 8.464844 C 9.5625 8.457031 9.554688 8.453125 9.546875 8.445312 C 9.289062 8.210938 8.886719 7.898438 8.507812 8.003906 C 8.160156 8.105469 8.261719 8.371094 8.457031 8.578125 C 8.582031 8.714844 8.492188 8.925781 8.3125 8.933594 C 8.167969 8.9375 8 8.964844 7.875 9.039062 C 7.675781 9.160156 7.742188 9.351562 7.960938 9.386719 C 8.253906 9.425781 8.550781 9.359375 8.839844 9.316406 C 8.855469 9.3125 8.871094 9.316406 8.882812 9.316406 C 8.886719 9.304688 8.886719 9.292969 8.886719 9.28125 C 8.90625 9.15625 8.945312 9.046875 9 8.949219 C 9.097656 8.761719 9.230469 8.636719 9.351562 8.554688 C 9.429688 8.503906 9.507812 8.476562 9.574219 8.464844 Z M 9.777344 25.6875 C 9.789062 25.578125 9.769531 25.488281 9.757812 25.417969 C 9.65625 25.460938 9.5625 25.488281 9.457031 25.496094 C 9.363281 25.507812 9.269531 25.5 9.171875 25.476562 C 9.070312 25.566406 8.941406 25.625 8.808594 25.660156 C 8.644531 25.710938 8.464844 25.726562 8.296875 25.746094 C 8.25 25.753906 8.207031 25.757812 8.160156 25.761719 L 8.09375 25.769531 C 8.066406 25.769531 8.027344 25.769531 7.992188 25.765625 C 7.960938 25.765625 7.925781 25.761719 7.886719 25.753906 C 7.851562 25.746094 7.8125 25.734375 7.777344 25.71875 C 7.765625 25.710938 7.757812 25.707031 7.75 25.699219 C 7.75 25.765625 7.738281 25.835938 7.707031 25.921875 C 7.683594 25.992188 7.636719 26.058594 7.578125 26.125 C 7.554688 26.179688 7.523438 26.234375 7.484375 26.289062 C 7.402344 26.390625 7.304688 26.5 7.136719 26.558594 C 7.113281 26.566406 7.085938 26.574219 7.058594 26.578125 C 7.089844 26.59375 7.128906 26.613281 7.179688 26.640625 C 7.222656 26.671875 7.261719 26.691406 7.3125 26.726562 C 7.339844 26.753906 7.367188 26.78125 7.394531 26.8125 C 7.417969 26.839844 7.429688 26.867188 7.449219 26.894531 C 7.46875 26.933594 7.488281 26.972656 7.511719 27.015625 L 7.511719 27.019531 L 7.515625 27.023438 L 7.523438 27.035156 L 7.542969 27.058594 L 7.574219 27.105469 C 7.667969 27.226562 7.792969 27.339844 7.929688 27.425781 C 7.964844 27.449219 8 27.464844 8.035156 27.484375 C 8.066406 27.503906 8.09375 27.503906 8.121094 27.519531 C 8.152344 27.53125 8.214844 27.539062 8.257812 27.550781 L 8.265625 27.578125 C 8.285156 27.585938 8.304688 27.59375 8.328125 27.601562 C 8.332031 27.59375 8.339844 27.589844 8.34375 27.589844 C 8.453125 27.582031 8.527344 27.519531 8.597656 27.441406 C 8.667969 27.363281 8.722656 27.238281 8.757812 27.117188 C 8.832031 26.867188 8.847656 26.589844 8.835938 26.347656 L 8.808594 25.832031 L 9.1875 26.152344 C 9.359375 26.292969 9.464844 26.296875 9.597656 26.15625 C 9.714844 26.019531 9.765625 25.828125 9.777344 25.6875 Z M 9.773438 7.535156 C 9.808594 7.523438 9.839844 7.511719 9.871094 7.503906 C 9.847656 7.5 9.824219 7.5 9.800781 7.492188 C 9.726562 7.480469 9.648438 7.449219 9.574219 7.40625 L 9.519531 7.371094 L 9.503906 7.363281 C 9.5 7.359375 9.480469 7.34375 9.480469 7.34375 C 9.476562 7.339844 9.460938 7.328125 9.460938 7.328125 L 9.398438 7.269531 C 9.113281 6.972656 9.023438 6.652344 8.96875 6.328125 L 8.957031 6.203125 C 8.953125 6.191406 8.953125 6.195312 8.953125 6.164062 L 8.949219 6.136719 L 8.949219 5.972656 L 8.957031 5.839844 C 8.976562 5.660156 9.023438 5.511719 9.074219 5.363281 C 9.128906 5.222656 9.1875 5.09375 9.238281 4.972656 C 9.265625 4.910156 9.289062 4.851562 9.308594 4.792969 L 9.320312 4.769531 L 9.320312 4.757812 C 9.324219 4.753906 9.332031 4.71875 9.332031 4.71875 C 9.339844 4.691406 9.355469 4.648438 9.351562 4.628906 C 9.34375 4.625 9.34375 4.625 9.347656 4.617188 L 9.328125 4.53125 C 9.289062 4.351562 9.28125 4.214844 9.320312 4.035156 C 9.324219 4.003906 9.332031 3.976562 9.34375 3.953125 C 9.289062 3.933594 9.242188 3.90625 9.203125 3.867188 C 9.152344 3.917969 9.101562 3.976562 9.042969 4.058594 C 8.980469 4.15625 8.882812 4.285156 8.839844 4.390625 C 8.824219 4.441406 8.8125 4.496094 8.808594 4.582031 C 8.804688 4.667969 8.785156 4.796875 8.753906 4.890625 C 8.742188 4.929688 8.71875 4.992188 8.691406 5.054688 C 8.667969 5.113281 8.640625 5.15625 8.613281 5.207031 C 8.558594 5.300781 8.507812 5.382812 8.464844 5.464844 C 8.449219 5.507812 8.425781 5.546875 8.414062 5.582031 L 8.40625 5.613281 L 8.402344 5.621094 L 8.390625 5.699219 C 8.386719 5.753906 8.375 5.816406 8.375 5.863281 C 8.375 5.910156 8.375 5.960938 8.375 6.007812 C 8.375 6.109375 8.382812 6.226562 8.386719 6.34375 C 8.390625 6.40625 8.394531 6.46875 8.394531 6.527344 C 8.402344 6.558594 8.402344 6.660156 8.414062 6.6875 L 8.425781 6.746094 L 8.449219 6.816406 C 8.460938 6.863281 8.488281 6.90625 8.507812 6.953125 C 8.550781 7.042969 8.605469 7.128906 8.667969 7.203125 C 8.789062 7.359375 8.9375 7.480469 9.085938 7.550781 C 9.242188 7.617188 9.398438 7.636719 9.539062 7.605469 C 9.578125 7.597656 9.605469 7.59375 9.648438 7.578125 C 9.691406 7.566406 9.730469 7.550781 9.773438 7.535156 Z M 10.484375 2.855469 C 10.429688 2.847656 10.378906 2.820312 10.339844 2.761719 C 10.246094 2.605469 9.917969 2.109375 9.679688 2.273438 C 9.585938 2.34375 9.542969 2.558594 9.515625 2.664062 C 9.496094 2.746094 9.339844 3.5625 9.480469 3.570312 C 9.511719 3.570312 9.535156 3.578125 9.558594 3.589844 C 9.605469 3.535156 9.652344 3.488281 9.695312 3.445312 C 9.800781 3.347656 9.886719 3.277344 9.988281 3.195312 C 10.144531 3.066406 10.308594 2.949219 10.484375 2.855469 Z M 11.445312 10.832031 C 11.472656 10.707031 11.472656 10.539062 11.453125 10.382812 C 11.398438 10.042969 11.300781 9.824219 10.921875 9.816406 C 10.644531 9.8125 10.25 10 10.097656 10.238281 C 10.070312 10.285156 10.039062 10.335938 10.011719 10.378906 C 9.953125 10.472656 9.902344 10.558594 9.871094 10.632812 C 9.839844 10.714844 9.832031 10.769531 9.84375 10.804688 C 9.851562 10.824219 9.859375 10.84375 9.882812 10.863281 L 9.898438 10.875 L 9.898438 10.878906 L 9.910156 10.886719 L 9.96875 10.921875 C 10.054688 10.96875 10.15625 10.960938 10.246094 10.882812 C 10.328125 10.808594 10.394531 10.714844 10.441406 10.640625 C 10.542969 10.488281 10.59375 10.394531 10.621094 10.402344 C 10.644531 10.410156 10.640625 10.519531 10.578125 10.707031 C 10.546875 10.800781 10.5 10.917969 10.398438 11.039062 C 10.34375 11.097656 10.277344 11.164062 10.171875 11.195312 C 10.070312 11.230469 9.949219 11.21875 9.835938 11.171875 L 9.777344 11.144531 L 9.761719 11.136719 L 9.734375 11.121094 L 9.695312 11.097656 C 9.644531 11.058594 9.59375 11.003906 9.5625 10.933594 C 9.527344 10.863281 9.515625 10.789062 9.515625 10.71875 C 9.519531 10.648438 9.53125 10.582031 9.550781 10.523438 C 9.589844 10.398438 9.644531 10.296875 9.695312 10.195312 C 9.722656 10.144531 9.75 10.09375 9.777344 10.042969 C 9.808594 9.988281 9.835938 9.933594 9.894531 9.863281 C 9.914062 9.832031 9.964844 9.792969 10.011719 9.761719 C 10.035156 9.75 10.0625 9.738281 10.089844 9.726562 C 10.117188 9.71875 10.136719 9.71875 10.164062 9.710938 C 10.164062 9.710938 10.167969 9.710938 10.171875 9.710938 C 10.089844 9.632812 10.019531 9.550781 9.957031 9.457031 C 9.902344 9.378906 9.859375 9.289062 9.820312 9.203125 C 9.78125 9.105469 9.75 9.023438 9.730469 8.898438 C 9.707031 8.78125 9.703125 8.660156 9.707031 8.539062 C 9.699219 8.542969 9.6875 8.546875 9.679688 8.550781 C 9.625 8.570312 9.542969 8.617188 9.457031 8.695312 C 9.375 8.78125 9.289062 8.902344 9.230469 9.0625 C 9.175781 9.210938 9.148438 9.421875 9.238281 9.535156 L 9.304688 9.625 L 9.21875 9.738281 C 9.125 9.863281 9.074219 10.09375 9.0625 10.339844 C 9.050781 10.585938 9.070312 10.863281 9.125 11.136719 C 9.152344 11.269531 9.195312 11.417969 9.242188 11.519531 C 9.28125 11.597656 9.308594 11.640625 9.347656 11.695312 C 9.523438 11.933594 9.613281 11.878906 9.808594 11.734375 C 9.84375 11.707031 9.878906 11.683594 9.914062 11.664062 C 10.109375 11.546875 10.238281 11.578125 10.480469 11.597656 C 10.792969 11.625 11.050781 11.460938 11.261719 11.226562 C 11.3125 11.167969 11.355469 11.105469 11.382812 11.046875 L 11.390625 11.027344 L 11.398438 11.019531 L 11.398438 11.015625 C 11.402344 11.015625 11.414062 10.957031 11.414062 10.957031 C 11.429688 10.914062 11.445312 10.859375 11.445312 10.832031 Z M 11.699219 2.714844 C 11.714844 2.710938 11.726562 2.710938 11.742188 2.707031 C 11.644531 2.339844 11.359375 2.125 11.03125 1.933594 C 10.878906 2.109375 10.75 2.3125 10.753906 2.558594 C 10.757812 2.597656 10.746094 2.632812 10.726562 2.664062 C 10.726562 2.695312 10.71875 2.726562 10.699219 2.75 C 10.90625 2.664062 11.128906 2.617188 11.351562 2.632812 C 11.472656 2.640625 11.59375 2.667969 11.699219 2.714844 Z M 13.476562 5.203125 C 13.484375 5.074219 13.464844 4.914062 13.417969 4.746094 C 13.359375 4.519531 13.265625 4.273438 13.15625 4.023438 C 13.125 3.941406 13.082031 3.855469 13.046875 3.78125 L 12.957031 3.597656 L 12.929688 3.558594 C 12.867188 3.4375 12.769531 3.375 12.660156 3.308594 C 12.609375 3.28125 12.515625 3.242188 12.453125 3.21875 C 12.410156 3.203125 12.367188 3.1875 12.324219 3.171875 C 12.488281 3.375 12.585938 3.601562 12.640625 3.808594 C 12.730469 4.128906 12.742188 4.402344 12.746094 4.625 C 12.746094 5.066406 12.71875 5.304688 12.6875 5.308594 C 12.652344 5.308594 12.613281 5.066406 12.554688 4.640625 C 12.523438 4.425781 12.480469 4.167969 12.382812 3.894531 C 12.289062 3.621094 12.097656 3.339844 11.820312 3.175781 C 11.78125 3.152344 11.734375 3.132812 11.691406 3.109375 L 11.660156 3.089844 C 11.65625 3.089844 11.644531 3.085938 11.640625 3.085938 L 11.578125 3.0625 C 11.5 3.035156 11.414062 3.019531 11.332031 3.019531 C 11.160156 3.011719 10.976562 3.066406 10.796875 3.15625 C 10.617188 3.25 10.4375 3.382812 10.265625 3.53125 C 9.917969 3.84375 9.699219 4.050781 9.808594 4.53125 C 9.820312 4.59375 9.820312 4.660156 9.816406 4.722656 C 9.808594 4.773438 9.800781 4.792969 9.792969 4.828125 L 9.78125 4.878906 L 9.769531 4.910156 L 9.769531 4.914062 L 9.765625 4.929688 L 9.757812 4.953125 C 9.730469 5.019531 9.707031 5.09375 9.679688 5.15625 C 9.625 5.292969 9.574219 5.414062 9.527344 5.535156 C 9.488281 5.652344 9.453125 5.777344 9.445312 5.882812 L 9.433594 5.960938 L 9.4375 6.070312 L 9.441406 6.125 L 9.441406 6.144531 C 9.441406 6.144531 9.441406 6.160156 9.441406 6.164062 L 9.453125 6.257812 C 9.472656 6.382812 9.507812 6.503906 9.550781 6.617188 C 9.578125 6.671875 9.601562 6.730469 9.632812 6.773438 C 9.648438 6.800781 9.664062 6.824219 9.679688 6.835938 C 9.695312 6.855469 9.695312 6.867188 9.726562 6.894531 C 9.902344 7.125 10.351562 6.992188 10.664062 6.800781 C 10.828125 6.699219 10.972656 6.574219 11.058594 6.4375 C 11.148438 6.296875 11.160156 6.1875 11.109375 6.09375 L 10.945312 5.789062 L 11.273438 5.738281 C 11.453125 5.714844 11.609375 5.550781 11.707031 5.335938 C 11.804688 5.125 11.847656 4.878906 11.847656 4.652344 C 11.847656 4.425781 11.792969 4.203125 11.6875 4.074219 C 11.636719 4.015625 11.578125 3.976562 11.511719 3.964844 C 11.496094 3.964844 11.496094 3.953125 11.464844 3.957031 L 11.421875 3.945312 L 11.402344 3.9375 C 11.390625 3.9375 11.410156 3.945312 11.402344 3.945312 C 11.402344 3.953125 11.390625 3.957031 11.390625 3.957031 C 11.351562 3.964844 11.3125 3.964844 11.265625 3.984375 C 11.078125 4.035156 10.894531 4.128906 10.738281 4.222656 C 10.554688 4.339844 10.128906 4.621094 10.398438 4.839844 C 10.433594 4.871094 10.878906 4.964844 10.894531 4.941406 L 10.816406 5.042969 C 10.667969 5.25 10.570312 5.398438 10.527344 5.515625 C 10.488281 5.625 10.484375 5.707031 10.460938 5.703125 C 10.449219 5.703125 10.410156 5.640625 10.421875 5.488281 C 10.429688 5.382812 10.484375 5.242188 10.5625 5.085938 C 10.554688 5.085938 10.542969 5.085938 10.535156 5.085938 C 10.5 5.089844 10.464844 5.09375 10.421875 5.089844 C 10.398438 5.089844 10.375 5.085938 10.351562 5.082031 C 10.328125 5.082031 10.289062 5.066406 10.257812 5.050781 L 10.246094 5.042969 C 10.246094 5.042969 10.242188 5.042969 10.242188 5.042969 C 10.238281 5.039062 10.234375 5.035156 10.222656 5.023438 C 10.21875 5.023438 10.207031 5.011719 10.207031 5.011719 L 10.167969 4.972656 C 10.160156 4.964844 10.152344 4.945312 10.140625 4.929688 C 10.125 4.898438 10.105469 4.859375 10.101562 4.828125 L 10.085938 4.742188 C 10.085938 4.632812 10.101562 4.527344 10.140625 4.433594 C 10.160156 4.386719 10.179688 4.339844 10.207031 4.289062 L 10.226562 4.253906 L 10.238281 4.238281 C 10.238281 4.234375 10.25 4.214844 10.25 4.214844 C 10.257812 4.210938 10.261719 4.207031 10.261719 4.207031 L 10.308594 4.152344 C 10.371094 4.082031 10.476562 3.996094 10.558594 3.9375 C 10.734375 3.816406 10.921875 3.707031 11.15625 3.628906 C 11.214844 3.605469 11.285156 3.589844 11.351562 3.578125 L 11.367188 3.574219 C 11.371094 3.574219 11.378906 3.574219 11.378906 3.574219 C 11.382812 3.574219 11.40625 3.574219 11.40625 3.574219 L 11.449219 3.570312 C 11.472656 3.570312 11.53125 3.574219 11.570312 3.578125 C 11.734375 3.597656 11.882812 3.6875 11.992188 3.808594 C 12.199219 4.054688 12.257812 4.351562 12.273438 4.640625 C 12.285156 4.929688 12.242188 5.230469 12.117188 5.523438 C 12.054688 5.671875 11.96875 5.816406 11.84375 5.941406 C 11.777344 6.011719 11.695312 6.070312 11.601562 6.121094 C 11.613281 6.179688 11.613281 6.246094 11.605469 6.304688 C 11.589844 6.457031 11.53125 6.589844 11.460938 6.703125 C 11.410156 6.785156 11.351562 6.855469 11.289062 6.921875 C 11.390625 6.878906 11.496094 6.867188 11.585938 6.863281 C 11.726562 6.863281 11.855469 6.890625 11.980469 6.925781 C 12.039062 6.949219 12.097656 6.972656 12.15625 7 L 12.175781 7.011719 L 12.1875 7.019531 L 12.207031 7.027344 C 12.210938 7.03125 12.242188 7.050781 12.242188 7.050781 L 12.308594 7.09375 C 12.324219 7.105469 12.339844 7.117188 12.355469 7.128906 C 12.316406 7.003906 12.300781 6.867188 12.3125 6.710938 C 12.367188 6.171875 12.832031 6.046875 13.207031 6.230469 C 13.234375 6.144531 13.265625 6.0625 13.308594 5.988281 C 13.304688 5.933594 13.304688 5.878906 13.304688 5.8125 C 13.304688 5.742188 13.300781 5.671875 13.308594 5.585938 C 13.320312 5.503906 13.335938 5.410156 13.351562 5.316406 L 13.371094 5.210938 Z M 13.675781 8.644531 C 13.675781 8.621094 13.683594 8.601562 13.679688 8.578125 C 13.675781 8.554688 13.671875 8.527344 13.667969 8.503906 C 13.65625 8.480469 13.648438 8.457031 13.636719 8.433594 L 13.59375 8.359375 C 13.453125 8.171875 13.210938 8.03125 13.015625 7.921875 C 12.996094 7.914062 12.976562 7.902344 12.957031 7.894531 C 12.960938 7.898438 12.964844 7.90625 12.964844 7.910156 C 12.980469 7.953125 12.992188 7.992188 13.003906 8.03125 C 13.054688 8.1875 13.058594 8.339844 13.070312 8.464844 C 13.0625 8.589844 13.050781 8.699219 13.03125 8.78125 C 12.972656 8.949219 12.929688 9.03125 12.90625 9.023438 C 12.882812 9.015625 12.875 8.917969 12.886719 8.765625 C 12.878906 8.6875 12.867188 8.589844 12.855469 8.484375 C 12.824219 8.375 12.808594 8.253906 12.742188 8.128906 C 12.730469 8.097656 12.714844 8.0625 12.699219 8.03125 C 12.679688 8 12.660156 7.96875 12.640625 7.9375 C 12.605469 7.875 12.558594 7.808594 12.503906 7.75 C 12.476562 7.71875 12.449219 7.691406 12.421875 7.65625 C 12.394531 7.625 12.363281 7.605469 12.332031 7.578125 C 12.300781 7.554688 12.269531 7.527344 12.238281 7.503906 C 12.195312 7.476562 12.152344 7.453125 12.105469 7.425781 L 12.039062 7.386719 L 12.011719 7.371094 L 12.003906 7.367188 L 11.988281 7.363281 C 11.953125 7.347656 11.910156 7.332031 11.867188 7.320312 C 11.78125 7.300781 11.683594 7.289062 11.597656 7.292969 C 11.511719 7.296875 11.429688 7.320312 11.402344 7.355469 C 11.378906 7.382812 11.363281 7.414062 11.371094 7.503906 L 11.390625 7.785156 L 11.105469 7.746094 C 10.832031 7.703125 10.566406 7.769531 10.398438 7.980469 C 10.230469 8.1875 10.160156 8.5 10.21875 8.832031 C 10.257812 9.054688 10.433594 9.335938 10.621094 9.449219 C 10.71875 9.507812 10.800781 9.523438 10.871094 9.503906 C 10.945312 9.484375 11.027344 9.417969 11.101562 9.324219 L 11.316406 9.0625 L 11.496094 9.367188 C 11.53125 9.421875 11.527344 9.429688 11.59375 9.433594 C 11.660156 9.4375 11.753906 9.40625 11.835938 9.359375 C 12.003906 9.261719 12.140625 9.101562 12.191406 8.957031 C 12.21875 8.886719 12.222656 8.820312 12.203125 8.765625 C 12.1875 8.710938 12.140625 8.652344 12.097656 8.609375 C 11.976562 8.515625 11.808594 8.453125 11.679688 8.417969 C 11.371094 8.363281 11.460938 8.433594 11.589844 8.671875 C 11.613281 8.730469 11.597656 8.808594 11.570312 8.84375 C 11.542969 8.882812 11.511719 8.898438 11.492188 8.914062 C 11.445312 8.929688 11.417969 8.933594 11.410156 8.921875 C 11.402344 8.914062 11.414062 8.886719 11.441406 8.851562 C 11.453125 8.832031 11.460938 8.8125 11.46875 8.789062 C 11.472656 8.765625 11.464844 8.757812 11.453125 8.734375 C 11.433594 8.714844 11.402344 8.6875 11.363281 8.648438 C 11.328125 8.605469 11.257812 8.554688 11.25 8.425781 L 11.25 8.40625 L 11.257812 8.375 L 11.261719 8.347656 C 11.261719 8.339844 11.277344 8.304688 11.296875 8.273438 C 11.332031 8.210938 11.382812 8.179688 11.433594 8.15625 C 11.539062 8.117188 11.632812 8.121094 11.726562 8.128906 C 11.816406 8.140625 11.90625 8.164062 12 8.191406 C 12.042969 8.207031 12.089844 8.222656 12.136719 8.242188 L 12.175781 8.261719 L 12.1875 8.261719 L 12.191406 8.265625 L 12.191406 8.269531 L 12.207031 8.277344 L 12.222656 8.28125 L 12.285156 8.320312 C 12.394531 8.398438 12.484375 8.492188 12.546875 8.628906 C 12.605469 8.769531 12.605469 8.929688 12.566406 9.070312 C 12.488281 9.34375 12.3125 9.554688 12.078125 9.71875 L 12.066406 9.773438 C 12.082031 9.765625 12.101562 9.765625 12.117188 9.757812 C 12.238281 9.71875 12.390625 9.648438 12.539062 9.566406 C 12.851562 9.375 13.273438 9.222656 13.523438 8.976562 C 13.574219 8.925781 13.605469 8.875 13.632812 8.828125 L 13.640625 8.808594 L 13.648438 8.796875 L 13.648438 8.792969 L 13.65625 8.75 L 13.675781 8.6875 C 13.675781 8.679688 13.679688 8.667969 13.679688 8.660156 Z M 14.117188 6.621094 C 14.117188 6.617188 14.117188 6.613281 14.117188 6.609375 C 14.070312 6.46875 14.007812 6.269531 13.898438 6.160156 C 13.65625 5.925781 13.558594 6.460938 13.546875 6.585938 C 13.527344 6.75 13.328125 6.886719 13.195312 6.734375 C 13.117188 6.644531 12.925781 6.429688 12.796875 6.582031 C 12.691406 6.707031 12.691406 6.894531 12.75 7.039062 C 12.839844 7.265625 13.039062 7.386719 13.261719 7.441406 C 13.429688 7.382812 13.546875 7.347656 13.6875 7.371094 C 13.769531 7.117188 13.921875 6.859375 14.117188 6.621094 Z M 15.242188 25.066406 C 14.796875 24.816406 14.25 24.730469 13.765625 24.628906 C 13.644531 24.605469 13.566406 24.429688 13.644531 24.324219 C 13.910156 23.953125 13.070312 24.207031 12.9375 24.25 C 12.75 24.308594 12.636719 24.097656 12.707031 23.945312 C 12.753906 23.820312 12.8125 23.707031 12.882812 23.597656 C 12.601562 23.503906 12.347656 23.535156 12.121094 23.695312 C 11.980469 23.765625 11.863281 23.820312 11.71875 23.878906 C 11.53125 23.953125 11.425781 23.714844 11.492188 23.574219 C 11.769531 22.933594 11.296875 23.128906 10.996094 23.429688 C 10.878906 23.542969 10.769531 23.660156 10.65625 23.773438 C 10.640625 23.789062 10.628906 23.796875 10.617188 23.804688 C 10.574219 24.082031 10.5 24.363281 10.382812 24.640625 C 10.328125 24.765625 10.273438 24.890625 10.199219 25.003906 L 10.171875 25.046875 C 10.40625 25.121094 10.652344 25.09375 10.90625 24.957031 C 10.992188 24.824219 11.171875 24.820312 11.257812 24.957031 C 11.34375 25.296875 11.527344 25.382812 11.8125 25.210938 C 11.878906 25.125 12.035156 25.132812 12.101562 25.210938 C 12.390625 25.542969 12.832031 25.753906 13.0625 25.191406 C 13.101562 25.09375 13.199219 25.003906 13.3125 25.042969 C 13.957031 25.285156 14.605469 25.253906 15.242188 25.066406 Z M 14.902344 17.6875 C 14.929688 17.523438 14.972656 17.359375 15.023438 17.199219 C 14.445312 17.226562 13.636719 17.277344 13.371094 17.816406 C 13.203125 18.15625 13.144531 18.78125 13.675781 18.863281 C 14.015625 18.914062 14.335938 18.75 14.542969 18.484375 C 14.726562 18.25 14.8125 17.96875 14.902344 17.6875 Z M 15.769531 16.441406 C 15.839844 16.386719 15.914062 16.335938 15.984375 16.285156 C 15.851562 15.925781 15.488281 15.652344 15.128906 15.578125 C 14.96875 15.546875 13.886719 15.34375 14.09375 15.964844 C 14.355469 16.75 15.132812 16.71875 15.769531 16.441406 Z M 16.4375 19.101562 C 17.011719 19.050781 17.058594 18.386719 17.011719 17.921875 C 16.953125 17.300781 16.621094 17.097656 16.175781 16.734375 C 16.113281 16.761719 16.046875 16.789062 15.980469 16.816406 C 15.667969 17.089844 15.441406 17.378906 15.289062 17.804688 C 15.257812 18 15.25 18.195312 15.300781 18.378906 C 15.425781 18.859375 15.957031 19.144531 16.4375 19.101562 Z M 17.097656 16.789062 C 17.152344 16.585938 17.238281 16.367188 17.347656 16.15625 C 17.089844 16.277344 16.839844 16.410156 16.589844 16.539062 C 16.757812 16.664062 16.925781 16.78125 17.0625 16.933594 C 17.070312 16.886719 17.082031 16.839844 17.097656 16.789062 Z M 17.464844 9.523438 C 17.980469 10.066406 17.738281 9.429688 17.542969 9.101562 C 17.441406 8.933594 17.335938 8.773438 17.25 8.597656 C 17.195312 8.488281 17.234375 8.324219 17.375 8.296875 C 17.445312 8.28125 17.503906 8.269531 17.5625 8.257812 C 17.257812 8.011719 16.921875 7.832031 16.546875 7.675781 C 16.417969 7.621094 16.328125 7.441406 16.453125 7.328125 C 16.910156 6.933594 16.101562 6.875 15.769531 7.125 C 15.734375 7.167969 15.695312 7.210938 15.660156 7.242188 C 15.496094 7.402344 15.195312 7.1875 15.339844 6.992188 C 15.347656 6.980469 15.359375 6.964844 15.371094 6.953125 C 15.371094 6.949219 15.371094 6.949219 15.375 6.941406 C 15.429688 6.878906 15.484375 6.824219 15.550781 6.773438 C 15.707031 6.617188 15.859375 6.449219 15.945312 6.253906 C 16.105469 5.875 15.238281 6.253906 15.203125 6.277344 C 14.792969 6.550781 14.1875 7 14.054688 7.535156 C 14.371094 7.75 14.863281 8.171875 15.007812 7.683594 C 15.058594 7.511719 15.289062 7.480469 15.382812 7.632812 C 15.464844 7.773438 16.003906 8.832031 16.191406 8.292969 C 16.25 8.132812 16.476562 8.074219 16.566406 8.242188 C 16.808594 8.691406 17.113281 9.152344 17.464844 9.523438 Z M 16.414062 14.214844 C 16.257812 15.292969 17.3125 15.347656 18.125 15.28125 C 17.960938 14.945312 17.832031 14.601562 17.550781 14.320312 C 17.273438 14.046875 16.523438 13.460938 16.414062 14.214844 Z M 18.648438 17.980469 C 19 17.539062 18.757812 16.414062 18.53125 15.773438 C 18.363281 15.796875 18.199219 15.835938 18.042969 15.882812 C 17.757812 16.148438 17.566406 16.558594 17.492188 16.898438 C 17.417969 17.234375 17.449219 17.585938 17.738281 17.816406 C 17.925781 17.964844 18.433594 18.246094 18.648438 17.980469 Z M 19.539062 15.082031 C 19.585938 15.054688 19.636719 15.03125 19.6875 15.007812 C 19.660156 14.921875 19.636719 14.839844 19.617188 14.753906 C 19.597656 14.707031 19.574219 14.65625 19.542969 14.613281 C 19.492188 14.535156 19.226562 14.246094 19.238281 14.5 C 19.246094 14.707031 19.328125 14.953125 19.484375 15.113281 C 19.5 15.101562 19.519531 15.09375 19.539062 15.082031 Z M 19.808594 19.683594 C 19.894531 19.652344 19.945312 19.609375 19.984375 19.53125 C 19.902344 19.40625 19.8125 19.285156 19.726562 19.167969 C 19.71875 19.152344 19.714844 19.144531 19.707031 19.132812 C 19.6875 19.140625 19.667969 19.152344 19.648438 19.15625 C 19.511719 19.179688 19.425781 19.484375 19.390625 19.605469 C 19.386719 19.628906 19.382812 19.648438 19.378906 19.660156 C 19.398438 19.667969 19.421875 19.671875 19.445312 19.679688 C 19.554688 19.695312 19.699219 19.71875 19.808594 19.683594 Z M 20.167969 14.894531 C 20.226562 14.707031 20.363281 14.5625 20.527344 14.445312 C 20.40625 14.242188 20.226562 14.078125 20.039062 13.9375 C 19.949219 14.1875 19.957031 14.464844 20.027344 14.726562 C 20.050781 14.785156 20.074219 14.84375 20.09375 14.898438 C 20.121094 14.894531 20.144531 14.894531 20.167969 14.894531 Z M 20.847656 14.191406 C 20.859375 14.175781 20.863281 14.160156 20.871094 14.148438 C 20.859375 14.121094 20.84375 14.089844 20.839844 14.054688 C 20.785156 13.585938 21.019531 13.035156 21.414062 12.765625 C 21.222656 12.484375 20.71875 12.082031 20.378906 12.117188 C 20.21875 12.132812 20.046875 12.574219 19.984375 12.699219 C 19.859375 12.957031 19.832031 13.179688 19.976562 13.421875 C 20.007812 13.425781 20.035156 13.433594 20.0625 13.449219 C 20.363281 13.652344 20.652344 13.886719 20.847656 14.191406 Z M 21.144531 15.949219 C 21.148438 15.941406 21.152344 15.933594 21.160156 15.925781 C 21.097656 15.847656 21.011719 15.742188 20.871094 15.640625 C 20.746094 15.539062 20.566406 15.4375 20.371094 15.394531 C 20.273438 15.371094 20.164062 15.371094 20.097656 15.382812 C 20.003906 15.402344 19.878906 15.464844 19.769531 15.523438 C 19.726562 15.542969 19.339844 15.757812 19.339844 15.761719 C 19.339844 15.945312 19.335938 15.941406 19.207031 16.0625 C 19.074219 16.1875 19.023438 16.394531 19.214844 16.496094 C 19.21875 16.496094 19.21875 16.496094 19.21875 16.496094 C 19.332031 16.285156 19.664062 16.460938 19.8125 16.292969 C 19.871094 16.230469 19.859375 16.164062 19.914062 16.09375 C 20.117188 15.851562 20.523438 15.71875 20.8125 15.84375 C 20.898438 15.878906 20.96875 15.929688 21.03125 15.984375 C 21.066406 15.96875 21.105469 15.957031 21.144531 15.949219 Z M 20.984375 20.449219 C 21.203125 20.214844 21.261719 20.027344 21.238281 19.738281 C 21.226562 19.746094 21.214844 19.746094 21.199219 19.746094 C 20.949219 19.746094 20.65625 19.746094 20.4375 19.894531 C 20.320312 19.972656 20.234375 20.082031 20.207031 20.226562 C 20.175781 20.378906 20.152344 20.4375 20.246094 20.5 C 20.34375 20.558594 20.554688 20.761719 20.675781 20.695312 C 20.789062 20.628906 20.894531 20.546875 20.984375 20.449219 Z M 21.316406 15.75 C 21.347656 15.71875 21.382812 15.683594 21.425781 15.652344 C 21.28125 15.335938 21.101562 15.039062 20.890625 14.765625 C 20.847656 14.78125 20.804688 14.78125 20.765625 14.773438 C 20.679688 14.828125 20.609375 14.898438 20.570312 14.984375 C 20.8125 15.085938 20.996094 15.234375 21.117188 15.386719 C 21.222656 15.515625 21.285156 15.640625 21.316406 15.75 Z M 21.296875 7.707031 C 21.449219 5.597656 21.441406 3.488281 21.433594 1.375 C 20.617188 1.433594 19.257812 1.511719 17.710938 1.535156 C 16.457031 1.546875 15.320312 1.503906 14.5 1.414062 C 13.679688 1.324219 13.1875 1.21875 13.1875 1.175781 C 13.191406 1.125 13.699219 1.152344 14.519531 1.179688 C 15.332031 1.210938 16.460938 1.214844 17.707031 1.199219 C 19.25 1.179688 20.617188 1.15625 21.433594 1.183594 C 21.433594 1.050781 21.433594 0.917969 21.433594 0.78125 C 18.492188 0.816406 15.554688 0.75 12.617188 0.617188 C 12.582031 1.335938 12.476562 2.050781 12.480469 2.773438 C 12.523438 2.785156 12.558594 2.792969 12.601562 2.804688 C 12.6875 2.828125 12.742188 2.847656 12.84375 2.886719 C 12.886719 2.910156 12.933594 2.933594 12.980469 2.957031 C 13.027344 2.980469 13.074219 3.003906 13.113281 3.042969 C 13.15625 3.082031 13.195312 3.121094 13.238281 3.160156 C 13.273438 3.203125 13.304688 3.25 13.335938 3.296875 L 13.386719 3.367188 L 13.417969 3.425781 L 13.480469 3.550781 C 13.527344 3.644531 13.566406 3.726562 13.605469 3.820312 C 13.726562 4.089844 13.824219 4.367188 13.878906 4.640625 C 13.929688 4.917969 13.949219 5.207031 13.839844 5.484375 L 13.699219 5.539062 C 13.6875 5.574219 13.675781 5.609375 13.660156 5.644531 C 13.660156 5.65625 13.65625 5.671875 13.65625 5.683594 C 13.6875 5.675781 13.71875 5.671875 13.75 5.671875 C 14.113281 5.691406 14.308594 5.976562 14.433594 6.289062 C 14.839844 5.910156 15.339844 5.640625 15.765625 5.621094 C 16.535156 5.589844 16.453125 6.082031 16.1875 6.550781 C 16.765625 6.523438 17.289062 6.90625 16.941406 7.40625 C 17.171875 7.511719 17.386719 7.628906 17.589844 7.765625 C 17.636719 7.71875 17.699219 7.691406 17.785156 7.691406 C 18.957031 7.691406 20.125 7.699219 21.296875 7.707031 Z M 22.136719 15.265625 C 22.144531 14.796875 21.898438 14.34375 21.53125 14.058594 C 21.382812 14.175781 21.21875 14.296875 21.175781 14.46875 C 21.410156 14.761719 21.605469 15.078125 21.765625 15.417969 C 21.886719 15.347656 22.011719 15.292969 22.136719 15.265625 Z M 22.449219 17.363281 C 22.457031 17.363281 22.449219 17.28125 22.421875 17.203125 C 22.363281 17.015625 22.253906 16.871094 22.15625 16.742188 C 22.152344 16.738281 22.144531 16.726562 22.144531 16.726562 L 22.066406 16.648438 C 22.03125 16.613281 22.003906 16.585938 21.972656 16.566406 C 21.917969 16.511719 21.851562 16.46875 21.789062 16.429688 C 21.839844 16.53125 21.871094 16.636719 21.890625 16.734375 C 21.972656 17.097656 21.964844 17.414062 21.90625 17.679688 C 21.847656 17.941406 21.722656 18.136719 21.609375 18.226562 C 21.492188 18.324219 21.410156 18.335938 21.402344 18.316406 C 21.382812 18.292969 21.433594 18.234375 21.492188 18.128906 C 21.554688 18.023438 21.613281 17.855469 21.628906 17.636719 C 21.644531 17.417969 21.609375 17.128906 21.519531 16.847656 C 21.476562 16.699219 21.402344 16.558594 21.3125 16.457031 C 21.28125 16.414062 21.238281 16.394531 21.230469 16.394531 C 21.230469 16.394531 21.226562 16.390625 21.226562 16.394531 C 21.230469 16.394531 21.230469 16.394531 21.230469 16.394531 C 21.230469 16.394531 21.226562 16.394531 21.222656 16.398438 C 21.214844 16.40625 21.210938 16.410156 21.199219 16.417969 C 21.191406 16.429688 21.183594 16.441406 21.171875 16.453125 L 20.972656 16.652344 L 20.804688 16.433594 C 20.6875 16.28125 20.597656 16.25 20.445312 16.292969 L 20.355469 16.328125 C 20.351562 16.332031 20.328125 16.347656 20.320312 16.355469 C 20.300781 16.359375 20.289062 16.371094 20.273438 16.386719 C 20.257812 16.410156 20.25 16.40625 20.222656 16.441406 C 20.175781 16.503906 20.128906 16.550781 20.082031 16.597656 L 20.074219 16.605469 L 20.070312 16.613281 L 20.054688 16.628906 L 20.019531 16.65625 C 19.996094 16.675781 19.984375 16.6875 19.941406 16.707031 C 19.921875 16.71875 19.902344 16.726562 19.882812 16.734375 C 19.863281 16.742188 19.863281 16.738281 19.851562 16.742188 L 19.800781 16.753906 C 19.582031 16.828125 19.316406 17.074219 19.339844 17.339844 C 19.359375 17.609375 19.660156 17.671875 19.84375 17.519531 C 19.847656 17.519531 20.039062 17.359375 20.039062 17.359375 L 20.160156 17.570312 C 20.226562 17.679688 20.320312 17.734375 20.433594 17.738281 C 20.550781 17.738281 20.664062 17.683594 20.722656 17.613281 C 20.828125 17.507812 20.789062 17.363281 20.71875 17.242188 C 20.699219 17.273438 20.679688 17.300781 20.65625 17.316406 C 20.59375 17.363281 20.566406 17.347656 20.558594 17.339844 C 20.542969 17.324219 20.574219 17.289062 20.582031 17.253906 C 20.597656 17.210938 20.601562 17.152344 20.625 17.039062 L 20.65625 16.90625 L 20.773438 17.003906 C 20.808594 17.035156 20.851562 17.070312 20.894531 17.109375 C 20.933594 17.152344 20.976562 17.207031 21.011719 17.273438 C 21.085938 17.402344 21.101562 17.625 20.984375 17.796875 C 20.875 17.96875 20.6875 18.089844 20.457031 18.117188 C 20.34375 18.125 20.214844 18.117188 20.097656 18.054688 C 20.046875 18.03125 20 18 19.957031 17.960938 C 19.921875 17.980469 19.886719 18 19.847656 18.015625 C 19.769531 18.042969 19.679688 18.070312 19.582031 18.070312 C 19.625 18.101562 19.667969 18.136719 19.71875 18.1875 C 19.792969 18.261719 19.945312 18.421875 19.933594 18.527344 C 19.929688 18.578125 19.933594 18.621094 19.941406 18.667969 C 19.945312 18.667969 19.949219 18.671875 19.953125 18.675781 C 19.964844 18.6875 19.984375 18.699219 20 18.714844 C 20.015625 18.730469 20.035156 18.734375 20.050781 18.746094 L 20.066406 18.742188 L 20.097656 18.769531 C 20.15625 18.800781 20.1875 18.804688 20.226562 18.820312 C 20.320312 18.839844 20.425781 18.855469 20.53125 18.851562 C 20.632812 18.847656 20.746094 18.832031 20.800781 18.800781 L 20.988281 18.707031 L 21.128906 18.921875 C 21.140625 18.945312 21.148438 18.957031 21.171875 18.96875 C 21.1875 18.984375 21.226562 18.992188 21.269531 18.996094 C 21.359375 19.007812 21.480469 18.988281 21.589844 18.949219 C 21.644531 18.933594 21.695312 18.90625 21.730469 18.882812 C 21.742188 18.867188 21.863281 18.78125 21.855469 18.761719 C 21.867188 18.746094 21.878906 18.738281 21.890625 18.71875 C 21.898438 18.695312 21.910156 18.675781 21.921875 18.652344 C 21.941406 18.597656 21.960938 18.550781 21.96875 18.488281 C 21.992188 18.371094 22.003906 18.226562 22.027344 18.078125 L 22.046875 17.96875 L 22.066406 17.867188 C 22.074219 17.828125 22.085938 17.785156 22.097656 17.742188 C 22.117188 17.695312 22.128906 17.644531 22.1875 17.574219 L 22.210938 17.550781 L 22.222656 17.535156 C 22.226562 17.53125 22.257812 17.503906 22.257812 17.503906 L 22.261719 17.496094 L 22.289062 17.46875 C 22.320312 17.453125 22.363281 17.417969 22.394531 17.414062 Z M 22.574219 20.460938 C 22.710938 20.292969 22.523438 20.175781 22.417969 20.042969 C 22.207031 19.785156 21.984375 19.761719 21.675781 19.75 C 21.691406 20.191406 21.773438 20.882812 22.210938 20.714844 C 22.347656 20.664062 22.480469 20.578125 22.574219 20.460938 Z M 22.898438 16.332031 C 22.871094 16.277344 22.867188 16.210938 22.890625 16.152344 C 22.753906 15.980469 22.5625 15.816406 22.457031 15.730469 C 22.222656 15.539062 21.785156 15.859375 21.558594 16.085938 C 21.660156 16.101562 21.78125 16.125 21.910156 16.179688 C 21.992188 16.214844 22.074219 16.25 22.160156 16.308594 C 22.207031 16.335938 22.25 16.367188 22.285156 16.394531 L 22.34375 16.441406 L 22.371094 16.460938 L 22.386719 16.476562 C 22.402344 16.460938 22.425781 16.441406 22.453125 16.425781 C 22.566406 16.367188 22.671875 16.355469 22.777344 16.34375 C 22.820312 16.339844 22.859375 16.335938 22.898438 16.332031 Z M 22.875 11.359375 C 22.953125 10.535156 22.855469 9.707031 22.769531 8.882812 C 22.410156 8.820312 21.976562 8.789062 21.507812 8.792969 C 20.832031 8.796875 20.214844 8.847656 19.761719 8.855469 C 19.308594 8.867188 19.027344 8.84375 19.023438 8.800781 C 19.019531 8.753906 19.296875 8.695312 19.742188 8.621094 C 20.1875 8.550781 20.808594 8.464844 21.503906 8.460938 C 21.953125 8.457031 22.378906 8.5 22.738281 8.582031 C 22.730469 8.492188 22.722656 8.398438 22.714844 8.304688 C 21.203125 8.300781 19.691406 8.289062 18.179688 8.28125 C 18.269531 8.421875 18.171875 8.582031 18.011719 8.601562 C 17.925781 8.617188 17.835938 8.636719 17.75 8.648438 C 18.054688 9.183594 18.636719 10.265625 17.855469 10.265625 C 17.296875 10.265625 16.730469 9.378906 16.394531 8.78125 C 16.042969 9.226562 15.578125 8.6875 15.242188 8.179688 C 14.898438 8.746094 14.429688 8.0625 13.847656 7.867188 C 13.785156 7.875 13.71875 7.867188 13.675781 7.824219 C 13.671875 7.824219 13.667969 7.820312 13.660156 7.820312 C 13.660156 7.824219 13.660156 7.824219 13.660156 7.828125 C 13.753906 7.890625 13.851562 7.96875 13.949219 8.070312 C 13.980469 8.113281 14.011719 8.15625 14.039062 8.199219 C 14.066406 8.25 14.089844 8.300781 14.113281 8.351562 C 14.128906 8.40625 14.140625 8.464844 14.152344 8.523438 C 14.164062 8.582031 14.15625 8.648438 14.15625 8.714844 L 14.152344 8.765625 C 14.148438 8.78125 14.148438 8.785156 14.148438 8.800781 L 14.109375 8.957031 L 14.105469 8.960938 L 14.105469 8.964844 L 14.101562 8.976562 L 14.09375 8.996094 L 14.074219 9.039062 C 14.023438 9.148438 13.953125 9.25 13.871094 9.328125 C 13.675781 9.523438 13.460938 9.632812 13.265625 9.726562 C 13.074219 9.808594 12.894531 9.890625 12.722656 9.964844 C 12.542969 10.039062 12.375 10.097656 12.191406 10.121094 C 12.144531 10.128906 12.097656 10.136719 12.042969 10.132812 C 11.996094 10.125 11.941406 10.121094 11.871094 10.082031 C 11.933594 10.335938 11.980469 10.621094 11.917969 10.949219 C 11.910156 11.015625 11.894531 11.046875 11.882812 11.09375 L 11.863281 11.160156 L 11.859375 11.179688 L 11.855469 11.183594 L 11.851562 11.199219 L 11.839844 11.21875 L 11.824219 11.261719 C 11.769531 11.375 11.703125 11.46875 11.628906 11.554688 C 11.480469 11.722656 11.3125 11.859375 11.113281 11.964844 C 10.941406 12.058594 10.746094 12.132812 10.519531 12.136719 C 10.480469 12.140625 10.441406 12.136719 10.398438 12.132812 C 10.5625 13.261719 10.523438 14.402344 10.390625 15.535156 C 10.386719 15.542969 10.382812 15.550781 10.382812 15.558594 C 11.476562 15.707031 12.574219 15.835938 13.679688 15.714844 C 13.761719 15.171875 14.496094 15.074219 14.960938 15.125 C 15.421875 15.171875 15.890625 15.410156 16.175781 15.785156 C 16.195312 15.761719 16.21875 15.742188 16.25 15.722656 C 16.390625 15.644531 16.535156 15.589844 16.683594 15.546875 C 16.625 15.515625 16.566406 15.484375 16.511719 15.449219 C 16.027344 15.128906 15.890625 14.460938 16.070312 13.929688 C 16.269531 13.347656 16.914062 13.316406 17.359375 13.625 C 17.648438 13.828125 17.898438 14.070312 18.113281 14.351562 C 18.3125 14.609375 18.40625 14.917969 18.546875 15.203125 C 18.5625 15.199219 18.582031 15.195312 18.597656 15.191406 C 18.777344 15.179688 18.832031 15.1875 19.007812 15.210938 C 19.03125 15.214844 19.046875 15.222656 19.0625 15.234375 C 18.820312 14.882812 18.6875 14.390625 18.953125 14.121094 C 19.1875 13.886719 19.402344 13.921875 19.585938 14.070312 C 19.605469 13.949219 19.632812 13.832031 19.679688 13.714844 C 19.675781 13.710938 19.671875 13.707031 19.667969 13.699219 C 19.414062 13.347656 19.40625 12.949219 19.59375 12.5625 C 19.730469 12.28125 19.890625 11.929688 20.164062 11.753906 C 20.511719 11.527344 21.070312 11.855469 21.445312 12.199219 C 21.640625 11.710938 22.410156 11.617188 22.824219 11.375 C 22.839844 11.367188 22.859375 11.363281 22.875 11.359375 Z M 23.089844 13.726562 C 23.117188 13.507812 23.066406 13.28125 22.992188 13.070312 C 22.984375 13.070312 22.984375 13.070312 22.980469 13.070312 C 22.917969 13.085938 22.859375 13.109375 22.800781 13.144531 C 22.746094 13.175781 22.277344 13.5625 22.277344 13.601562 C 22.140625 13.503906 21.953125 13.019531 21.800781 13.035156 C 21.671875 13.046875 21.550781 13.171875 21.472656 13.273438 C 21.363281 13.414062 21.296875 13.578125 21.265625 13.75 C 21.300781 13.71875 21.335938 13.683594 21.371094 13.644531 C 21.429688 13.578125 21.542969 13.566406 21.617188 13.613281 C 21.949219 13.824219 22.222656 14.140625 22.386719 14.503906 C 22.523438 14.269531 22.683594 14.042969 22.8125 13.800781 C 22.867188 13.703125 22.996094 13.679688 23.089844 13.726562 Z M 22.644531 12.757812 C 22.765625 12.703125 23 12.585938 23.152344 12.621094 C 23.117188 12.410156 23.035156 12.214844 22.9375 12.023438 C 22.882812 11.972656 22.839844 11.90625 22.828125 11.820312 C 22.421875 11.972656 21.765625 12.105469 21.816406 12.542969 C 21.820312 12.574219 21.816406 12.601562 21.808594 12.625 C 22.019531 12.636719 22.1875 12.785156 22.3125 12.984375 C 22.414062 12.886719 22.535156 12.8125 22.644531 12.757812 Z M 23.4375 19.105469 L 23.5625 18.832031 C 23.527344 18.878906 23.460938 18.933594 23.398438 18.957031 C 23.328125 18.988281 23.261719 18.992188 23.207031 18.992188 C 23.09375 18.988281 23.015625 18.96875 22.933594 18.960938 C 22.769531 18.9375 22.589844 18.921875 22.480469 18.957031 C 22.429688 18.976562 22.414062 18.996094 22.394531 19.035156 C 22.386719 19.050781 22.378906 19.085938 22.371094 19.113281 C 22.371094 19.128906 22.367188 19.136719 22.367188 19.160156 L 22.363281 19.238281 C 22.367188 19.261719 22.371094 19.300781 22.371094 19.328125 C 22.390625 19.347656 22.386719 19.378906 22.402344 19.390625 C 22.421875 19.425781 22.472656 19.445312 22.535156 19.460938 C 22.671875 19.492188 22.871094 19.46875 23.042969 19.398438 C 23.136719 19.363281 23.214844 19.3125 23.289062 19.265625 C 23.359375 19.210938 23.417969 19.148438 23.4375 19.105469 Z M 23.265625 15.988281 C 23.664062 15.878906 24.007812 15.507812 24.167969 15.121094 C 23.992188 15.09375 23.816406 15.066406 23.636719 15.050781 C 23.503906 15.042969 23.441406 14.929688 23.445312 14.820312 C 23.40625 14.796875 23.375 14.761719 23.359375 14.703125 C 23.316406 14.507812 23.203125 14.332031 23.054688 14.203125 C 22.835938 14.542969 22.554688 14.890625 22.546875 15.296875 C 22.574219 15.3125 22.597656 15.324219 22.621094 15.339844 C 22.828125 15.484375 23.09375 15.722656 23.265625 15.988281 Z M 24.296875 18.222656 L 24.285156 18.058594 L 24.273438 18.015625 C 24.265625 17.984375 24.261719 17.953125 24.257812 17.921875 C 24.246094 17.886719 24.226562 17.84375 24.207031 17.804688 L 24.183594 17.75 L 24.179688 17.738281 L 24.167969 17.722656 L 24.15625 17.703125 C 24.148438 17.683594 24.136719 17.664062 24.125 17.644531 C 24.117188 17.625 24.105469 17.601562 24.105469 17.578125 C 24.097656 17.550781 24.097656 17.527344 24.097656 17.527344 L 24.09375 17.492188 C 24.085938 17.332031 24.09375 17.113281 24.085938 17.058594 C 24.09375 17.039062 24.066406 16.988281 24.058594 16.953125 L 24.039062 16.898438 L 24.035156 16.886719 L 24.03125 16.878906 C 24.003906 16.828125 23.972656 16.78125 23.9375 16.742188 C 23.785156 16.59375 23.675781 16.621094 23.558594 16.796875 L 23.414062 17.007812 L 23.269531 16.828125 C 23.136719 16.660156 23.011719 16.625 22.792969 16.625 C 22.691406 16.621094 22.605469 16.625 22.558594 16.640625 C 22.539062 16.648438 22.558594 16.640625 22.554688 16.625 C 22.546875 16.625 22.542969 16.640625 22.535156 16.648438 C 22.640625 16.777344 22.730469 16.925781 22.808594 17.109375 C 22.851562 17.238281 22.910156 17.382812 22.863281 17.597656 C 22.863281 17.636719 22.804688 17.738281 22.777344 17.773438 L 22.746094 17.808594 C 22.707031 17.855469 22.644531 17.890625 22.601562 17.898438 C 22.574219 17.90625 22.550781 17.910156 22.53125 17.914062 C 22.519531 17.972656 22.496094 18.082031 22.492188 18.148438 C 22.480469 18.261719 22.472656 18.390625 22.449219 18.539062 C 22.667969 18.503906 22.839844 18.546875 22.996094 18.574219 C 23.085938 18.59375 23.171875 18.617188 23.222656 18.617188 C 23.277344 18.621094 23.269531 18.625 23.296875 18.605469 C 23.304688 18.597656 23.320312 18.574219 23.332031 18.550781 L 23.335938 18.542969 L 23.34375 18.523438 L 23.359375 18.464844 C 23.390625 18.390625 23.378906 18.347656 23.390625 18.296875 C 23.394531 18.230469 23.390625 18.164062 23.386719 18.097656 C 23.375 18.097656 23.359375 18.097656 23.351562 18.097656 C 23.339844 18.097656 23.332031 18.097656 23.320312 18.097656 C 23.207031 18.121094 23.132812 18.148438 23.078125 18.210938 C 23.019531 18.261719 22.980469 18.324219 22.945312 18.347656 L 22.917969 18.367188 L 22.90625 18.363281 C 22.898438 18.359375 22.886719 18.347656 22.882812 18.339844 C 22.878906 18.332031 22.882812 18.308594 22.886719 18.304688 C 22.890625 18.304688 22.890625 18.300781 22.894531 18.300781 C 22.902344 18.261719 22.917969 18.199219 22.964844 18.121094 C 23.003906 18.023438 23.128906 17.933594 23.269531 17.878906 C 23.300781 17.875 23.324219 17.871094 23.347656 17.867188 C 23.367188 17.867188 23.378906 17.867188 23.386719 17.859375 C 23.386719 17.851562 23.378906 17.867188 23.382812 17.855469 C 23.386719 17.847656 23.390625 17.84375 23.394531 17.839844 L 23.5625 17.703125 L 23.617188 17.890625 C 23.648438 18.011719 23.683594 18.140625 23.691406 18.300781 C 23.699219 18.445312 23.65625 18.546875 23.699219 18.6875 C 23.746094 18.835938 23.839844 18.964844 23.890625 19.113281 C 23.921875 19.097656 23.960938 19.070312 23.996094 19.039062 C 24.015625 19.019531 24.039062 18.984375 24.0625 18.960938 C 24.085938 18.933594 24.113281 18.90625 24.125 18.871094 L 24.179688 18.777344 C 24.199219 18.742188 24.207031 18.707031 24.222656 18.667969 C 24.257812 18.601562 24.261719 18.523438 24.28125 18.453125 C 24.292969 18.375 24.292969 18.300781 24.296875 18.222656 Z M 23.722656 14.484375 C 24.105469 14.070312 24.378906 13.558594 24.347656 12.984375 C 24.058594 12.96875 23.761719 12.96875 23.515625 13.132812 C 23.496094 13.144531 23.476562 13.152344 23.453125 13.160156 C 23.46875 13.210938 23.476562 13.257812 23.484375 13.296875 C 23.519531 13.535156 23.503906 13.773438 23.4375 14.003906 C 23.566406 14.140625 23.664062 14.308594 23.722656 14.484375 Z M 24.617188 32.222656 C 24.601562 32.167969 24.585938 32.109375 24.578125 32.050781 C 24.539062 32.074219 24.492188 32.09375 24.449219 32.113281 C 24.109375 32.265625 23.746094 32.335938 23.476562 32.613281 C 23.378906 32.710938 23.152344 32.941406 23.414062 32.992188 C 23.59375 33.023438 23.785156 32.988281 23.957031 32.933594 C 24.332031 32.808594 24.585938 32.617188 24.617188 32.222656 Z M 24.765625 30.996094 C 24.765625 30.996094 24.769531 30.996094 24.769531 30.996094 C 24.59375 30.839844 24.445312 30.679688 24.324219 30.507812 C 23.765625 30.277344 23.351562 30.445312 22.910156 30.714844 C 23.460938 31.128906 24.113281 31.40625 24.765625 30.996094 Z M 24.667969 15.257812 C 24.867188 14.792969 24.921875 14.289062 24.871094 13.792969 C 24.78125 13.828125 24.6875 13.855469 24.589844 13.878906 C 24.476562 14.175781 24.300781 14.445312 24.085938 14.691406 C 24.203125 14.710938 24.316406 14.726562 24.433594 14.734375 C 24.570312 14.746094 24.660156 14.859375 24.632812 15 C 24.574219 15.285156 24.429688 15.5625 24.230469 15.796875 C 24.410156 15.671875 24.5625 15.5 24.667969 15.257812 Z M 24.839844 30.109375 C 25.136719 30.277344 25.167969 30.410156 25.128906 29.988281 C 25.105469 29.753906 25.054688 29.515625 24.984375 29.296875 C 24.941406 29.160156 24.902344 29.015625 24.824219 28.894531 C 24.71875 28.722656 24.738281 28.835938 24.675781 29.011719 C 24.59375 29.253906 24.464844 29.546875 24.5625 29.804688 C 24.589844 29.878906 24.625 29.949219 24.667969 30.019531 C 24.726562 30.046875 24.785156 30.078125 24.839844 30.109375 Z M 26.785156 29.898438 C 26.785156 28.417969 26.785156 26.3125 26.785156 25.023438 C 26.734375 25.082031 26.671875 25.140625 26.609375 25.1875 C 26.539062 25.242188 26.460938 25.28125 26.382812 25.328125 C 26.300781 25.375 26.226562 25.402344 26.144531 25.4375 C 25.964844 25.519531 25.789062 25.5625 25.601562 25.625 C 25.414062 25.671875 25.21875 25.722656 25.015625 25.765625 C 24.207031 25.914062 23.472656 25.96875 22.953125 26.03125 C 22.820312 26.046875 22.703125 26.058594 22.597656 26.074219 C 22.492188 26.085938 22.402344 26.101562 22.328125 26.105469 C 22.179688 26.121094 22.09375 26.117188 22.089844 26.097656 C 22.085938 26.074219 22.160156 26.03125 22.300781 25.980469 C 22.371094 25.953125 22.457031 25.925781 22.558594 25.890625 C 22.660156 25.863281 22.78125 25.835938 22.910156 25.800781 C 23.4375 25.675781 24.167969 25.585938 24.953125 25.4375 C 25.148438 25.394531 25.339844 25.351562 25.519531 25.3125 C 25.695312 25.253906 25.882812 25.214844 26.027344 25.15625 C 26.109375 25.121094 26.195312 25.09375 26.261719 25.0625 C 26.328125 25.027344 26.398438 25 26.453125 24.957031 C 26.570312 24.882812 26.664062 24.800781 26.722656 24.695312 C 26.746094 24.660156 26.765625 24.621094 26.785156 24.582031 C 26.785156 24.546875 26.785156 24.515625 26.785156 24.488281 C 26.285156 24.746094 25.636719 24.878906 25.261719 24.980469 C 22.023438 25.824219 18.839844 25.488281 15.519531 25.503906 C 15.457031 25.503906 15.402344 25.488281 15.363281 25.457031 C 14.707031 25.652344 14.023438 25.6875 13.363281 25.480469 C 12.988281 26.265625 12.566406 26.359375 11.945312 25.621094 C 11.609375 25.902344 11.304688 25.699219 11.046875 25.417969 C 10.738281 25.59375 10.335938 25.574219 9.964844 25.441406 C 9.992188 25.507812 10.019531 25.582031 10.03125 25.671875 C 10.054688 25.867188 10.042969 26.117188 9.878906 26.371094 C 9.800781 26.496094 9.65625 26.628906 9.449219 26.660156 C 9.394531 26.667969 9.339844 26.664062 9.289062 26.65625 C 9.289062 26.84375 9.269531 27.035156 9.21875 27.242188 C 9.171875 27.410156 9.101562 27.589844 8.964844 27.75 C 8.910156 27.816406 8.839844 27.871094 8.765625 27.917969 C 8.785156 27.953125 8.804688 27.996094 8.8125 28.074219 C 8.820312 28.132812 8.804688 28.179688 8.789062 28.226562 C 8.769531 28.261719 8.75 28.289062 8.738281 28.308594 L 8.679688 28.378906 L 8.652344 28.417969 L 8.644531 28.429688 L 8.644531 28.433594 L 8.636719 28.445312 C 8.523438 28.636719 8.421875 28.886719 8.28125 29.144531 C 8.210938 29.273438 8.128906 29.40625 8.019531 29.535156 C 7.910156 29.664062 7.765625 29.792969 7.574219 29.859375 L 7.441406 29.894531 C 7.390625 29.902344 7.339844 29.90625 7.292969 29.910156 C 7.234375 29.914062 7.21875 29.90625 7.179688 29.902344 L 7.132812 29.898438 L 7.121094 29.898438 L 7.09375 29.894531 L 7.089844 29.890625 L 7.054688 29.882812 C 7.046875 29.882812 7.039062 29.878906 7.035156 29.878906 C 7.03125 29.882812 7.03125 29.886719 7.027344 29.894531 C 7.003906 29.957031 6.953125 30.003906 6.910156 30.039062 C 7.015625 30.5 6.953125 30.96875 6.996094 31.433594 C 9.507812 32.453125 12.011719 32.828125 14.71875 32.847656 C 16.089844 32.859375 17.460938 32.851562 18.828125 32.839844 C 20.085938 32.832031 21.480469 33.003906 22.722656 32.734375 C 22.765625 32.5625 22.875 32.398438 23.003906 32.253906 C 22.828125 32.304688 22.636719 32.347656 22.421875 32.375 C 22.359375 32.382812 22.296875 32.386719 22.230469 32.394531 C 22.167969 32.398438 22.105469 32.402344 22.039062 32.40625 C 21.910156 32.410156 21.773438 32.417969 21.636719 32.421875 C 21.089844 32.433594 20.488281 32.460938 19.859375 32.488281 C 18.59375 32.542969 17.441406 32.550781 16.605469 32.46875 C 16.394531 32.445312 16.207031 32.429688 16.042969 32.40625 C 15.878906 32.375 15.738281 32.347656 15.628906 32.324219 C 15.398438 32.277344 15.277344 32.238281 15.277344 32.214844 C 15.28125 32.191406 15.410156 32.1875 15.644531 32.195312 C 15.757812 32.203125 15.902344 32.210938 16.066406 32.222656 C 16.230469 32.222656 16.414062 32.230469 16.621094 32.234375 C 17.441406 32.253906 18.582031 32.210938 19.84375 32.152344 C 20.476562 32.128906 21.082031 32.109375 21.632812 32.113281 C 21.769531 32.113281 21.902344 32.113281 22.03125 32.113281 C 22.09375 32.113281 22.160156 32.109375 22.222656 32.109375 C 22.28125 32.105469 22.339844 32.101562 22.398438 32.097656 C 22.632812 32.082031 22.851562 32.042969 23.046875 32 C 23.21875 31.957031 23.375 31.910156 23.515625 31.863281 C 23.59375 31.824219 23.675781 31.785156 23.757812 31.753906 C 23.195312 31.644531 22.664062 31.296875 22.199219 30.894531 C 22.050781 30.765625 22.109375 30.527344 22.257812 30.429688 C 22.800781 30.082031 23.320312 29.71875 23.984375 29.792969 C 23.992188 29.796875 24 29.800781 24.003906 29.800781 C 23.941406 29.457031 23.992188 29.082031 24.191406 28.664062 C 24.5625 27.882812 25.207031 28.199219 25.460938 28.886719 C 25.5625 29.160156 25.75 29.75 25.726562 30.21875 C 25.839844 30.210938 25.953125 30.210938 26.066406 30.210938 C 26.144531 29.878906 26.464844 29.808594 26.785156 29.898438 Z M 26.882812 23.648438 C 26.929688 23.472656 26.03125 23.285156 25.554688 23.203125 C 25.558594 23.210938 25.558594 23.21875 25.558594 23.230469 C 25.574219 23.335938 25.539062 23.425781 25.480469 23.488281 C 25.460938 23.578125 25.394531 23.660156 25.28125 23.691406 C 23.535156 24.1875 21.773438 24.601562 19.949219 24.589844 C 18.347656 24.582031 16.75 24.507812 15.152344 24.570312 C 15.363281 24.65625 15.566406 24.769531 15.746094 24.910156 C 18.328125 24.921875 20.949219 25.257812 23.503906 24.765625 C 24.332031 24.609375 25.167969 24.4375 25.960938 24.148438 C 26.230469 24.050781 26.601562 23.941406 26.820312 23.730469 C 26.835938 23.699219 26.859375 23.667969 26.882812 23.648438 Z M 27.214844 31.769531 C 27.253906 31.691406 27.332031 31.644531 27.414062 31.632812 C 27.40625 31.195312 27.023438 30.863281 26.75 30.527344 C 26.734375 30.503906 26.71875 30.480469 26.710938 30.460938 C 26.683594 30.445312 26.65625 30.4375 26.625 30.429688 C 26.621094 30.429688 26.617188 30.429688 26.613281 30.425781 C 26.625 30.441406 26.632812 30.464844 26.640625 30.511719 C 26.660156 30.667969 26.492188 30.8125 26.347656 30.808594 C 26.195312 30.804688 26.042969 30.785156 25.890625 30.777344 C 25.695312 30.773438 25.558594 30.714844 25.632812 30.929688 C 25.675781 31.054688 25.601562 31.195312 25.496094 31.261719 C 25.238281 31.425781 25.121094 31.683594 25.152344 31.953125 C 25.183594 31.996094 25.199219 32.050781 25.207031 32.117188 C 25.207031 32.132812 25.203125 32.144531 25.203125 32.160156 C 25.21875 32.210938 25.246094 32.253906 25.273438 32.300781 C 25.414062 32.523438 25.632812 32.765625 25.75 32.410156 C 25.796875 32.257812 25.949219 32.152344 26.109375 32.203125 C 26.664062 32.359375 26.941406 32.320312 27.214844 31.769531 Z M 27.445312 30.449219 C 27.824219 30.914062 28.144531 31.394531 27.945312 32.046875 C 27.898438 32.191406 27.757812 32.285156 27.609375 32.257812 C 27.269531 32.808594 26.800781 32.953125 26.191406 32.828125 C 25.902344 33.273438 25.382812 33.277344 25 32.894531 C 24.839844 33.136719 24.597656 33.324219 24.285156 33.441406 C 23.847656 33.605469 23.191406 33.730469 22.855469 33.3125 C 21.5625 33.585938 20.136719 33.425781 18.828125 33.433594 C 17.335938 33.445312 15.839844 33.457031 14.34375 33.4375 C 11.652344 33.398438 9.160156 32.980469 6.660156 31.933594 C 6.542969 31.886719 6.484375 31.785156 6.472656 31.683594 C 6.445312 31.644531 6.429688 31.601562 6.421875 31.550781 C 6.367188 31.09375 6.449219 30.628906 6.339844 30.179688 C 6.277344 30.191406 6.210938 30.199219 6.136719 30.207031 C 6.039062 30.214844 5.933594 30.21875 5.820312 30.214844 C 5.710938 30.207031 5.589844 30.195312 5.449219 30.132812 C 5.410156 30.109375 5.382812 30.101562 5.332031 30.058594 C 5.308594 30.042969 5.28125 30.015625 5.269531 30.007812 L 5.246094 29.976562 C 5.242188 29.972656 5.222656 29.949219 5.222656 29.949219 L 5.214844 29.929688 L 5.195312 29.898438 C 5.1875 29.878906 5.171875 29.859375 5.167969 29.835938 C 5.148438 29.792969 5.136719 29.742188 5.132812 29.699219 C 5.113281 29.507812 5.171875 29.371094 5.226562 29.253906 C 5.269531 29.15625 5.320312 29.074219 5.371094 29 C 5.367188 28.992188 5.359375 28.988281 5.355469 28.980469 C 5.320312 28.9375 5.296875 28.878906 5.289062 28.832031 C 5.253906 28.640625 5.304688 28.535156 5.339844 28.433594 C 5.347656 28.410156 5.359375 28.386719 5.371094 28.367188 C 5.375 28.066406 5.515625 27.667969 5.800781 27.335938 C 5.757812 27.339844 5.707031 27.34375 5.660156 27.339844 C 5.542969 27.332031 5.417969 27.304688 5.285156 27.203125 C 5.167969 27.117188 5.09375 26.988281 5.054688 26.871094 C 4.992188 26.679688 4.988281 26.503906 5.003906 26.339844 C 4.855469 26.277344 4.726562 26.167969 4.644531 26.046875 C 4.515625 25.851562 4.46875 25.652344 4.445312 25.46875 C 4.421875 25.203125 4.449219 24.957031 4.515625 24.738281 C 4.476562 24.75 4.433594 24.757812 4.390625 24.765625 C 4.292969 24.785156 4.175781 24.785156 4.054688 24.746094 C 3.996094 24.722656 3.945312 24.6875 3.890625 24.65625 C 3.84375 24.621094 3.804688 24.574219 3.765625 24.535156 L 3.75 24.519531 C 3.746094 24.515625 3.734375 24.496094 3.734375 24.496094 L 3.726562 24.488281 L 3.710938 24.460938 L 3.675781 24.410156 C 3.664062 24.390625 3.65625 24.375 3.640625 24.351562 L 3.605469 24.28125 C 3.554688 24.179688 3.523438 24.085938 3.492188 23.992188 C 3.441406 23.800781 3.40625 23.605469 3.394531 23.402344 C 3.390625 23.300781 3.386719 23.199219 3.398438 23.09375 L 3.402344 23.015625 C 3.402344 23.007812 3.410156 22.976562 3.410156 22.976562 L 3.410156 22.96875 L 3.414062 22.953125 L 3.46875 22.707031 C 3.476562 22.683594 3.492188 22.648438 3.503906 22.621094 L 3.578125 22.453125 C 3.632812 22.335938 3.707031 22.257812 3.769531 22.160156 C 4.050781 21.84375 4.382812 21.644531 4.667969 21.433594 C 4.660156 21.382812 4.648438 21.335938 4.652344 21.289062 C 4.648438 21.164062 4.671875 21.046875 4.714844 20.949219 C 4.792969 20.746094 4.910156 20.601562 5.03125 20.46875 C 5.269531 20.207031 5.535156 20.011719 5.761719 19.832031 C 5.863281 19.746094 5.976562 19.636719 6.097656 19.535156 C 6.222656 19.433594 6.363281 19.328125 6.550781 19.269531 C 6.644531 19.242188 6.753906 19.230469 6.863281 19.25 L 6.894531 19.257812 C 6.898438 19.261719 6.902344 19.261719 6.902344 19.261719 L 6.917969 19.265625 L 6.941406 19.273438 C 6.953125 19.277344 6.953125 19.28125 6.96875 19.285156 L 7.015625 19.3125 C 7.046875 19.332031 7.085938 19.355469 7.105469 19.371094 L 7.160156 19.433594 C 7.21875 19.503906 7.261719 19.574219 7.292969 19.640625 C 7.339844 19.617188 7.386719 19.59375 7.4375 19.570312 C 7.46875 19.554688 7.503906 19.542969 7.542969 19.53125 C 7.578125 19.523438 7.609375 19.507812 7.65625 19.503906 C 7.695312 19.5 7.738281 19.496094 7.78125 19.5 C 7.828125 19.507812 7.871094 19.515625 7.914062 19.527344 C 7.9375 19.539062 7.957031 19.550781 7.976562 19.5625 C 7.96875 18.246094 7.957031 16.933594 8.1875 15.628906 C 8.179688 15.472656 8.273438 15.324219 8.46875 15.339844 C 8.914062 15.371094 9.363281 15.425781 9.808594 15.480469 C 9.875 14.945312 9.917969 14.402344 9.925781 13.859375 C 9.933594 13.40625 10 12.734375 9.820312 12.320312 C 9.714844 12.394531 9.597656 12.421875 9.464844 12.378906 C 9.433594 12.367188 9.40625 12.351562 9.375 12.339844 C 9.347656 12.328125 9.324219 12.308594 9.300781 12.292969 C 9.246094 12.261719 9.207031 12.226562 9.167969 12.191406 C 9.085938 12.117188 9.03125 12.042969 8.976562 11.960938 C 8.921875 11.886719 8.871094 11.785156 8.839844 11.722656 C 8.761719 11.535156 8.730469 11.378906 8.699219 11.21875 C 8.652344 10.894531 8.648438 10.59375 8.675781 10.304688 C 8.707031 10.109375 8.742188 9.910156 8.832031 9.734375 C 8.324219 9.820312 7.617188 9.960938 7.367188 9.398438 C 7.164062 8.953125 7.574219 8.683594 7.96875 8.574219 C 7.816406 8.261719 7.789062 7.875 8.160156 7.695312 C 8.238281 7.664062 8.3125 7.632812 8.386719 7.617188 C 8.355469 7.585938 8.324219 7.554688 8.292969 7.519531 C 8.121094 7.308594 7.984375 7.074219 7.925781 6.757812 C 7.90625 6.664062 7.914062 6.636719 7.90625 6.546875 C 7.902344 6.488281 7.898438 6.429688 7.898438 6.367188 C 7.894531 6.246094 7.886719 6.128906 7.890625 5.996094 C 7.894531 5.929688 7.898438 5.863281 7.902344 5.792969 C 7.90625 5.730469 7.917969 5.679688 7.929688 5.621094 L 7.941406 5.542969 L 7.945312 5.53125 L 7.953125 5.5 C 7.953125 5.496094 7.957031 5.488281 7.957031 5.488281 L 7.964844 5.464844 L 7.984375 5.417969 C 8.007812 5.351562 8.039062 5.296875 8.066406 5.242188 C 8.128906 5.136719 8.191406 5.046875 8.246094 4.972656 C 8.269531 4.933594 8.300781 4.890625 8.316406 4.863281 L 8.339844 4.820312 C 8.347656 4.808594 8.359375 4.78125 8.367188 4.757812 C 8.398438 4.675781 8.414062 4.621094 8.433594 4.53125 C 8.449219 4.441406 8.476562 4.332031 8.527344 4.234375 C 8.636719 4.054688 8.742188 3.96875 8.839844 3.871094 C 8.921875 3.792969 9.003906 3.734375 9.085938 3.691406 C 8.925781 3.3125 9.070312 2.65625 9.175781 2.375 C 9.292969 2.0625 9.449219 1.839844 9.808594 1.839844 C 10.042969 1.839844 10.246094 1.992188 10.414062 2.175781 C 10.5 1.933594 10.667969 1.71875 10.84375 1.523438 C 10.90625 1.453125 11.011719 1.445312 11.089844 1.488281 C 11.429688 1.675781 11.71875 1.882812 11.914062 2.15625 C 11.953125 1.539062 12.035156 0.929688 12.042969 0.3125 C 12.042969 0.15625 12.140625 0.0664062 12.257812 0.0351562 C 12.292969 0.0195312 12.335938 0.0117188 12.382812 0.015625 C 15.496094 0.160156 18.609375 0.234375 21.726562 0.1875 C 21.914062 0.1875 22.007812 0.332031 22.007812 0.484375 C 22.011719 0.507812 22.015625 0.53125 22.015625 0.558594 C 22.019531 2.945312 22.050781 5.328125 21.882812 7.710938 C 22.234375 7.710938 22.585938 7.714844 22.941406 7.714844 C 23.097656 7.714844 23.1875 7.816406 23.214844 7.933594 C 23.25 7.980469 23.277344 8.039062 23.28125 8.109375 C 23.375 9.371094 23.597656 10.625 23.394531 11.886719 C 23.386719 11.917969 23.378906 11.945312 23.367188 11.972656 C 23.46875 12.1875 23.542969 12.410156 23.566406 12.648438 C 23.871094 12.546875 24.207031 12.5625 24.53125 12.582031 C 24.613281 12.585938 24.714844 12.640625 24.726562 12.734375 C 24.761719 12.972656 24.757812 13.199219 24.71875 13.417969 C 24.792969 13.390625 24.863281 13.359375 24.929688 13.316406 C 25.039062 13.261719 25.207031 13.300781 25.230469 13.441406 C 25.355469 14.136719 25.339844 14.988281 24.945312 15.605469 C 24.929688 15.632812 24.910156 15.660156 24.890625 15.6875 C 25.058594 15.710938 25.226562 15.742188 25.402344 15.792969 C 25.53125 15.828125 25.617188 15.945312 25.617188 16.078125 C 25.640625 18.246094 25.285156 20.421875 25.484375 22.585938 C 26.222656 22.65625 27.761719 22.894531 27.453125 23.828125 C 27.433594 23.890625 27.402344 23.949219 27.371094 24.003906 C 27.371094 26.101562 27.371094 28.195312 27.371094 30.296875 C 27.382812 30.308594 27.390625 30.324219 27.402344 30.335938 C 27.425781 30.378906 27.441406 30.414062 27.445312 30.449219 Z M 7.28125 27.496094 C 7.28125 27.5 7.28125 27.5 7.277344 27.503906 C 7.230469 27.570312 7.179688 27.628906 7.128906 27.683594 C 7.078125 27.734375 7.027344 27.789062 6.976562 27.84375 C 6.953125 27.871094 6.933594 27.898438 6.917969 27.917969 C 6.898438 27.945312 6.871094 27.984375 6.851562 28.015625 C 6.78125 28.136719 6.699219 28.292969 6.683594 28.410156 C 6.679688 28.433594 6.683594 28.449219 6.683594 28.457031 C 6.695312 28.453125 6.746094 28.472656 6.816406 28.464844 L 7.058594 28.441406 L 7.054688 28.707031 C 7.054688 28.839844 7.035156 28.964844 7.027344 29.078125 C 7.015625 29.191406 7.023438 29.292969 7.042969 29.332031 C 7.046875 29.351562 7.054688 29.351562 7.074219 29.363281 C 7.085938 29.375 7.121094 29.390625 7.164062 29.398438 L 7.179688 29.402344 L 7.183594 29.40625 L 7.226562 29.40625 C 7.253906 29.410156 7.300781 29.417969 7.308594 29.410156 C 7.324219 29.40625 7.335938 29.40625 7.351562 29.40625 C 7.371094 29.398438 7.390625 29.390625 7.410156 29.390625 C 7.574219 29.332031 7.734375 29.125 7.859375 28.902344 C 7.992188 28.675781 8.097656 28.429688 8.253906 28.191406 L 8.277344 28.15625 L 8.292969 28.140625 L 8.324219 28.101562 L 8.347656 28.078125 C 8.34375 28.074219 8.34375 28.070312 8.34375 28.070312 C 8.332031 28.050781 8.328125 28.054688 8.324219 28.050781 C 8.320312 28.050781 8.316406 28.042969 8.3125 28.039062 C 8.3125 28.039062 8.308594 28.019531 8.304688 28.019531 C 8.296875 28.019531 8.292969 28.019531 8.285156 28.019531 L 8.238281 28.035156 L 8.210938 28.035156 L 8.207031 28.019531 L 8.199219 28.019531 L 8.167969 28.035156 C 8.117188 28.023438 8.078125 28.023438 8.011719 28.003906 C 7.949219 27.980469 7.875 27.960938 7.824219 27.929688 C 7.769531 27.898438 7.714844 27.875 7.667969 27.84375 C 7.515625 27.742188 7.390625 27.628906 7.28125 27.496094 Z M 14.226562 16.96875 C 13.6875 16.96875 12.921875 16.953125 12.054688 16.945312 C 11.238281 16.933594 10.496094 16.84375 9.957031 16.730469 C 9.6875 16.691406 9.484375 16.621094 9.339844 16.578125 C 9.199219 16.53125 9.117188 16.496094 9.125 16.472656 C 9.128906 16.453125 9.210938 16.445312 9.363281 16.453125 C 9.511719 16.457031 9.730469 16.488281 9.992188 16.5 C 10.515625 16.546875 11.25 16.558594 12.058594 16.570312 C 12.804688 16.578125 13.492188 16.597656 14.011719 16.636719 C 13.921875 16.53125 13.847656 16.414062 13.789062 16.292969 C 13.773438 16.296875 13.761719 16.300781 13.746094 16.300781 C 12.058594 16.5 10.398438 16.101562 8.722656 15.953125 C 8.535156 17.113281 8.550781 18.285156 8.5625 19.460938 C 8.585938 19.394531 8.617188 19.328125 8.660156 19.261719 L 8.738281 19.140625 L 8.835938 19.023438 C 8.867188 18.984375 8.910156 18.949219 8.957031 18.914062 C 9.003906 18.886719 9.042969 18.84375 9.09375 18.824219 C 9.144531 18.800781 9.199219 18.777344 9.25 18.757812 C 9.300781 18.734375 9.355469 18.734375 9.410156 18.722656 C 9.449219 18.714844 9.484375 18.710938 9.523438 18.703125 L 9.746094 18.667969 L 9.777344 18.910156 C 9.851562 19.433594 9.734375 19.878906 9.699219 20.242188 C 9.695312 20.335938 9.679688 20.425781 9.683594 20.503906 C 9.683594 20.542969 9.679688 20.578125 9.679688 20.617188 C 9.679688 20.660156 9.6875 20.707031 9.6875 20.75 C 9.695312 20.789062 9.699219 20.832031 9.703125 20.875 L 9.707031 20.878906 L 9.6875 20.882812 L 9.695312 20.890625 L 9.707031 20.917969 L 9.71875 20.976562 C 9.738281 21.054688 9.757812 21.128906 9.769531 21.199219 C 9.800781 21.351562 9.832031 21.5 9.8125 21.644531 C 9.800781 21.761719 9.761719 21.859375 9.71875 21.9375 C 9.738281 21.933594 9.75 21.929688 9.769531 21.925781 C 9.808594 21.914062 9.851562 21.921875 9.898438 21.925781 C 9.9375 21.933594 9.980469 21.949219 10.015625 21.964844 C 10.160156 22.035156 10.257812 22.144531 10.339844 22.257812 C 10.425781 22.382812 10.496094 22.496094 10.546875 22.675781 C 10.59375 22.8125 10.625 23 10.640625 23.191406 C 10.960938 22.855469 11.359375 22.492188 11.792969 22.625 C 12.058594 22.710938 12.074219 22.992188 12.015625 23.269531 C 12.421875 23.054688 12.972656 22.808594 13.207031 23.097656 C 13.402344 23.335938 13.359375 23.539062 13.257812 23.753906 C 13.675781 23.703125 14.128906 23.75 14.179688 24.039062 C 16.105469 23.878906 18.023438 24.023438 19.949219 23.996094 C 21.671875 23.976562 23.316406 23.628906 24.96875 23.164062 C 24.675781 20.875 25.03125 18.59375 25.035156 16.300781 C 24.867188 16.257812 24.699219 16.242188 24.523438 16.25 C 24.457031 16.25 24.40625 16.230469 24.363281 16.195312 C 24.269531 16.253906 24.175781 16.300781 24.078125 16.339844 C 24.128906 16.371094 24.175781 16.402344 24.21875 16.441406 C 24.292969 16.507812 24.351562 16.585938 24.398438 16.667969 L 24.417969 16.703125 L 24.421875 16.707031 L 24.429688 16.730469 L 24.433594 16.738281 L 24.4375 16.75 L 24.460938 16.804688 C 24.472656 16.847656 24.492188 16.867188 24.503906 16.925781 C 24.511719 16.980469 24.523438 17.039062 24.53125 17.09375 C 24.535156 17.152344 24.535156 17.183594 24.535156 17.230469 C 24.539062 17.324219 24.542969 17.363281 24.546875 17.457031 L 24.554688 17.472656 L 24.578125 17.503906 L 24.582031 17.511719 L 24.597656 17.539062 L 24.605469 17.554688 L 24.632812 17.613281 C 24.648438 17.652344 24.667969 17.6875 24.683594 17.734375 L 24.730469 17.894531 L 24.75 17.976562 L 24.773438 18.210938 C 24.773438 18.3125 24.773438 18.417969 24.757812 18.523438 C 24.738281 18.628906 24.726562 18.734375 24.679688 18.832031 C 24.664062 18.886719 24.648438 18.9375 24.625 18.988281 L 24.542969 19.136719 C 24.410156 19.324219 24.285156 19.519531 23.972656 19.609375 C 23.894531 19.632812 23.78125 19.628906 23.675781 19.582031 C 23.644531 19.613281 23.609375 19.640625 23.574219 19.667969 C 23.457031 19.746094 23.339844 19.8125 23.214844 19.855469 C 23.105469 19.894531 22.988281 19.925781 22.871094 19.941406 C 23.015625 20.128906 23.121094 20.332031 23 20.5625 C 22.898438 20.746094 22.734375 20.90625 22.554688 21.007812 C 22.167969 21.21875 21.726562 21.1875 21.488281 20.765625 C 21.457031 20.707031 21.429688 20.648438 21.40625 20.585938 C 21.316406 20.699219 21.210938 20.808594 21.097656 20.902344 C 20.953125 21.027344 20.75 21.160156 20.550781 21.121094 C 20.320312 21.074219 20.125 20.910156 19.925781 20.789062 C 19.71875 20.660156 19.730469 20.355469 19.816406 20.089844 C 19.707031 20.109375 19.585938 20.113281 19.460938 20.09375 C 19.117188 20.054688 18.859375 19.875 19 19.492188 C 19.089844 19.238281 19.207031 18.859375 19.496094 18.769531 C 19.480469 18.742188 19.46875 18.710938 19.460938 18.675781 C 19.445312 18.628906 19.449219 18.597656 19.441406 18.558594 C 19.441406 18.53125 19.441406 18.53125 19.445312 18.515625 L 19.4375 18.476562 L 19.433594 18.472656 C 19.433594 18.464844 19.429688 18.460938 19.425781 18.457031 C 19.390625 18.40625 19.308594 18.347656 19.230469 18.28125 C 19.175781 18.234375 19.113281 18.175781 19.066406 18.09375 C 18.925781 18.390625 18.660156 18.558594 18.214844 18.476562 C 17.90625 18.414062 17.636719 18.273438 17.429688 18.070312 C 17.429688 18.101562 17.433594 18.136719 17.429688 18.167969 C 17.410156 18.765625 17.25 19.371094 16.597656 19.5 C 16.089844 19.601562 15.289062 19.34375 15.042969 18.851562 C 15.003906 18.777344 14.976562 18.707031 14.953125 18.628906 C 14.886719 18.730469 14.8125 18.824219 14.726562 18.902344 C 14.226562 19.332031 13.613281 19.472656 13.089844 19.011719 C 12.695312 18.664062 12.792969 17.859375 13.117188 17.503906 C 13.429688 17.171875 13.816406 16.96875 14.226562 16.96875 Z M 6.765625 23.769531 C 6.761719 23.773438 6.746094 23.796875 6.746094 23.796875 C 6.664062 23.910156 6.679688 24.160156 6.777344 24.425781 C 6.789062 24.460938 6.804688 24.492188 6.816406 24.519531 C 6.832031 24.554688 6.851562 24.59375 6.867188 24.628906 C 6.902344 24.703125 6.933594 24.765625 6.96875 24.816406 C 7.078125 24.980469 7.222656 24.929688 7.371094 24.929688 C 7.398438 24.929688 7.421875 24.929688 7.449219 24.929688 C 7.617188 24.949219 7.785156 25.121094 7.90625 25.226562 C 7.976562 25.285156 7.976562 25.285156 8.03125 25.296875 C 8.042969 25.296875 8.050781 25.300781 8.066406 25.304688 L 8.136719 25.300781 C 8.179688 25.300781 8.222656 25.296875 8.265625 25.296875 C 8.484375 25.296875 8.667969 25.292969 8.808594 25.265625 C 8.789062 25.238281 8.742188 25.167969 8.738281 25.152344 C 8.722656 25.113281 8.714844 25.089844 8.707031 25.066406 L 8.699219 25.042969 C 8.695312 25.039062 8.691406 25.035156 8.691406 25.03125 C 8.691406 25.03125 8.667969 25.019531 8.667969 25.019531 C 8.664062 25.015625 8.65625 25.011719 8.65625 25.011719 C 8.65625 25.015625 8.632812 25.015625 8.617188 25.015625 C 8.597656 25.011719 8.585938 25.011719 8.5625 25.015625 C 8.523438 25.015625 8.480469 25.019531 8.4375 25.027344 C 8.347656 25.035156 8.257812 25.050781 8.136719 25.039062 C 7.960938 25.023438 7.765625 24.921875 7.664062 24.832031 C 7.613281 24.792969 7.574219 24.75 7.535156 24.710938 C 7.40625 24.640625 7.261719 24.535156 7.183594 24.34375 L 7.152344 24.265625 L 7.140625 24.179688 L 7.136719 24.09375 C 7.136719 24.066406 7.144531 24.042969 7.148438 24.015625 C 7.152344 23.984375 7.160156 23.949219 7.167969 23.921875 C 7.105469 23.902344 7.042969 23.878906 6.972656 23.847656 C 6.917969 23.820312 6.855469 23.792969 6.792969 23.746094 C 6.785156 23.75 6.78125 23.753906 6.777344 23.757812 Z M 8.230469 23.417969 L 8.230469 23.425781 C 8.230469 23.429688 8.230469 23.429688 8.230469 23.429688 L 8.226562 23.449219 C 8.226562 23.457031 8.226562 23.484375 8.230469 23.488281 C 8.238281 23.5 8.234375 23.492188 8.269531 23.511719 C 8.304688 23.523438 8.367188 23.53125 8.429688 23.523438 C 8.546875 23.515625 8.675781 23.445312 8.796875 23.355469 C 8.921875 23.261719 9.027344 23.136719 9.109375 23.003906 C 9.128906 22.96875 9.148438 22.933594 9.15625 22.90625 L 9.175781 22.863281 L 9.1875 22.84375 L 9.195312 22.804688 L 9.207031 22.730469 L 9.21875 22.695312 L 9.21875 22.6875 L 9.246094 22.6875 C 9.238281 22.746094 9.269531 22.703125 9.269531 22.714844 L 9.269531 22.695312 C 9.269531 22.660156 9.242188 22.625 9.238281 22.589844 C 9.210938 22.308594 8.914062 22.074219 8.5625 21.976562 C 8.527344 21.96875 8.480469 21.957031 8.449219 21.953125 C 8.417969 21.945312 8.378906 21.9375 8.332031 21.933594 C 8.257812 21.921875 8.199219 21.925781 8.128906 21.929688 C 7.992188 21.945312 7.847656 21.988281 7.71875 22.050781 C 7.585938 22.109375 7.46875 22.191406 7.378906 22.28125 C 7.332031 22.328125 7.289062 22.375 7.257812 22.425781 C 7.226562 22.472656 7.203125 22.53125 7.195312 22.5625 C 7.183594 22.570312 7.183594 22.628906 7.175781 22.660156 L 7.175781 22.683594 L 7.171875 22.683594 C 7.171875 22.6875 7.171875 22.6875 7.175781 22.691406 L 7.191406 22.742188 C 7.199219 22.765625 7.210938 22.816406 7.214844 22.851562 C 7.21875 22.867188 7.222656 22.894531 7.222656 22.90625 L 7.21875 22.933594 L 7.171875 22.964844 L 7.128906 22.96875 L 7.128906 22.972656 L 7.167969 23.007812 L 7.191406 23.011719 L 7.195312 23.039062 C 7.140625 23.199219 7.054688 23.265625 7.027344 23.300781 C 7.023438 23.308594 7.019531 23.308594 7.015625 23.3125 C 7.015625 23.3125 7.015625 23.308594 7.015625 23.304688 L 7.003906 23.320312 L 7.003906 23.28125 L 6.996094 23.28125 C 6.996094 23.28125 6.996094 23.300781 7.003906 23.316406 C 7.003906 23.332031 7.011719 23.34375 7.019531 23.355469 C 7.042969 23.378906 7.089844 23.445312 7.140625 23.472656 C 7.246094 23.523438 7.375 23.566406 7.507812 23.640625 L 7.691406 23.742188 L 7.585938 23.917969 C 7.511719 24.035156 7.484375 24.136719 7.511719 24.222656 C 7.535156 24.308594 7.617188 24.394531 7.714844 24.457031 C 7.910156 24.574219 8.125 24.632812 8.296875 24.664062 C 8.320312 24.65625 8.347656 24.652344 8.375 24.644531 C 8.417969 24.636719 8.464844 24.625 8.519531 24.617188 C 8.542969 24.613281 8.574219 24.609375 8.605469 24.605469 C 8.636719 24.605469 8.660156 24.601562 8.710938 24.609375 C 8.738281 24.609375 8.757812 24.613281 8.78125 24.621094 L 8.820312 24.628906 L 8.835938 24.632812 L 8.871094 24.648438 L 8.886719 24.652344 L 8.890625 24.65625 L 8.910156 24.664062 L 8.917969 24.667969 L 8.9375 24.679688 C 9.035156 24.746094 9.082031 24.84375 9.105469 24.894531 C 9.117188 24.917969 9.128906 24.945312 9.132812 24.957031 C 9.136719 24.964844 9.136719 24.964844 9.136719 24.964844 C 9.140625 24.96875 9.136719 24.964844 9.140625 24.96875 C 9.148438 24.980469 9.1875 24.988281 9.207031 25.007812 C 9.308594 25.050781 9.5 25.027344 9.621094 24.941406 C 9.628906 24.933594 9.636719 24.929688 9.652344 24.921875 C 9.664062 24.914062 9.6875 24.882812 9.707031 24.863281 L 9.71875 24.851562 L 9.777344 24.746094 C 9.839844 24.652344 9.882812 24.546875 9.933594 24.441406 C 10.050781 24.152344 10.128906 23.855469 10.167969 23.570312 C 10.195312 23.273438 10.195312 23.054688 10.132812 22.765625 C 10.09375 22.578125 9.960938 22.347656 9.855469 22.277344 C 9.804688 22.246094 9.796875 22.242188 9.746094 22.265625 C 9.714844 22.28125 9.683594 22.316406 9.65625 22.355469 C 9.667969 22.414062 9.683594 22.472656 9.6875 22.53125 C 9.699219 22.597656 9.695312 22.660156 9.691406 22.726562 L 9.691406 22.75 L 9.6875 22.761719 L 9.6875 22.792969 L 9.683594 22.796875 L 9.683594 22.800781 L 9.675781 22.835938 L 9.65625 22.910156 L 9.652344 22.945312 L 9.632812 22.992188 L 9.59375 23.089844 C 9.570312 23.15625 9.539062 23.199219 9.507812 23.25 C 9.386719 23.445312 9.238281 23.601562 9.0625 23.726562 C 8.972656 23.785156 8.886719 23.839844 8.78125 23.878906 L 8.699219 23.914062 C 8.679688 23.921875 8.660156 23.925781 8.625 23.933594 C 8.5625 23.949219 8.515625 23.953125 8.457031 23.957031 C 8.347656 23.960938 8.238281 23.953125 8.117188 23.90625 C 8.054688 23.878906 7.996094 23.847656 7.941406 23.785156 C 7.886719 23.726562 7.851562 23.648438 7.835938 23.578125 C 7.824219 23.503906 7.824219 23.445312 7.835938 23.375 L 7.84375 23.347656 C 7.847656 23.332031 7.855469 23.300781 7.863281 23.28125 C 7.882812 23.234375 7.90625 23.210938 7.925781 23.179688 C 8.023438 23.070312 8.125 23.039062 8.199219 23.007812 C 8.355469 22.957031 8.460938 22.914062 8.476562 22.882812 L 8.476562 22.878906 L 8.480469 22.871094 C 8.488281 22.855469 8.5 22.839844 8.503906 22.832031 C 8.507812 22.828125 8.507812 22.824219 8.507812 22.824219 C 8.460938 22.800781 8.371094 22.792969 8.296875 22.804688 L 8.199219 22.816406 L 8.136719 22.636719 C 8.136719 22.632812 8.140625 22.628906 8.144531 22.625 C 8.144531 22.625 8.144531 22.625 8.148438 22.625 C 8.148438 22.621094 8.140625 22.613281 8.125 22.605469 C 8.09375 22.589844 8.035156 22.578125 7.984375 22.582031 C 7.886719 22.589844 7.804688 22.628906 7.761719 22.671875 C 7.714844 22.71875 7.703125 22.773438 7.695312 22.816406 C 7.695312 22.855469 7.6875 22.886719 7.675781 22.886719 C 7.664062 22.894531 7.644531 22.875 7.625 22.828125 C 7.605469 22.78125 7.585938 22.6875 7.640625 22.589844 C 7.695312 22.492188 7.804688 22.40625 7.953125 22.371094 C 8.027344 22.351562 8.109375 22.34375 8.207031 22.375 C 8.257812 22.386719 8.316406 22.417969 8.363281 22.480469 C 8.367188 22.492188 8.371094 22.5 8.378906 22.511719 C 8.453125 22.5 8.53125 22.503906 8.628906 22.539062 C 8.667969 22.550781 8.707031 22.574219 8.75 22.613281 C 8.789062 22.652344 8.820312 22.714844 8.832031 22.777344 C 8.847656 22.898438 8.804688 22.980469 8.769531 23.046875 C 8.71875 23.152344 8.625 23.21875 8.550781 23.261719 C 8.472656 23.300781 8.398438 23.332031 8.335938 23.359375 C 8.28125 23.382812 8.238281 23.410156 8.230469 23.425781 C 8.230469 23.425781 8.230469 23.421875 8.230469 23.417969 Z M 6.828125 19.707031 C 6.816406 19.703125 6.789062 19.695312 6.78125 19.691406 C 6.75 19.691406 6.71875 19.691406 6.679688 19.707031 C 6.597656 19.734375 6.496094 19.804688 6.394531 19.890625 C 6.292969 19.980469 6.195312 20.085938 6.0625 20.199219 C 5.820312 20.402344 5.582031 20.582031 5.390625 20.800781 C 5.296875 20.910156 5.210938 21.023438 5.171875 21.128906 C 5.148438 21.195312 5.140625 21.246094 5.144531 21.292969 C 5.175781 21.257812 5.207031 21.226562 5.238281 21.191406 C 5.332031 21.105469 5.429688 21.023438 5.550781 20.960938 C 5.609375 20.929688 5.671875 20.902344 5.742188 20.882812 L 5.765625 20.875 L 5.769531 20.875 C 5.773438 20.871094 5.800781 20.871094 5.800781 20.871094 L 5.8125 20.867188 L 5.851562 20.863281 C 5.863281 20.863281 5.871094 20.863281 5.890625 20.863281 L 5.953125 20.863281 C 6.042969 20.871094 6.097656 20.894531 6.164062 20.921875 C 6.195312 20.9375 6.226562 20.953125 6.253906 20.972656 C 6.285156 20.996094 6.3125 21.019531 6.335938 21.046875 C 6.433594 20.929688 6.535156 20.832031 6.648438 20.789062 C 6.746094 20.75 6.835938 20.761719 6.878906 20.789062 C 6.925781 20.8125 6.941406 20.839844 6.933594 20.855469 C 6.921875 20.886719 6.828125 20.863281 6.738281 20.949219 C 6.6875 20.996094 6.351562 21.5625 6.320312 21.539062 C 6.207031 21.441406 6.105469 21.285156 5.945312 21.269531 C 5.839844 21.261719 5.691406 21.367188 5.558594 21.515625 C 5.421875 21.664062 5.296875 21.851562 5.171875 22.058594 C 5.109375 22.160156 5.046875 22.269531 4.988281 22.375 C 4.941406 22.46875 4.894531 22.585938 4.863281 22.695312 C 4.824219 22.820312 4.75 23.050781 4.890625 23.105469 C 5.042969 23.164062 5.246094 22.996094 5.347656 22.90625 C 5.40625 22.855469 5.558594 22.628906 5.628906 22.617188 C 5.695312 22.609375 5.792969 22.75 5.847656 22.777344 C 5.957031 22.828125 6.027344 22.800781 6.085938 22.691406 C 6.128906 22.609375 6.121094 22.117188 6.191406 22.097656 C 6.226562 22.085938 6.335938 22.230469 6.367188 22.542969 C 6.371094 22.621094 6.371094 22.710938 6.347656 22.816406 C 6.320312 22.917969 6.257812 23.046875 6.128906 23.132812 C 6.070312 23.160156 6.09375 23.15625 6.03125 23.179688 C 5.984375 23.195312 5.9375 23.203125 5.882812 23.199219 C 5.824219 23.195312 5.761719 23.171875 5.71875 23.136719 C 5.679688 23.105469 5.652344 23.070312 5.628906 23.039062 C 5.609375 23.070312 5.585938 23.097656 5.566406 23.128906 C 5.457031 23.265625 5.339844 23.40625 5.140625 23.523438 C 5.039062 23.574219 4.890625 23.632812 4.714844 23.582031 L 4.695312 23.578125 L 4.6875 23.574219 C 4.683594 23.574219 4.652344 23.558594 4.652344 23.558594 L 4.636719 23.550781 L 4.609375 23.535156 C 4.597656 23.53125 4.550781 23.5 4.511719 23.464844 C 4.472656 23.429688 4.449219 23.394531 4.425781 23.363281 C 4.402344 23.328125 4.386719 23.292969 4.375 23.261719 C 4.28125 22.976562 4.339844 22.757812 4.390625 22.554688 C 4.4375 22.410156 4.488281 22.277344 4.558594 22.140625 C 4.566406 22.128906 4.570312 22.121094 4.578125 22.109375 C 4.40625 22.230469 4.257812 22.347656 4.136719 22.484375 C 4.097656 22.550781 4.03125 22.613281 4.003906 22.679688 C 3.988281 22.710938 3.976562 22.742188 3.957031 22.773438 C 3.949219 22.789062 3.941406 22.800781 3.933594 22.820312 L 3.917969 22.890625 L 3.882812 23.027344 L 3.875 23.0625 L 3.871094 23.078125 L 3.867188 23.089844 L 3.847656 23.089844 L 3.851562 23.132812 C 3.84375 23.214844 3.851562 23.300781 3.851562 23.382812 C 3.855469 23.550781 3.882812 23.714844 3.921875 23.867188 C 3.945312 23.941406 3.96875 24.015625 3.992188 24.070312 L 4.011719 24.117188 C 4.019531 24.132812 4.035156 24.152344 4.042969 24.171875 L 4.078125 24.226562 L 4.089844 24.25 L 4.097656 24.257812 C 4.167969 24.351562 4.21875 24.363281 4.339844 24.355469 C 4.453125 24.34375 4.597656 24.292969 4.746094 24.246094 L 4.921875 24.1875 L 4.996094 24.398438 C 5.007812 24.433594 5.015625 24.464844 5.03125 24.488281 C 5.097656 24.519531 5.15625 24.542969 5.210938 24.566406 C 5.21875 24.566406 5.21875 24.570312 5.226562 24.570312 C 5.300781 24.574219 5.351562 24.566406 5.445312 24.546875 C 5.496094 24.527344 5.574219 24.496094 5.636719 24.46875 C 5.886719 24.332031 6.078125 24.132812 6.214844 23.960938 C 6.265625 23.902344 6.304688 23.847656 6.339844 23.792969 C 6.371094 23.707031 6.421875 23.621094 6.488281 23.5625 L 6.503906 23.546875 C 6.503906 23.542969 6.507812 23.539062 6.507812 23.539062 C 6.539062 23.484375 6.5625 23.445312 6.582031 23.417969 C 6.582031 23.402344 6.574219 23.386719 6.574219 23.371094 C 6.574219 23.339844 6.574219 23.308594 6.578125 23.28125 L 6.585938 23.234375 L 6.585938 23.222656 C 6.589844 23.21875 6.601562 23.183594 6.601562 23.183594 L 6.605469 23.171875 L 6.613281 23.144531 C 6.621094 23.136719 6.632812 23.113281 6.640625 23.097656 C 6.6875 23.015625 6.777344 22.96875 6.777344 22.871094 C 6.777344 22.816406 6.722656 22.730469 6.714844 22.667969 L 6.71875 22.613281 C 6.726562 22.570312 6.722656 22.546875 6.738281 22.476562 C 6.792969 22.246094 6.902344 22.085938 7.039062 21.9375 C 7.175781 21.796875 7.335938 21.6875 7.511719 21.605469 C 7.625 21.550781 7.742188 21.507812 7.867188 21.476562 C 7.945312 21.382812 8.027344 21.277344 8.09375 21.152344 C 8.117188 21.09375 8.148438 21.03125 8.15625 20.972656 C 8.160156 20.9375 8.175781 20.917969 8.175781 20.871094 C 8.179688 20.832031 8.179688 20.789062 8.183594 20.746094 L 8.183594 20.710938 L 8.164062 20.707031 L 8.171875 20.695312 L 8.167969 20.632812 C 8.164062 20.59375 8.160156 20.554688 8.15625 20.507812 C 8.144531 20.46875 8.136719 20.429688 8.125 20.386719 L 8.105469 20.324219 L 8.078125 20.269531 C 8.0625 20.234375 8.050781 20.195312 8.03125 20.15625 C 8 20.113281 7.972656 20.070312 7.941406 20.023438 L 7.921875 19.992188 C 7.917969 19.992188 7.910156 19.980469 7.910156 19.980469 L 7.867188 19.941406 C 7.855469 19.921875 7.839844 19.917969 7.828125 19.914062 C 7.816406 19.910156 7.804688 19.894531 7.792969 19.894531 C 7.753906 19.882812 7.691406 19.898438 7.601562 19.941406 C 7.515625 19.984375 7.410156 20.050781 7.300781 20.113281 L 7.128906 20.210938 L 7.023438 20.039062 C 6.941406 19.902344 6.890625 19.78125 6.835938 19.726562 C 6.832031 19.71875 6.824219 19.714844 6.820312 19.707031 C 6.824219 19.707031 6.824219 19.707031 6.828125 19.707031 " fill-opacity="1" fill-rule="nonzero"/></g><path fill="#eba1a1" d="M 21.191406 26.269531 C 21.1875 26.316406 20.828125 26.347656 20.25 26.363281 C 19.675781 26.371094 18.878906 26.402344 18 26.410156 C 17.101562 26.402344 16.300781 26.28125 15.738281 26.191406 C 15.171875 26.109375 14.816406 26.046875 14.816406 25.996094 C 14.820312 25.953125 15.179688 25.933594 15.757812 25.957031 C 16.339844 25.988281 17.128906 26.074219 18 26.078125 C 18.878906 26.066406 19.675781 26.074219 20.257812 26.128906 C 20.832031 26.171875 21.191406 26.222656 21.191406 26.269531 " fill-opacity="1" fill-rule="nonzero"/><path fill="#eba1a1" d="M 14.597656 32.289062 C 14.601562 32.367188 13.027344 32.492188 11.101562 32.203125 C 10.144531 32.046875 9.292969 31.8125 8.691406 31.59375 C 8.097656 31.375 7.746094 31.195312 7.761719 31.15625 C 7.777344 31.109375 8.15625 31.207031 8.761719 31.371094 C 9.367188 31.527344 10.207031 31.71875 11.152344 31.871094 C 13.039062 32.15625 14.597656 32.183594 14.597656 32.289062 " fill-opacity="1" fill-rule="nonzero"/></svg>