<svg xmlns="http://www.w3.org/2000/svg" xmlns:xlink="http://www.w3.org/1999/xlink" width="500" zoomAndPan="magnify" viewBox="0 0 375 374.999991" height="500" preserveAspectRatio="xMidYMid meet" version="1.0"><defs><clipPath id="83ea3b91ff"><path d="M 15 3 L 345.90625 3 L 345.90625 172 L 15 172 Z M 15 3 " clip-rule="nonzero"/></clipPath><clipPath id="56aa3e09a9"><path d="M 27 184 L 334 184 L 334 374.707031 L 27 374.707031 Z M 27 184 " clip-rule="nonzero"/></clipPath></defs><g clip-path="url(#83ea3b91ff)"><path fill="#000000" d="M 21.476562 171.359375 L 180.515625 171.359375 L 180.515625 107.785156 L 193.238281 107.785156 L 193.238281 171.359375 L 339.554688 171.359375 C 343.066406 171.359375 345.917969 168.511719 345.917969 165.003906 L 345.917969 101.429688 C 345.917969 97.921875 343.066406 95.070312 339.554688 95.070312 L 311.910156 95.070312 C 324.402344 83.5 331.464844 66.578125 331.464844 55.339844 C 331.464844 38.046875 317.46875 17.855469 278.050781 17.855469 C 245.609375 17.855469 211.320312 52.527344 191.675781 76.191406 C 198.304688 56.636719 213.699219 27.964844 227.542969 14.144531 C 230.007812 11.664062 230.007812 7.632812 227.542969 5.15625 C 225.058594 2.675781 221.015625 2.675781 218.546875 5.15625 C 205.109375 18.570312 190.1875 44.417969 181.964844 65.855469 C 173.722656 44.40625 158.796875 18.554688 145.386719 5.15625 C 142.90625 2.675781 138.871094 2.675781 136.390625 5.15625 C 133.910156 7.632812 133.910156 11.664062 136.390625 14.144531 C 150.210938 27.953125 165.628906 56.625 172.246094 76.179688 C 152.601562 52.515625 118.324219 17.855469 85.867188 17.855469 C 46.453125 17.855469 32.457031 38.046875 32.457031 55.339844 C 32.457031 66.578125 39.515625 83.5 52.011719 95.070312 L 21.464844 95.070312 C 17.953125 95.070312 15.101562 97.921875 15.101562 101.429688 L 15.101562 165.003906 C 15.113281 168.511719 17.964844 171.359375 21.476562 171.359375 Z M 278.050781 30.570312 C 308.054688 30.570312 318.742188 43.375 318.742188 55.339844 C 318.742188 67.480469 304.632812 95.070312 281.359375 95.070312 L 192.84375 95.070312 C 217.949219 61.824219 252.441406 30.570312 278.050781 30.570312 Z M 45.191406 55.339844 C 45.191406 43.375 55.878906 30.570312 85.878906 30.570312 C 111.492188 30.570312 145.984375 61.824219 171.074219 95.070312 L 82.558594 95.070312 C 59.316406 95.070312 45.191406 67.46875 45.191406 55.339844 Z M 45.191406 55.339844 " fill-opacity="1" fill-rule="nonzero"/></g><g clip-path="url(#56aa3e09a9)"><path fill="#000000" d="M 193.238281 184.074219 L 193.238281 362.078125 L 180.515625 362.078125 L 180.515625 184.074219 L 27.835938 184.074219 L 27.835938 368.4375 C 27.835938 371.933594 30.6875 374.792969 34.199219 374.792969 L 326.832031 374.792969 C 330.34375 374.792969 333.195312 371.933594 333.195312 368.4375 L 333.195312 184.074219 Z M 193.238281 184.074219 " fill-opacity="1" fill-rule="nonzero"/></g></svg>