<svg xmlns="http://www.w3.org/2000/svg" xmlns:xlink="http://www.w3.org/1999/xlink" width="45" zoomAndPan="magnify" viewBox="0 0 33.75 33.749999" height="45" preserveAspectRatio="xMidYMid meet" version="1.0"><defs><clipPath id="6ffd06ede5"><path d="M 17 25 L 25 25 L 25 33.5 L 17 33.5 Z M 17 25 " clip-rule="nonzero"/></clipPath><clipPath id="74cf180448"><path d="M 20.679688 24.417969 L 25.585938 26.285156 L 21.847656 36.097656 L 16.941406 34.230469 Z M 20.679688 24.417969 " clip-rule="nonzero"/></clipPath><clipPath id="c0ff6e0cb9"><path d="M 20.679688 24.417969 L 25.585938 26.285156 L 21.847656 36.097656 L 16.941406 34.230469 Z M 20.679688 24.417969 " clip-rule="nonzero"/></clipPath><clipPath id="a13b6a5ce2"><path d="M 4 19 L 19 19 L 19 33.5 L 4 33.5 Z M 4 19 " clip-rule="nonzero"/></clipPath><clipPath id="38abd08234"><path d="M 2.929688 21.707031 L 11.25 16.628906 L 21.015625 32.636719 L 12.691406 37.714844 Z M 2.929688 21.707031 " clip-rule="nonzero"/></clipPath><clipPath id="8073d022b2"><path d="M 2.929688 21.707031 L 11.25 16.628906 L 21.015625 32.636719 L 12.691406 37.714844 Z M 2.929688 21.707031 " clip-rule="nonzero"/></clipPath><clipPath id="0ed0a58a45"><path d="M 10.820312 0 L 22.820312 0 L 22.820312 33.5 L 10.820312 33.5 Z M 10.820312 0 " clip-rule="nonzero"/></clipPath></defs><g clip-path="url(#6ffd06ede5)"><g clip-path="url(#74cf180448)"><g clip-path="url(#c0ff6e0cb9)"><path fill="#eba1a1" d="M 17.898438 34.546875 C 17.863281 34.464844 17.867188 34.449219 18.1875 33.632812 C 18.449219 32.960938 18.566406 32.671875 18.671875 32.453125 L 18.707031 32.382812 L 18.679688 32.335938 C 18.542969 32.074219 18.527344 31.976562 18.59375 31.703125 C 18.609375 31.632812 18.65625 31.480469 18.699219 31.367188 L 18.777344 31.160156 L 18.75 31.023438 C 18.660156 30.542969 18.644531 30.296875 18.683594 29.9375 C 18.714844 29.652344 18.800781 29.351562 18.898438 29.199219 C 18.945312 29.125 19.121094 28.941406 19.167969 28.917969 C 19.195312 28.902344 19.242188 28.917969 19.261719 28.945312 C 19.28125 28.976562 19.285156 29.746094 19.269531 29.988281 C 19.246094 30.308594 19.230469 30.378906 19.136719 30.628906 C 19.0625 30.820312 19.039062 30.871094 18.992188 30.9375 C 18.929688 31.035156 18.914062 31.078125 18.792969 31.441406 C 18.65625 31.863281 18.644531 31.984375 18.714844 32.148438 C 18.738281 32.199219 18.757812 32.230469 18.765625 32.226562 C 18.773438 32.222656 18.816406 32.148438 18.859375 32.0625 C 18.976562 31.824219 19.097656 31.601562 19.199219 31.4375 C 19.335938 31.203125 19.375 31.050781 19.371094 30.753906 C 19.367188 30.542969 19.378906 30.386719 19.410156 30.183594 C 19.449219 29.933594 19.457031 29.816406 19.441406 29.675781 C 19.433594 29.605469 19.429688 29.546875 19.4375 29.546875 C 19.457031 29.535156 19.527344 29.738281 19.539062 29.839844 C 19.550781 29.945312 19.546875 30.09375 19.523438 30.203125 C 19.496094 30.359375 19.484375 30.535156 19.484375 30.78125 C 19.484375 30.832031 19.484375 30.882812 19.484375 30.894531 C 19.484375 30.925781 19.503906 30.929688 19.523438 30.898438 C 19.566406 30.828125 19.765625 30.46875 19.78125 30.433594 C 19.800781 30.378906 19.796875 30.359375 19.734375 30.089844 C 19.65625 29.730469 19.601562 29.34375 19.609375 29.175781 C 19.617188 29.097656 19.621094 29.082031 19.652344 29.023438 C 19.671875 28.988281 19.707031 28.949219 19.726562 28.9375 C 19.816406 28.875 19.972656 28.925781 20.011719 29.03125 C 20.039062 29.09375 20.015625 29.214844 19.972656 29.242188 C 19.894531 29.292969 19.769531 29.191406 19.792969 29.089844 C 19.800781 29.035156 19.785156 29.03125 19.753906 29.078125 C 19.722656 29.128906 19.71875 29.210938 19.738281 29.414062 C 19.769531 29.691406 19.863281 30.199219 19.890625 30.207031 C 19.90625 30.210938 19.914062 30.195312 20.027344 29.96875 C 20.277344 29.480469 20.308594 29.398438 20.328125 29.203125 C 20.375 28.777344 20.324219 28.523438 20.097656 28.042969 C 19.902344 27.640625 19.855469 27.582031 19.730469 27.617188 C 19.667969 27.636719 19.664062 27.628906 19.710938 27.589844 C 19.785156 27.53125 19.882812 27.558594 19.972656 27.65625 C 20.066406 27.753906 20.230469 28.046875 20.320312 28.269531 C 20.351562 28.335938 20.375 28.394531 20.378906 28.394531 C 20.394531 28.398438 20.417969 28.277344 20.414062 28.226562 C 20.410156 28.199219 20.398438 28.125 20.382812 28.0625 C 20.335938 27.84375 20.351562 27.621094 20.4375 27.367188 C 20.5 27.183594 20.570312 27.054688 20.675781 26.921875 C 20.757812 26.828125 20.871094 26.71875 20.9375 26.683594 C 20.980469 26.65625 20.984375 26.65625 21.003906 26.683594 C 21.039062 26.734375 21.082031 27.121094 21.074219 27.328125 C 21.070312 27.515625 21.019531 27.628906 20.851562 27.84375 C 20.71875 28.011719 20.664062 28.109375 20.546875 28.394531 L 20.441406 28.644531 L 20.453125 28.730469 C 20.457031 28.773438 20.464844 28.863281 20.464844 28.925781 C 20.464844 28.988281 20.46875 29.042969 20.472656 29.042969 C 20.480469 29.046875 20.496094 29.023438 20.515625 28.992188 C 20.664062 28.722656 20.828125 28.464844 20.988281 28.265625 C 21.039062 28.199219 21.101562 28.109375 21.125 28.070312 C 21.203125 27.941406 21.316406 27.695312 21.375 27.519531 C 21.464844 27.242188 21.515625 27.050781 21.644531 26.484375 C 21.671875 26.367188 21.75 26.09375 21.78125 26.019531 C 21.789062 26 21.789062 25.980469 21.785156 25.980469 C 21.78125 25.976562 21.742188 26.011719 21.695312 26.050781 C 21.632812 26.109375 21.609375 26.125 21.585938 26.121094 C 21.496094 26.109375 21.5625 25.988281 21.746094 25.828125 C 21.777344 25.800781 21.800781 25.773438 21.800781 25.765625 C 21.800781 25.757812 21.773438 25.726562 21.742188 25.699219 C 21.675781 25.644531 21.558594 25.480469 21.542969 25.417969 C 21.53125 25.363281 21.5625 25.28125 21.609375 25.253906 C 21.640625 25.234375 21.648438 25.234375 21.703125 25.261719 L 21.761719 25.289062 L 21.789062 25.210938 C 21.8125 25.144531 21.824219 25.128906 21.882812 25.074219 C 21.96875 24.992188 22.003906 24.984375 22.097656 25.019531 C 22.15625 25.039062 22.183594 25.042969 22.222656 25.035156 C 22.265625 25.027344 22.289062 25.03125 22.367188 25.058594 C 22.476562 25.101562 22.507812 25.121094 22.527344 25.179688 C 22.542969 25.214844 22.546875 25.222656 22.578125 25.222656 C 22.675781 25.222656 22.785156 25.304688 22.789062 25.382812 C 22.792969 25.425781 22.777344 25.457031 22.722656 25.535156 C 22.714844 25.542969 22.722656 25.550781 22.757812 25.5625 C 22.914062 25.609375 22.792969 25.765625 22.539062 25.84375 C 22.496094 25.859375 22.460938 25.871094 22.457031 25.878906 C 22.457031 25.882812 22.472656 25.898438 22.492188 25.914062 C 22.535156 25.945312 22.542969 25.984375 22.519531 26.019531 C 22.488281 26.0625 22.453125 26.054688 22.085938 25.90625 L 22.035156 25.882812 L 22 25.945312 C 21.953125 26.027344 21.832031 26.4375 21.753906 26.757812 C 21.660156 27.160156 21.625 27.296875 21.546875 27.523438 C 21.503906 27.640625 21.472656 27.742188 21.476562 27.746094 C 21.488281 27.761719 21.574219 27.667969 21.726562 27.476562 C 21.90625 27.253906 21.980469 27.175781 22.058594 27.117188 C 22.09375 27.09375 22.128906 27.066406 22.128906 27.058594 C 22.132812 27.050781 22.132812 27.007812 22.128906 26.960938 C 22.113281 26.8125 22.179688 26.695312 22.316406 26.628906 C 22.410156 26.585938 22.449219 26.585938 22.550781 26.625 C 22.632812 26.65625 22.648438 26.664062 22.703125 26.722656 C 22.824219 26.851562 22.828125 27.03125 22.714844 27.132812 C 22.648438 27.195312 22.496094 27.230469 22.367188 27.214844 C 22.316406 27.207031 22.300781 27.203125 22.261719 27.167969 C 22.234375 27.148438 22.207031 27.128906 22.203125 27.125 C 22.183594 27.117188 22.066406 27.242188 21.929688 27.417969 C 21.703125 27.703125 21.65625 27.757812 21.445312 27.957031 C 21.347656 28.050781 21.304688 28.101562 21.261719 28.167969 C 21.230469 28.21875 21.171875 28.300781 21.128906 28.355469 C 21.046875 28.457031 20.933594 28.617188 20.890625 28.691406 C 20.871094 28.71875 20.871094 28.730469 20.878906 28.726562 C 20.890625 28.726562 20.964844 28.679688 21.050781 28.628906 C 21.175781 28.546875 21.203125 28.523438 21.207031 28.5 C 21.222656 28.378906 21.265625 28.300781 21.316406 28.273438 C 21.359375 28.257812 21.371094 28.257812 21.382812 28.289062 C 21.390625 28.304688 21.386719 28.332031 21.375 28.367188 C 21.359375 28.40625 21.359375 28.421875 21.367188 28.421875 C 21.378906 28.421875 21.441406 28.390625 21.511719 28.347656 L 21.640625 28.273438 L 21.648438 28.191406 C 21.664062 28.039062 21.722656 27.929688 21.769531 27.949219 C 21.808594 27.964844 21.8125 27.992188 21.78125 28.09375 C 21.765625 28.144531 21.761719 28.1875 21.765625 28.1875 C 21.773438 28.191406 21.878906 28.136719 22 28.070312 L 22.21875 27.945312 L 22.226562 27.882812 C 22.230469 27.800781 22.265625 27.738281 22.316406 27.714844 C 22.332031 27.707031 22.355469 27.703125 22.359375 27.703125 C 22.382812 27.714844 22.398438 27.769531 22.382812 27.804688 C 22.375 27.824219 22.371094 27.847656 22.375 27.851562 C 22.386719 27.863281 22.566406 27.777344 22.574219 27.757812 C 22.582031 27.734375 22.730469 27.597656 22.777344 27.570312 C 22.835938 27.535156 22.945312 27.519531 22.996094 27.535156 C 23.070312 27.5625 23.074219 27.636719 23.007812 27.703125 C 22.9375 27.773438 22.800781 27.828125 22.675781 27.828125 C 22.613281 27.828125 22.59375 27.835938 22.484375 27.90625 C 22.355469 27.988281 22.351562 28 22.449219 28.003906 C 22.605469 28.011719 22.652344 28.101562 22.511719 28.128906 C 22.441406 28.140625 22.394531 28.136719 22.292969 28.109375 C 22.230469 28.09375 22.203125 28.09375 22.175781 28.105469 C 22.125 28.125 21.90625 28.253906 21.902344 28.265625 C 21.902344 28.273438 21.929688 28.289062 21.96875 28.304688 C 22.027344 28.324219 22.042969 28.335938 22.046875 28.351562 C 22.046875 28.371094 22.042969 28.378906 22.03125 28.390625 C 21.988281 28.421875 21.777344 28.433594 21.707031 28.40625 C 21.675781 28.394531 21.660156 28.402344 21.5625 28.457031 C 21.441406 28.523438 21.425781 28.542969 21.476562 28.546875 C 21.492188 28.546875 21.53125 28.554688 21.5625 28.566406 C 21.613281 28.585938 21.613281 28.589844 21.605469 28.621094 C 21.597656 28.652344 21.585938 28.660156 21.554688 28.667969 C 21.488281 28.6875 21.421875 28.683594 21.335938 28.660156 L 21.253906 28.636719 L 21.078125 28.75 C 20.730469 28.96875 20.691406 29.011719 20.5 29.390625 C 20.433594 29.53125 20.324219 29.753906 20.257812 29.882812 C 20.050781 30.308594 19.769531 30.820312 19.535156 31.203125 C 19.222656 31.714844 18.980469 32.164062 18.777344 32.628906 C 18.726562 32.746094 18.726562 32.753906 18.746094 32.742188 C 18.761719 32.734375 18.773438 32.71875 18.777344 32.707031 C 18.789062 32.683594 19.035156 32.347656 19.199219 32.136719 C 19.570312 31.660156 20.152344 30.976562 20.65625 30.425781 C 20.917969 30.140625 20.902344 30.167969 20.949219 29.871094 C 20.976562 29.691406 20.976562 29.691406 20.929688 29.65625 C 20.878906 29.621094 20.839844 29.527344 20.832031 29.425781 C 20.820312 29.285156 20.898438 29.167969 21.015625 29.15625 C 21.183594 29.140625 21.324219 29.25 21.328125 29.402344 C 21.332031 29.484375 21.3125 29.5625 21.277344 29.621094 C 21.25 29.664062 21.226562 29.683594 21.160156 29.714844 C 21.113281 29.738281 21.074219 29.765625 21.070312 29.777344 C 21.058594 29.808594 21.050781 29.976562 21.0625 29.980469 C 21.066406 29.980469 21.167969 29.886719 21.28125 29.773438 L 21.492188 29.566406 L 21.480469 29.40625 C 21.476562 29.320312 21.46875 29.21875 21.46875 29.179688 C 21.46875 29.09375 21.464844 29.089844 21.417969 29.066406 C 21.390625 29.054688 21.375 29.039062 21.367188 29.011719 C 21.347656 28.957031 21.363281 28.921875 21.425781 28.894531 C 21.46875 28.875 21.480469 28.875 21.511719 28.890625 C 21.574219 28.929688 21.585938 28.964844 21.585938 29.175781 C 21.589844 29.320312 21.597656 29.4375 21.613281 29.445312 C 21.617188 29.445312 21.6875 29.386719 21.769531 29.316406 C 21.851562 29.242188 21.933594 29.171875 21.949219 29.15625 C 21.984375 29.128906 21.984375 29.128906 21.984375 29.046875 C 21.988281 29.003906 21.984375 28.902344 21.976562 28.824219 C 21.96875 28.707031 21.964844 28.675781 21.941406 28.660156 C 21.898438 28.632812 21.941406 28.582031 21.992188 28.601562 C 22.058594 28.628906 22.09375 28.71875 22.101562 28.898438 C 22.101562 28.960938 22.109375 29.007812 22.117188 29.007812 C 22.121094 29.011719 22.191406 28.960938 22.269531 28.902344 C 22.347656 28.84375 22.484375 28.746094 22.570312 28.6875 L 22.726562 28.582031 L 22.742188 28.523438 C 22.78125 28.359375 22.816406 28.265625 22.847656 28.238281 C 22.878906 28.210938 22.914062 28.207031 22.945312 28.230469 C 22.96875 28.25 22.964844 28.28125 22.925781 28.378906 C 22.90625 28.425781 22.894531 28.464844 22.898438 28.472656 C 22.902344 28.476562 22.9375 28.460938 22.972656 28.441406 C 23.011719 28.421875 23.078125 28.386719 23.121094 28.363281 L 23.199219 28.328125 L 23.230469 28.214844 C 23.246094 28.152344 23.28125 28.058594 23.300781 28 L 23.339844 27.898438 L 23.285156 27.652344 C 23.230469 27.390625 23.210938 27.351562 23.160156 27.375 C 23.136719 27.382812 23.132812 27.382812 23.121094 27.351562 C 23.101562 27.3125 23.105469 27.304688 23.15625 27.28125 C 23.191406 27.265625 23.210938 27.265625 23.242188 27.277344 C 23.3125 27.300781 23.332031 27.339844 23.386719 27.554688 C 23.398438 27.585938 23.398438 27.585938 23.429688 27.496094 C 23.503906 27.269531 23.664062 27.082031 23.777344 27.089844 C 23.816406 27.09375 23.835938 27.144531 23.816406 27.195312 C 23.777344 27.296875 23.675781 27.417969 23.585938 27.472656 C 23.550781 27.492188 23.550781 27.496094 23.527344 27.589844 C 23.515625 27.644531 23.507812 27.699219 23.511719 27.707031 C 23.519531 27.722656 23.566406 27.699219 23.628906 27.640625 C 23.71875 27.558594 23.855469 27.511719 23.925781 27.535156 C 23.976562 27.554688 24 27.613281 23.976562 27.667969 C 23.957031 27.71875 23.917969 27.761719 23.878906 27.765625 C 23.84375 27.769531 23.796875 27.75 23.777344 27.722656 C 23.757812 27.691406 23.746094 27.695312 23.6875 27.746094 C 23.660156 27.769531 23.597656 27.808594 23.554688 27.835938 L 23.46875 27.878906 L 23.441406 27.953125 C 23.398438 28.078125 23.371094 28.1875 23.390625 28.164062 C 23.503906 28.042969 23.601562 27.972656 23.71875 27.921875 C 23.808594 27.886719 23.886719 27.878906 23.945312 27.902344 C 24 27.921875 24.023438 27.960938 24.03125 28.039062 C 24.035156 28.089844 24.03125 28.109375 24.003906 28.160156 C 23.925781 28.316406 23.726562 28.421875 23.574219 28.382812 C 23.492188 28.367188 23.480469 28.367188 23.429688 28.394531 C 23.402344 28.40625 23.316406 28.453125 23.242188 28.492188 C 23.019531 28.605469 22.921875 28.664062 22.933594 28.671875 C 22.9375 28.675781 23.007812 28.6875 23.089844 28.699219 C 23.265625 28.71875 23.367188 28.757812 23.402344 28.8125 C 23.433594 28.859375 23.417969 28.910156 23.367188 28.933594 C 23.320312 28.957031 23.285156 28.9375 23.28125 28.890625 C 23.277344 28.851562 23.257812 28.839844 23.132812 28.820312 C 23.015625 28.800781 22.871094 28.796875 22.769531 28.808594 C 22.671875 28.816406 22.640625 28.835938 22.398438 29.015625 C 22.097656 29.242188 21.550781 29.71875 21.574219 29.734375 C 21.582031 29.742188 21.613281 29.738281 21.648438 29.730469 C 21.753906 29.707031 21.796875 29.710938 21.910156 29.75 C 22.007812 29.785156 22.023438 29.785156 22.070312 29.773438 C 22.117188 29.757812 22.203125 29.6875 22.21875 29.652344 C 22.230469 29.625 22.242188 29.648438 22.238281 29.6875 C 22.230469 29.785156 22.105469 29.890625 22 29.890625 C 21.984375 29.894531 21.921875 29.878906 21.859375 29.859375 C 21.730469 29.820312 21.722656 29.820312 21.488281 29.902344 C 21.324219 29.957031 21.34375 29.941406 21.054688 30.246094 C 20.910156 30.402344 20.882812 30.433594 20.925781 30.421875 C 20.933594 30.417969 20.980469 30.402344 21.023438 30.390625 C 21.160156 30.34375 21.480469 30.265625 21.800781 30.203125 C 21.972656 30.167969 22.132812 30.128906 22.15625 30.117188 C 22.210938 30.085938 22.222656 30.054688 22.210938 29.960938 C 22.195312 29.839844 22.238281 29.757812 22.371094 29.664062 C 22.464844 29.601562 22.550781 29.613281 22.585938 29.691406 C 22.609375 29.742188 22.589844 29.804688 22.535156 29.855469 C 22.484375 29.902344 22.425781 29.902344 22.394531 29.859375 C 22.378906 29.84375 22.363281 29.832031 22.355469 29.832031 C 22.335938 29.835938 22.320312 29.898438 22.324219 29.941406 C 22.328125 29.964844 22.332031 30.007812 22.328125 30.039062 C 22.328125 30.070312 22.335938 30.09375 22.34375 30.09375 C 22.351562 30.097656 22.433594 30.085938 22.527344 30.074219 L 22.699219 30.054688 L 22.722656 29.992188 C 22.761719 29.890625 22.832031 29.847656 22.917969 29.878906 C 22.984375 29.90625 23.027344 30 23.003906 30.0625 C 22.988281 30.101562 22.917969 30.152344 22.867188 30.164062 C 22.816406 30.175781 22.78125 30.167969 22.734375 30.128906 C 22.710938 30.109375 22.699219 30.105469 22.652344 30.117188 C 22.621094 30.125 22.597656 30.136719 22.59375 30.140625 C 22.59375 30.144531 22.609375 30.15625 22.632812 30.164062 C 22.683594 30.1875 22.734375 30.230469 22.765625 30.285156 C 22.78125 30.304688 22.800781 30.328125 22.808594 30.332031 C 22.816406 30.335938 22.851562 30.320312 22.882812 30.304688 C 22.914062 30.285156 23 30.242188 23.074219 30.207031 C 23.246094 30.128906 23.328125 30.074219 23.367188 30.023438 C 23.414062 29.960938 23.464844 29.855469 23.476562 29.796875 C 23.484375 29.742188 23.488281 29.742188 23.410156 29.730469 C 23.386719 29.726562 23.378906 29.714844 23.367188 29.679688 C 23.359375 29.65625 23.355469 29.625 23.359375 29.609375 C 23.382812 29.546875 23.476562 29.5 23.53125 29.519531 C 23.601562 29.546875 23.625 29.6875 23.585938 29.835938 C 23.578125 29.875 23.574219 29.90625 23.578125 29.910156 C 23.582031 29.910156 23.613281 29.890625 23.648438 29.863281 C 23.808594 29.734375 24.019531 29.710938 24.105469 29.804688 C 24.132812 29.839844 24.132812 29.859375 24.113281 29.917969 C 24.097656 29.949219 24.085938 29.964844 24.042969 29.984375 C 24 30.007812 23.988281 30.007812 23.945312 29.992188 C 23.890625 29.96875 23.859375 29.925781 23.878906 29.898438 C 23.898438 29.871094 23.871094 29.867188 23.820312 29.894531 C 23.75 29.925781 23.679688 29.984375 23.582031 30.085938 C 23.511719 30.160156 23.496094 30.179688 23.507812 30.191406 C 23.527344 30.214844 23.53125 30.214844 23.585938 30.171875 C 23.664062 30.113281 23.71875 30.105469 23.8125 30.140625 C 23.914062 30.179688 23.972656 30.230469 23.988281 30.300781 C 24.015625 30.40625 23.96875 30.511719 23.875 30.554688 C 23.828125 30.574219 23.816406 30.574219 23.757812 30.550781 C 23.664062 30.515625 23.582031 30.441406 23.542969 30.355469 C 23.5 30.261719 23.484375 30.257812 23.363281 30.269531 C 23.210938 30.289062 23.117188 30.3125 23.003906 30.371094 C 22.859375 30.445312 22.855469 30.445312 22.886719 30.53125 C 22.921875 30.636719 22.925781 30.640625 22.960938 30.625 C 22.996094 30.609375 23.023438 30.625 23.050781 30.675781 C 23.082031 30.734375 23.011719 30.835938 22.941406 30.832031 C 22.902344 30.832031 22.851562 30.75 22.78125 30.582031 C 22.707031 30.394531 22.667969 30.332031 22.617188 30.296875 C 22.5625 30.253906 22.449219 30.234375 22.339844 30.25 C 22.289062 30.257812 22.226562 30.261719 22.199219 30.261719 C 22.132812 30.257812 22.046875 30.265625 22.042969 30.273438 C 22.039062 30.28125 22.050781 30.292969 22.0625 30.300781 C 22.09375 30.324219 22.113281 30.382812 22.097656 30.417969 C 22.082031 30.460938 22.015625 30.488281 21.90625 30.5 C 21.804688 30.511719 21.707031 30.5 21.53125 30.449219 C 21.460938 30.429688 21.386719 30.414062 21.367188 30.417969 C 21.320312 30.421875 21.011719 30.511719 20.945312 30.539062 C 20.914062 30.550781 20.890625 30.570312 20.890625 30.578125 C 20.890625 30.589844 20.957031 30.632812 21.113281 30.71875 L 21.167969 30.746094 L 21.175781 30.714844 C 21.195312 30.605469 21.328125 30.566406 21.355469 30.664062 C 21.367188 30.703125 21.339844 30.800781 21.296875 30.851562 C 21.246094 30.914062 21.183594 30.898438 21 30.789062 C 20.839844 30.695312 20.792969 30.679688 20.71875 30.695312 C 20.6875 30.699219 20.652344 30.710938 20.640625 30.71875 C 20.585938 30.75 20.386719 30.96875 20.394531 30.988281 C 20.394531 30.992188 20.425781 30.988281 20.457031 30.980469 C 20.59375 30.945312 20.832031 30.949219 20.9375 30.988281 C 21 31.011719 21.019531 31.101562 20.980469 31.199219 C 20.960938 31.246094 20.917969 31.277344 20.878906 31.265625 C 20.792969 31.238281 20.757812 31.195312 20.761719 31.128906 C 20.761719 31.082031 20.757812 31.074219 20.734375 31.070312 C 20.6875 31.058594 20.535156 31.078125 20.441406 31.105469 C 20.335938 31.136719 20.175781 31.21875 20.140625 31.257812 C 19.414062 32.105469 18.996094 32.652344 18.667969 33.179688 C 18.53125 33.398438 18.464844 33.519531 18.335938 33.785156 C 18.210938 34.046875 18.15625 34.207031 18.132812 34.390625 C 18.109375 34.546875 18.089844 34.585938 18.019531 34.605469 C 17.964844 34.617188 17.921875 34.597656 17.898438 34.546875 Z M 18.859375 30.683594 C 18.917969 30.316406 18.929688 30.175781 18.917969 29.890625 C 18.90625 29.722656 18.921875 29.605469 18.960938 29.5 C 19 29.394531 19.011719 29.414062 19 29.570312 C 19 29.609375 19.007812 29.726562 19.019531 29.832031 C 19.03125 29.941406 19.039062 30.066406 19.039062 30.109375 C 19.039062 30.21875 19.015625 30.46875 18.988281 30.613281 C 18.957031 30.800781 18.96875 30.804688 19.03125 30.621094 C 19.140625 30.300781 19.167969 30.046875 19.160156 29.417969 C 19.160156 29.261719 19.15625 29.125 19.152344 29.113281 C 19.144531 29.097656 19.132812 29.101562 19.09375 29.144531 C 19.003906 29.230469 18.984375 29.265625 18.917969 29.4375 C 18.808594 29.730469 18.765625 30.058594 18.785156 30.519531 C 18.792969 30.765625 18.804688 30.910156 18.816406 30.902344 C 18.820312 30.894531 18.839844 30.796875 18.859375 30.683594 Z M 21.84375 30.390625 C 21.871094 30.390625 21.890625 30.382812 21.894531 30.375 C 21.902344 30.347656 21.90625 30.308594 21.894531 30.304688 C 21.882812 30.300781 21.699219 30.339844 21.695312 30.347656 C 21.691406 30.359375 21.804688 30.390625 21.84375 30.390625 Z M 21.019531 29.605469 C 21.039062 29.59375 21.042969 29.59375 21.050781 29.613281 C 21.078125 29.65625 21.164062 29.59375 21.195312 29.511719 C 21.238281 29.394531 21.191406 29.292969 21.082031 29.273438 C 20.980469 29.253906 20.925781 29.332031 20.941406 29.476562 C 20.953125 29.601562 20.972656 29.632812 21.019531 29.605469 Z M 23.835938 30.445312 C 23.84375 30.441406 23.859375 30.421875 23.871094 30.40625 C 23.886719 30.378906 23.886719 30.367188 23.871094 30.332031 C 23.851562 30.28125 23.78125 30.238281 23.730469 30.238281 C 23.695312 30.238281 23.59375 30.304688 23.59375 30.324219 C 23.589844 30.359375 23.800781 30.464844 23.835938 30.445312 Z M 20.511719 27.90625 C 20.53125 27.792969 20.648438 27.464844 20.71875 27.339844 C 20.792969 27.203125 20.816406 27.167969 20.832031 27.167969 C 20.855469 27.171875 20.824219 27.3125 20.738281 27.5625 C 20.648438 27.835938 20.621094 27.925781 20.640625 27.917969 C 20.664062 27.90625 20.851562 27.652344 20.894531 27.582031 C 20.957031 27.464844 20.96875 27.390625 20.976562 26.984375 C 20.980469 26.839844 20.988281 26.714844 20.992188 26.707031 C 20.996094 26.699219 20.992188 26.6875 20.988281 26.683594 C 20.984375 26.679688 20.949219 26.710938 20.910156 26.757812 C 20.722656 26.984375 20.570312 27.273438 20.511719 27.515625 C 20.476562 27.675781 20.460938 27.882812 20.484375 27.949219 C 20.492188 27.976562 20.5 27.96875 20.511719 27.90625 Z M 23.71875 28.277344 C 23.839844 28.21875 23.9375 28.089844 23.910156 28.027344 C 23.902344 28.003906 23.894531 28.003906 23.859375 28.007812 C 23.792969 28.011719 23.730469 28.039062 23.652344 28.089844 C 23.585938 28.136719 23.558594 28.160156 23.574219 28.167969 C 23.578125 28.167969 23.628906 28.152344 23.691406 28.132812 C 23.878906 28.074219 23.878906 28.09375 23.703125 28.214844 C 23.632812 28.261719 23.582031 28.304688 23.582031 28.3125 C 23.589844 28.324219 23.65625 28.3125 23.71875 28.277344 Z M 22.398438 27.125 C 22.480469 27.121094 22.59375 27.082031 22.628906 27.050781 C 22.671875 27.011719 22.691406 26.9375 22.667969 26.882812 C 22.628906 26.789062 22.53125 26.714844 22.449219 26.714844 C 22.332031 26.714844 22.230469 26.832031 22.246094 26.953125 C 22.253906 26.992188 22.261719 27.007812 22.28125 27.011719 C 22.304688 27.015625 22.304688 27.019531 22.289062 27.046875 C 22.277344 27.0625 22.269531 27.082031 22.269531 27.089844 C 22.273438 27.113281 22.335938 27.128906 22.398438 27.125 Z M 21.902344 25.683594 C 21.910156 25.679688 21.882812 25.617188 21.847656 25.550781 C 21.785156 25.429688 21.710938 25.339844 21.664062 25.332031 C 21.628906 25.324219 21.613281 25.378906 21.636719 25.425781 C 21.707031 25.574219 21.867188 25.730469 21.902344 25.683594 Z M 22.273438 25.730469 C 22.445312 25.644531 22.65625 25.496094 22.695312 25.429688 C 22.722656 25.390625 22.691406 25.339844 22.628906 25.316406 C 22.523438 25.273438 22.4375 25.332031 22.21875 25.585938 C 22.097656 25.730469 22.09375 25.738281 22.144531 25.757812 C 22.179688 25.773438 22.195312 25.769531 22.273438 25.730469 Z M 22.53125 25.769531 C 22.71875 25.679688 22.761719 25.644531 22.691406 25.640625 C 22.660156 25.640625 22.335938 25.78125 22.328125 25.800781 C 22.324219 25.808594 22.335938 25.820312 22.351562 25.824219 C 22.375 25.835938 22.414062 25.824219 22.53125 25.769531 Z M 22.082031 25.574219 C 22.136719 25.441406 22.15625 25.316406 22.140625 25.25 C 22.132812 25.222656 22.121094 25.179688 22.117188 25.152344 C 22.105469 25.113281 22.097656 25.097656 22.070312 25.089844 C 22.023438 25.070312 21.992188 25.078125 21.945312 25.125 C 21.851562 25.210938 21.839844 25.265625 21.878906 25.394531 C 21.910156 25.496094 22.003906 25.683594 22.023438 25.683594 C 22.03125 25.683594 22.054688 25.640625 22.082031 25.574219 Z M 22.417969 25.269531 C 22.445312 25.257812 22.457031 25.21875 22.441406 25.191406 C 22.421875 25.160156 22.269531 25.101562 22.238281 25.117188 C 22.214844 25.128906 22.214844 25.132812 22.21875 25.160156 C 22.226562 25.191406 22.230469 25.195312 22.292969 25.214844 C 22.328125 25.222656 22.363281 25.242188 22.375 25.253906 C 22.394531 25.277344 22.398438 25.277344 22.417969 25.269531 Z M 22.417969 25.269531 " fill-opacity="1" fill-rule="nonzero"/></g></g></g><g clip-path="url(#a13b6a5ce2)"><g clip-path="url(#38abd08234)"><g clip-path="url(#8073d022b2)"><path fill="#eba1a1" d="M 18.242188 34.25 C 18.226562 34.238281 18.121094 34.101562 18.011719 33.949219 C 17.613281 33.410156 17.167969 33 15.851562 31.976562 C 15.535156 31.726562 14.90625 31.214844 14.457031 30.839844 C 13.9375 30.410156 13.625 30.164062 13.605469 30.175781 C 13.558594 30.203125 13.53125 30.703125 13.554688 31.046875 C 13.585938 31.554688 13.738281 32.039062 14.089844 32.765625 C 14.191406 32.976562 14.269531 33.160156 14.265625 33.183594 C 14.257812 33.203125 14.234375 33.222656 14.210938 33.230469 C 14.148438 33.238281 14.089844 33.136719 13.878906 32.6875 C 13.433594 31.738281 13.328125 31.21875 13.40625 30.324219 C 13.421875 30.144531 13.421875 29.980469 13.40625 29.953125 C 13.359375 29.875 12.109375 29.457031 11.527344 29.324219 C 11.148438 29.238281 10.496094 29.152344 9.867188 29.105469 C 9.636719 29.085938 9.417969 29.058594 9.382812 29.039062 L 9.316406 29.007812 L 9.289062 29.105469 C 9.257812 29.21875 9.183594 29.269531 9.144531 29.207031 C 9.117188 29.160156 9.015625 29.167969 8.988281 29.21875 C 8.976562 29.238281 8.992188 29.257812 9.023438 29.277344 C 9.105469 29.324219 9.113281 29.355469 9.046875 29.394531 C 8.976562 29.441406 8.910156 29.398438 8.910156 29.3125 C 8.910156 29.257812 8.90625 29.257812 8.867188 29.316406 C 8.84375 29.351562 8.828125 29.386719 8.835938 29.394531 C 8.855469 29.429688 8.792969 29.480469 8.746094 29.464844 C 8.714844 29.453125 8.703125 29.4375 8.714844 29.398438 C 8.722656 29.367188 8.726562 29.3125 8.722656 29.273438 C 8.71875 29.222656 8.742188 29.1875 8.792969 29.15625 C 8.859375 29.117188 8.859375 29.109375 8.808594 29.039062 C 8.769531 28.988281 8.730469 28.96875 8.667969 28.976562 C 8.566406 28.988281 8.558594 28.972656 8.570312 28.851562 C 8.578125 28.792969 8.601562 28.753906 8.628906 28.746094 C 8.652344 28.742188 8.683594 28.703125 8.695312 28.652344 C 8.722656 28.558594 8.796875 28.527344 8.839844 28.597656 C 8.882812 28.667969 8.9375 28.65625 8.960938 28.578125 C 8.980469 28.507812 9.035156 28.488281 9.070312 28.542969 C 9.078125 28.558594 9.121094 28.570312 9.164062 28.5625 C 9.246094 28.554688 9.300781 28.609375 9.257812 28.664062 C 9.246094 28.679688 9.203125 28.699219 9.164062 28.699219 C 9.113281 28.703125 9.089844 28.714844 9.085938 28.746094 C 9.078125 28.769531 9.058594 28.796875 9.039062 28.808594 C 8.992188 28.839844 8.925781 29.007812 8.949219 29.046875 C 8.980469 29.097656 9.0625 29.035156 9.046875 28.976562 C 9.035156 28.941406 9.058594 28.898438 9.113281 28.855469 C 9.210938 28.769531 9.226562 28.769531 9.300781 28.84375 C 9.34375 28.890625 9.457031 28.910156 9.8125 28.9375 C 10.960938 29.027344 11.589844 29.140625 12.433594 29.414062 C 12.703125 29.503906 12.9375 29.574219 12.953125 29.570312 C 12.988281 29.5625 13.011719 29.589844 12.394531 28.980469 C 12.121094 28.710938 11.8125 28.402344 11.707031 28.292969 C 11.496094 28.074219 11.375 28.007812 10.941406 27.855469 C 10.714844 27.777344 9.730469 27.558594 9.347656 27.503906 C 9.003906 27.453125 8.914062 27.46875 8.617188 27.636719 C 8.171875 27.890625 7.792969 27.941406 7.273438 27.8125 C 6.78125 27.691406 6.410156 27.414062 6.277344 27.0625 C 6.199219 26.855469 6.324219 26.683594 6.550781 26.683594 C 6.695312 26.683594 6.703125 26.675781 6.664062 26.570312 C 6.617188 26.449219 6.660156 26.3125 6.769531 26.238281 L 6.855469 26.175781 L 6.765625 26 C 6.65625 25.78125 6.660156 25.695312 6.796875 25.613281 C 6.847656 25.582031 6.925781 25.558594 6.972656 25.558594 C 7.144531 25.566406 7.625 25.828125 7.921875 26.074219 C 8.269531 26.363281 8.390625 26.503906 8.652344 26.921875 L 8.902344 27.320312 L 9.0625 27.316406 C 9.269531 27.3125 9.847656 27.417969 10.582031 27.597656 C 10.90625 27.675781 11.160156 27.722656 11.148438 27.707031 C 11.140625 27.6875 11.0625 27.597656 10.980469 27.507812 C 10.707031 27.203125 10.332031 26.738281 9.789062 26.039062 C 9.492188 25.660156 9.230469 25.324219 9.203125 25.292969 C 9.113281 25.195312 8.46875 24.382812 8.335938 24.199219 C 8.125 23.902344 7.984375 23.785156 7.820312 23.765625 C 7.746094 23.753906 7.59375 23.710938 7.484375 23.667969 C 6.710938 23.367188 5.847656 22.445312 5.203125 21.234375 C 5.019531 20.894531 4.945312 20.730469 4.945312 20.675781 C 4.953125 20.492188 5.261719 20.460938 5.648438 20.597656 C 5.90625 20.691406 6.207031 20.832031 6.316406 20.914062 C 6.359375 20.945312 6.40625 20.960938 6.421875 20.949219 C 6.453125 20.933594 6.597656 20.515625 6.691406 20.179688 C 6.785156 19.832031 6.855469 19.773438 7.035156 19.882812 C 7.15625 19.960938 7.398438 20.21875 7.570312 20.453125 C 7.699219 20.636719 7.75 20.65625 7.753906 20.535156 C 7.753906 20.414062 7.839844 19.953125 7.871094 19.882812 C 7.894531 19.835938 7.933594 19.800781 7.980469 19.785156 C 8.144531 19.734375 8.621094 20.183594 8.828125 20.582031 C 8.960938 20.839844 9.027344 21.101562 9.058594 21.492188 C 9.109375 22.1875 8.960938 22.792969 8.597656 23.371094 C 8.503906 23.515625 8.496094 23.554688 8.511719 23.683594 C 8.523438 23.785156 8.511719 23.867188 8.476562 23.9375 C 8.433594 24.011719 8.429688 24.054688 8.460938 24.101562 C 8.480469 24.136719 8.6875 24.398438 8.914062 24.683594 C 9.144531 24.96875 9.476562 25.382812 9.652344 25.605469 C 9.824219 25.828125 9.980469 26.007812 9.992188 26 C 10.042969 25.96875 9.734375 24.65625 9.574219 24.226562 L 9.496094 24.007812 L 9.34375 23.929688 C 9.167969 23.839844 9.09375 23.738281 9.121094 23.613281 C 9.136719 23.546875 9.121094 23.496094 9.066406 23.402344 C 9 23.292969 8.996094 23.269531 9.03125 23.210938 C 9.089844 23.113281 9.503906 22.882812 9.632812 22.875 C 9.757812 22.867188 9.90625 22.960938 10.015625 23.121094 C 10.09375 23.234375 10.101562 23.261719 10.082031 23.355469 C 10.050781 23.496094 9.828125 23.832031 9.722656 23.894531 C 9.636719 23.949219 9.632812 23.921875 9.761719 24.269531 C 9.851562 24.523438 9.933594 24.84375 10.089844 25.558594 C 10.15625 25.863281 10.246094 26.203125 10.289062 26.320312 C 10.363281 26.519531 10.382812 26.546875 10.6875 26.914062 C 11.230469 27.574219 11.757812 28.136719 12.574219 28.933594 C 13.164062 29.511719 13.40625 29.730469 13.449219 29.722656 C 13.464844 29.71875 13.492188 29.605469 13.511719 29.472656 C 13.53125 29.339844 13.585938 28.996094 13.636719 28.714844 C 13.753906 28.035156 13.753906 27.980469 13.660156 27.894531 C 13.621094 27.855469 13.566406 27.792969 13.542969 27.753906 C 13.507812 27.699219 13.445312 27.671875 13.242188 27.628906 C 12.859375 27.542969 12.667969 27.386719 12.523438 27.050781 C 12.410156 26.792969 12.1875 26.035156 12.203125 25.96875 C 12.21875 25.894531 12.3125 25.875 12.398438 25.933594 C 12.675781 26.117188 13.101562 26.546875 13.25 26.789062 C 13.304688 26.878906 13.378906 27.054688 13.421875 27.175781 C 13.496094 27.417969 13.703125 27.738281 13.757812 27.707031 C 13.769531 27.695312 13.796875 27.382812 13.8125 27.011719 C 13.839844 26.339844 13.789062 25.359375 13.71875 25.25 C 13.671875 25.171875 13.566406 25.164062 13.386719 25.21875 C 13.160156 25.285156 13.015625 25.273438 12.820312 25.171875 C 12.589844 25.050781 12.410156 24.871094 12.230469 24.582031 C 12.066406 24.3125 11.875 23.882812 11.886719 23.804688 C 11.910156 23.664062 12.089844 23.695312 12.472656 23.90625 C 12.921875 24.15625 13.164062 24.371094 13.453125 24.769531 C 13.574219 24.941406 13.617188 24.984375 13.644531 24.964844 C 13.722656 24.917969 13.402344 24.007812 13.261719 23.867188 C 13.234375 23.839844 13.113281 23.777344 12.996094 23.734375 C 12.734375 23.628906 12.496094 23.480469 12.320312 23.320312 C 12.136719 23.144531 11.617188 22.296875 11.425781 21.851562 C 11.207031 21.339844 11.207031 21.265625 11.441406 21.246094 C 11.59375 21.230469 11.890625 21.339844 12.105469 21.488281 C 12.296875 21.621094 12.5625 21.902344 12.6875 22.105469 C 12.828125 22.332031 12.894531 22.511719 13.023438 23 L 13.128906 23.410156 L 13.355469 23.75 C 13.53125 24.015625 13.597656 24.140625 13.664062 24.316406 C 13.769531 24.609375 13.875 25.074219 13.914062 25.402344 C 13.929688 25.546875 13.945312 25.675781 13.953125 25.683594 C 13.972656 25.71875 14.011719 25.683594 14.105469 25.550781 C 14.1875 25.433594 14.191406 25.425781 14.128906 25.324219 C 14.015625 25.140625 14.015625 24.96875 14.128906 24.789062 C 14.160156 24.738281 14.308594 24.570312 14.460938 24.421875 C 14.613281 24.269531 14.863281 23.996094 15.019531 23.8125 C 15.320312 23.457031 15.390625 23.414062 15.457031 23.523438 C 15.507812 23.609375 15.503906 23.910156 15.449219 24.128906 C 15.367188 24.472656 15.15625 24.746094 14.675781 25.144531 C 14.574219 25.230469 14.460938 25.34375 14.425781 25.398438 C 14.394531 25.453125 14.355469 25.503906 14.339844 25.511719 C 14.328125 25.519531 14.238281 25.640625 14.144531 25.78125 C 13.984375 26.019531 13.976562 26.042969 13.984375 26.199219 C 14.015625 26.710938 13.933594 27.917969 13.824219 28.5625 C 13.792969 28.761719 13.777344 28.929688 13.789062 28.9375 C 13.847656 28.964844 13.917969 28.878906 13.96875 28.710938 C 14.074219 28.355469 14.328125 28.171875 14.933594 28.019531 C 15.121094 27.972656 15.308594 27.925781 15.34375 27.914062 C 15.503906 27.867188 15.511719 28.054688 15.363281 28.265625 C 15.121094 28.609375 14.910156 28.742188 14.285156 28.957031 C 14.085938 29.027344 13.875 29.109375 13.820312 29.144531 C 13.71875 29.207031 13.714844 29.21875 13.667969 29.507812 C 13.644531 29.671875 13.625 29.835938 13.628906 29.871094 C 13.628906 29.925781 13.761719 30.046875 14.363281 30.554688 C 14.765625 30.894531 15.414062 31.421875 15.800781 31.726562 C 16.988281 32.660156 17.433594 33.039062 17.789062 33.425781 C 18.03125 33.6875 18.332031 34.101562 18.339844 34.175781 C 18.34375 34.238281 18.285156 34.285156 18.242188 34.25 Z M 15.152344 28.28125 C 15.203125 28.21875 15.230469 28.160156 15.21875 28.152344 C 15.207031 28.140625 15.0625 28.164062 14.894531 28.199219 C 14.511719 28.285156 14.316406 28.394531 14.199219 28.585938 C 14.117188 28.710938 14.09375 28.824219 14.140625 28.832031 C 14.152344 28.835938 14.277344 28.796875 14.414062 28.75 C 14.710938 28.640625 15.015625 28.449219 15.152344 28.28125 Z M 13.269531 27.222656 C 13.179688 26.960938 12.964844 26.640625 12.730469 26.421875 C 12.503906 26.207031 12.441406 26.160156 12.429688 26.203125 C 12.417969 26.261719 12.648438 26.992188 12.71875 27.101562 C 12.820312 27.269531 12.980469 27.398438 13.152344 27.445312 C 13.242188 27.46875 13.316406 27.476562 13.324219 27.460938 C 13.332031 27.445312 13.308594 27.339844 13.269531 27.222656 Z M 9.191406 29.039062 C 9.230469 28.980469 9.230469 28.921875 9.191406 28.945312 C 9.132812 28.984375 9.085938 29.058594 9.105469 29.085938 C 9.128906 29.125 9.132812 29.125 9.191406 29.039062 Z M 14.65625 24.953125 C 14.988281 24.667969 15.160156 24.460938 15.242188 24.253906 C 15.308594 24.097656 15.359375 23.753906 15.320312 23.746094 C 15.308594 23.742188 15.199219 23.851562 15.082031 23.992188 C 14.960938 24.132812 14.75 24.355469 14.613281 24.496094 C 14.304688 24.800781 14.21875 24.910156 14.207031 25.027344 C 14.195312 25.113281 14.234375 25.214844 14.285156 25.226562 C 14.324219 25.234375 14.371094 25.203125 14.65625 24.953125 Z M 13.277344 24.804688 C 13.078125 24.523438 12.867188 24.332031 12.523438 24.125 C 12.160156 23.90625 12.113281 23.886719 12.097656 23.949219 C 12.089844 23.984375 12.160156 24.117188 12.347656 24.421875 C 12.597656 24.835938 12.609375 24.847656 12.757812 24.949219 C 13 25.109375 13.210938 25.144531 13.367188 25.050781 L 13.425781 25.019531 Z M 7.792969 27.46875 C 7.421875 27.316406 7.21875 27.203125 7.007812 27.027344 C 6.78125 26.839844 6.382812 26.789062 6.410156 26.953125 C 6.429688 27.042969 6.59375 27.28125 6.699219 27.371094 C 6.925781 27.5625 7.335938 27.707031 7.6875 27.722656 C 7.851562 27.726562 8.160156 27.675781 8.152344 27.644531 C 8.148438 27.628906 7.988281 27.550781 7.792969 27.46875 Z M 8.503906 27.402344 C 8.480469 27.359375 8.230469 27.1875 7.921875 26.996094 C 7.738281 26.882812 7.472656 26.691406 7.332031 26.574219 C 7.058594 26.347656 7.003906 26.320312 6.894531 26.355469 C 6.78125 26.390625 6.78125 26.460938 6.890625 26.640625 C 6.980469 26.789062 7.015625 26.820312 7.277344 26.984375 C 7.691406 27.242188 7.890625 27.328125 8.199219 27.390625 C 8.457031 27.445312 8.53125 27.445312 8.503906 27.402344 Z M 8.257812 26.625 C 7.886719 26.1875 7.175781 25.703125 6.9375 25.730469 C 6.828125 25.742188 6.835938 25.816406 6.96875 26 C 7.066406 26.140625 7.109375 26.171875 7.269531 26.25 C 7.515625 26.371094 7.683594 26.484375 8.003906 26.769531 C 8.273438 27.007812 8.429688 27.117188 8.542969 27.152344 C 8.605469 27.171875 8.605469 27.164062 8.503906 26.980469 C 8.445312 26.875 8.335938 26.714844 8.257812 26.625 Z M 12.953125 23.367188 C 12.933594 23.300781 12.878906 23.089844 12.832031 22.902344 C 12.722656 22.472656 12.53125 22.097656 12.292969 21.859375 C 12.085938 21.648438 11.8125 21.480469 11.609375 21.433594 L 11.4375 21.394531 L 11.449219 21.46875 C 11.484375 21.652344 11.789062 22.253906 12.074219 22.703125 C 12.339844 23.121094 12.375 23.164062 12.535156 23.292969 C 12.726562 23.449219 12.933594 23.554688 12.96875 23.515625 C 12.980469 23.503906 12.972656 23.433594 12.953125 23.367188 Z M 9.8125 23.371094 C 9.796875 23.335938 9.78125 23.332031 9.753906 23.355469 C 9.734375 23.375 9.722656 23.414062 9.734375 23.441406 C 9.746094 23.476562 9.761719 23.480469 9.792969 23.453125 C 9.8125 23.433594 9.820312 23.398438 9.8125 23.371094 Z M 7.558594 23.160156 C 6.402344 21.960938 6.328125 21.886719 5.933594 21.578125 C 5.796875 21.46875 5.617188 21.320312 5.535156 21.246094 C 5.339844 21.074219 5.320312 21.0625 5.34375 21.148438 C 5.40625 21.367188 6.050781 22.304688 6.386719 22.664062 C 6.832031 23.140625 7.347656 23.492188 7.742188 23.582031 L 7.882812 23.613281 L 7.808594 23.476562 C 7.769531 23.40625 7.65625 23.261719 7.558594 23.160156 Z M 8.742188 22.722656 C 8.910156 22.289062 8.953125 21.6875 8.859375 21.15625 C 8.8125 20.894531 8.804688 20.878906 8.613281 20.566406 C 8.414062 20.238281 8.253906 20.0625 8.109375 20 C 8.054688 19.980469 8.054688 19.988281 8.09375 20.128906 C 8.253906 20.691406 8.289062 20.832031 8.339844 21.085938 C 8.457031 21.683594 8.527344 22.539062 8.5 22.953125 C 8.492188 23.046875 8.496094 23.136719 8.503906 23.152344 C 8.53125 23.195312 8.625 23.023438 8.742188 22.722656 Z M 7.808594 22.976562 C 7.644531 22.628906 7.222656 21.976562 6.976562 21.695312 C 6.554688 21.214844 5.980469 20.84375 5.457031 20.707031 C 5.261719 20.65625 5.214844 20.667969 5.261719 20.746094 C 5.316406 20.832031 5.703125 21.191406 5.964844 21.394531 C 6.257812 21.621094 6.46875 21.8125 6.71875 22.066406 C 7.125 22.480469 7.785156 23.164062 7.863281 23.253906 C 7.980469 23.394531 7.964844 23.304688 7.808594 22.976562 Z M 8.15625 22.445312 C 8.101562 21.75 7.941406 21.277344 7.59375 20.761719 C 7.328125 20.371094 7.144531 20.164062 7.128906 20.230469 C 7.113281 20.296875 7.367188 20.921875 7.605469 21.410156 C 7.886719 21.984375 8.027344 22.34375 8.09375 22.644531 C 8.167969 22.980469 8.195312 22.894531 8.15625 22.445312 Z M 7.914062 22.59375 C 7.832031 22.277344 7.71875 21.996094 7.453125 21.457031 C 7.210938 20.96875 7.089844 20.671875 6.996094 20.347656 C 6.960938 20.234375 6.925781 20.132812 6.910156 20.121094 C 6.894531 20.109375 6.859375 20.1875 6.824219 20.296875 C 6.792969 20.40625 6.726562 20.613281 6.675781 20.757812 C 6.625 20.90625 6.589844 21.046875 6.597656 21.074219 C 6.601562 21.101562 6.667969 21.171875 6.738281 21.230469 C 7.042969 21.480469 7.554688 22.152344 7.792969 22.601562 C 7.957031 22.917969 8 22.917969 7.914062 22.59375 Z M 8.273438 21.730469 C 8.257812 21.507812 8.171875 21.035156 8.09375 20.710938 C 7.992188 20.292969 7.941406 20.238281 7.914062 20.527344 C 7.882812 20.851562 7.894531 20.929688 8.007812 21.160156 C 8.09375 21.34375 8.175781 21.582031 8.246094 21.847656 C 8.273438 21.945312 8.285156 21.882812 8.273438 21.730469 Z M 8.472656 29.316406 C 8.429688 29.292969 8.449219 29.222656 8.507812 29.210938 C 8.53125 29.207031 8.554688 29.222656 8.558594 29.25 C 8.570312 29.300781 8.519531 29.339844 8.472656 29.316406 Z M 8.585938 29.175781 C 8.5 29.167969 8.480469 29.078125 8.5625 29.042969 C 8.601562 29.023438 8.628906 29.03125 8.65625 29.074219 C 8.699219 29.144531 8.671875 29.179688 8.585938 29.175781 Z M 8.382812 28.867188 C 8.324219 28.847656 8.316406 28.792969 8.363281 28.761719 C 8.410156 28.734375 8.464844 28.789062 8.449219 28.839844 C 8.4375 28.875 8.417969 28.882812 8.382812 28.867188 Z M 8.5625 28.589844 C 8.507812 28.574219 8.496094 28.515625 8.546875 28.488281 C 8.578125 28.46875 8.601562 28.472656 8.613281 28.503906 C 8.628906 28.550781 8.601562 28.597656 8.5625 28.589844 Z M 8.5625 28.589844 " fill-opacity="1" fill-rule="nonzero"/></g></g></g><g clip-path="url(#0ed0a58a45)"><path fill="#eba1a1" d="M 18.097656 33.652344 C 17.644531 33.253906 17.136719 31.265625 16.996094 29.359375 C 16.960938 28.890625 16.960938 28.882812 16.820312 28.835938 C 16.644531 28.78125 16.316406 28.535156 16.136719 28.332031 C 15.734375 27.875 15.429688 27.3125 14.75 25.765625 C 14.484375 25.171875 14.132812 24.382812 13.964844 24.011719 C 13.460938 22.902344 13.167969 22.191406 13.148438 22.023438 C 13.132812 21.882812 13.136719 21.859375 13.214844 21.808594 C 13.296875 21.757812 13.3125 21.757812 13.46875 21.808594 C 13.699219 21.886719 14.058594 22.128906 14.464844 22.484375 C 15.46875 23.359375 16.144531 24.285156 16.550781 25.339844 C 16.613281 25.5 16.675781 25.632812 16.6875 25.632812 C 16.746094 25.632812 16.640625 25.058594 16.414062 24.109375 C 16.328125 23.742188 16.171875 23.066406 16.066406 22.609375 C 15.777344 21.292969 15.660156 20.84375 15.484375 20.304688 C 15.25 19.59375 15.238281 19.570312 15.074219 19.570312 C 15 19.570312 14.898438 19.542969 14.851562 19.511719 C 14.714844 19.421875 14.566406 19.195312 14.507812 18.988281 C 14.480469 18.886719 14.445312 18.792969 14.433594 18.777344 C 14.421875 18.765625 14.375 18.863281 14.332031 18.996094 C 14.167969 19.527344 13.910156 19.792969 13.601562 19.757812 C 13.574219 19.753906 13.515625 19.710938 13.472656 19.664062 C 13.402344 19.585938 13.398438 19.550781 13.410156 19.355469 C 13.421875 19.226562 13.457031 19.082031 13.496094 18.996094 C 13.613281 18.765625 13.597656 18.742188 13.378906 18.855469 C 13.125 18.984375 12.964844 18.984375 12.839844 18.855469 C 12.679688 18.699219 12.710938 18.496094 12.917969 18.3125 L 13.023438 18.222656 L 12.707031 18.21875 C 12.441406 18.21875 12.378906 18.207031 12.332031 18.15625 C 12.300781 18.125 12.277344 18.074219 12.277344 18.046875 C 12.277344 17.902344 12.738281 17.625 13.027344 17.59375 C 13.105469 17.582031 13.171875 17.5625 13.171875 17.542969 C 13.171875 17.527344 13.125 17.445312 13.066406 17.359375 C 12.929688 17.160156 12.839844 16.917969 12.839844 16.746094 C 12.839844 16.355469 13.304688 16.355469 13.742188 16.746094 C 13.828125 16.824219 13.914062 16.878906 13.929688 16.871094 C 13.945312 16.859375 13.964844 16.777344 13.972656 16.6875 C 13.980469 16.597656 14.019531 16.464844 14.054688 16.394531 C 14.257812 15.996094 14.628906 16.25 14.628906 16.789062 C 14.628906 17.042969 14.644531 17.054688 14.816406 16.945312 C 14.894531 16.898438 14.96875 16.878906 15.058594 16.890625 C 15.132812 16.894531 15.191406 16.894531 15.191406 16.886719 C 15.191406 16.875 15.113281 16.644531 15.023438 16.367188 C 14.914062 16.050781 14.824219 15.839844 14.777344 15.792969 C 14.734375 15.753906 14.589844 15.6875 14.457031 15.648438 C 14.15625 15.554688 13.925781 15.441406 13.742188 15.292969 C 13.578125 15.15625 13.253906 14.671875 12.988281 14.160156 C 12.882812 13.960938 12.695312 13.605469 12.570312 13.375 C 12.445312 13.144531 12.34375 12.929688 12.34375 12.902344 C 12.34375 12.875 12.367188 12.832031 12.398438 12.804688 C 12.550781 12.679688 13.238281 13.289062 14.050781 14.277344 C 14.335938 14.621094 14.484375 14.777344 14.488281 14.738281 C 14.496094 14.707031 14.433594 14.464844 14.351562 14.203125 L 14.199219 13.722656 L 14.035156 13.613281 C 13.847656 13.492188 13.707031 13.304688 13.617188 13.058594 C 13.5625 12.910156 13.554688 12.777344 13.550781 11.875 C 13.546875 10.792969 13.542969 10.734375 13.414062 10.324219 C 13.339844 10.085938 13.339844 10.054688 13.382812 10.007812 C 13.429688 9.960938 13.441406 9.964844 13.503906 10.023438 C 13.621094 10.125 13.984375 10.921875 14.109375 11.339844 C 14.289062 11.941406 14.398438 12.71875 14.398438 13.417969 C 14.398438 13.730469 14.410156 13.785156 14.664062 14.636719 C 14.808594 15.128906 15.003906 15.765625 15.097656 16.046875 C 15.289062 16.636719 15.648438 17.550781 15.691406 17.550781 C 15.707031 17.550781 15.726562 17.503906 15.734375 17.441406 C 15.742188 17.382812 15.78125 17.117188 15.816406 16.851562 C 15.855469 16.582031 15.914062 16.179688 15.953125 15.949219 C 15.988281 15.71875 16.027344 15.367188 16.039062 15.164062 C 16.0625 14.695312 16.074219 14.644531 16.148438 14.644531 C 16.363281 14.644531 16.550781 15.355469 16.550781 16.164062 C 16.550781 16.867188 16.519531 17.007812 16.175781 17.726562 L 15.941406 18.214844 L 16.191406 18.878906 C 16.332031 19.242188 16.5 19.710938 16.566406 19.921875 C 16.707031 20.347656 16.734375 20.40625 16.761719 20.285156 C 16.785156 20.175781 16.972656 17.863281 17.011719 17.167969 C 17.074219 16.097656 17.097656 16.242188 16.660156 15.132812 C 16.273438 14.15625 16.152344 13.882812 15.992188 13.617188 C 15.894531 13.460938 15.871094 13.453125 15.734375 13.527344 C 15.601562 13.597656 15.394531 13.589844 15.265625 13.507812 C 14.996094 13.34375 15 12.914062 15.273438 12.742188 C 15.566406 12.558594 15.953125 12.773438 15.953125 13.117188 C 15.953125 13.207031 15.992188 13.304688 16.105469 13.480469 C 16.292969 13.773438 16.441406 14.09375 16.746094 14.871094 C 16.878906 15.207031 17 15.480469 17.015625 15.480469 C 17.113281 15.480469 16.921875 13.355469 16.800781 13.0625 C 16.742188 12.921875 16.457031 12.667969 16.195312 12.519531 L 15.984375 12.402344 L 15.839844 12.460938 C 15.363281 12.640625 14.984375 12.082031 15.339844 11.722656 C 15.402344 11.664062 15.496094 11.605469 15.554688 11.59375 C 15.871094 11.53125 16.160156 11.8125 16.105469 12.125 C 16.085938 12.21875 16.097656 12.242188 16.175781 12.300781 C 16.304688 12.394531 16.484375 12.484375 16.503906 12.464844 C 16.539062 12.429688 15.984375 11.398438 15.480469 10.554688 C 15.125 9.960938 14.660156 9.25 14.394531 8.902344 C 14.195312 8.632812 13.613281 8.03125 13.558594 8.03125 C 13.539062 8.03125 13.375 8.101562 13.191406 8.1875 L 12.859375 8.347656 L 12.410156 8.359375 C 11.785156 8.378906 11.742188 8.359375 11.21875 7.796875 C 10.992188 7.550781 10.820312 7.335938 10.820312 7.300781 C 10.820312 7.191406 10.910156 7.136719 11.121094 7.109375 C 11.230469 7.097656 11.328125 7.074219 11.335938 7.058594 C 11.347656 7.042969 11.324219 6.929688 11.28125 6.808594 C 11.195312 6.539062 11.207031 6.332031 11.320312 6.207031 C 11.40625 6.117188 11.8125 5.898438 12.03125 5.828125 C 12.101562 5.804688 12.238281 5.734375 12.332031 5.675781 C 12.5 5.570312 12.5 5.566406 12.519531 5.363281 C 12.550781 5.019531 12.683594 4.945312 12.933594 5.125 C 13.09375 5.246094 13.25 5.464844 13.359375 5.730469 C 13.503906 6.089844 13.542969 6.339844 13.546875 6.945312 C 13.550781 7.488281 13.558594 7.523438 13.640625 7.707031 C 13.699219 7.835938 13.839844 8.015625 14.070312 8.257812 C 14.257812 8.453125 14.496094 8.738281 14.605469 8.882812 C 15.042969 9.476562 15.679688 10.511719 16.25 11.546875 C 16.535156 12.066406 16.648438 12.242188 16.605469 12.085938 C 16.59375 12.050781 16.5625 11.925781 16.53125 11.808594 C 16.445312 11.453125 16.304688 10.996094 15.871094 9.667969 C 15.425781 8.3125 15.089844 7.230469 14.90625 6.566406 C 14.84375 6.335938 14.722656 5.90625 14.640625 5.609375 C 14.558594 5.316406 14.425781 4.800781 14.351562 4.460938 L 14.210938 3.84375 L 13.816406 3.574219 C 13.273438 3.207031 13.039062 3.023438 12.710938 2.707031 C 12.265625 2.273438 11.980469 1.773438 11.980469 1.425781 C 11.980469 1.050781 12.285156 0.683594 12.589844 0.683594 C 12.683594 0.683594 12.714844 0.667969 12.753906 0.59375 C 12.917969 0.28125 13.425781 0.015625 13.667969 0.117188 C 13.75 0.152344 13.773438 0.148438 13.867188 0.078125 C 13.953125 0.0117188 14.011719 0 14.210938 0 C 14.421875 0 14.476562 0.015625 14.679688 0.121094 C 14.808594 0.1875 14.964844 0.257812 15.035156 0.28125 C 15.105469 0.304688 15.183594 0.359375 15.210938 0.398438 C 15.246094 0.453125 15.304688 0.484375 15.414062 0.5 C 15.828125 0.5625 16.066406 1.203125 15.902344 1.820312 C 15.777344 2.300781 15.371094 2.902344 14.886719 3.316406 C 14.441406 3.695312 14.472656 3.585938 14.628906 4.296875 C 14.792969 5.039062 14.792969 5.03125 14.828125 5.011719 C 14.84375 5 14.894531 4.910156 14.941406 4.804688 C 14.988281 4.703125 15.070312 4.5625 15.125 4.492188 L 15.226562 4.359375 L 15.171875 4.199219 C 15.097656 3.988281 15.125 3.835938 15.273438 3.691406 C 15.472656 3.496094 15.789062 3.523438 15.945312 3.75 C 16.085938 3.949219 16.054688 4.191406 15.867188 4.355469 C 15.769531 4.441406 15.726562 4.457031 15.578125 4.457031 C 15.425781 4.457031 15.390625 4.472656 15.300781 4.566406 C 15.171875 4.699219 14.957031 5.160156 14.933594 5.34375 C 14.921875 5.464844 15.136719 6.292969 15.460938 7.355469 C 15.535156 7.601562 15.582031 7.65625 15.613281 7.527344 C 15.621094 7.492188 15.761719 7.203125 15.917969 6.886719 C 16.234375 6.25 16.398438 5.804688 16.453125 5.425781 C 16.503906 5.066406 16.523438 5.011719 16.605469 5 C 16.699219 4.984375 16.730469 5.050781 16.796875 5.394531 C 16.917969 6.035156 16.894531 6.742188 16.730469 7.390625 C 16.652344 7.699219 16.402344 8.257812 16.097656 8.804688 L 15.976562 9.023438 L 16.3125 10.039062 C 16.667969 11.125 16.78125 11.511719 16.945312 12.175781 C 17.078125 12.707031 17.074219 12.707031 17.109375 12.640625 C 17.125 12.613281 17.160156 12.457031 17.191406 12.289062 C 17.261719 11.929688 17.433594 11.347656 17.574219 11.003906 C 17.628906 10.867188 17.675781 10.734375 17.675781 10.707031 C 17.675781 10.683594 17.585938 10.566406 17.476562 10.449219 C 17.101562 10.042969 16.945312 9.667969 16.945312 9.152344 C 16.945312 8.800781 17.003906 8.582031 17.144531 8.433594 C 17.246094 8.320312 17.40625 8.296875 17.476562 8.382812 C 17.539062 8.460938 17.570312 8.445312 17.730469 8.265625 C 17.976562 7.992188 18.300781 7.960938 18.851562 8.164062 C 19.480469 8.394531 19.5625 8.488281 19.484375 8.878906 L 19.457031 9.007812 L 19.585938 8.984375 C 20.140625 8.890625 20.363281 9.386719 19.992188 9.878906 C 19.785156 10.148438 19.398438 10.402344 18.949219 10.558594 C 18.722656 10.636719 18.628906 10.652344 18.3125 10.652344 C 17.871094 10.65625 17.90625 10.621094 17.6875 11.195312 C 17.519531 11.636719 17.347656 12.296875 17.246094 12.914062 C 17.183594 13.304688 17.179688 13.355469 17.226562 13.664062 C 17.402344 14.898438 17.390625 16.648438 17.179688 19.078125 C 17.144531 19.496094 17.097656 20.050781 17.078125 20.308594 C 17.023438 21.042969 16.980469 22.46875 17.011719 22.527344 C 17.035156 22.566406 17.046875 22.554688 17.0625 22.476562 C 17.074219 22.421875 17.089844 22.355469 17.101562 22.328125 C 17.117188 22.269531 17.1875 21.707031 17.261719 21.023438 C 17.421875 19.550781 17.632812 18.507812 18.046875 17.144531 L 18.214844 16.585938 L 18.160156 16.246094 C 18.101562 15.875 18.070312 15.816406 17.949219 15.816406 C 17.738281 15.816406 17.542969 15.601562 17.542969 15.363281 C 17.542969 15 17.941406 14.785156 18.242188 14.988281 C 18.457031 15.136719 18.503906 15.40625 18.351562 15.632812 C 18.273438 15.746094 18.265625 15.78125 18.285156 15.941406 C 18.300781 16.039062 18.324219 16.113281 18.34375 16.109375 C 18.359375 16.101562 18.441406 15.925781 18.519531 15.722656 C 18.597656 15.515625 18.746094 15.15625 18.851562 14.929688 L 19.039062 14.511719 L 18.921875 14.394531 C 18.855469 14.328125 18.792969 14.238281 18.78125 14.191406 C 18.742188 14.039062 18.789062 13.84375 18.886719 13.738281 C 19.160156 13.449219 19.617188 13.609375 19.652344 14.007812 C 19.675781 14.226562 19.585938 14.378906 19.375 14.476562 C 19.234375 14.542969 19.214844 14.570312 19.046875 14.921875 C 18.804688 15.441406 18.695312 15.722656 18.417969 16.5625 C 18.167969 17.300781 18.109375 17.519531 18.15625 17.519531 C 18.167969 17.519531 18.242188 17.460938 18.316406 17.390625 C 18.390625 17.324219 18.503906 17.226562 18.566406 17.179688 C 18.675781 17.089844 18.679688 17.085938 18.640625 16.957031 C 18.589844 16.78125 18.589844 16.699219 18.65625 16.5625 C 18.757812 16.34375 19.046875 16.25 19.265625 16.367188 C 19.410156 16.441406 19.496094 16.601562 19.496094 16.792969 C 19.496094 16.925781 19.476562 16.96875 19.382812 17.074219 C 19.277344 17.191406 19.257812 17.199219 19.027344 17.210938 C 18.757812 17.226562 18.714844 17.253906 18.335938 17.621094 C 18.050781 17.902344 17.976562 18.019531 17.890625 18.339844 C 17.679688 19.125 17.34375 21.292969 17.433594 21.292969 C 17.449219 21.292969 17.558594 21.09375 17.675781 20.847656 C 17.792969 20.605469 18.050781 20.136719 18.25 19.804688 C 18.449219 19.476562 18.773438 18.933594 18.972656 18.601562 C 19.359375 17.960938 19.753906 17.179688 20.019531 16.53125 C 20.1875 16.125 20.394531 15.519531 20.4375 15.320312 C 20.464844 15.1875 20.5625 15.125 20.621094 15.199219 C 20.714844 15.3125 20.589844 16.28125 20.375 17.128906 C 20.152344 18.003906 19.863281 18.796875 19.507812 19.496094 C 19.261719 19.980469 19.089844 20.234375 18.550781 20.925781 C 17.675781 22.042969 17.484375 22.410156 17.078125 23.753906 C 17.007812 23.988281 17.003906 24.011719 17.042969 24.757812 C 17.0625 25.175781 17.09375 25.871094 17.113281 26.300781 C 17.132812 26.734375 17.160156 27.117188 17.175781 27.152344 C 17.203125 27.222656 17.304688 26.921875 17.636719 25.800781 C 17.929688 24.816406 18.25 23.894531 18.519531 23.261719 C 18.789062 22.625 19.347656 21.636719 19.921875 20.777344 C 20.105469 20.503906 20.257812 20.265625 20.257812 20.25 C 20.257812 20.234375 20.191406 20.230469 20.113281 20.242188 C 19.84375 20.28125 19.734375 20.066406 19.894531 19.804688 C 19.933594 19.742188 20.058594 19.621094 20.175781 19.535156 C 20.292969 19.453125 20.390625 19.371094 20.390625 19.355469 C 20.390625 19.34375 20.347656 19.320312 20.292969 19.3125 C 20.242188 19.300781 20.15625 19.253906 20.105469 19.210938 C 20.035156 19.148438 20.019531 19.113281 20.035156 19.046875 C 20.0625 18.945312 20.175781 18.902344 20.496094 18.867188 L 20.683594 18.84375 L 20.664062 18.648438 C 20.644531 18.460938 20.648438 18.453125 20.757812 18.339844 C 21.023438 18.074219 21.382812 18.164062 21.484375 18.523438 C 21.507812 18.605469 21.53125 18.675781 21.539062 18.683594 C 21.542969 18.691406 21.625 18.621094 21.722656 18.53125 C 21.9375 18.328125 22.164062 18.214844 22.363281 18.210938 C 22.824219 18.203125 22.710938 18.765625 22.175781 19.125 C 22.097656 19.179688 22.097656 19.183594 22.160156 19.207031 C 22.5625 19.351562 22.707031 19.488281 22.730469 19.753906 C 22.761719 20.070312 22.511719 20.171875 22.148438 19.980469 C 22.050781 19.929688 21.96875 19.890625 21.964844 19.890625 C 21.960938 19.890625 21.945312 19.996094 21.933594 20.125 C 21.914062 20.394531 21.832031 20.570312 21.71875 20.585938 C 21.609375 20.601562 21.523438 20.507812 21.445312 20.285156 C 21.40625 20.175781 21.367188 20.089844 21.359375 20.089844 C 21.351562 20.089844 21.277344 20.164062 21.195312 20.253906 C 21.023438 20.445312 20.773438 20.625 20.671875 20.625 C 20.574219 20.625 20.488281 20.523438 20.488281 20.410156 C 20.488281 20.324219 20.484375 20.320312 20.433594 20.359375 C 20.359375 20.425781 19.722656 21.390625 19.445312 21.859375 C 18.933594 22.730469 18.617188 23.414062 18.289062 24.339844 C 18.046875 25.035156 17.734375 26.035156 17.746094 26.089844 C 17.753906 26.117188 17.835938 25.996094 17.933594 25.828125 C 18.199219 25.367188 18.507812 24.945312 18.992188 24.375 C 19.234375 24.09375 19.449219 23.828125 19.476562 23.789062 C 19.5 23.746094 19.53125 23.632812 19.546875 23.53125 C 19.632812 22.851562 20.195312 22.21875 20.496094 22.460938 C 20.632812 22.566406 20.644531 22.738281 20.539062 23.003906 C 20.503906 23.085938 20.554688 23.078125 20.890625 22.941406 C 21.210938 22.8125 21.5 22.78125 21.59375 22.859375 C 21.777344 23.011719 21.507812 23.359375 21.011719 23.617188 C 20.925781 23.660156 20.847656 23.710938 20.839844 23.726562 C 20.828125 23.742188 20.917969 23.804688 21.035156 23.859375 C 21.375 24.019531 21.464844 24.242188 21.265625 24.421875 C 21.15625 24.519531 20.957031 24.523438 20.605469 24.429688 C 20.273438 24.34375 19.953125 24.195312 19.773438 24.046875 C 19.695312 23.984375 19.625 23.929688 19.617188 23.929688 C 19.589844 23.929688 18.835938 24.824219 18.605469 25.125 C 18.28125 25.558594 18.09375 25.886719 17.691406 26.71875 C 17.160156 27.824219 17.191406 27.707031 17.238281 28.480469 C 17.292969 29.300781 17.390625 30.28125 17.476562 30.792969 C 17.683594 32.019531 18.011719 33.09375 18.289062 33.421875 C 18.386719 33.539062 18.382812 33.636719 18.28125 33.707031 C 18.21875 33.75 18.199219 33.746094 18.097656 33.652344 Z M 16.921875 28.648438 C 16.933594 28.632812 16.917969 28.3125 16.894531 27.9375 C 16.828125 26.84375 16.585938 25.792969 16.238281 25.050781 C 15.847656 24.21875 15.320312 23.503906 14.613281 22.851562 C 13.859375 22.15625 13.238281 21.78125 13.320312 22.066406 C 13.363281 22.21875 13.816406 23.265625 14.269531 24.265625 C 14.527344 24.824219 14.824219 25.492188 14.933594 25.75 C 15.230469 26.453125 15.726562 27.453125 15.921875 27.75 C 16.261719 28.269531 16.84375 28.789062 16.921875 28.648438 Z M 16.695312 22.652344 L 16.691406 20.90625 L 16.570312 20.492188 C 16.328125 19.695312 16.058594 18.972656 15.515625 17.652344 C 15.238281 16.976562 15.261719 17.007812 15.191406 17.214844 C 15.15625 17.320312 15.082031 17.445312 14.996094 17.53125 C 14.921875 17.605469 14.859375 17.679688 14.859375 17.691406 C 14.859375 17.703125 14.945312 17.730469 15.050781 17.753906 C 15.1875 17.78125 15.269531 17.820312 15.347656 17.902344 C 15.476562 18.035156 15.480469 18.0625 15.375 18.171875 C 15.308594 18.238281 15.261719 18.253906 15.109375 18.253906 C 15 18.253906 14.925781 18.265625 14.925781 18.289062 C 14.925781 18.308594 14.976562 18.417969 15.039062 18.53125 C 15.160156 18.75 15.355469 19.285156 15.355469 19.390625 C 15.355469 19.425781 15.417969 19.605469 15.488281 19.789062 C 15.675781 20.253906 15.878906 20.992188 16.101562 21.976562 C 16.511719 23.792969 16.65625 24.398438 16.6875 24.398438 C 16.695312 24.398438 16.695312 23.613281 16.695312 22.652344 Z M 21.132812 24.3125 C 21.214844 24.277344 21.195312 24.179688 21.085938 24.085938 C 20.945312 23.96875 20.597656 23.882812 20.234375 23.882812 C 20.054688 23.878906 19.925781 23.894531 19.921875 23.914062 C 19.910156 23.96875 20.289062 24.152344 20.589844 24.242188 C 20.871094 24.328125 21.035156 24.347656 21.132812 24.3125 Z M 20.675781 23.578125 C 20.933594 23.480469 21.125 23.367188 21.308594 23.210938 C 21.472656 23.070312 21.488281 22.996094 21.355469 22.996094 C 21.042969 22.996094 19.972656 23.546875 20.046875 23.671875 C 20.078125 23.722656 20.4375 23.671875 20.675781 23.578125 Z M 20.125 23.261719 C 20.332031 23.054688 20.421875 22.890625 20.421875 22.714844 C 20.421875 22.605469 20.414062 22.59375 20.332031 22.59375 C 20.144531 22.59375 19.792969 23.085938 19.738281 23.425781 L 19.71875 23.574219 L 19.828125 23.507812 C 19.890625 23.472656 20.023438 23.363281 20.125 23.261719 Z M 17.464844 22.214844 C 17.652344 21.835938 17.886719 21.492188 18.363281 20.878906 C 19.09375 19.941406 19.265625 19.664062 19.59375 18.902344 C 19.910156 18.167969 20.289062 16.914062 20.375 16.328125 C 20.40625 16.09375 20.359375 16.164062 20.15625 16.648438 C 19.789062 17.527344 19.445312 18.175781 18.789062 19.246094 C 18.210938 20.1875 17.925781 20.695312 17.6875 21.222656 C 17.292969 22.101562 17.101562 22.945312 17.464844 22.214844 Z M 20.886719 20.304688 C 21.058594 20.160156 21.210938 19.96875 21.238281 19.871094 C 21.261719 19.765625 21.238281 19.546875 21.199219 19.53125 C 21.160156 19.519531 20.777344 20.082031 20.707031 20.261719 C 20.660156 20.375 20.664062 20.421875 20.722656 20.421875 C 20.738281 20.421875 20.808594 20.371094 20.886719 20.304688 Z M 21.753906 20.21875 C 21.789062 20.074219 21.761719 19.921875 21.664062 19.710938 C 21.472656 19.28125 21.394531 19.328125 21.5 19.8125 C 21.613281 20.351562 21.695312 20.484375 21.753906 20.21875 Z M 20.390625 19.949219 C 20.617188 19.835938 21.042969 19.453125 21.003906 19.394531 C 20.976562 19.347656 20.691406 19.429688 20.472656 19.550781 C 20.277344 19.65625 19.992188 19.921875 19.992188 20 C 19.992188 20.089844 20.15625 20.070312 20.390625 19.949219 Z M 22.566406 19.785156 C 22.582031 19.667969 22.445312 19.511719 22.273438 19.441406 C 22.066406 19.359375 21.714844 19.289062 21.691406 19.328125 C 21.664062 19.375 21.898438 19.609375 22.125 19.761719 C 22.28125 19.863281 22.351562 19.890625 22.441406 19.882812 C 22.539062 19.875 22.558594 19.859375 22.566406 19.785156 Z M 13.898438 19.457031 C 13.96875 19.386719 14.0625 19.230469 14.109375 19.113281 C 14.207031 18.863281 14.324219 18.335938 14.289062 18.296875 C 14.222656 18.230469 13.730469 18.859375 13.632812 19.132812 C 13.53125 19.429688 13.550781 19.589844 13.695312 19.589844 C 13.75 19.589844 13.820312 19.542969 13.898438 19.457031 Z M 15.03125 19.328125 C 15.054688 19.230469 14.992188 18.914062 14.921875 18.753906 C 14.824219 18.527344 14.660156 18.285156 14.609375 18.285156 C 14.550781 18.285156 14.550781 18.28125 14.613281 18.636719 C 14.671875 18.980469 14.746094 19.167969 14.875 19.296875 C 14.984375 19.402344 15.015625 19.410156 15.03125 19.328125 Z M 21.515625 19.15625 C 21.515625 19.074219 21.480469 19.050781 21.410156 19.089844 C 21.339844 19.128906 21.328125 19.207031 21.390625 19.230469 C 21.457031 19.253906 21.515625 19.21875 21.515625 19.15625 Z M 21.097656 19.117188 C 21.15625 19.0625 21.078125 19.039062 20.824219 19.027344 C 20.417969 19.007812 20.136719 19.105469 20.445312 19.160156 C 20.601562 19.183594 21.058594 19.15625 21.097656 19.117188 Z M 22.164062 18.914062 C 22.304688 18.820312 22.480469 18.5625 22.46875 18.46875 C 22.445312 18.296875 22.074219 18.421875 21.804688 18.691406 C 21.640625 18.855469 21.613281 18.945312 21.699219 19.03125 C 21.742188 19.078125 21.765625 19.078125 21.898438 19.039062 C 21.980469 19.011719 22.101562 18.957031 22.164062 18.914062 Z M 21.347656 18.785156 C 21.347656 18.410156 21.097656 18.242188 20.882812 18.472656 C 20.769531 18.59375 20.824219 18.710938 21.050781 18.828125 C 21.308594 18.957031 21.347656 18.953125 21.347656 18.785156 Z M 13.394531 18.644531 C 13.597656 18.519531 14.042969 18.167969 14.058594 18.121094 C 14.082031 18.050781 13.792969 18.085938 13.542969 18.183594 C 13.21875 18.308594 12.984375 18.460938 12.933594 18.570312 C 12.902344 18.640625 12.90625 18.664062 12.957031 18.722656 C 13.039062 18.8125 13.15625 18.789062 13.394531 18.644531 Z M 15.214844 18.027344 C 15.230469 17.984375 14.933594 17.882812 14.78125 17.886719 C 14.644531 17.886719 14.566406 17.933594 14.617188 17.988281 C 14.707031 18.078125 15.1875 18.113281 15.214844 18.027344 Z M 13.179688 17.996094 C 13.425781 17.960938 13.566406 17.925781 13.558594 17.90625 C 13.539062 17.839844 13.324219 17.75 13.179688 17.75 C 13.023438 17.75 12.777344 17.828125 12.617188 17.925781 C 12.394531 18.0625 12.5625 18.085938 13.179688 17.996094 Z M 14.09375 17.789062 C 14.132812 17.765625 14.121094 17.710938 14.042969 17.492188 C 13.902344 17.113281 13.683594 16.859375 13.347656 16.6875 C 13.078125 16.550781 12.96875 16.617188 13.035156 16.878906 C 13.171875 17.398438 13.824219 17.960938 14.09375 17.789062 Z M 16.121094 17.449219 C 16.351562 16.929688 16.394531 16.6875 16.375 16.035156 C 16.355469 15.527344 16.308594 15.214844 16.25 15.214844 C 16.234375 15.214844 16.214844 15.300781 16.199219 15.40625 C 16.1875 15.511719 16.128906 15.921875 16.066406 16.316406 C 15.953125 17.042969 15.886719 17.558594 15.886719 17.730469 C 15.886719 17.898438 15.960938 17.808594 16.121094 17.449219 Z M 14.714844 17.542969 C 14.894531 17.421875 15.027344 17.246094 15.027344 17.128906 C 15.027344 17.027344 14.996094 17.03125 14.835938 17.148438 C 14.699219 17.246094 14.609375 17.355469 14.515625 17.542969 C 14.472656 17.632812 14.46875 17.652344 14.507812 17.652344 C 14.535156 17.652344 14.628906 17.601562 14.714844 17.542969 Z M 14.386719 17.34375 C 14.429688 17.261719 14.441406 17.144531 14.445312 16.875 C 14.445312 16.550781 14.441406 16.511719 14.375 16.445312 C 14.3125 16.382812 14.292969 16.378906 14.25 16.414062 C 14.117188 16.523438 14.085938 17.070312 14.199219 17.304688 C 14.238281 17.386719 14.285156 17.449219 14.300781 17.449219 C 14.316406 17.449219 14.355469 17.402344 14.386719 17.34375 Z M 14.628906 15.453125 C 14.628906 15.308594 14.433594 15.015625 13.945312 14.429688 C 13.238281 13.574219 12.722656 13.050781 12.652344 13.121094 C 12.644531 13.128906 12.664062 13.1875 12.699219 13.25 C 12.738281 13.308594 12.898438 13.605469 13.054688 13.910156 C 13.640625 15.015625 13.816406 15.226562 14.347656 15.425781 C 14.628906 15.527344 14.628906 15.527344 14.628906 15.453125 Z M 14.230469 13.304688 C 14.230469 13.039062 14.132812 12.179688 14.066406 11.855469 C 14.007812 11.574219 13.84375 11.039062 13.773438 10.917969 C 13.730469 10.839844 13.691406 12.503906 13.730469 12.761719 C 13.75 12.875 13.789062 13.035156 13.824219 13.113281 C 13.894531 13.269531 14.148438 13.523438 14.199219 13.492188 C 14.21875 13.480469 14.230469 13.398438 14.230469 13.304688 Z M 18.867188 10.398438 C 19.488281 10.203125 19.992188 9.765625 19.992188 9.417969 C 19.992188 9.332031 19.972656 9.25 19.941406 9.21875 C 19.789062 9.070312 19.226562 9.214844 19.113281 9.4375 C 19.039062 9.585938 18.808594 9.828125 18.445312 10.144531 C 18.277344 10.289062 18.136719 10.421875 18.136719 10.4375 C 18.136719 10.519531 18.546875 10.496094 18.867188 10.398438 Z M 17.742188 9.976562 C 17.742188 9.484375 17.664062 9.046875 17.527344 8.757812 C 17.414062 8.511719 17.339844 8.46875 17.246094 8.585938 C 17.140625 8.722656 17.101562 8.921875 17.121094 9.257812 C 17.132812 9.519531 17.152344 9.597656 17.253906 9.816406 C 17.363281 10.042969 17.640625 10.402344 17.710938 10.402344 C 17.726562 10.402344 17.742188 10.210938 17.742188 9.976562 Z M 18.40625 9.945312 C 18.792969 9.605469 19.007812 9.339844 18.992188 9.21875 C 18.984375 9.160156 18.953125 9.148438 18.71875 9.128906 C 18.5625 9.117188 18.386719 9.078125 18.292969 9.039062 C 18.085938 8.945312 18.070312 8.949219 17.960938 9.0625 L 17.871094 9.160156 L 17.910156 9.714844 C 17.941406 10.109375 17.964844 10.269531 17.992188 10.269531 C 18.015625 10.269531 18.203125 10.125 18.40625 9.945312 Z M 19.285156 8.914062 C 19.386719 8.660156 19.316406 8.5 19.066406 8.433594 C 18.988281 8.414062 18.816406 8.351562 18.675781 8.292969 C 18.46875 8.210938 18.390625 8.195312 18.230469 8.207031 C 17.992188 8.222656 17.882812 8.296875 17.777344 8.511719 C 17.707031 8.652344 17.703125 8.683594 17.738281 8.800781 C 17.757812 8.875 17.785156 8.933594 17.796875 8.933594 C 17.804688 8.933594 17.859375 8.894531 17.914062 8.851562 C 17.964844 8.804688 18.03125 8.765625 18.058594 8.765625 C 18.085938 8.765625 18.164062 8.707031 18.234375 8.632812 C 18.351562 8.507812 18.371094 8.5 18.542969 8.5 C 18.703125 8.5 18.742188 8.511719 18.824219 8.597656 C 18.878906 8.648438 18.9375 8.75 18.957031 8.820312 C 18.996094 8.949219 19.148438 9.082031 19.207031 9.042969 C 19.222656 9.035156 19.257812 8.976562 19.285156 8.914062 Z M 16 8.605469 C 16.148438 8.371094 16.421875 7.800781 16.5 7.558594 C 16.632812 7.164062 16.691406 6.761719 16.691406 6.210938 C 16.695312 5.53125 16.660156 5.488281 16.503906 5.96875 C 16.4375 6.175781 16.238281 6.632812 16.066406 6.980469 C 15.804688 7.515625 15.75 7.652344 15.722656 7.855469 C 15.691406 8.082031 15.695312 8.121094 15.789062 8.417969 C 15.84375 8.589844 15.894531 8.734375 15.90625 8.734375 C 15.914062 8.734375 15.957031 8.675781 16 8.605469 Z M 12.800781 8.152344 C 12.871094 8.109375 12.757812 8.007812 12.546875 7.929688 C 12.382812 7.867188 12.324219 7.863281 11.988281 7.882812 C 11.589844 7.910156 11.539062 7.9375 11.707031 8.054688 C 11.890625 8.179688 11.988281 8.199219 12.378906 8.1875 C 12.585938 8.183594 12.777344 8.167969 12.800781 8.152344 Z M 13.207031 7.980469 C 13.261719 7.953125 13.304688 7.921875 13.304688 7.914062 C 13.304688 7.90625 13.226562 7.859375 13.132812 7.8125 C 12.871094 7.679688 12.785156 7.601562 12.585938 7.339844 C 12.488281 7.207031 12.394531 7.097656 12.375 7.097656 C 12.359375 7.097656 12.277344 7.148438 12.195312 7.210938 C 12.050781 7.324219 11.808594 7.417969 11.753906 7.386719 C 11.742188 7.375 11.617188 7.347656 11.472656 7.316406 C 11.21875 7.261719 11.054688 7.273438 11.054688 7.339844 C 11.054688 7.359375 11.132812 7.457031 11.234375 7.558594 L 11.417969 7.742188 L 11.90625 7.71875 C 12.460938 7.691406 12.59375 7.71875 12.890625 7.917969 C 13.082031 8.046875 13.078125 8.046875 13.207031 7.980469 Z M 13.140625 7.582031 C 13.140625 7.570312 13.09375 7.5 13.039062 7.425781 C 12.890625 7.21875 12.816406 6.910156 12.78125 6.382812 C 12.75 5.941406 12.707031 5.769531 12.65625 5.914062 C 12.644531 5.949219 12.59375 6.074219 12.546875 6.195312 C 12.417969 6.519531 12.425781 6.757812 12.574219 7.015625 C 12.738281 7.289062 13.140625 7.695312 13.140625 7.582031 Z M 13.371094 6.933594 C 13.371094 6.363281 13.316406 6.0625 13.160156 5.707031 C 13.070312 5.519531 12.828125 5.226562 12.753906 5.226562 C 12.691406 5.226562 12.695312 5.472656 12.757812 5.527344 C 12.851562 5.605469 12.941406 5.996094 12.96875 6.460938 C 13 6.9375 13.050781 7.128906 13.195312 7.339844 C 13.351562 7.566406 13.371094 7.523438 13.371094 6.933594 Z M 12.105469 7.058594 L 12.308594 6.925781 L 12.289062 6.695312 C 12.269531 6.492188 12.28125 6.429688 12.378906 6.164062 C 12.4375 5.996094 12.476562 5.851562 12.46875 5.84375 C 12.449219 5.824219 12.128906 5.964844 11.714844 6.171875 C 11.457031 6.300781 11.429688 6.324219 11.402344 6.433594 C 11.378906 6.535156 11.386719 6.597656 11.445312 6.746094 C 11.484375 6.851562 11.515625 6.980469 11.515625 7.035156 C 11.515625 7.144531 11.589844 7.191406 11.785156 7.195312 C 11.871094 7.195312 11.957031 7.160156 12.105469 7.058594 Z M 13.457031 3.039062 C 13.449219 3.015625 13.421875 2.929688 13.402344 2.847656 C 13.382812 2.769531 13.324219 2.628906 13.273438 2.539062 C 13.140625 2.292969 13.042969 2.019531 12.953125 1.601562 C 12.863281 1.207031 12.773438 1.011719 12.636719 0.910156 C 12.558594 0.847656 12.542969 0.847656 12.449219 0.898438 C 12.289062 0.980469 12.144531 1.238281 12.144531 1.4375 C 12.144531 1.652344 12.390625 2.117188 12.664062 2.421875 C 12.808594 2.585938 13.398438 3.089844 13.445312 3.089844 C 13.464844 3.089844 13.46875 3.066406 13.457031 3.039062 Z M 15.277344 2.648438 C 15.625 2.195312 15.804688 1.726562 15.78125 1.339844 C 15.753906 0.96875 15.625 0.738281 15.398438 0.667969 C 15.289062 0.636719 15.222656 0.777344 15.078125 1.34375 C 14.972656 1.753906 14.710938 2.699219 14.640625 2.933594 C 14.59375 3.085938 14.707031 2.929688 14.84375 2.65625 C 14.925781 2.492188 15.007812 2.347656 15.027344 2.335938 C 15.046875 2.324219 15.085938 2.335938 15.113281 2.363281 C 15.15625 2.40625 15.144531 2.449219 15.011719 2.714844 C 14.929688 2.882812 14.859375 3.039062 14.859375 3.0625 C 14.859375 3.117188 15.097656 2.882812 15.277344 2.648438 Z M 14.507812 2.703125 C 14.726562 2.015625 14.839844 1.535156 14.839844 1.285156 C 14.84375 1.027344 14.785156 0.816406 14.710938 0.816406 C 14.648438 0.816406 14.210938 1.300781 14.0625 1.53125 C 13.886719 1.800781 13.792969 2.066406 13.789062 2.304688 C 13.785156 2.628906 13.96875 3.066406 14.070312 2.964844 C 14.132812 2.902344 14.257812 2.914062 14.304688 2.988281 C 14.363281 3.082031 14.40625 3.023438 14.507812 2.703125 Z M 13.644531 2.605469 C 13.570312 2.296875 13.617188 2.003906 13.804688 1.625 C 13.878906 1.476562 13.9375 1.34375 13.929688 1.335938 C 13.90625 1.3125 13.40625 1.21875 13.296875 1.21875 C 13.234375 1.21875 13.15625 1.238281 13.125 1.261719 C 13.070312 1.304688 13.070312 1.320312 13.136719 1.628906 C 13.234375 2.085938 13.316406 2.289062 13.59375 2.734375 C 13.636719 2.804688 13.679688 2.855469 13.6875 2.847656 C 13.695312 2.839844 13.675781 2.730469 13.644531 2.605469 Z M 14.332031 0.917969 C 14.429688 0.808594 14.554688 0.695312 14.605469 0.667969 C 14.722656 0.589844 14.84375 0.625 14.910156 0.75 C 14.980469 0.882812 15.015625 0.878906 15.0625 0.71875 C 15.113281 0.550781 15.085938 0.492188 14.933594 0.433594 C 14.867188 0.40625 14.726562 0.339844 14.621094 0.28125 C 14.285156 0.105469 13.972656 0.121094 13.863281 0.324219 C 13.816406 0.410156 13.839844 0.917969 13.898438 1.0625 C 13.953125 1.210938 14.105469 1.160156 14.332031 0.917969 Z M 13.679688 0.75 C 13.660156 0.339844 13.648438 0.292969 13.566406 0.265625 C 13.46875 0.234375 13.09375 0.429688 12.992188 0.5625 C 12.875 0.71875 12.859375 0.808594 12.921875 0.945312 L 12.976562 1.066406 L 13.695312 1.066406 Z M 13.679688 0.75 " fill-opacity="1" fill-rule="nonzero"/></g></svg>