<svg xmlns="http://www.w3.org/2000/svg" xmlns:xlink="http://www.w3.org/1999/xlink" width="500" zoomAndPan="magnify" viewBox="0 0 375 374.999991" height="500" preserveAspectRatio="xMidYMid meet" version="1.0"><defs><clipPath id="3d12729313"><path d="M 53.839844 43 L 320.839844 43 L 320.839844 372.253906 L 53.839844 372.253906 Z M 53.839844 43 " clip-rule="nonzero"/></clipPath><clipPath id="1d33f188c6"><path d="M 110 2.503906 L 265 2.503906 L 265 75 L 110 75 Z M 110 2.503906 " clip-rule="nonzero"/></clipPath></defs><g clip-path="url(#3d12729313)"><path fill="#ffffff" d="M 300.339844 43.457031 L 274.667969 43.457031 L 274.667969 58.867188 L 300.339844 58.867188 C 300.675781 58.867188 301.011719 58.898438 301.339844 58.964844 C 301.671875 59.03125 301.992188 59.128906 302.304688 59.257812 C 302.617188 59.386719 302.914062 59.542969 303.191406 59.730469 C 303.472656 59.917969 303.730469 60.128906 303.96875 60.367188 C 304.207031 60.605469 304.421875 60.867188 304.609375 61.148438 C 304.796875 61.429688 304.953125 61.722656 305.082031 62.035156 C 305.210938 62.347656 305.308594 62.667969 305.375 63 C 305.4375 63.332031 305.472656 63.664062 305.472656 64 L 305.472656 351.699219 C 305.472656 352.039062 305.4375 352.371094 305.375 352.703125 C 305.308594 353.035156 305.210938 353.355469 305.082031 353.667969 C 304.953125 353.980469 304.796875 354.277344 304.609375 354.558594 C 304.421875 354.835938 304.210938 355.097656 303.972656 355.335938 C 303.734375 355.574219 303.472656 355.789062 303.191406 355.976562 C 302.914062 356.164062 302.617188 356.320312 302.304688 356.449219 C 301.992188 356.578125 301.671875 356.675781 301.34375 356.742188 C 301.011719 356.808594 300.675781 356.84375 300.339844 356.84375 L 74.414062 356.84375 C 74.074219 356.839844 73.742188 356.804688 73.414062 356.734375 C 73.082031 356.667969 72.765625 356.570312 72.453125 356.4375 C 72.144531 356.308594 71.847656 356.148438 71.570312 355.960938 C 71.289062 355.773438 71.03125 355.5625 70.792969 355.324219 C 70.554688 355.085938 70.34375 354.824219 70.15625 354.546875 C 69.96875 354.265625 69.8125 353.972656 69.679688 353.660156 C 69.550781 353.351562 69.453125 353.03125 69.386719 352.699219 C 69.316406 352.371094 69.285156 352.039062 69.28125 351.699219 L 69.28125 64 C 69.28125 63.664062 69.3125 63.332031 69.378906 63 C 69.445312 62.667969 69.542969 62.347656 69.671875 62.035156 C 69.800781 61.726562 69.957031 61.429688 70.144531 61.148438 C 70.332031 60.867188 70.546875 60.609375 70.785156 60.371094 C 71.023438 60.132812 71.28125 59.917969 71.5625 59.734375 C 71.839844 59.546875 72.136719 59.386719 72.449219 59.257812 C 72.761719 59.128906 73.082031 59.03125 73.410156 58.964844 C 73.742188 58.898438 74.074219 58.867188 74.414062 58.867188 L 100.128906 58.867188 L 100.128906 43.457031 L 74.414062 43.457031 C 73.738281 43.457031 73.070312 43.488281 72.398438 43.554688 C 71.730469 43.621094 71.066406 43.71875 70.40625 43.851562 C 69.746094 43.980469 69.09375 44.144531 68.449219 44.339844 C 67.804688 44.535156 67.175781 44.761719 66.550781 45.019531 C 65.929688 45.277344 65.324219 45.5625 64.730469 45.878906 C 64.136719 46.199219 63.5625 46.542969 63 46.917969 C 62.441406 47.289062 61.902344 47.691406 61.382812 48.117188 C 60.863281 48.542969 60.363281 48.996094 59.886719 49.472656 C 59.414062 49.949219 58.960938 50.445312 58.535156 50.964844 C 58.109375 51.484375 57.707031 52.027344 57.335938 52.585938 C 56.960938 53.144531 56.613281 53.722656 56.296875 54.316406 C 55.980469 54.910156 55.691406 55.515625 55.4375 56.136719 C 55.179688 56.757812 54.953125 57.390625 54.757812 58.035156 C 54.5625 58.679688 54.398438 59.332031 54.265625 59.992188 C 54.136719 60.652344 54.035156 61.316406 53.972656 61.988281 C 53.90625 62.65625 53.871094 63.328125 53.871094 64 L 53.871094 351.699219 C 53.871094 352.375 53.90625 353.046875 53.972656 353.714844 C 54.035156 354.386719 54.136719 355.050781 54.265625 355.710938 C 54.398438 356.371094 54.5625 357.023438 54.757812 357.667969 C 54.953125 358.3125 55.179688 358.945312 55.4375 359.566406 C 55.691406 360.1875 55.980469 360.796875 56.296875 361.386719 C 56.613281 361.980469 56.960938 362.558594 57.332031 363.117188 C 57.707031 363.679688 58.109375 364.21875 58.535156 364.738281 C 58.960938 365.257812 59.414062 365.757812 59.886719 366.234375 C 60.363281 366.707031 60.863281 367.160156 61.382812 367.585938 C 61.902344 368.015625 62.441406 368.414062 63 368.789062 C 63.558594 369.164062 64.136719 369.507812 64.730469 369.824219 C 65.324219 370.144531 65.929688 370.429688 66.550781 370.6875 C 67.171875 370.945312 67.804688 371.171875 68.449219 371.367188 C 69.09375 371.5625 69.746094 371.726562 70.40625 371.855469 C 71.066406 371.988281 71.730469 372.085938 72.398438 372.152344 C 73.070312 372.21875 73.738281 372.253906 74.414062 372.253906 L 300.339844 372.253906 C 301.011719 372.253906 301.683594 372.21875 302.351562 372.152344 C 303.023438 372.085938 303.6875 371.988281 304.347656 371.855469 C 305.007812 371.726562 305.660156 371.5625 306.300781 371.367188 C 306.945312 371.171875 307.578125 370.945312 308.199219 370.6875 C 308.820312 370.429688 309.429688 370.144531 310.023438 369.824219 C 310.617188 369.507812 311.191406 369.164062 311.75 368.789062 C 312.3125 368.414062 312.851562 368.015625 313.371094 367.585938 C 313.890625 367.160156 314.386719 366.707031 314.863281 366.234375 C 315.339844 365.757812 315.789062 365.257812 316.21875 364.738281 C 316.644531 364.21875 317.042969 363.679688 317.417969 363.117188 C 317.792969 362.558594 318.136719 361.980469 318.453125 361.386719 C 318.773438 360.796875 319.058594 360.1875 319.316406 359.566406 C 319.574219 358.945312 319.800781 358.3125 319.996094 357.667969 C 320.191406 357.023438 320.355469 356.371094 320.484375 355.710938 C 320.617188 355.050781 320.714844 354.386719 320.78125 353.714844 C 320.847656 353.046875 320.878906 352.375 320.878906 351.699219 L 320.878906 64 C 320.878906 63.328125 320.847656 62.65625 320.78125 61.988281 C 320.714844 61.316406 320.617188 60.652344 320.484375 59.992188 C 320.355469 59.332031 320.191406 58.679688 319.996094 58.035156 C 319.800781 57.390625 319.574219 56.757812 319.316406 56.136719 C 319.058594 55.515625 318.773438 54.910156 318.453125 54.316406 C 318.136719 53.722656 317.792969 53.144531 317.417969 52.585938 C 317.042969 52.027344 316.644531 51.484375 316.21875 50.964844 C 315.789062 50.445312 315.339844 49.949219 314.863281 49.472656 C 314.386719 48.996094 313.890625 48.542969 313.371094 48.117188 C 312.851562 47.691406 312.308594 47.289062 311.75 46.917969 C 311.191406 46.542969 310.613281 46.199219 310.023438 45.878906 C 309.429688 45.5625 308.820312 45.277344 308.199219 45.019531 C 307.578125 44.761719 306.945312 44.535156 306.300781 44.339844 C 305.65625 44.144531 305.007812 43.980469 304.347656 43.851562 C 303.6875 43.71875 303.023438 43.621094 302.351562 43.554688 C 301.683594 43.488281 301.011719 43.457031 300.339844 43.457031 Z M 300.339844 43.457031 " fill-opacity="1" fill-rule="nonzero"/></g><g clip-path="url(#1d33f188c6)"><path fill="#ffffff" d="M 120.625 74.277344 L 254.128906 74.277344 C 254.800781 74.277344 255.46875 74.210938 256.132812 74.078125 C 256.792969 73.949219 257.433594 73.753906 258.058594 73.496094 C 258.679688 73.238281 259.273438 72.921875 259.832031 72.546875 C 260.394531 72.171875 260.914062 71.746094 261.390625 71.265625 C 261.867188 70.789062 262.292969 70.269531 262.667969 69.710938 C 263.042969 69.148438 263.359375 68.558594 263.617188 67.933594 C 263.875 67.308594 264.070312 66.667969 264.199219 66.007812 C 264.332031 65.34375 264.398438 64.675781 264.398438 64 L 264.398438 38.316406 C 264.398438 37.640625 264.332031 36.972656 264.199219 36.3125 C 264.070312 35.648438 263.875 35.007812 263.617188 34.382812 C 263.359375 33.761719 263.042969 33.167969 262.667969 32.605469 C 262.292969 32.046875 261.867188 31.527344 261.390625 31.050781 C 260.914062 30.574219 260.394531 30.148438 259.832031 29.773438 C 259.273438 29.398438 258.679688 29.082031 258.058594 28.820312 C 257.433594 28.5625 256.792969 28.367188 256.132812 28.238281 C 255.46875 28.105469 254.800781 28.039062 254.128906 28.039062 L 213.046875 28.039062 C 213.046875 27.199219 213.007812 26.359375 212.925781 25.523438 C 212.839844 24.683594 212.71875 23.855469 212.554688 23.027344 C 212.390625 22.203125 212.1875 21.390625 211.941406 20.582031 C 211.699219 19.777344 211.414062 18.988281 211.09375 18.210938 C 210.773438 17.433594 210.414062 16.671875 210.015625 15.933594 C 209.621094 15.191406 209.1875 14.46875 208.722656 13.769531 C 208.253906 13.070312 207.753906 12.394531 207.21875 11.746094 C 206.6875 11.09375 206.125 10.472656 205.527344 9.878906 C 204.933594 9.28125 204.3125 8.71875 203.660156 8.183594 C 203.011719 7.652344 202.335938 7.152344 201.636719 6.683594 C 200.9375 6.214844 200.21875 5.785156 199.476562 5.386719 C 198.734375 4.992188 197.976562 4.632812 197.199219 4.308594 C 196.421875 3.988281 195.632812 3.703125 194.828125 3.460938 C 194.023438 3.214844 193.207031 3.011719 192.382812 2.847656 C 191.558594 2.683594 190.730469 2.558594 189.890625 2.476562 C 189.054688 2.394531 188.21875 2.355469 187.375 2.355469 C 186.535156 2.355469 185.695312 2.394531 184.859375 2.476562 C 184.023438 2.558594 183.191406 2.683594 182.367188 2.847656 C 181.542969 3.011719 180.730469 3.214844 179.925781 3.460938 C 179.121094 3.703125 178.328125 3.988281 177.550781 4.308594 C 176.773438 4.632812 176.015625 4.992188 175.273438 5.386719 C 174.53125 5.785156 173.8125 6.214844 173.113281 6.683594 C 172.414062 7.152344 171.738281 7.652344 171.089844 8.183594 C 170.441406 8.71875 169.816406 9.28125 169.222656 9.878906 C 168.628906 10.472656 168.066406 11.09375 167.53125 11.746094 C 167 12.394531 166.496094 13.070312 166.03125 13.769531 C 165.5625 14.46875 165.132812 15.191406 164.734375 15.933594 C 164.339844 16.671875 163.980469 17.433594 163.660156 18.210938 C 163.335938 18.988281 163.054688 19.777344 162.808594 20.582031 C 162.566406 21.390625 162.363281 22.203125 162.199219 23.027344 C 162.035156 23.855469 161.910156 24.683594 161.828125 25.523438 C 161.746094 26.359375 161.703125 27.199219 161.703125 28.039062 L 120.625 28.039062 C 119.949219 28.039062 119.28125 28.105469 118.621094 28.238281 C 117.960938 28.367188 117.316406 28.5625 116.695312 28.820312 C 116.070312 29.082031 115.480469 29.398438 114.917969 29.773438 C 114.359375 30.148438 113.839844 30.574219 113.363281 31.050781 C 112.886719 31.527344 112.460938 32.046875 112.085938 32.605469 C 111.710938 33.167969 111.394531 33.761719 111.136719 34.382812 C 110.878906 35.007812 110.683594 35.648438 110.550781 36.3125 C 110.417969 36.972656 110.355469 37.640625 110.355469 38.316406 L 110.355469 64 C 110.355469 64.675781 110.417969 65.34375 110.550781 66.007812 C 110.683594 66.667969 110.878906 67.308594 111.136719 67.933594 C 111.394531 68.558594 111.710938 69.148438 112.085938 69.710938 C 112.460938 70.269531 112.886719 70.789062 113.363281 71.265625 C 113.839844 71.746094 114.359375 72.171875 114.917969 72.546875 C 115.480469 72.921875 116.070312 73.238281 116.695312 73.496094 C 117.316406 73.753906 117.960938 73.949219 118.621094 74.078125 C 119.28125 74.210938 119.949219 74.277344 120.625 74.277344 Z M 120.625 74.277344 " fill-opacity="1" fill-rule="nonzero"/></g><path fill="#ffffff" d="M 79.550781 346.566406 L 295.207031 346.566406 L 295.207031 69.144531 L 273.9375 69.144531 C 273.65625 70.234375 273.289062 71.296875 272.832031 72.328125 C 272.375 73.363281 271.839844 74.347656 271.21875 75.292969 C 270.601562 76.234375 269.910156 77.121094 269.144531 77.953125 C 268.378906 78.78125 267.554688 79.542969 266.664062 80.234375 C 265.773438 80.925781 264.832031 81.542969 263.839844 82.078125 C 262.847656 82.617188 261.820312 83.066406 260.753906 83.433594 C 259.6875 83.800781 258.597656 84.078125 257.488281 84.265625 C 256.375 84.453125 255.253906 84.550781 254.128906 84.554688 L 120.625 84.554688 C 119.496094 84.550781 118.378906 84.453125 117.265625 84.265625 C 116.152344 84.078125 115.066406 83.800781 114 83.433594 C 112.933594 83.066406 111.90625 82.613281 110.914062 82.074219 C 109.921875 81.539062 108.980469 80.921875 108.089844 80.230469 C 107.203125 79.539062 106.375 78.777344 105.609375 77.949219 C 104.84375 77.121094 104.152344 76.234375 103.535156 75.289062 C 102.914062 74.347656 102.378906 73.359375 101.921875 72.328125 C 101.464844 71.296875 101.097656 70.234375 100.816406 69.144531 L 79.550781 69.144531 Z M 197.644531 141.066406 L 233.585938 141.066406 C 233.933594 141.054688 234.277344 141.074219 234.617188 141.128906 C 234.957031 141.1875 235.289062 141.277344 235.613281 141.398438 C 235.9375 141.523438 236.242188 141.675781 236.535156 141.863281 C 236.828125 142.046875 237.097656 142.261719 237.347656 142.5 C 237.597656 142.738281 237.816406 143.003906 238.015625 143.285156 C 238.210938 143.570312 238.375 143.875 238.511719 144.191406 C 238.648438 144.507812 238.75 144.839844 238.816406 145.175781 C 238.886719 145.515625 238.921875 145.859375 238.921875 146.203125 C 238.921875 146.550781 238.886719 146.890625 238.816406 147.230469 C 238.75 147.570312 238.648438 147.898438 238.511719 148.214844 C 238.375 148.535156 238.210938 148.835938 238.015625 149.121094 C 237.816406 149.40625 237.597656 149.667969 237.347656 149.90625 C 237.097656 150.148438 236.828125 150.359375 236.535156 150.546875 C 236.242188 150.730469 235.9375 150.886719 235.613281 151.007812 C 235.289062 151.132812 234.957031 151.222656 234.617188 151.277344 C 234.277344 151.332031 233.933594 151.355469 233.585938 151.339844 L 197.644531 151.339844 C 197.316406 151.328125 196.992188 151.285156 196.671875 151.210938 C 196.351562 151.136719 196.039062 151.03125 195.742188 150.894531 C 195.441406 150.761719 195.15625 150.597656 194.886719 150.410156 C 194.617188 150.21875 194.367188 150.007812 194.140625 149.769531 C 193.910156 149.53125 193.707031 149.277344 193.527344 149 C 193.347656 148.722656 193.199219 148.433594 193.074219 148.125 C 192.953125 147.820312 192.859375 147.507812 192.796875 147.183594 C 192.734375 146.859375 192.703125 146.535156 192.703125 146.203125 C 192.703125 145.875 192.734375 145.546875 192.796875 145.226562 C 192.859375 144.902344 192.953125 144.585938 193.074219 144.28125 C 193.199219 143.976562 193.347656 143.683594 193.527344 143.410156 C 193.707031 143.132812 193.910156 142.875 194.140625 142.636719 C 194.367188 142.402344 194.617188 142.1875 194.886719 141.996094 C 195.15625 141.808594 195.441406 141.644531 195.742188 141.511719 C 196.039062 141.375 196.351562 141.273438 196.671875 141.195312 C 196.992188 141.121094 197.316406 141.078125 197.644531 141.066406 Z M 197.644531 166.75 L 269.53125 166.75 C 269.875 166.738281 270.21875 166.761719 270.558594 166.816406 C 270.898438 166.871094 271.230469 166.960938 271.554688 167.085938 C 271.878906 167.207031 272.183594 167.363281 272.476562 167.546875 C 272.769531 167.734375 273.039062 167.945312 273.289062 168.1875 C 273.539062 168.425781 273.761719 168.6875 273.957031 168.972656 C 274.152344 169.257812 274.316406 169.558594 274.453125 169.878906 C 274.589844 170.195312 274.691406 170.523438 274.757812 170.863281 C 274.828125 171.203125 274.863281 171.542969 274.863281 171.890625 C 274.863281 172.234375 274.828125 172.578125 274.757812 172.917969 C 274.691406 173.253906 274.589844 173.582031 274.453125 173.902344 C 274.316406 174.21875 274.152344 174.523438 273.957031 174.804688 C 273.761719 175.089844 273.539062 175.355469 273.289062 175.59375 C 273.039062 175.832031 272.769531 176.046875 272.476562 176.230469 C 272.183594 176.417969 271.878906 176.570312 271.554688 176.695312 C 271.230469 176.816406 270.898438 176.90625 270.558594 176.964844 C 270.21875 177.019531 269.875 177.039062 269.53125 177.027344 L 197.644531 177.027344 C 197.316406 177.015625 196.992188 176.972656 196.671875 176.894531 C 196.351562 176.820312 196.039062 176.714844 195.742188 176.582031 C 195.441406 176.449219 195.15625 176.285156 194.886719 176.097656 C 194.617188 175.90625 194.367188 175.691406 194.140625 175.457031 C 193.910156 175.21875 193.707031 174.960938 193.527344 174.683594 C 193.347656 174.410156 193.199219 174.117188 193.074219 173.8125 C 192.953125 173.507812 192.859375 173.191406 192.796875 172.867188 C 192.734375 172.546875 192.703125 172.21875 192.703125 171.890625 C 192.703125 171.558594 192.734375 171.234375 192.796875 170.910156 C 192.859375 170.585938 192.953125 170.273438 193.074219 169.96875 C 193.199219 169.660156 193.347656 169.371094 193.527344 169.09375 C 193.707031 168.816406 193.910156 168.5625 194.140625 168.324219 C 194.367188 168.085938 194.617188 167.871094 194.886719 167.683594 C 195.15625 167.492188 195.441406 167.332031 195.742188 167.199219 C 196.039062 167.0625 196.351562 166.957031 196.671875 166.882812 C 196.992188 166.808594 197.316406 166.765625 197.644531 166.75 Z M 197.644531 238.675781 L 233.585938 238.675781 C 233.933594 238.660156 234.277344 238.683594 234.617188 238.738281 C 234.957031 238.796875 235.289062 238.886719 235.613281 239.007812 C 235.9375 239.132812 236.242188 239.285156 236.535156 239.472656 C 236.828125 239.65625 237.097656 239.867188 237.347656 240.109375 C 237.597656 240.347656 237.816406 240.609375 238.015625 240.894531 C 238.210938 241.179688 238.375 241.480469 238.511719 241.800781 C 238.648438 242.117188 238.75 242.445312 238.816406 242.785156 C 238.886719 243.125 238.921875 243.464844 238.921875 243.8125 C 238.921875 244.160156 238.886719 244.5 238.816406 244.839844 C 238.75 245.179688 238.648438 245.507812 238.511719 245.824219 C 238.375 246.144531 238.210938 246.445312 238.015625 246.730469 C 237.816406 247.015625 237.597656 247.277344 237.347656 247.515625 C 237.097656 247.757812 236.828125 247.96875 236.535156 248.152344 C 236.242188 248.339844 235.9375 248.492188 235.613281 248.617188 C 235.289062 248.738281 234.957031 248.828125 234.617188 248.886719 C 234.277344 248.941406 233.933594 248.964844 233.585938 248.949219 L 197.644531 248.949219 C 197.316406 248.9375 196.992188 248.894531 196.671875 248.820312 C 196.351562 248.746094 196.039062 248.640625 195.742188 248.503906 C 195.441406 248.371094 195.15625 248.207031 194.886719 248.019531 C 194.617188 247.828125 194.367188 247.617188 194.140625 247.378906 C 193.910156 247.140625 193.707031 246.882812 193.527344 246.609375 C 193.347656 246.332031 193.199219 246.039062 193.074219 245.734375 C 192.953125 245.429688 192.859375 245.113281 192.796875 244.792969 C 192.734375 244.46875 192.703125 244.140625 192.703125 243.8125 C 192.703125 243.484375 192.734375 243.15625 192.796875 242.832031 C 192.859375 242.511719 192.953125 242.195312 193.074219 241.890625 C 193.199219 241.585938 193.347656 241.292969 193.527344 241.015625 C 193.707031 240.742188 193.910156 240.484375 194.140625 240.246094 C 194.367188 240.007812 194.617188 239.796875 194.886719 239.605469 C 195.15625 239.417969 195.441406 239.253906 195.742188 239.121094 C 196.039062 238.984375 196.351562 238.878906 196.671875 238.804688 C 196.992188 238.730469 197.316406 238.6875 197.644531 238.675781 Z M 197.644531 264.367188 L 269.53125 264.367188 C 269.875 264.355469 270.21875 264.375 270.558594 264.433594 C 270.898438 264.488281 271.230469 264.578125 271.554688 264.703125 C 271.878906 264.824219 272.183594 264.980469 272.476562 265.164062 C 272.769531 265.347656 273.039062 265.5625 273.289062 265.800781 C 273.539062 266.042969 273.761719 266.304688 273.957031 266.589844 C 274.152344 266.875 274.316406 267.175781 274.453125 267.492188 C 274.589844 267.8125 274.691406 268.140625 274.757812 268.480469 C 274.828125 268.816406 274.863281 269.160156 274.863281 269.503906 C 274.863281 269.851562 274.828125 270.195312 274.757812 270.53125 C 274.691406 270.871094 274.589844 271.199219 274.453125 271.519531 C 274.316406 271.835938 274.152344 272.136719 273.957031 272.421875 C 273.761719 272.707031 273.539062 272.96875 273.289062 273.210938 C 273.039062 273.449219 272.769531 273.660156 272.476562 273.847656 C 272.183594 274.03125 271.878906 274.1875 271.554688 274.308594 C 271.230469 274.433594 270.898438 274.523438 270.558594 274.578125 C 270.21875 274.636719 269.875 274.65625 269.53125 274.644531 L 197.644531 274.644531 C 197.316406 274.632812 196.992188 274.585938 196.671875 274.511719 C 196.351562 274.4375 196.039062 274.332031 195.742188 274.199219 C 195.441406 274.0625 195.15625 273.902344 194.886719 273.710938 C 194.617188 273.523438 194.367188 273.308594 194.140625 273.070312 C 193.910156 272.835938 193.707031 272.578125 193.527344 272.300781 C 193.347656 272.023438 193.199219 271.734375 193.074219 271.429688 C 192.953125 271.121094 192.859375 270.808594 192.796875 270.484375 C 192.734375 270.160156 192.703125 269.835938 192.703125 269.503906 C 192.703125 269.175781 192.734375 268.851562 192.796875 268.527344 C 192.859375 268.203125 192.953125 267.890625 193.074219 267.582031 C 193.199219 267.277344 193.347656 266.988281 193.527344 266.710938 C 193.707031 266.433594 193.910156 266.175781 194.140625 265.941406 C 194.367188 265.703125 194.617188 265.488281 194.886719 265.300781 C 195.15625 265.109375 195.441406 264.949219 195.742188 264.8125 C 196.039062 264.679688 196.351562 264.574219 196.671875 264.5 C 196.992188 264.425781 197.316406 264.378906 197.644531 264.367188 Z M 110.480469 135.289062 C 110.898438 134.867188 111.332031 134.472656 111.789062 134.09375 C 112.246094 133.71875 112.722656 133.367188 113.210938 133.035156 C 113.703125 132.707031 114.210938 132.402344 114.730469 132.121094 C 115.253906 131.84375 115.785156 131.589844 116.332031 131.363281 C 116.878906 131.136719 117.433594 130.9375 118 130.765625 C 118.566406 130.589844 119.136719 130.449219 119.71875 130.332031 C 120.296875 130.214844 120.882812 130.128906 121.472656 130.070312 C 122.058594 130.011719 122.648438 129.984375 123.242188 129.984375 C 123.832031 129.984375 124.421875 130.011719 125.011719 130.070312 C 125.601562 130.128906 126.183594 130.214844 126.765625 130.332031 C 127.34375 130.449219 127.917969 130.589844 128.484375 130.765625 C 129.050781 130.9375 129.605469 131.136719 130.152344 131.363281 C 130.695312 131.589844 131.230469 131.84375 131.753906 132.121094 C 132.273438 132.402344 132.78125 132.707031 133.269531 133.035156 C 133.761719 133.367188 134.234375 133.71875 134.691406 134.09375 C 135.148438 134.472656 135.585938 134.867188 136.003906 135.289062 C 136.425781 134.878906 136.863281 134.492188 137.324219 134.125 C 137.78125 133.761719 138.257812 133.417969 138.75 133.097656 C 139.242188 132.78125 139.75 132.484375 140.269531 132.214844 C 140.789062 131.945312 141.324219 131.699219 141.867188 131.484375 C 142.410156 131.265625 142.964844 131.074219 143.527344 130.910156 C 144.089844 130.746094 144.660156 130.609375 145.238281 130.5 C 145.8125 130.390625 146.394531 130.3125 146.980469 130.257812 C 147.5625 130.207031 148.148438 130.183594 148.734375 130.1875 C 149.320312 130.191406 149.90625 130.226562 150.488281 130.289062 C 151.074219 130.351562 151.652344 130.441406 152.226562 130.558594 C 152.800781 130.675781 153.367188 130.824219 153.929688 130.996094 C 154.488281 131.171875 155.039062 131.371094 155.582031 131.597656 C 156.121094 131.824219 156.648438 132.078125 157.167969 132.355469 C 157.683594 132.636719 158.183594 132.9375 158.671875 133.265625 C 159.15625 133.59375 159.628906 133.945312 160.078125 134.316406 C 160.53125 134.691406 160.964844 135.085938 161.378906 135.5 C 161.792969 135.917969 162.1875 136.351562 162.558594 136.804688 C 162.929688 137.261719 163.28125 137.730469 163.605469 138.21875 C 163.933594 138.707031 164.234375 139.210938 164.511719 139.726562 C 164.789062 140.242188 165.039062 140.773438 165.265625 141.316406 C 165.488281 141.855469 165.6875 142.410156 165.859375 142.96875 C 166.03125 143.53125 166.175781 144.097656 166.292969 144.675781 C 166.410156 145.25 166.5 145.828125 166.558594 146.414062 C 166.617188 146.996094 166.652344 147.582031 166.652344 148.167969 C 166.65625 148.753906 166.632812 149.339844 166.578125 149.925781 C 166.523438 150.511719 166.441406 151.089844 166.332031 151.667969 C 166.222656 152.242188 166.082031 152.8125 165.917969 153.375 C 165.753906 153.9375 165.558594 154.492188 165.339844 155.035156 C 165.121094 155.582031 164.875 156.113281 164.605469 156.632812 C 164.332031 157.152344 164.035156 157.660156 163.714844 158.152344 C 163.394531 158.644531 163.050781 159.117188 162.683594 159.574219 C 162.316406 160.035156 161.929688 160.472656 161.519531 160.890625 L 136.003906 186.496094 L 110.480469 160.890625 C 110.0625 160.472656 109.664062 160.035156 109.289062 159.574219 C 108.914062 159.117188 108.5625 158.640625 108.234375 158.148438 C 107.90625 157.652344 107.601562 157.144531 107.324219 156.621094 C 107.046875 156.097656 106.792969 155.5625 106.566406 155.015625 C 106.339844 154.46875 106.140625 153.910156 105.972656 153.34375 C 105.800781 152.777344 105.65625 152.203125 105.539062 151.621094 C 105.425781 151.039062 105.339844 150.453125 105.28125 149.863281 C 105.222656 149.273438 105.195312 148.683594 105.195312 148.089844 C 105.195312 147.496094 105.222656 146.90625 105.28125 146.316406 C 105.339844 145.726562 105.425781 145.140625 105.539062 144.558594 C 105.65625 143.980469 105.800781 143.40625 105.972656 142.835938 C 106.140625 142.269531 106.339844 141.710938 106.566406 141.164062 C 106.792969 140.617188 107.046875 140.082031 107.324219 139.558594 C 107.601562 139.035156 107.90625 138.527344 108.234375 138.035156 C 108.5625 137.539062 108.914062 137.066406 109.289062 136.605469 C 109.664062 136.148438 110.0625 135.707031 110.480469 135.289062 Z M 110.480469 232.898438 C 110.898438 232.476562 111.332031 232.078125 111.789062 231.703125 C 112.246094 231.328125 112.722656 230.972656 113.210938 230.644531 C 113.703125 230.316406 114.210938 230.011719 114.730469 229.730469 C 115.253906 229.453125 115.785156 229.199219 116.332031 228.972656 C 116.878906 228.746094 117.433594 228.542969 118 228.371094 C 118.566406 228.199219 119.136719 228.054688 119.71875 227.941406 C 120.296875 227.824219 120.882812 227.738281 121.472656 227.679688 C 122.058594 227.621094 122.648438 227.59375 123.242188 227.59375 C 123.832031 227.59375 124.421875 227.621094 125.011719 227.679688 C 125.601562 227.738281 126.183594 227.824219 126.765625 227.941406 C 127.34375 228.054688 127.917969 228.199219 128.484375 228.371094 C 129.050781 228.542969 129.605469 228.746094 130.152344 228.972656 C 130.695312 229.199219 131.230469 229.453125 131.753906 229.730469 C 132.273438 230.011719 132.78125 230.316406 133.269531 230.644531 C 133.761719 230.972656 134.234375 231.328125 134.691406 231.703125 C 135.148438 232.078125 135.585938 232.476562 136.003906 232.898438 C 136.425781 232.488281 136.863281 232.101562 137.324219 231.734375 C 137.78125 231.371094 138.257812 231.027344 138.75 230.707031 C 139.242188 230.386719 139.75 230.09375 140.269531 229.824219 C 140.789062 229.554688 141.324219 229.308594 141.867188 229.089844 C 142.410156 228.875 142.964844 228.683594 143.527344 228.519531 C 144.089844 228.355469 144.660156 228.21875 145.238281 228.109375 C 145.8125 228 146.394531 227.917969 146.980469 227.867188 C 147.5625 227.816406 148.148438 227.792969 148.734375 227.796875 C 149.320312 227.800781 149.90625 227.835938 150.488281 227.898438 C 151.074219 227.960938 151.652344 228.050781 152.226562 228.167969 C 152.800781 228.285156 153.367188 228.433594 153.929688 228.605469 C 154.488281 228.777344 155.039062 228.980469 155.582031 229.207031 C 156.121094 229.433594 156.648438 229.6875 157.167969 229.964844 C 157.683594 230.246094 158.183594 230.546875 158.671875 230.875 C 159.15625 231.203125 159.625 231.554688 160.078125 231.925781 C 160.53125 232.300781 160.964844 232.695312 161.378906 233.109375 C 161.792969 233.527344 162.1875 233.960938 162.558594 234.414062 C 162.929688 234.867188 163.28125 235.339844 163.605469 235.828125 C 163.929688 236.316406 164.234375 236.816406 164.511719 237.335938 C 164.789062 237.851562 165.039062 238.382812 165.265625 238.921875 C 165.488281 239.464844 165.6875 240.015625 165.859375 240.578125 C 166.03125 241.140625 166.175781 241.707031 166.292969 242.28125 C 166.410156 242.859375 166.5 243.4375 166.558594 244.019531 C 166.617188 244.605469 166.648438 245.191406 166.652344 245.777344 C 166.65625 246.363281 166.632812 246.949219 166.578125 247.535156 C 166.523438 248.117188 166.441406 248.699219 166.332031 249.277344 C 166.222656 249.851562 166.082031 250.421875 165.917969 250.984375 C 165.753906 251.546875 165.558594 252.101562 165.339844 252.644531 C 165.121094 253.191406 164.875 253.722656 164.601562 254.242188 C 164.332031 254.761719 164.035156 255.269531 163.714844 255.761719 C 163.394531 256.25 163.050781 256.726562 162.683594 257.183594 C 162.316406 257.640625 161.929688 258.082031 161.519531 258.5 L 136.003906 284.105469 L 110.480469 258.5 C 110.0625 258.082031 109.664062 257.640625 109.289062 257.183594 C 108.914062 256.722656 108.5625 256.25 108.234375 255.753906 C 107.90625 255.261719 107.601562 254.753906 107.324219 254.230469 C 107.046875 253.707031 106.792969 253.171875 106.566406 252.625 C 106.339844 252.078125 106.140625 251.519531 105.972656 250.953125 C 105.800781 250.386719 105.65625 249.8125 105.539062 249.230469 C 105.425781 248.648438 105.339844 248.0625 105.28125 247.472656 C 105.222656 246.882812 105.195312 246.292969 105.195312 245.699219 C 105.195312 245.105469 105.222656 244.515625 105.28125 243.925781 C 105.339844 243.335938 105.425781 242.75 105.539062 242.167969 C 105.65625 241.585938 105.800781 241.011719 105.972656 240.445312 C 106.140625 239.878906 106.339844 239.320312 106.566406 238.773438 C 106.792969 238.226562 107.046875 237.691406 107.324219 237.167969 C 107.601562 236.644531 107.90625 236.136719 108.234375 235.644531 C 108.5625 235.148438 108.914062 234.671875 109.289062 234.214844 C 109.664062 233.757812 110.0625 233.316406 110.480469 232.898438 Z M 110.480469 232.898438 " fill-opacity="1" fill-rule="nonzero"/></svg>