<svg xmlns="http://www.w3.org/2000/svg" xmlns:xlink="http://www.w3.org/1999/xlink" width="500" zoomAndPan="magnify" viewBox="0 0 375 374.999991" height="500" preserveAspectRatio="xMidYMid meet" version="1.0"><defs><clipPath id="525fd3ccf8"><path d="M 2.261719 34.386719 L 372.761719 34.386719 L 372.761719 337.386719 L 2.261719 337.386719 Z M 2.261719 34.386719 " clip-rule="nonzero"/></clipPath></defs><g clip-path="url(#525fd3ccf8)"><path fill="#000000" d="M 134.644531 34.324219 C 120.152344 34.324219 108.210938 46.257812 108.210938 60.742188 L 108.210938 78.355469 L 99.398438 78.355469 C 99.398438 68.75 91.386719 60.742188 81.773438 60.742188 L 72.964844 60.742188 C 63.351562 60.742188 55.339844 68.75 55.339844 78.355469 C 26.203125 78.355469 2.46875 102.074219 2.46875 131.195312 L 2.46875 241.28125 C 2.46875 270.402344 26.199219 294.121094 55.339844 294.121094 L 156.839844 294.121094 C 177.566406 320.375 209.589844 337.328125 245.566406 337.328125 C 282.773438 337.328125 315.738281 319.179688 336.355469 291.367188 C 357.351562 284.367188 372.566406 264.578125 372.566406 241.28125 L 372.566406 131.199219 C 372.566406 102.078125 348.832031 78.359375 319.695312 78.359375 L 258.011719 78.359375 L 258.011719 60.746094 C 258.011719 46.261719 246.070312 34.328125 231.578125 34.328125 L 134.644531 34.328125 Z M 134.644531 51.9375 L 231.578125 51.9375 C 236.609375 51.9375 240.386719 55.710938 240.386719 60.742188 L 240.386719 95.96875 L 319.695312 95.96875 C 339.375 95.96875 354.941406 111.527344 354.941406 131.199219 L 354.941406 165.40625 C 348.988281 160.0625 341.78125 156.171875 333.875 153.957031 C 313.140625 128.019531 281.285156 111.328125 245.566406 111.328125 C 237.472656 111.328125 229.605469 112.210938 221.992188 113.832031 C 214.988281 111.945312 207.675781 110.804688 200.074219 110.804688 C 169.007812 110.804688 141.78125 127.257812 126.4375 151.835938 L 55.339844 151.835938 C 41.796875 151.835938 29.457031 156.996094 20.089844 165.40625 L 20.089844 131.195312 C 20.089844 111.527344 35.660156 95.96875 55.339844 95.96875 L 125.832031 95.96875 L 125.832031 60.742188 C 125.832031 55.710938 129.609375 51.9375 134.644531 51.9375 Z M 165.488281 69.550781 C 158.316406 69.550781 152.269531 75.59375 152.269531 82.761719 C 152.269531 89.925781 158.316406 95.96875 165.488281 95.96875 L 200.734375 95.96875 C 207.90625 95.96875 213.953125 89.925781 213.953125 82.761719 C 213.953125 75.59375 207.90625 69.550781 200.734375 69.550781 Z M 200.074219 119.609375 C 200.992188 119.609375 201.867188 119.742188 202.773438 119.773438 C 161.605469 136.679688 132.496094 177.164062 132.496094 224.324219 C 132.496094 228.859375 132.828125 233.304688 133.351562 237.699219 C 126.242188 225.972656 122.089844 212.273438 122.089844 197.546875 C 122.089844 154.476562 156.980469 119.609375 200.074219 119.609375 Z M 245.566406 125.609375 C 300.171875 125.609375 344.34375 169.753906 344.34375 224.324219 C 344.34375 278.894531 300.171875 323.066406 245.566406 323.066406 C 190.960938 323.066406 146.761719 278.894531 146.761719 224.324219 C 146.761719 169.75 190.960938 125.609375 245.566406 125.609375 Z M 245.566406 138.734375 C 198.34375 138.734375 159.925781 177.132812 159.925781 224.324219 C 159.925781 271.515625 198.34375 309.914062 245.566406 309.914062 C 292.789062 309.914062 331.207031 271.515625 331.207031 224.324219 C 331.207031 177.132812 292.789062 138.734375 245.566406 138.734375 Z M 245.566406 147.542969 C 288.019531 147.542969 322.394531 181.894531 322.394531 224.324219 C 322.394531 227.015625 322.253906 229.660156 321.980469 232.277344 C 301.816406 212.8125 274.558594 200.65625 244.328125 200.65625 C 215.320312 200.65625 188.957031 211.800781 169.042969 229.882812 C 168.910156 228.039062 168.738281 226.203125 168.738281 224.324219 C 168.738281 181.894531 203.113281 147.542969 245.570312 147.542969 Z M 245.566406 147.542969 " fill-opacity="1" fill-rule="evenodd"/></g></svg>