<svg xmlns="http://www.w3.org/2000/svg" xmlns:xlink="http://www.w3.org/1999/xlink" width="500" zoomAndPan="magnify" viewBox="0 0 375 374.999991" height="500" preserveAspectRatio="xMidYMid meet" version="1.0"><defs><clipPath id="1ad8afa6ae"><path d="M 3.492188 37.5 L 371.742188 37.5 L 371.742188 332.25 L 3.492188 332.25 Z M 3.492188 37.5 " clip-rule="nonzero"/></clipPath></defs><g clip-path="url(#1ad8afa6ae)"><path fill="#000000" d="M 358.671875 126.664062 C 357.671875 126.046875 356.640625 125.496094 355.570312 125.011719 C 354.503906 124.527344 353.410156 124.109375 352.289062 123.765625 C 351.167969 123.421875 350.03125 123.148438 348.875 122.945312 C 347.71875 122.746094 346.554688 122.621094 345.382812 122.566406 C 344.214844 122.515625 343.042969 122.539062 341.875 122.632812 C 340.707031 122.730469 339.546875 122.902344 338.402344 123.148438 C 337.253906 123.390625 336.128906 123.707031 335.019531 124.09375 C 333.914062 124.484375 332.835938 124.941406 331.789062 125.464844 L 279.679688 151.53125 L 279.679688 138.820312 C 279.679688 137.917969 279.636719 137.011719 279.546875 136.113281 C 279.457031 135.210938 279.328125 134.316406 279.148438 133.429688 C 278.972656 132.542969 278.753906 131.667969 278.492188 130.800781 C 278.230469 129.933594 277.925781 129.082031 277.578125 128.246094 C 277.230469 127.410156 276.84375 126.59375 276.417969 125.796875 C 275.992188 124.996094 275.527344 124.222656 275.027344 123.46875 C 274.523438 122.71875 273.984375 121.992188 273.410156 121.292969 C 272.835938 120.59375 272.230469 119.921875 271.589844 119.28125 C 270.953125 118.644531 270.28125 118.035156 269.582031 117.460938 C 268.882812 116.886719 268.15625 116.347656 267.40625 115.847656 C 266.652344 115.34375 265.878906 114.878906 265.082031 114.453125 C 264.285156 114.027344 263.464844 113.640625 262.632812 113.292969 C 261.796875 112.945312 260.945312 112.640625 260.078125 112.378906 C 259.214844 112.117188 258.335938 111.898438 257.449219 111.71875 C 256.5625 111.542969 255.667969 111.410156 254.769531 111.324219 C 253.867188 111.234375 252.964844 111.1875 252.0625 111.1875 L 220.300781 111.1875 L 182.460938 50.492188 C 181.84375 49.5 181.164062 48.550781 180.421875 47.644531 C 179.683594 46.742188 178.890625 45.886719 178.042969 45.082031 C 177.195312 44.277344 176.296875 43.527344 175.355469 42.839844 C 174.410156 42.148438 173.429688 41.519531 172.40625 40.953125 C 171.382812 40.386719 170.328125 39.890625 169.242188 39.457031 C 168.15625 39.027344 167.046875 38.664062 165.917969 38.375 C 164.785156 38.082031 163.636719 37.863281 162.480469 37.71875 C 161.320312 37.574219 160.15625 37.5 158.988281 37.503906 L 58.730469 37.503906 C 58.125 37.503906 57.527344 37.5625 56.933594 37.679688 C 56.339844 37.796875 55.765625 37.972656 55.207031 38.203125 C 54.648438 38.4375 54.117188 38.71875 53.617188 39.054688 C 53.113281 39.390625 52.648438 39.773438 52.21875 40.203125 C 51.792969 40.628906 51.410156 41.09375 51.074219 41.597656 C 50.738281 42.101562 50.457031 42.628906 50.226562 43.1875 C 49.992188 43.75 49.820312 44.324219 49.699219 44.917969 C 49.582031 45.511719 49.523438 46.109375 49.523438 46.714844 C 49.523438 47.320312 49.582031 47.917969 49.699219 48.511719 C 49.820312 49.105469 49.992188 49.679688 50.226562 50.238281 C 50.457031 50.796875 50.738281 51.328125 51.074219 51.832031 C 51.410156 52.335938 51.792969 52.800781 52.21875 53.226562 C 52.648438 53.65625 53.113281 54.035156 53.617188 54.371094 C 54.117188 54.707031 54.648438 54.992188 55.207031 55.222656 C 55.765625 55.457031 56.339844 55.628906 56.933594 55.746094 C 57.527344 55.867188 58.125 55.925781 58.730469 55.925781 L 158.988281 55.925781 C 159.769531 55.921875 160.539062 56.019531 161.296875 56.214844 C 162.054688 56.410156 162.773438 56.695312 163.460938 57.074219 C 164.144531 57.453125 164.769531 57.914062 165.339844 58.449219 C 165.90625 58.988281 166.398438 59.589844 166.8125 60.253906 L 198.664062 111.1875 L 31.113281 111.1875 C 30.207031 111.1875 29.304688 111.234375 28.40625 111.324219 C 27.503906 111.410156 26.609375 111.542969 25.722656 111.71875 C 24.835938 111.898438 23.960938 112.117188 23.09375 112.378906 C 22.230469 112.640625 21.378906 112.945312 20.542969 113.292969 C 19.707031 113.640625 18.890625 114.027344 18.09375 114.453125 C 17.292969 114.878906 16.519531 115.34375 15.765625 115.847656 C 15.015625 116.347656 14.289062 116.886719 13.589844 117.460938 C 12.890625 118.035156 12.222656 118.644531 11.582031 119.28125 C 10.941406 119.921875 10.335938 120.59375 9.761719 121.292969 C 9.1875 121.992188 8.648438 122.71875 8.148438 123.46875 C 7.644531 124.222656 7.179688 124.996094 6.753906 125.796875 C 6.328125 126.59375 5.941406 127.410156 5.59375 128.246094 C 5.25 129.082031 4.945312 129.933594 4.683594 130.800781 C 4.417969 131.667969 4.199219 132.542969 4.023438 133.429688 C 3.847656 134.316406 3.714844 135.210938 3.625 136.113281 C 3.539062 137.011719 3.492188 137.917969 3.492188 138.820312 L 3.492188 166.453125 C 3.492188 167.058594 3.550781 167.65625 3.667969 168.25 C 3.789062 168.84375 3.960938 169.417969 4.195312 169.976562 C 4.425781 170.535156 4.707031 171.066406 5.042969 171.570312 C 5.378906 172.074219 5.761719 172.539062 6.1875 172.964844 C 6.617188 173.394531 7.082031 173.777344 7.585938 174.113281 C 8.085938 174.449219 8.617188 174.730469 9.175781 174.964844 C 9.734375 175.195312 10.308594 175.371094 10.902344 175.488281 C 11.496094 175.605469 12.09375 175.664062 12.699219 175.664062 C 13.304688 175.664062 13.902344 175.605469 14.496094 175.488281 C 15.089844 175.371094 15.664062 175.195312 16.222656 174.964844 C 16.78125 174.730469 17.3125 174.449219 17.8125 174.113281 C 18.316406 173.777344 18.78125 173.394531 19.210938 172.964844 C 19.636719 172.539062 20.019531 172.074219 20.355469 171.570312 C 20.691406 171.066406 20.972656 170.535156 21.203125 169.976562 C 21.4375 169.417969 21.609375 168.84375 21.730469 168.25 C 21.847656 167.65625 21.90625 167.058594 21.90625 166.453125 L 21.90625 138.820312 C 21.90625 138.214844 21.964844 137.617188 22.082031 137.023438 C 22.199219 136.429688 22.375 135.855469 22.605469 135.296875 C 22.835938 134.738281 23.121094 134.207031 23.457031 133.703125 C 23.792969 133.203125 24.175781 132.734375 24.601562 132.308594 C 25.03125 131.878906 25.496094 131.5 25.996094 131.164062 C 26.5 130.828125 27.03125 130.542969 27.589844 130.3125 C 28.148438 130.082031 28.722656 129.90625 29.316406 129.789062 C 29.910156 129.667969 30.507812 129.609375 31.113281 129.609375 L 252.0625 129.609375 C 252.667969 129.609375 253.265625 129.667969 253.859375 129.789062 C 254.449219 129.90625 255.027344 130.082031 255.585938 130.3125 C 256.144531 130.542969 256.671875 130.828125 257.175781 131.164062 C 257.679688 131.5 258.144531 131.878906 258.570312 132.308594 C 259 132.734375 259.378906 133.203125 259.714844 133.703125 C 260.050781 134.207031 260.335938 134.738281 260.566406 135.296875 C 260.796875 135.855469 260.972656 136.429688 261.089844 137.023438 C 261.207031 137.617188 261.269531 138.214844 261.269531 138.820312 L 261.269531 304.613281 C 261.269531 305.21875 261.207031 305.816406 261.089844 306.410156 C 260.972656 307.003906 260.796875 307.582031 260.566406 308.140625 C 260.335938 308.699219 260.050781 309.230469 259.714844 309.730469 C 259.378906 310.234375 259 310.699219 258.570312 311.128906 C 258.144531 311.554688 257.679688 311.9375 257.175781 312.273438 C 256.671875 312.609375 256.144531 312.890625 255.585938 313.125 C 255.027344 313.355469 254.449219 313.53125 253.859375 313.648438 C 253.265625 313.765625 252.667969 313.824219 252.0625 313.824219 L 31.113281 313.824219 C 30.507812 313.824219 29.910156 313.765625 29.316406 313.648438 C 28.722656 313.53125 28.148438 313.355469 27.589844 313.125 C 27.03125 312.890625 26.5 312.609375 25.996094 312.273438 C 25.496094 311.9375 25.03125 311.554688 24.601562 311.128906 C 24.175781 310.699219 23.792969 310.234375 23.457031 309.730469 C 23.121094 309.230469 22.835938 308.699219 22.605469 308.140625 C 22.375 307.582031 22.199219 307.003906 22.082031 306.410156 C 21.964844 305.816406 21.90625 305.21875 21.90625 304.613281 L 21.90625 203.296875 C 21.90625 202.691406 21.847656 202.09375 21.730469 201.5 C 21.609375 200.90625 21.4375 200.332031 21.203125 199.773438 C 20.972656 199.210938 20.691406 198.683594 20.355469 198.179688 C 20.019531 197.675781 19.636719 197.210938 19.210938 196.785156 C 18.78125 196.355469 18.316406 195.972656 17.8125 195.636719 C 17.3125 195.300781 16.78125 195.019531 16.222656 194.785156 C 15.664062 194.554688 15.089844 194.378906 14.496094 194.261719 C 13.902344 194.144531 13.304688 194.085938 12.699219 194.085938 C 12.09375 194.085938 11.496094 194.144531 10.902344 194.261719 C 10.308594 194.378906 9.734375 194.554688 9.175781 194.785156 C 8.617188 195.019531 8.085938 195.300781 7.585938 195.636719 C 7.082031 195.972656 6.617188 196.355469 6.1875 196.785156 C 5.761719 197.210938 5.378906 197.675781 5.042969 198.179688 C 4.707031 198.683594 4.425781 199.210938 4.195312 199.773438 C 3.960938 200.332031 3.789062 200.90625 3.667969 201.5 C 3.550781 202.09375 3.492188 202.691406 3.492188 203.296875 L 3.492188 304.613281 C 3.492188 305.519531 3.539062 306.421875 3.625 307.324219 C 3.714844 308.222656 3.847656 309.117188 4.023438 310.003906 C 4.199219 310.894531 4.417969 311.769531 4.683594 312.636719 C 4.945312 313.5 5.25 314.351562 5.59375 315.1875 C 5.941406 316.023438 6.328125 316.84375 6.753906 317.640625 C 7.179688 318.4375 7.644531 319.214844 8.148438 319.964844 C 8.648438 320.71875 9.1875 321.445312 9.761719 322.144531 C 10.335938 322.84375 10.941406 323.511719 11.582031 324.152344 C 12.222656 324.792969 12.890625 325.398438 13.589844 325.972656 C 14.289062 326.546875 15.015625 327.085938 15.765625 327.589844 C 16.519531 328.09375 17.292969 328.558594 18.09375 328.984375 C 18.890625 329.410156 19.707031 329.796875 20.542969 330.144531 C 21.378906 330.488281 22.230469 330.792969 23.09375 331.054688 C 23.960938 331.320312 24.835938 331.539062 25.722656 331.714844 C 26.609375 331.890625 27.503906 332.023438 28.40625 332.113281 C 29.304688 332.203125 30.207031 332.246094 31.113281 332.246094 L 252.0625 332.246094 C 252.964844 332.246094 253.867188 332.203125 254.769531 332.113281 C 255.667969 332.023438 256.5625 331.890625 257.449219 331.714844 C 258.335938 331.539062 259.214844 331.320312 260.078125 331.054688 C 260.945312 330.792969 261.796875 330.488281 262.632812 330.144531 C 263.464844 329.796875 264.285156 329.410156 265.082031 328.984375 C 265.878906 328.558594 266.652344 328.09375 267.40625 327.589844 C 268.15625 327.085938 268.882812 326.546875 269.582031 325.972656 C 270.28125 325.398438 270.953125 324.792969 271.589844 324.152344 C 272.230469 323.511719 272.835938 322.84375 273.410156 322.144531 C 273.984375 321.445312 274.523438 320.71875 275.027344 319.964844 C 275.527344 319.214844 275.992188 318.4375 276.417969 317.640625 C 276.84375 316.84375 277.230469 316.023438 277.578125 315.1875 C 277.925781 314.351562 278.230469 313.5 278.492188 312.636719 C 278.753906 311.769531 278.972656 310.894531 279.148438 310.003906 C 279.328125 309.117188 279.457031 308.222656 279.546875 307.324219 C 279.636719 306.421875 279.679688 305.519531 279.679688 304.613281 L 279.679688 291.902344 L 331.789062 317.96875 C 332.835938 318.496094 333.914062 318.953125 335.019531 319.339844 C 336.128906 319.726562 337.253906 320.042969 338.402344 320.289062 C 339.546875 320.535156 340.707031 320.703125 341.875 320.800781 C 343.042969 320.898438 344.214844 320.921875 345.382812 320.867188 C 346.554688 320.816406 347.71875 320.691406 348.875 320.488281 C 350.03125 320.289062 351.167969 320.015625 352.289062 319.671875 C 353.410156 319.324219 354.503906 318.910156 355.570312 318.425781 C 356.640625 317.941406 357.671875 317.390625 358.671875 316.773438 C 359.667969 316.152344 360.625 315.472656 361.535156 314.734375 C 362.449219 313.992188 363.308594 313.195312 364.117188 312.34375 C 364.929688 311.496094 365.683594 310.59375 366.378906 309.648438 C 367.074219 308.703125 367.707031 307.714844 368.277344 306.6875 C 368.847656 305.660156 369.347656 304.597656 369.78125 303.507812 C 370.21875 302.414062 370.582031 301.300781 370.875 300.160156 C 371.167969 299.023438 371.386719 297.871094 371.53125 296.707031 C 371.675781 295.539062 371.746094 294.367188 371.742188 293.191406 L 371.742188 150.242188 C 371.746094 149.066406 371.675781 147.898438 371.53125 146.730469 C 371.386719 145.5625 371.167969 144.410156 370.875 143.273438 C 370.582031 142.136719 370.21875 141.019531 369.78125 139.929688 C 369.347656 138.835938 368.847656 137.777344 368.277344 136.75 C 367.707031 135.722656 367.074219 134.734375 366.378906 133.789062 C 365.683594 132.839844 364.929688 131.941406 364.117188 131.089844 C 363.308594 130.238281 362.449219 129.445312 361.535156 128.703125 C 360.625 127.960938 359.667969 127.28125 358.671875 126.664062 Z M 353.332031 293.191406 C 353.332031 293.976562 353.234375 294.746094 353.039062 295.503906 C 352.847656 296.261719 352.558594 296.984375 352.179688 297.667969 C 351.800781 298.351562 351.34375 298.980469 350.804688 299.546875 C 350.269531 300.117188 349.667969 300.605469 349.003906 301.023438 C 348.324219 301.460938 347.597656 301.804688 346.828125 302.054688 C 346.058594 302.304688 345.269531 302.449219 344.460938 302.488281 C 343.652344 302.527344 342.855469 302.464844 342.0625 302.292969 C 341.273438 302.121094 340.515625 301.851562 339.796875 301.484375 L 279.679688 271.273438 L 279.679688 172.164062 L 339.980469 141.953125 C 340.699219 141.582031 341.457031 141.3125 342.246094 141.144531 C 343.039062 140.972656 343.839844 140.90625 344.644531 140.949219 C 345.453125 140.988281 346.242188 141.132812 347.011719 141.382812 C 347.785156 141.628906 348.507812 141.972656 349.1875 142.414062 C 349.851562 142.828125 350.453125 143.320312 350.988281 143.886719 C 351.527344 144.457031 351.988281 145.082031 352.363281 145.765625 C 352.742188 146.453125 353.03125 147.171875 353.226562 147.933594 C 353.417969 148.691406 353.515625 149.460938 353.515625 150.242188 Z M 95.554688 281.035156 C 98.265625 281.039062 100.84375 280.457031 103.289062 279.285156 L 191.761719 238.480469 C 192.558594 238.117188 193.328125 237.699219 194.070312 237.222656 C 194.808594 236.746094 195.511719 236.222656 196.175781 235.648438 C 196.839844 235.074219 197.460938 234.453125 198.035156 233.789062 C 198.609375 233.125 199.136719 232.421875 199.613281 231.683594 C 200.085938 230.945312 200.507812 230.175781 200.871094 229.375 C 201.238281 228.578125 201.542969 227.753906 201.792969 226.910156 C 202.039062 226.066406 202.226562 225.210938 202.351562 224.339844 C 202.476562 223.472656 202.539062 222.597656 202.539062 221.71875 C 202.539062 220.839844 202.476562 219.964844 202.351562 219.09375 C 202.226562 218.222656 202.039062 217.367188 201.792969 216.523438 C 201.542969 215.679688 201.238281 214.859375 200.871094 214.058594 C 200.507812 213.261719 200.085938 212.492188 199.613281 211.75 C 199.136719 211.011719 198.609375 210.3125 198.035156 209.648438 C 197.460938 208.984375 196.839844 208.363281 196.175781 207.789062 C 195.511719 207.210938 194.808594 206.6875 194.070312 206.214844 C 193.328125 205.738281 192.558594 205.320312 191.761719 204.953125 L 103.289062 164.152344 C 102.589844 163.828125 101.875 163.550781 101.144531 163.316406 C 100.410156 163.082031 99.667969 162.894531 98.910156 162.753906 C 98.15625 162.617188 97.394531 162.523438 96.625 162.476562 C 95.859375 162.433594 95.089844 162.4375 94.324219 162.488281 C 93.554688 162.539062 92.796875 162.640625 92.039062 162.785156 C 91.285156 162.933594 90.542969 163.125 89.8125 163.367188 C 89.082031 163.605469 88.371094 163.890625 87.675781 164.21875 C 86.980469 164.550781 86.308594 164.921875 85.660156 165.335938 C 85.011719 165.746094 84.390625 166.199219 83.800781 166.691406 C 83.207031 167.183594 82.648438 167.707031 82.121094 168.269531 C 81.597656 168.832031 81.109375 169.421875 80.65625 170.042969 C 80.203125 170.667969 79.792969 171.316406 79.421875 171.988281 C 79.050781 172.664062 78.726562 173.359375 78.441406 174.074219 C 78.15625 174.789062 77.921875 175.515625 77.726562 176.261719 C 77.535156 177.007812 77.390625 177.761719 77.292969 178.523438 C 77.195312 179.285156 77.144531 180.054688 77.144531 180.824219 L 77.144531 262.613281 C 77.144531 263.214844 77.171875 263.820312 77.230469 264.417969 C 77.289062 265.019531 77.378906 265.617188 77.496094 266.207031 C 77.613281 266.800781 77.761719 267.382812 77.9375 267.960938 C 78.109375 268.539062 78.3125 269.105469 78.542969 269.664062 C 78.773438 270.21875 79.03125 270.765625 79.316406 271.296875 C 79.601562 271.828125 79.910156 272.347656 80.246094 272.847656 C 80.582031 273.347656 80.941406 273.832031 81.324219 274.300781 C 81.703125 274.765625 82.109375 275.210938 82.535156 275.640625 C 82.960938 276.066406 83.410156 276.46875 83.875 276.851562 C 84.339844 277.234375 84.824219 277.59375 85.324219 277.929688 C 85.828125 278.265625 86.34375 278.574219 86.875 278.859375 C 87.40625 279.144531 87.953125 279.402344 88.507812 279.632812 C 89.066406 279.863281 89.632812 280.066406 90.210938 280.242188 C 90.789062 280.417969 91.371094 280.5625 91.964844 280.679688 C 92.554688 280.796875 93.152344 280.886719 93.75 280.945312 C 94.351562 281.003906 94.953125 281.035156 95.554688 281.035156 Z M 95.554688 180.824219 L 184.027344 221.71875 L 95.554688 262.613281 Z M 95.554688 180.824219 " fill-opacity="1" fill-rule="nonzero"/></g></svg>