<svg xmlns="http://www.w3.org/2000/svg" xmlns:xlink="http://www.w3.org/1999/xlink" width="45" zoomAndPan="magnify" viewBox="0 0 33.75 33.749999" height="45" preserveAspectRatio="xMidYMid meet" version="1.0"><defs><clipPath id="400597b65b"><path d="M 0 8.523438 L 33.5 8.523438 L 33.5 25.023438 L 0 25.023438 Z M 0 8.523438 " clip-rule="nonzero"/></clipPath><clipPath id="c8656469d9"><path d="M 0 8.523438 L 10 8.523438 L 10 25.023438 L 0 25.023438 Z M 0 8.523438 " clip-rule="nonzero"/></clipPath></defs><g clip-path="url(#400597b65b)"><path fill="#eed6d3" d="M 29.105469 12.292969 L 26.101562 12.292969 L 26.101562 9.847656 C 26.101562 9.128906 25.503906 8.535156 24.773438 8.535156 L 0 8.535156 L 6.09375 16.773438 L 0 25.007812 L 24.773438 25.007812 C 25.503906 25.007812 26.101562 24.417969 26.101562 23.695312 L 26.101562 21.25 L 29.175781 21.25 C 31.703125 21.25 33.75 19.203125 33.707031 16.695312 C 33.664062 14.238281 31.589844 12.292969 29.105469 12.292969 Z M 29.621094 18.777344 C 28.5 18.777344 27.585938 17.875 27.585938 16.773438 C 27.585938 15.660156 28.5 14.757812 29.621094 14.757812 C 30.746094 14.757812 31.660156 15.660156 31.660156 16.773438 C 31.660156 17.882812 30.746094 18.777344 29.621094 18.777344 Z M 29.621094 18.777344 " fill-opacity="1" fill-rule="nonzero"/></g><g clip-path="url(#c8656469d9)"><path fill="#eba1a1" d="M 9.582031 8.535156 L 9.582031 25.007812 L 0 25.007812 L 6.09375 16.773438 L 0 8.535156 Z M 9.582031 8.535156 " fill-opacity="1" fill-rule="nonzero"/></g><path fill="#eba1a1" d="M 23.800781 16.902344 C 23.800781 17.230469 23.765625 17.558594 23.703125 17.882812 C 23.636719 18.207031 23.539062 18.519531 23.414062 18.824219 C 23.285156 19.128906 23.128906 19.417969 22.941406 19.691406 C 22.757812 19.96875 22.546875 20.222656 22.308594 20.453125 C 22.074219 20.6875 21.816406 20.894531 21.539062 21.078125 C 21.261719 21.261719 20.96875 21.417969 20.660156 21.542969 C 20.351562 21.671875 20.035156 21.765625 19.707031 21.828125 C 19.378906 21.894531 19.046875 21.925781 18.714844 21.925781 C 18.382812 21.925781 18.050781 21.894531 17.722656 21.828125 C 17.394531 21.765625 17.078125 21.671875 16.769531 21.542969 C 16.460938 21.417969 16.167969 21.261719 15.890625 21.078125 C 15.613281 20.894531 15.355469 20.6875 15.121094 20.453125 C 14.882812 20.222656 14.671875 19.96875 14.488281 19.691406 C 14.300781 19.417969 14.144531 19.128906 14.015625 18.824219 C 13.890625 18.519531 13.792969 18.207031 13.726562 17.882812 C 13.664062 17.558594 13.628906 17.230469 13.628906 16.902344 C 13.628906 16.570312 13.664062 16.246094 13.726562 15.921875 C 13.792969 15.597656 13.890625 15.285156 14.015625 14.980469 C 14.144531 14.675781 14.300781 14.386719 14.488281 14.109375 C 14.671875 13.835938 14.882812 13.582031 15.121094 13.347656 C 15.355469 13.117188 15.613281 12.90625 15.890625 12.722656 C 16.167969 12.542969 16.460938 12.386719 16.769531 12.261719 C 17.078125 12.132812 17.394531 12.039062 17.722656 11.972656 C 18.050781 11.910156 18.382812 11.878906 18.714844 11.878906 C 19.046875 11.878906 19.378906 11.910156 19.707031 11.972656 C 20.035156 12.039062 20.351562 12.132812 20.660156 12.261719 C 20.96875 12.386719 21.261719 12.542969 21.539062 12.722656 C 21.816406 12.90625 22.074219 13.117188 22.308594 13.347656 C 22.546875 13.582031 22.757812 13.835938 22.941406 14.109375 C 23.128906 14.386719 23.285156 14.675781 23.414062 14.980469 C 23.539062 15.285156 23.636719 15.597656 23.703125 15.921875 C 23.765625 16.246094 23.800781 16.570312 23.800781 16.902344 Z M 23.800781 16.902344 " fill-opacity="1" fill-rule="nonzero"/><path fill="#f9f1f0" d="M 16.011719 14.515625 C 16.246094 14.296875 16.546875 14.1875 16.921875 14.1875 C 17.300781 14.1875 17.597656 14.296875 17.828125 14.515625 C 18.054688 14.734375 18.179688 15.046875 18.179688 15.453125 C 18.179688 15.859375 18.066406 16.164062 17.828125 16.390625 C 17.597656 16.605469 17.292969 16.71875 16.921875 16.71875 C 16.546875 16.71875 16.246094 16.605469 16.011719 16.390625 C 15.773438 16.171875 15.660156 15.859375 15.660156 15.453125 C 15.660156 15.046875 15.773438 14.734375 16.011719 14.515625 Z M 16.554688 15.445312 C 16.554688 15.78125 16.675781 15.957031 16.914062 15.957031 C 17.027344 15.957031 17.125 15.914062 17.1875 15.824219 C 17.25 15.738281 17.285156 15.617188 17.285156 15.445312 C 17.285156 15.097656 17.160156 14.933594 16.914062 14.933594 C 16.667969 14.933594 16.554688 15.105469 16.554688 15.445312 Z M 20.796875 14.265625 L 17.878906 19.53125 L 16.632812 19.53125 L 19.550781 14.265625 Z M 19.609375 17.414062 C 19.839844 17.195312 20.144531 17.085938 20.515625 17.085938 C 20.894531 17.085938 21.191406 17.195312 21.417969 17.414062 C 21.648438 17.632812 21.769531 17.941406 21.769531 18.351562 C 21.769531 18.757812 21.65625 19.0625 21.417969 19.289062 C 21.191406 19.503906 20.882812 19.617188 20.515625 19.617188 C 20.136719 19.617188 19.839844 19.503906 19.609375 19.289062 C 19.382812 19.070312 19.257812 18.757812 19.257812 18.351562 C 19.257812 17.941406 19.375 17.632812 19.609375 17.414062 Z M 20.242188 17.960938 C 20.179688 18.046875 20.144531 18.175781 20.144531 18.351562 C 20.144531 18.691406 20.269531 18.863281 20.507812 18.863281 C 20.621094 18.863281 20.71875 18.820312 20.777344 18.734375 C 20.839844 18.644531 20.875 18.523438 20.875 18.351562 C 20.875 18.175781 20.839844 18.054688 20.777344 17.96875 C 20.71875 17.882812 20.621094 17.839844 20.507812 17.839844 C 20.390625 17.832031 20.304688 17.875 20.242188 17.960938 Z M 20.242188 17.960938 " fill-opacity="1" fill-rule="nonzero"/></svg>