<svg xmlns="http://www.w3.org/2000/svg" xmlns:xlink="http://www.w3.org/1999/xlink" width="45" zoomAndPan="magnify" viewBox="0 0 33.75 33.749999" height="45" preserveAspectRatio="xMidYMid meet" version="1.0"><defs><clipPath id="3740832481"><path d="M 0 3.375 L 33.5 3.375 L 33.5 30.375 L 0 30.375 Z M 0 3.375 " clip-rule="nonzero"/></clipPath></defs><g clip-path="url(#3740832481)"><path fill="#000000" d="M 32.550781 11.542969 C 32.179688 11.3125 31.773438 11.1875 31.335938 11.167969 C 30.894531 11.148438 30.480469 11.234375 30.089844 11.433594 L 25.3125 13.820312 L 25.3125 12.65625 C 25.3125 12.320312 25.25 11.996094 25.121094 11.6875 C 24.992188 11.378906 24.808594 11.105469 24.570312 10.867188 C 24.332031 10.628906 24.058594 10.445312 23.75 10.316406 C 23.441406 10.1875 23.117188 10.125 22.78125 10.125 L 19.871094 10.125 L 16.402344 4.566406 C 16.171875 4.195312 15.863281 3.902344 15.480469 3.691406 C 15.097656 3.480469 14.6875 3.375 14.25 3.375 L 5.0625 3.375 C 4.828125 3.375 4.628906 3.457031 4.464844 3.621094 C 4.300781 3.785156 4.21875 3.984375 4.21875 4.21875 C 4.21875 4.453125 4.300781 4.652344 4.464844 4.816406 C 4.628906 4.980469 4.828125 5.0625 5.0625 5.0625 L 14.25 5.0625 C 14.5625 5.0625 14.800781 5.195312 14.96875 5.460938 L 17.886719 10.125 L 2.53125 10.125 C 2.195312 10.125 1.871094 10.1875 1.5625 10.316406 C 1.253906 10.445312 0.980469 10.628906 0.742188 10.867188 C 0.503906 11.105469 0.320312 11.378906 0.191406 11.6875 C 0.0625 11.996094 0 12.320312 0 12.65625 L 0 15.1875 C 0 15.421875 0.0820312 15.621094 0.246094 15.785156 C 0.410156 15.949219 0.609375 16.03125 0.84375 16.03125 C 1.078125 16.03125 1.277344 15.949219 1.441406 15.785156 C 1.605469 15.621094 1.6875 15.421875 1.6875 15.1875 L 1.6875 12.65625 C 1.6875 12.421875 1.769531 12.222656 1.933594 12.058594 C 2.097656 11.894531 2.296875 11.8125 2.53125 11.8125 L 22.78125 11.8125 C 23.015625 11.8125 23.214844 11.894531 23.378906 12.058594 C 23.542969 12.222656 23.625 12.421875 23.625 12.65625 L 23.625 27.84375 C 23.625 28.078125 23.542969 28.277344 23.378906 28.441406 C 23.214844 28.605469 23.015625 28.6875 22.78125 28.6875 L 2.53125 28.6875 C 2.296875 28.6875 2.097656 28.605469 1.933594 28.441406 C 1.769531 28.277344 1.6875 28.078125 1.6875 27.84375 L 1.6875 18.5625 C 1.6875 18.328125 1.605469 18.128906 1.441406 17.964844 C 1.277344 17.800781 1.078125 17.71875 0.84375 17.71875 C 0.609375 17.71875 0.410156 17.800781 0.246094 17.964844 C 0.0820312 18.128906 0 18.328125 0 18.5625 L 0 27.84375 C 0 28.179688 0.0625 28.503906 0.191406 28.8125 C 0.320312 29.121094 0.503906 29.394531 0.742188 29.632812 C 0.980469 29.871094 1.253906 30.054688 1.5625 30.183594 C 1.871094 30.3125 2.195312 30.375 2.53125 30.375 L 22.78125 30.375 C 23.117188 30.375 23.441406 30.3125 23.75 30.183594 C 24.058594 30.054688 24.332031 29.871094 24.570312 29.632812 C 24.808594 29.394531 24.992188 29.121094 25.121094 28.8125 C 25.25 28.503906 25.3125 28.179688 25.3125 27.84375 L 25.3125 26.679688 L 30.089844 29.066406 C 30.480469 29.265625 30.894531 29.351562 31.335938 29.332031 C 31.773438 29.3125 32.179688 29.1875 32.550781 28.957031 C 32.925781 28.726562 33.21875 28.417969 33.433594 28.035156 C 33.644531 27.648438 33.75 27.238281 33.75 26.796875 L 33.75 13.703125 C 33.75 13.261719 33.644531 12.851562 33.433594 12.464844 C 33.21875 12.082031 32.925781 11.773438 32.550781 11.542969 Z M 32.0625 26.796875 C 32.0625 27.109375 31.929688 27.347656 31.664062 27.515625 C 31.394531 27.691406 31.113281 27.707031 30.820312 27.558594 L 25.3125 24.789062 L 25.3125 15.710938 L 30.839844 12.941406 C 31.128906 12.792969 31.410156 12.808594 31.683594 12.984375 C 31.949219 13.152344 32.078125 13.390625 32.078125 13.703125 Z M 8.4375 25.683594 C 8.6875 25.683594 8.921875 25.628906 9.144531 25.523438 L 17.253906 21.785156 C 17.554688 21.648438 17.796875 21.441406 17.972656 21.164062 C 18.152344 20.886719 18.242188 20.582031 18.242188 20.25 C 18.242188 19.917969 18.152344 19.613281 17.972656 19.335938 C 17.796875 19.058594 17.554688 18.851562 17.253906 18.714844 L 9.144531 14.976562 C 9.019531 14.917969 8.882812 14.875 8.746094 14.847656 C 8.605469 14.824219 8.464844 14.816406 8.324219 14.824219 C 8.183594 14.832031 8.046875 14.859375 7.910156 14.90625 C 7.777344 14.949219 7.648438 15.007812 7.53125 15.085938 C 7.410156 15.160156 7.304688 15.25 7.207031 15.355469 C 7.109375 15.457031 7.027344 15.570312 6.957031 15.695312 C 6.890625 15.820312 6.839844 15.949219 6.804688 16.085938 C 6.769531 16.222656 6.75 16.363281 6.75 16.503906 L 6.75 23.996094 C 6.75 24.21875 6.792969 24.433594 6.878906 24.640625 C 6.964844 24.847656 7.085938 25.03125 7.246094 25.191406 C 7.402344 25.347656 7.585938 25.46875 7.792969 25.554688 C 8 25.640625 8.214844 25.683594 8.4375 25.683594 Z M 8.4375 16.503906 L 16.546875 20.25 L 8.4375 23.996094 Z M 8.4375 16.503906 " fill-opacity="1" fill-rule="nonzero"/></g></svg>