<svg xmlns="http://www.w3.org/2000/svg" xmlns:xlink="http://www.w3.org/1999/xlink" width="45" zoomAndPan="magnify" viewBox="0 0 33.75 33.749999" height="45" preserveAspectRatio="xMidYMid meet" version="1.0"><defs><clipPath id="91c3561b18"><path d="M 6.371094 18 L 27.371094 18 L 27.371094 33.5 L 6.371094 33.5 Z M 6.371094 18 " clip-rule="nonzero"/></clipPath><clipPath id="4d3b258ddd"><path d="M 6.371094 13 L 27.371094 13 L 27.371094 19 L 6.371094 19 Z M 6.371094 13 " clip-rule="nonzero"/></clipPath><clipPath id="f673336287"><path d="M 12 18 L 22 18 L 22 33.5 L 12 33.5 Z M 12 18 " clip-rule="nonzero"/></clipPath></defs><path fill="#eba1a1" d="M 12.570312 14.265625 C 12.414062 14.265625 12.265625 14.167969 12.210938 14.011719 L 10.054688 7.9375 C 9.984375 7.742188 10.085938 7.523438 10.285156 7.453125 C 10.484375 7.382812 10.703125 7.484375 10.773438 7.683594 L 12.929688 13.753906 C 13 13.953125 12.894531 14.171875 12.695312 14.242188 C 12.65625 14.257812 12.613281 14.265625 12.570312 14.265625 Z M 21.179688 14.265625 C 21.136719 14.265625 21.09375 14.257812 21.054688 14.242188 C 20.855469 14.171875 20.75 13.953125 20.820312 13.753906 L 22.976562 7.683594 C 23.046875 7.484375 23.265625 7.382812 23.464844 7.453125 C 23.664062 7.523438 23.765625 7.742188 23.695312 7.9375 L 21.539062 14.011719 C 21.484375 14.167969 21.335938 14.265625 21.179688 14.265625 Z M 18.886719 10.140625 C 18.847656 10.140625 18.808594 10.136719 18.769531 10.125 C 18.644531 10.085938 18.550781 9.984375 18.515625 9.859375 L 17.101562 4.574219 C 17.046875 4.371094 17.167969 4.164062 17.371094 4.109375 C 17.574219 4.054688 17.785156 4.175781 17.839844 4.378906 L 19.097656 9.085938 L 21.917969 6.738281 C 22.078125 6.601562 22.320312 6.625 22.457031 6.785156 C 22.589844 6.949219 22.566406 7.1875 22.40625 7.324219 L 19.128906 10.054688 C 19.058594 10.109375 18.972656 10.140625 18.886719 10.140625 Z M 14.863281 10.140625 C 14.777344 10.140625 14.691406 10.109375 14.621094 10.054688 L 11.34375 7.320312 C 11.183594 7.1875 11.160156 6.945312 11.296875 6.785156 C 11.429688 6.621094 11.671875 6.601562 11.832031 6.734375 L 14.652344 9.085938 L 15.914062 4.378906 C 15.96875 4.171875 16.175781 4.054688 16.378906 4.105469 C 16.582031 4.160156 16.703125 4.371094 16.648438 4.574219 L 15.234375 9.859375 C 15.199219 9.984375 15.105469 10.082031 14.980469 10.121094 C 14.941406 10.136719 14.902344 10.140625 14.863281 10.140625 Z M 14.863281 10.140625 " fill-opacity="1" fill-rule="nonzero"/><path fill="#eba1a1" d="M 21.773438 12.589844 L 11.976562 12.589844 C 11.765625 12.589844 11.59375 12.421875 11.59375 12.210938 C 11.59375 12 11.765625 11.828125 11.976562 11.828125 L 21.777344 11.828125 C 21.984375 11.828125 22.15625 12 22.15625 12.210938 C 22.15625 12.421875 21.984375 12.589844 21.773438 12.589844 Z M 21.773438 12.589844 " fill-opacity="1" fill-rule="nonzero"/><path fill="#eba1a1" d="M 9.910156 8.253906 C 8.550781 8.253906 7.441406 7.148438 7.441406 5.785156 C 7.441406 4.425781 8.550781 3.316406 9.910156 3.316406 C 11.273438 3.316406 12.378906 4.425781 12.378906 5.785156 C 12.378906 7.148438 11.273438 8.253906 9.910156 8.253906 Z M 9.910156 4.082031 C 8.972656 4.082031 8.207031 4.847656 8.207031 5.785156 C 8.207031 6.726562 8.972656 7.492188 9.910156 7.492188 C 10.851562 7.492188 11.617188 6.726562 11.617188 5.785156 C 11.617188 4.847656 10.851562 4.082031 9.910156 4.082031 Z M 9.910156 4.082031 " fill-opacity="1" fill-rule="nonzero"/><path fill="#eba1a1" d="M 23.839844 8.253906 C 22.476562 8.253906 21.371094 7.148438 21.371094 5.785156 C 21.371094 4.425781 22.476562 3.316406 23.839844 3.316406 C 25.199219 3.316406 26.308594 4.425781 26.308594 5.785156 C 26.308594 7.148438 25.199219 8.253906 23.839844 8.253906 Z M 23.839844 4.082031 C 22.898438 4.082031 22.132812 4.847656 22.132812 5.785156 C 22.132812 6.726562 22.898438 7.492188 23.839844 7.492188 C 24.78125 7.492188 25.542969 6.726562 25.542969 5.785156 C 25.542969 4.847656 24.777344 4.082031 23.839844 4.082031 Z M 23.839844 4.082031 " fill-opacity="1" fill-rule="nonzero"/><path fill="#eba1a1" d="M 16.875 4.945312 C 15.511719 4.945312 14.40625 3.835938 14.40625 2.476562 C 14.40625 1.113281 15.511719 0.0078125 16.875 0.0078125 C 18.234375 0.0078125 19.34375 1.113281 19.34375 2.476562 C 19.34375 3.835938 18.234375 4.945312 16.875 4.945312 Z M 16.875 0.769531 C 15.933594 0.769531 15.167969 1.535156 15.167969 2.476562 C 15.167969 3.414062 15.933594 4.179688 16.875 4.179688 C 17.816406 4.179688 18.582031 3.414062 18.582031 2.476562 C 18.582031 1.535156 17.816406 0.769531 16.875 0.769531 Z M 16.875 0.769531 " fill-opacity="1" fill-rule="nonzero"/><g clip-path="url(#91c3561b18)"><path fill="#eba1a1" d="M 16.875 33.734375 C 16.75 33.734375 16.628906 33.671875 16.558594 33.566406 L 6.492188 18.753906 C 6.375 18.582031 6.417969 18.34375 6.59375 18.226562 C 6.765625 18.105469 7.003906 18.152344 7.125 18.328125 L 16.875 32.675781 L 26.625 18.328125 C 26.746094 18.152344 26.980469 18.105469 27.15625 18.226562 C 27.332031 18.34375 27.375 18.582031 27.257812 18.753906 L 17.191406 33.566406 C 17.117188 33.671875 17 33.734375 16.875 33.734375 Z M 16.875 33.734375 " fill-opacity="1" fill-rule="nonzero"/></g><g clip-path="url(#4d3b258ddd)"><path fill="#eba1a1" d="M 26.941406 18.921875 L 6.808594 18.921875 C 6.671875 18.921875 6.542969 18.847656 6.476562 18.730469 C 6.410156 18.609375 6.410156 18.460938 6.480469 18.34375 L 9.292969 13.6875 C 9.363281 13.570312 9.488281 13.5 9.621094 13.5 L 24.128906 13.5 C 24.261719 13.5 24.386719 13.570312 24.457031 13.6875 L 27.269531 18.34375 C 27.339844 18.460938 27.339844 18.609375 27.273438 18.730469 C 27.207031 18.847656 27.078125 18.921875 26.941406 18.921875 Z M 7.484375 18.160156 L 26.265625 18.160156 L 23.914062 14.265625 L 9.835938 14.265625 Z M 7.484375 18.160156 " fill-opacity="1" fill-rule="nonzero"/></g><path fill="#eba1a1" d="M 20.917969 18.921875 C 20.746094 18.921875 20.589844 18.804688 20.546875 18.628906 L 19.417969 13.972656 C 19.367188 13.769531 19.492188 13.5625 19.699219 13.511719 C 19.902344 13.460938 20.109375 13.589844 20.160156 13.792969 L 21.289062 18.449219 C 21.335938 18.65625 21.210938 18.863281 21.007812 18.910156 C 20.976562 18.917969 20.945312 18.921875 20.917969 18.921875 Z M 12.832031 18.921875 C 12.804688 18.921875 12.773438 18.917969 12.742188 18.910156 C 12.539062 18.863281 12.414062 18.65625 12.460938 18.449219 L 13.589844 13.792969 C 13.640625 13.589844 13.847656 13.460938 14.050781 13.511719 C 14.257812 13.5625 14.382812 13.769531 14.332031 13.972656 L 13.203125 18.628906 C 13.160156 18.804688 13.003906 18.921875 12.832031 18.921875 Z M 12.832031 18.921875 " fill-opacity="1" fill-rule="nonzero"/><g clip-path="url(#f673336287)"><path fill="#eba1a1" d="M 16.875 33.734375 C 16.703125 33.734375 16.550781 33.621094 16.507812 33.453125 L 12.464844 18.640625 C 12.410156 18.4375 12.527344 18.230469 12.730469 18.171875 C 12.933594 18.117188 13.144531 18.238281 13.199219 18.441406 L 16.875 31.90625 L 20.550781 18.441406 C 20.605469 18.238281 20.816406 18.117188 21.019531 18.171875 C 21.21875 18.230469 21.339844 18.4375 21.285156 18.640625 L 17.242188 33.453125 C 17.199219 33.621094 17.046875 33.734375 16.875 33.734375 Z M 16.875 33.734375 " fill-opacity="1" fill-rule="nonzero"/></g></svg>