<svg xmlns="http://www.w3.org/2000/svg" xmlns:xlink="http://www.w3.org/1999/xlink" width="45" zoomAndPan="magnify" viewBox="0 0 33.75 33.749999" height="45" preserveAspectRatio="xMidYMid meet" version="1.0"><defs><clipPath id="014deb7c77"><path d="M 0.992188 0 L 32.492188 0 L 32.492188 33.5 L 0.992188 33.5 Z M 0.992188 0 " clip-rule="nonzero"/></clipPath></defs><g clip-path="url(#014deb7c77)"><path fill="#eba1a1" d="M 11.820312 0.00390625 C 10.195312 0.00390625 8.867188 1.34375 8.867188 2.980469 C 8.867188 3.742188 9.15625 4.4375 9.625 4.964844 L 9.523438 4.964844 C 7.796875 4.964844 6.40625 3.566406 6.40625 1.824219 L 5.421875 1.824219 C 5.421875 3.078125 5.984375 4.207031 6.863281 4.964844 L 0.992188 4.964844 L 0.992188 11.914062 L 1.976562 11.914062 L 1.976562 33.746094 L 31.507812 33.746094 L 31.507812 11.914062 L 32.492188 11.914062 L 32.492188 4.964844 L 26.617188 4.964844 C 27.5 4.207031 28.0625 3.078125 28.0625 1.824219 L 27.078125 1.824219 C 27.078125 3.566406 25.6875 4.964844 23.960938 4.964844 L 23.855469 4.964844 C 24.328125 4.4375 24.617188 3.742188 24.617188 2.980469 C 24.617188 1.34375 23.289062 0.00390625 21.664062 0.00390625 C 20.882812 0.00390625 20.175781 0.382812 19.546875 0.886719 C 18.921875 1.394531 18.363281 2.042969 17.886719 2.683594 C 17.410156 3.324219 17.015625 3.960938 16.738281 4.4375 C 16.488281 3.996094 16.148438 3.421875 15.597656 2.683594 C 15.121094 2.042969 14.5625 1.394531 13.933594 0.886719 C 13.308594 0.382812 12.597656 0.00390625 11.820312 0.00390625 Z M 11.820312 0.996094 C 12.269531 0.996094 12.792969 1.238281 13.320312 1.664062 C 13.847656 2.085938 14.363281 2.679688 14.808594 3.277344 C 15.433594 4.117188 15.625 4.535156 15.855469 4.964844 L 11.820312 4.964844 C 10.726562 4.964844 9.851562 4.082031 9.851562 2.980469 C 9.851562 1.878906 10.726562 0.996094 11.820312 0.996094 Z M 21.664062 0.996094 C 22.757812 0.996094 23.632812 1.878906 23.632812 2.980469 C 23.632812 4.082031 22.757812 4.964844 21.664062 4.964844 L 17.625 4.964844 C 17.859375 4.535156 18.046875 4.117188 18.671875 3.277344 C 19.121094 2.679688 19.636719 2.085938 20.164062 1.664062 C 20.691406 1.238281 21.210938 0.996094 21.664062 0.996094 Z M 1.976562 5.957031 L 14.28125 5.957031 C 14.28125 6.09375 14.328125 6.210938 14.425781 6.308594 C 14.519531 6.40625 14.636719 6.453125 14.773438 6.453125 C 14.910156 6.453125 15.023438 6.40625 15.121094 6.308594 C 15.214844 6.210938 15.265625 6.09375 15.265625 5.957031 L 18.21875 5.957031 C 18.21875 6.09375 18.265625 6.210938 18.363281 6.308594 C 18.457031 6.40625 18.574219 6.453125 18.710938 6.453125 C 18.847656 6.453125 18.960938 6.40625 19.058594 6.308594 C 19.152344 6.210938 19.203125 6.09375 19.203125 5.957031 L 31.507812 5.957031 L 31.507812 10.921875 L 1.976562 10.921875 Z M 3.945312 6.949219 C 3.808594 6.949219 3.691406 7 3.597656 7.097656 C 3.5 7.191406 3.453125 7.308594 3.453125 7.445312 C 3.453125 7.582031 3.5 7.699219 3.597656 7.796875 C 3.691406 7.894531 3.808594 7.941406 3.945312 7.941406 C 4.082031 7.941406 4.195312 7.894531 4.292969 7.796875 C 4.386719 7.699219 4.4375 7.582031 4.4375 7.445312 C 4.4375 7.308594 4.386719 7.191406 4.292969 7.097656 C 4.195312 7 4.082031 6.949219 3.945312 6.949219 Z M 29.539062 6.949219 C 29.402344 6.949219 29.285156 7 29.191406 7.097656 C 29.09375 7.191406 29.046875 7.308594 29.046875 7.445312 C 29.046875 7.582031 29.09375 7.699219 29.191406 7.796875 C 29.285156 7.894531 29.402344 7.941406 29.539062 7.941406 C 29.675781 7.941406 29.789062 7.894531 29.886719 7.796875 C 29.980469 7.699219 30.03125 7.582031 30.03125 7.445312 C 30.03125 7.308594 29.980469 7.191406 29.886719 7.097656 C 29.789062 7 29.675781 6.949219 29.539062 6.949219 Z M 14.773438 7.445312 C 14.636719 7.445312 14.519531 7.496094 14.425781 7.59375 C 14.328125 7.6875 14.28125 7.804688 14.28125 7.941406 C 14.28125 8.082031 14.328125 8.195312 14.425781 8.292969 C 14.519531 8.390625 14.636719 8.4375 14.773438 8.4375 C 14.910156 8.4375 15.023438 8.390625 15.121094 8.292969 C 15.214844 8.195312 15.265625 8.082031 15.265625 7.941406 C 15.265625 7.804688 15.214844 7.6875 15.121094 7.59375 C 15.023438 7.496094 14.910156 7.445312 14.773438 7.445312 Z M 18.710938 7.445312 C 18.574219 7.445312 18.457031 7.496094 18.363281 7.59375 C 18.265625 7.6875 18.21875 7.804688 18.21875 7.941406 C 18.21875 8.082031 18.265625 8.195312 18.363281 8.292969 C 18.457031 8.390625 18.574219 8.4375 18.710938 8.4375 C 18.847656 8.4375 18.960938 8.390625 19.058594 8.292969 C 19.152344 8.195312 19.203125 8.082031 19.203125 7.941406 C 19.203125 7.804688 19.152344 7.6875 19.058594 7.59375 C 18.960938 7.496094 18.847656 7.445312 18.710938 7.445312 Z M 3.945312 8.933594 C 3.808594 8.933594 3.691406 8.984375 3.597656 9.082031 C 3.5 9.179688 3.453125 9.292969 3.453125 9.433594 C 3.453125 9.570312 3.5 9.6875 3.597656 9.78125 C 3.691406 9.878906 3.808594 9.929688 3.945312 9.929688 C 4.082031 9.929688 4.195312 9.878906 4.292969 9.78125 C 4.386719 9.6875 4.4375 9.570312 4.4375 9.433594 C 4.4375 9.292969 4.386719 9.179688 4.292969 9.082031 C 4.195312 8.984375 4.082031 8.933594 3.945312 8.933594 Z M 29.539062 8.933594 C 29.402344 8.933594 29.285156 8.984375 29.191406 9.082031 C 29.09375 9.179688 29.046875 9.292969 29.046875 9.433594 C 29.046875 9.570312 29.09375 9.6875 29.191406 9.78125 C 29.285156 9.878906 29.402344 9.929688 29.539062 9.929688 C 29.675781 9.929688 29.789062 9.878906 29.886719 9.78125 C 29.980469 9.6875 30.03125 9.570312 30.03125 9.433594 C 30.03125 9.292969 29.980469 9.179688 29.886719 9.082031 C 29.789062 8.984375 29.675781 8.933594 29.539062 8.933594 Z M 14.773438 9.433594 C 14.636719 9.433594 14.519531 9.480469 14.425781 9.578125 C 14.328125 9.675781 14.28125 9.789062 14.28125 9.929688 C 14.28125 10.066406 14.328125 10.183594 14.425781 10.277344 C 14.519531 10.375 14.636719 10.425781 14.773438 10.425781 C 14.910156 10.425781 15.023438 10.375 15.121094 10.277344 C 15.214844 10.183594 15.265625 10.066406 15.265625 9.929688 C 15.265625 9.789062 15.214844 9.675781 15.121094 9.578125 C 15.023438 9.480469 14.910156 9.433594 14.773438 9.433594 Z M 18.710938 9.433594 C 18.574219 9.433594 18.457031 9.480469 18.363281 9.578125 C 18.265625 9.675781 18.21875 9.789062 18.21875 9.929688 C 18.21875 10.066406 18.265625 10.183594 18.363281 10.277344 C 18.457031 10.375 18.574219 10.425781 18.710938 10.425781 C 18.847656 10.425781 18.960938 10.375 19.058594 10.277344 C 19.152344 10.183594 19.203125 10.066406 19.203125 9.929688 C 19.203125 9.789062 19.152344 9.675781 19.058594 9.578125 C 18.960938 9.480469 18.847656 9.433594 18.710938 9.433594 Z M 2.960938 11.914062 L 30.523438 11.914062 L 30.523438 32.753906 L 2.960938 32.753906 Z M 4.929688 12.90625 C 4.792969 12.90625 4.675781 12.953125 4.582031 13.050781 C 4.484375 13.148438 4.4375 13.265625 4.4375 13.402344 C 4.4375 13.539062 4.484375 13.65625 4.582031 13.753906 C 4.675781 13.847656 4.792969 13.898438 4.929688 13.898438 C 5.066406 13.898438 5.179688 13.847656 5.277344 13.753906 C 5.371094 13.65625 5.421875 13.539062 5.421875 13.402344 C 5.421875 13.265625 5.371094 13.148438 5.277344 13.050781 C 5.179688 12.953125 5.066406 12.90625 4.929688 12.90625 Z M 28.554688 12.90625 C 28.417969 12.90625 28.300781 12.953125 28.207031 13.050781 C 28.109375 13.148438 28.0625 13.265625 28.0625 13.402344 C 28.0625 13.539062 28.109375 13.65625 28.207031 13.753906 C 28.300781 13.847656 28.417969 13.898438 28.554688 13.898438 C 28.691406 13.898438 28.804688 13.847656 28.902344 13.753906 C 28.996094 13.65625 29.046875 13.539062 29.046875 13.402344 C 29.046875 13.265625 28.996094 13.148438 28.902344 13.050781 C 28.804688 12.953125 28.691406 12.90625 28.554688 12.90625 Z M 4.929688 14.890625 C 4.792969 14.890625 4.675781 14.9375 4.582031 15.035156 C 4.484375 15.132812 4.4375 15.25 4.4375 15.386719 C 4.4375 15.523438 4.484375 15.640625 4.582031 15.738281 C 4.675781 15.835938 4.792969 15.882812 4.929688 15.882812 C 5.066406 15.882812 5.179688 15.835938 5.277344 15.738281 C 5.371094 15.640625 5.421875 15.523438 5.421875 15.386719 C 5.421875 15.25 5.371094 15.132812 5.277344 15.035156 C 5.179688 14.9375 5.066406 14.890625 4.929688 14.890625 Z M 28.554688 14.890625 C 28.417969 14.890625 28.300781 14.9375 28.207031 15.035156 C 28.109375 15.132812 28.0625 15.25 28.0625 15.386719 C 28.0625 15.523438 28.109375 15.640625 28.207031 15.738281 C 28.300781 15.835938 28.417969 15.882812 28.554688 15.882812 C 28.691406 15.882812 28.804688 15.835938 28.902344 15.738281 C 28.996094 15.640625 29.046875 15.523438 29.046875 15.386719 C 29.046875 15.25 28.996094 15.132812 28.902344 15.035156 C 28.804688 14.9375 28.691406 14.890625 28.554688 14.890625 Z M 13.242188 15.386719 C 10.558594 15.386719 8.375 17.589844 8.375 20.292969 C 8.375 21.421875 8.929688 22.53125 9.699219 23.582031 C 10.472656 24.636719 11.480469 25.636719 12.480469 26.515625 C 14.484375 28.273438 16.480469 29.535156 16.480469 29.535156 L 16.742188 29.699219 L 17.003906 29.535156 C 17.003906 29.535156 19 28.273438 21 26.515625 C 22.003906 25.636719 23.011719 24.636719 23.78125 23.582031 C 24.554688 22.53125 25.109375 21.421875 25.109375 20.292969 C 25.109375 17.589844 22.921875 15.386719 20.242188 15.386719 C 18.855469 15.386719 17.628906 15.996094 16.742188 16.9375 C 15.855469 15.996094 14.625 15.386719 13.242188 15.386719 Z M 13.242188 16.378906 C 14.515625 16.378906 15.636719 16.996094 16.347656 17.953125 L 16.742188 18.484375 L 17.136719 17.953125 C 17.84375 16.996094 18.964844 16.378906 20.242188 16.378906 C 22.390625 16.378906 24.125 18.125 24.125 20.292969 C 24.125 21.078125 23.695312 22.03125 22.988281 22.992188 C 22.285156 23.953125 21.324219 24.917969 20.355469 25.765625 C 18.628906 27.28125 17.09375 28.289062 16.742188 28.515625 C 16.386719 28.289062 14.851562 27.28125 13.125 25.765625 C 12.160156 24.917969 11.199219 23.953125 10.492188 22.992188 C 9.789062 22.03125 9.359375 21.078125 9.359375 20.292969 C 9.359375 18.125 11.089844 16.378906 13.242188 16.378906 Z M 4.929688 16.875 C 4.792969 16.875 4.675781 16.921875 4.582031 17.019531 C 4.484375 17.117188 4.4375 17.234375 4.4375 17.371094 C 4.4375 17.507812 4.484375 17.625 4.582031 17.722656 C 4.675781 17.820312 4.792969 17.867188 4.929688 17.867188 C 5.066406 17.867188 5.179688 17.820312 5.277344 17.722656 C 5.371094 17.625 5.421875 17.507812 5.421875 17.371094 C 5.421875 17.234375 5.371094 17.117188 5.277344 17.019531 C 5.179688 16.921875 5.066406 16.875 4.929688 16.875 Z M 28.554688 16.875 C 28.417969 16.875 28.300781 16.921875 28.207031 17.019531 C 28.109375 17.117188 28.0625 17.234375 28.0625 17.371094 C 28.0625 17.507812 28.109375 17.625 28.207031 17.722656 C 28.300781 17.820312 28.417969 17.867188 28.554688 17.867188 C 28.691406 17.867188 28.804688 17.820312 28.902344 17.722656 C 28.996094 17.625 29.046875 17.507812 29.046875 17.371094 C 29.046875 17.234375 28.996094 17.117188 28.902344 17.019531 C 28.804688 16.921875 28.691406 16.875 28.554688 16.875 Z M 12.804688 17.867188 C 12.667969 17.867188 12.550781 17.914062 12.457031 18.011719 C 12.359375 18.109375 12.3125 18.226562 12.3125 18.363281 C 12.3125 18.5 12.359375 18.617188 12.457031 18.714844 C 12.550781 18.8125 12.667969 18.859375 12.804688 18.859375 C 12.941406 18.859375 13.054688 18.8125 13.152344 18.714844 C 13.246094 18.617188 13.296875 18.5 13.296875 18.363281 C 13.296875 18.226562 13.246094 18.109375 13.152344 18.011719 C 13.054688 17.914062 12.941406 17.867188 12.804688 17.867188 Z M 4.929688 18.859375 C 4.792969 18.859375 4.675781 18.910156 4.582031 19.003906 C 4.484375 19.101562 4.4375 19.21875 4.4375 19.355469 C 4.4375 19.492188 4.484375 19.609375 4.582031 19.707031 C 4.675781 19.804688 4.792969 19.851562 4.929688 19.851562 C 5.066406 19.851562 5.179688 19.804688 5.277344 19.707031 C 5.371094 19.609375 5.421875 19.492188 5.421875 19.355469 C 5.421875 19.21875 5.371094 19.101562 5.277344 19.003906 C 5.179688 18.910156 5.066406 18.859375 4.929688 18.859375 Z M 28.554688 18.859375 C 28.417969 18.859375 28.300781 18.910156 28.207031 19.003906 C 28.109375 19.101562 28.0625 19.21875 28.0625 19.355469 C 28.0625 19.492188 28.109375 19.609375 28.207031 19.707031 C 28.300781 19.804688 28.417969 19.851562 28.554688 19.851562 C 28.691406 19.851562 28.804688 19.804688 28.902344 19.707031 C 28.996094 19.609375 29.046875 19.492188 29.046875 19.355469 C 29.046875 19.21875 28.996094 19.101562 28.902344 19.003906 C 28.804688 18.910156 28.691406 18.859375 28.554688 18.859375 Z M 11.328125 19.355469 C 11.191406 19.355469 11.074219 19.40625 10.980469 19.5 C 10.882812 19.597656 10.835938 19.714844 10.835938 19.851562 C 10.835938 19.988281 10.882812 20.105469 10.980469 20.203125 C 11.074219 20.300781 11.191406 20.347656 11.328125 20.347656 C 11.464844 20.347656 11.578125 20.300781 11.675781 20.203125 C 11.769531 20.105469 11.820312 19.988281 11.820312 19.851562 C 11.820312 19.714844 11.769531 19.597656 11.675781 19.5 C 11.578125 19.40625 11.464844 19.355469 11.328125 19.355469 Z M 4.929688 20.84375 C 4.792969 20.84375 4.675781 20.894531 4.582031 20.988281 C 4.484375 21.085938 4.4375 21.203125 4.4375 21.339844 C 4.4375 21.476562 4.484375 21.59375 4.582031 21.691406 C 4.675781 21.789062 4.792969 21.835938 4.929688 21.835938 C 5.066406 21.835938 5.179688 21.789062 5.277344 21.691406 C 5.371094 21.59375 5.421875 21.476562 5.421875 21.339844 C 5.421875 21.203125 5.371094 21.085938 5.277344 20.988281 C 5.179688 20.894531 5.066406 20.84375 4.929688 20.84375 Z M 28.554688 20.84375 C 28.417969 20.84375 28.300781 20.894531 28.207031 20.988281 C 28.109375 21.085938 28.0625 21.203125 28.0625 21.339844 C 28.0625 21.476562 28.109375 21.59375 28.207031 21.691406 C 28.300781 21.789062 28.417969 21.835938 28.554688 21.835938 C 28.691406 21.835938 28.804688 21.789062 28.902344 21.691406 C 28.996094 21.59375 29.046875 21.476562 29.046875 21.339844 C 29.046875 21.203125 28.996094 21.085938 28.902344 20.988281 C 28.804688 20.894531 28.691406 20.84375 28.554688 20.84375 Z M 12.3125 21.339844 C 12.175781 21.339844 12.058594 21.390625 11.964844 21.484375 C 11.867188 21.582031 11.820312 21.699219 11.820312 21.835938 C 11.820312 21.972656 11.867188 22.089844 11.964844 22.1875 C 12.058594 22.285156 12.175781 22.332031 12.3125 22.332031 C 12.449219 22.332031 12.5625 22.285156 12.660156 22.1875 C 12.753906 22.089844 12.804688 21.972656 12.804688 21.835938 C 12.804688 21.699219 12.753906 21.582031 12.660156 21.484375 C 12.5625 21.390625 12.449219 21.339844 12.3125 21.339844 Z M 4.929688 22.828125 C 4.792969 22.828125 4.675781 22.878906 4.582031 22.976562 C 4.484375 23.070312 4.4375 23.1875 4.4375 23.324219 C 4.4375 23.460938 4.484375 23.578125 4.582031 23.675781 C 4.675781 23.773438 4.792969 23.820312 4.929688 23.820312 C 5.066406 23.820312 5.179688 23.773438 5.277344 23.675781 C 5.371094 23.578125 5.421875 23.460938 5.421875 23.324219 C 5.421875 23.1875 5.371094 23.070312 5.277344 22.976562 C 5.179688 22.878906 5.066406 22.828125 4.929688 22.828125 Z M 28.554688 22.828125 C 28.417969 22.828125 28.300781 22.878906 28.207031 22.976562 C 28.109375 23.070312 28.0625 23.1875 28.0625 23.324219 C 28.0625 23.460938 28.109375 23.578125 28.207031 23.675781 C 28.300781 23.773438 28.417969 23.820312 28.554688 23.820312 C 28.691406 23.820312 28.804688 23.773438 28.902344 23.675781 C 28.996094 23.578125 29.046875 23.460938 29.046875 23.324219 C 29.046875 23.1875 28.996094 23.070312 28.902344 22.976562 C 28.804688 22.878906 28.691406 22.828125 28.554688 22.828125 Z M 4.929688 24.8125 C 4.792969 24.8125 4.675781 24.863281 4.582031 24.960938 C 4.484375 25.058594 4.4375 25.171875 4.4375 25.3125 C 4.4375 25.449219 4.484375 25.566406 4.582031 25.660156 C 4.675781 25.757812 4.792969 25.808594 4.929688 25.808594 C 5.066406 25.808594 5.179688 25.757812 5.277344 25.660156 C 5.371094 25.566406 5.421875 25.449219 5.421875 25.3125 C 5.421875 25.171875 5.371094 25.058594 5.277344 24.960938 C 5.179688 24.863281 5.066406 24.8125 4.929688 24.8125 Z M 28.554688 24.8125 C 28.417969 24.8125 28.300781 24.863281 28.207031 24.960938 C 28.109375 25.058594 28.0625 25.171875 28.0625 25.3125 C 28.0625 25.449219 28.109375 25.566406 28.207031 25.660156 C 28.300781 25.757812 28.417969 25.808594 28.554688 25.808594 C 28.691406 25.808594 28.804688 25.757812 28.902344 25.660156 C 28.996094 25.566406 29.046875 25.449219 29.046875 25.3125 C 29.046875 25.171875 28.996094 25.058594 28.902344 24.960938 C 28.804688 24.863281 28.691406 24.8125 28.554688 24.8125 Z M 4.929688 26.800781 C 4.792969 26.800781 4.675781 26.847656 4.582031 26.945312 C 4.484375 27.042969 4.4375 27.160156 4.4375 27.296875 C 4.4375 27.433594 4.484375 27.550781 4.582031 27.644531 C 4.675781 27.742188 4.792969 27.792969 4.929688 27.792969 C 5.066406 27.792969 5.179688 27.742188 5.277344 27.644531 C 5.371094 27.550781 5.421875 27.433594 5.421875 27.296875 C 5.421875 27.160156 5.371094 27.042969 5.277344 26.945312 C 5.179688 26.847656 5.066406 26.800781 4.929688 26.800781 Z M 28.554688 26.800781 C 28.417969 26.800781 28.300781 26.847656 28.207031 26.945312 C 28.109375 27.042969 28.0625 27.160156 28.0625 27.296875 C 28.0625 27.433594 28.109375 27.550781 28.207031 27.644531 C 28.300781 27.742188 28.417969 27.792969 28.554688 27.792969 C 28.691406 27.792969 28.804688 27.742188 28.902344 27.644531 C 28.996094 27.550781 29.046875 27.433594 29.046875 27.296875 C 29.046875 27.160156 28.996094 27.042969 28.902344 26.945312 C 28.804688 26.847656 28.691406 26.800781 28.554688 26.800781 Z M 4.929688 28.785156 C 4.792969 28.785156 4.675781 28.832031 4.582031 28.929688 C 4.484375 29.027344 4.4375 29.144531 4.4375 29.28125 C 4.4375 29.417969 4.484375 29.535156 4.582031 29.632812 C 4.675781 29.726562 4.792969 29.777344 4.929688 29.777344 C 5.066406 29.777344 5.179688 29.726562 5.277344 29.632812 C 5.371094 29.535156 5.421875 29.417969 5.421875 29.28125 C 5.421875 29.144531 5.371094 29.027344 5.277344 28.929688 C 5.179688 28.832031 5.066406 28.785156 4.929688 28.785156 Z M 28.554688 28.785156 C 28.417969 28.785156 28.300781 28.832031 28.207031 28.929688 C 28.109375 29.027344 28.0625 29.144531 28.0625 29.28125 C 28.0625 29.417969 28.109375 29.535156 28.207031 29.632812 C 28.300781 29.726562 28.417969 29.777344 28.554688 29.777344 C 28.691406 29.777344 28.804688 29.726562 28.902344 29.632812 C 28.996094 29.535156 29.046875 29.417969 29.046875 29.28125 C 29.046875 29.144531 28.996094 29.027344 28.902344 28.929688 C 28.804688 28.832031 28.691406 28.785156 28.554688 28.785156 Z M 4.929688 30.769531 C 4.792969 30.769531 4.675781 30.816406 4.582031 30.914062 C 4.484375 31.011719 4.4375 31.128906 4.4375 31.265625 C 4.4375 31.402344 4.484375 31.519531 4.582031 31.617188 C 4.675781 31.714844 4.792969 31.761719 4.929688 31.761719 C 5.066406 31.761719 5.179688 31.714844 5.277344 31.617188 C 5.371094 31.519531 5.421875 31.402344 5.421875 31.265625 C 5.421875 31.128906 5.371094 31.011719 5.277344 30.914062 C 5.179688 30.816406 5.066406 30.769531 4.929688 30.769531 Z M 28.554688 30.769531 C 28.417969 30.769531 28.300781 30.816406 28.207031 30.914062 C 28.109375 31.011719 28.0625 31.128906 28.0625 31.265625 C 28.0625 31.402344 28.109375 31.519531 28.207031 31.617188 C 28.300781 31.714844 28.417969 31.761719 28.554688 31.761719 C 28.691406 31.761719 28.804688 31.714844 28.902344 31.617188 C 28.996094 31.519531 29.046875 31.402344 29.046875 31.265625 C 29.046875 31.128906 28.996094 31.011719 28.902344 30.914062 C 28.804688 30.816406 28.691406 30.769531 28.554688 30.769531 Z M 28.554688 30.769531 " fill-opacity="1" fill-rule="nonzero"/></g></svg>