<svg xmlns="http://www.w3.org/2000/svg" xmlns:xlink="http://www.w3.org/1999/xlink" width="500" zoomAndPan="magnify" viewBox="0 0 375 374.999991" height="500" preserveAspectRatio="xMidYMid meet" version="1.0"><defs><clipPath id="9b1ffc6925"><path d="M 111 2.273438 L 262 2.273438 L 262 372 L 111 372 Z M 111 2.273438 " clip-rule="nonzero"/></clipPath></defs><g clip-path="url(#9b1ffc6925)"><path fill="#000000" d="M 259.039062 201.066406 C 252.699219 175.667969 233.085938 154.828125 207.472656 148.328125 C 204.683594 147.570312 201.808594 147.0625 198.933594 146.726562 C 198.425781 134.828125 197.835938 123.015625 197.242188 111.121094 C 196.90625 104.621094 196.738281 98.039062 196.566406 91.460938 C 197.75 90.363281 199.019531 89.265625 200.203125 88.167969 C 209.332031 79.898438 218.714844 70.617188 221.84375 58.300781 C 225.140625 45.304688 219.476562 32.902344 212.882812 21.933594 C 209.753906 16.617188 206.289062 11.46875 203.5 5.984375 C 202.652344 4.382812 201.214844 3.03125 199.355469 2.609375 C 198.003906 2.273438 196.3125 2.441406 195.890625 4.042969 C 189.550781 29.105469 188.199219 55.09375 188.453125 80.828125 C 188.453125 82.851562 188.535156 84.960938 188.535156 86.988281 C 187.269531 88.085938 186 89.265625 184.734375 90.363281 C 178.898438 95.679688 173.152344 101.164062 167.65625 106.902344 C 156.753906 118.207031 146.609375 130.273438 137.394531 143.015625 C 128.433594 155.417969 120.234375 168.664062 115.5 183.347656 C 110.933594 197.4375 110.429688 212.457031 114.402344 226.714844 C 118.207031 240.636719 126.066406 253.714844 137.054688 263.167969 C 147.875 272.449219 161.0625 278.691406 175.097656 281.140625 C 180.84375 282.152344 186.761719 282.574219 192.679688 282.40625 L 192.679688 283.585938 C 192.761719 297.003906 192.425781 310.585938 189.382812 323.75 C 187.4375 332.441406 184.308594 340.960938 179.578125 348.554688 C 175.347656 355.390625 169.347656 362.058594 161.316406 364.335938 C 157.089844 365.515625 152.777344 365.433594 148.550781 364.25 C 146.863281 363.746094 145.425781 363.152344 143.820312 362.394531 C 142.636719 361.804688 140.523438 360.371094 139.675781 359.609375 C 134.265625 354.886719 131.054688 347.882812 129.53125 340.539062 C 127.925781 332.695312 128.09375 324.507812 129.703125 316.578125 C 131.390625 308.308594 134.859375 298.941406 141.535156 293.375 C 143.140625 292.109375 144.917969 290.925781 146.863281 290.335938 C 148.890625 289.660156 150.074219 289.578125 151.933594 289.660156 C 152.273438 289.660156 152.609375 289.746094 152.949219 289.746094 L 153.03125 289.746094 C 153.03125 289.746094 153.03125 289.746094 153.117188 289.746094 C 153.710938 289.832031 154.386719 290 154.976562 290.167969 C 155.144531 290.253906 155.398438 290.253906 155.570312 290.335938 C 155.570312 290.335938 155.652344 290.335938 155.652344 290.335938 C 155.652344 290.335938 155.738281 290.335938 155.738281 290.335938 C 155.90625 290.421875 156.160156 290.503906 156.160156 290.503906 C 156.835938 290.84375 157.429688 291.097656 158.105469 291.433594 C 158.359375 291.601562 159.289062 292.191406 159.457031 292.277344 C 159.964844 292.613281 160.472656 293.035156 160.980469 293.375 C 160.980469 293.375 161.0625 293.457031 161.0625 293.457031 C 161.0625 293.457031 161.148438 293.542969 161.148438 293.542969 C 161.402344 293.796875 161.738281 294.050781 161.992188 294.300781 C 162.667969 294.894531 163.261719 295.566406 163.9375 296.242188 C 164.191406 296.496094 164.359375 296.664062 164.53125 296.917969 C 164.53125 296.917969 164.613281 297.003906 164.613281 297.003906 C 164.78125 297.171875 165.035156 297.507812 165.035156 297.507812 C 165.542969 298.183594 166.050781 298.773438 166.472656 299.449219 C 167.402344 300.800781 168.332031 302.148438 169.09375 303.582031 C 171.96875 308.730469 174.167969 315.3125 174.925781 321.640625 C 175.179688 323.75 175.265625 326.027344 175.179688 328.222656 C 172.644531 321.640625 166.21875 316.914062 158.695312 316.914062 C 151.765625 316.914062 145.679688 320.964844 142.890625 326.789062 C 142.890625 326.789062 142.890625 326.871094 142.804688 326.871094 C 141.199219 330.078125 140.523438 333.960938 141.027344 337.585938 C 142.636719 349.148438 155.484375 356.320312 166.472656 353.367188 C 173.152344 351.59375 178.308594 347.121094 180.929688 340.710938 C 183.550781 334.382812 183.464844 327.210938 182.28125 320.542969 C 179.660156 306.453125 171.292969 290.757812 157.597656 284.597656 C 149.820312 281.140625 140.945312 281.730469 134.433594 287.636719 C 127.417969 294.050781 123.53125 303.753906 121.671875 312.949219 C 118.375 329.910156 121.164062 350.667969 134.859375 362.480469 C 142.464844 369.058594 152.949219 372.773438 163.007812 371.167969 C 172.304688 369.652344 179.746094 363.152344 184.988281 355.730469 C 199.019531 335.730469 200.457031 310.082031 200.285156 286.539062 C 200.285156 284.851562 200.285156 283.164062 200.285156 281.476562 C 214.574219 279.789062 228.4375 274.472656 239.425781 265.191406 C 258.277344 249.75 264.871094 224.4375 259.039062 201.066406 Z M 192.761719 275.484375 C 188.03125 275.824219 183.296875 275.738281 178.730469 275.234375 C 166.726562 273.96875 154.976562 269.664062 145.171875 262.492188 C 134.605469 254.730469 127.082031 243.421875 123.023438 231.019531 C 118.710938 218.023438 118.628906 204.101562 122.179688 190.941406 C 125.980469 177.019531 133.335938 164.277344 141.535156 152.464844 C 149.90625 140.3125 159.289062 128.839844 169.261719 117.953125 C 175.519531 111.121094 182.195312 104.707031 188.960938 98.378906 C 189.550781 114.324219 190.480469 130.273438 191.242188 146.21875 C 182.449219 146.136719 173.574219 147.738281 165.460938 151.28125 C 153.203125 156.683594 143.140625 166.808594 137.5625 178.875 C 125.222656 205.707031 136.378906 238.445312 162.332031 252.535156 C 171.714844 257.597656 182.535156 259.707031 192.847656 257.429688 C 192.761719 263.589844 192.679688 269.496094 192.761719 275.484375 Z M 192.933594 242.664062 C 192.933594 244.941406 192.847656 247.304688 192.847656 249.582031 C 187.101562 251.777344 180.84375 252.367188 174.757812 251.101562 C 148.300781 245.617188 135.367188 215.664062 142.210938 191.191406 C 145.59375 179.296875 153.371094 168.664062 163.683594 161.828125 C 171.96875 156.34375 181.691406 153.5625 191.578125 153.140625 C 191.664062 155.078125 191.75 156.9375 191.832031 158.875 C 192.761719 186.722656 193.269531 214.734375 192.933594 242.664062 Z M 199.78125 27.25 C 200.371094 23.367188 201.132812 19.484375 201.976562 15.605469 C 207.21875 23.957031 212.714844 32.3125 214.488281 41.929688 C 216.941406 55.515625 209.417969 66.988281 200.203125 76.273438 C 198.933594 77.539062 197.667969 78.804688 196.398438 79.984375 C 196.230469 62.347656 197.074219 44.714844 199.78125 27.25 Z M 236.382812 257.007812 C 226.746094 266.542969 213.980469 272.28125 200.625 274.558594 C 200.625 268.0625 200.625 261.480469 200.710938 254.980469 C 211.359375 250.089844 220.742188 239.792969 222.097656 227.898438 C 222.773438 221.570312 221.167969 215.664062 218.039062 210.179688 C 217.109375 208.492188 214.488281 207.054688 212.542969 207.5625 C 210.429688 208.070312 210.769531 210.09375 211.613281 211.613281 C 217.363281 221.652344 213.390625 233.214844 205.867188 241.058594 C 204.34375 242.664062 202.652344 244.097656 200.792969 245.363281 C 200.792969 244.605469 200.792969 243.761719 200.792969 243 C 200.964844 227.898438 200.878906 212.710938 200.625 197.605469 C 200.371094 182.839844 199.78125 168.074219 199.1875 153.308594 C 199.78125 153.390625 200.371094 153.390625 200.964844 153.476562 C 212.714844 154.828125 224.125 159.890625 232.832031 167.90625 C 241.03125 175.5 246.949219 185.203125 250.332031 195.832031 C 256.925781 216.929688 252.359375 241.144531 236.382812 257.007812 Z M 236.382812 257.007812 " fill-opacity="1" fill-rule="nonzero"/></g></svg>