<svg xmlns="http://www.w3.org/2000/svg" xmlns:xlink="http://www.w3.org/1999/xlink" width="45" zoomAndPan="magnify" viewBox="0 0 33.75 33.749999" height="45" preserveAspectRatio="xMidYMid meet" version="1.0"><defs><clipPath id="b203d3e5a5"><path d="M 8 18 L 25 18 L 25 33.5 L 8 33.5 Z M 8 18 " clip-rule="nonzero"/></clipPath><clipPath id="cda30e49d7"><path d="M 4.027344 0 L 29.527344 0 L 29.527344 14 L 4.027344 14 Z M 4.027344 0 " clip-rule="nonzero"/></clipPath><clipPath id="c9ae643603"><path d="M 21 12 L 29.527344 12 L 29.527344 21 L 21 21 Z M 21 12 " clip-rule="nonzero"/></clipPath><clipPath id="a1dc3361d5"><path d="M 4.027344 12 L 12 12 L 12 21 L 4.027344 21 Z M 4.027344 12 " clip-rule="nonzero"/></clipPath></defs><g clip-path="url(#b203d3e5a5)"><path fill="#ffffff" d="M 16.632812 33.660156 C 16.632812 33.660156 16.625 33.660156 16.613281 33.660156 C 16.558594 33.628906 16.53125 33.613281 16.523438 33.609375 C 14.1875 32.289062 8.746094 28.710938 8.746094 24.070312 C 8.742188 22.210938 9.695312 20.480469 11.265625 19.503906 C 11.929688 19.082031 12.683594 18.816406 13.464844 18.730469 C 13.667969 18.703125 13.878906 18.691406 14.085938 18.691406 C 15.042969 18.691406 15.984375 18.953125 16.808594 19.445312 C 17.632812 18.953125 18.574219 18.691406 19.53125 18.691406 C 19.742188 18.691406 19.953125 18.707031 20.164062 18.734375 C 20.941406 18.820312 21.6875 19.085938 22.351562 19.503906 C 23.921875 20.480469 24.875 22.210938 24.871094 24.070312 C 24.871094 26.371094 23.496094 28.769531 20.886719 31 C 19.679688 32.035156 18.363281 32.933594 16.960938 33.683594 C 16.914062 33.703125 16.859375 33.714844 16.808594 33.710938 C 16.746094 33.710938 16.6875 33.691406 16.632812 33.660156 Z M 17.144531 33.371094 Z M 11.625 20.070312 C 10.25 20.925781 9.417969 22.433594 9.421875 24.058594 C 9.421875 26.039062 10.542969 28.0625 12.746094 30.078125 C 13.988281 31.195312 15.351562 32.167969 16.808594 32.984375 C 17.898438 32.390625 24.1875 28.75 24.1875 24.058594 C 24.195312 22.433594 23.359375 20.925781 21.988281 20.070312 C 21.40625 19.703125 20.753906 19.46875 20.070312 19.390625 C 19.890625 19.367188 19.707031 19.355469 19.527344 19.359375 C 18.625 19.359375 17.746094 19.625 16.992188 20.125 C 16.882812 20.199219 16.734375 20.199219 16.625 20.125 C 15.867188 19.625 14.988281 19.363281 14.085938 19.363281 C 13.214844 19.359375 12.359375 19.605469 11.625 20.070312 Z M 11.625 20.070312 " fill-opacity="1" fill-rule="nonzero"/></g><path fill="#ffffff" d="M 10.808594 24.058594 C 10.808594 22.644531 11.699219 21.386719 13.03125 20.929688 C 13.207031 20.871094 13.398438 20.964844 13.460938 21.144531 C 13.519531 21.320312 13.425781 21.515625 13.25 21.574219 C 12.191406 21.933594 11.480469 22.933594 11.480469 24.058594 C 11.480469 24.246094 11.332031 24.398438 11.144531 24.398438 C 10.957031 24.398438 10.808594 24.246094 10.808594 24.058594 Z M 15.679688 21.914062 C 15.613281 21.914062 15.550781 21.894531 15.496094 21.859375 C 15.179688 21.648438 14.824219 21.511719 14.449219 21.460938 C 14.261719 21.433594 14.132812 21.257812 14.160156 21.070312 C 14.1875 20.882812 14.359375 20.753906 14.546875 20.78125 C 15.011719 20.847656 15.460938 21.015625 15.855469 21.277344 C 16.011719 21.378906 16.054688 21.589844 15.953125 21.746094 C 15.890625 21.84375 15.785156 21.902344 15.667969 21.902344 C 15.671875 21.902344 15.675781 21.910156 15.679688 21.914062 Z M 15.679688 21.914062 " fill-opacity="1" fill-rule="nonzero"/><g clip-path="url(#cda30e49d7)"><path fill="#ffffff" d="M 22.644531 13.203125 C 22.589844 11.675781 21.316406 10.480469 19.800781 10.53125 C 18.355469 10.582031 17.195312 11.75 17.144531 13.203125 C 17.144531 13.390625 16.996094 13.542969 16.808594 13.542969 C 16.621094 13.542969 16.472656 13.390625 16.472656 13.203125 C 16.417969 11.675781 15.144531 10.480469 13.625 10.53125 C 12.183594 10.582031 11.023438 11.75 10.972656 13.203125 C 10.972656 13.390625 10.820312 13.542969 10.636719 13.542969 C 10.449219 13.542969 10.296875 13.390625 10.296875 13.203125 C 10.300781 11.675781 9.070312 10.433594 7.550781 10.429688 C 6.082031 10.429688 4.871094 11.589844 4.800781 13.066406 C 4.789062 13.246094 4.640625 13.386719 4.460938 13.382812 C 4.277344 13.382812 4.125 13.234375 4.125 13.046875 C 4.125 5.992188 9.800781 0.273438 16.804688 0.273438 C 23.808594 0.273438 29.484375 5.992188 29.484375 13.046875 C 29.484375 13.234375 29.332031 13.382812 29.148438 13.382812 C 28.96875 13.386719 28.820312 13.246094 28.8125 13.066406 C 28.734375 11.535156 27.445312 10.359375 25.925781 10.433594 C 24.460938 10.507812 23.3125 11.726562 23.3125 13.203125 C 23.3125 13.390625 23.164062 13.539062 22.980469 13.542969 C 22.796875 13.542969 22.644531 13.390625 22.644531 13.203125 Z M 22.980469 11.714844 C 23.796875 9.992188 25.84375 9.261719 27.550781 10.082031 C 27.953125 10.273438 28.308594 10.542969 28.609375 10.871094 C 27.328125 4.316406 21.015625 0.046875 14.507812 1.335938 C 9.722656 2.285156 5.984375 6.050781 5.042969 10.871094 C 6.324219 9.46875 8.496094 9.378906 9.886719 10.671875 C 10.207031 10.96875 10.464844 11.320312 10.652344 11.714844 C 11.472656 9.996094 13.519531 9.273438 15.222656 10.101562 C 15.925781 10.441406 16.488281 11.007812 16.824219 11.714844 C 17.394531 10.523438 18.585938 9.765625 19.894531 9.757812 C 21.210938 9.757812 22.410156 10.519531 22.980469 11.714844 Z M 22.980469 11.714844 " fill-opacity="1" fill-rule="nonzero"/></g><g clip-path="url(#c9ae643603)"><path fill="#ffffff" d="M 21.929688 20.019531 C 21.796875 19.886719 21.796875 19.675781 21.929688 19.542969 C 22.628906 18.867188 28.210938 13.476562 28.910156 12.804688 C 29.050781 12.683594 29.265625 12.703125 29.382812 12.847656 C 29.488281 12.980469 29.484375 13.167969 29.375 13.292969 C 28.675781 13.964844 23.101562 19.355469 22.40625 20.027344 C 22.34375 20.089844 22.257812 20.125 22.171875 20.125 C 22.082031 20.125 21.992188 20.085938 21.929688 20.019531 Z M 21.929688 20.019531 " fill-opacity="1" fill-rule="nonzero"/></g><g clip-path="url(#a1dc3361d5)"><path fill="#ffffff" d="M 11.210938 20.03125 C 10.515625 19.355469 4.929688 13.964844 4.234375 13.289062 C 4.089844 13.167969 4.070312 12.957031 4.1875 12.8125 C 4.304688 12.667969 4.519531 12.644531 4.664062 12.765625 C 4.675781 12.777344 4.6875 12.789062 4.699219 12.800781 C 5.398438 13.472656 10.980469 18.863281 11.675781 19.539062 C 11.808594 19.671875 11.808594 19.882812 11.675781 20.015625 C 11.617188 20.082031 11.535156 20.121094 11.445312 20.125 C 11.359375 20.125 11.273438 20.089844 11.210938 20.03125 Z M 11.210938 20.03125 " fill-opacity="1" fill-rule="nonzero"/></g><path fill="#ffffff" d="M 25.765625 8.398438 C 24.40625 5.839844 22.035156 3.976562 19.238281 3.269531 C 19.058594 3.226562 18.945312 3.039062 18.992188 2.859375 C 19.035156 2.675781 19.21875 2.5625 19.402344 2.609375 C 22.382812 3.363281 24.90625 5.34375 26.359375 8.074219 C 26.449219 8.238281 26.390625 8.441406 26.226562 8.535156 C 26.226562 8.535156 26.226562 8.535156 26.222656 8.535156 C 26.175781 8.5625 26.121094 8.578125 26.0625 8.578125 C 25.9375 8.578125 25.824219 8.507812 25.765625 8.398438 Z M 25.765625 8.398438 " fill-opacity="1" fill-rule="nonzero"/><path fill="#ffffff" d="M 18.039062 3.050781 C 17.632812 2.996094 17.21875 2.972656 16.808594 2.972656 C 16.621094 2.972656 16.472656 2.820312 16.472656 2.632812 C 16.472656 2.445312 16.621094 2.292969 16.808594 2.292969 C 17.246094 2.292969 17.6875 2.320312 18.125 2.371094 C 18.308594 2.382812 18.453125 2.542969 18.441406 2.730469 C 18.429688 2.917969 18.269531 3.0625 18.082031 3.050781 C 18.082031 3.050781 18.042969 3.050781 18.039062 3.050781 Z M 18.039062 3.050781 " fill-opacity="1" fill-rule="nonzero"/><path fill="#ffffff" d="M 19.96875 19.367188 C 19.800781 19.28125 19.730469 19.078125 19.8125 18.910156 C 20.097656 18.324219 22.390625 13.640625 22.679688 13.054688 C 22.761719 12.886719 22.960938 12.816406 23.128906 12.898438 C 23.296875 12.980469 23.367188 13.183594 23.285156 13.355469 C 23 13.9375 20.707031 18.625 20.417969 19.210938 C 20.363281 19.324219 20.246094 19.398438 20.117188 19.398438 C 20.066406 19.398438 20.011719 19.386719 19.96875 19.367188 Z M 19.96875 19.367188 " fill-opacity="1" fill-rule="nonzero"/><path fill="#ffffff" d="M 13.503906 19.394531 C 13.375 19.394531 13.257812 19.320312 13.199219 19.207031 C 12.914062 18.621094 10.621094 13.9375 10.335938 13.355469 C 10.253906 13.183594 10.324219 12.980469 10.492188 12.898438 C 10.660156 12.816406 10.859375 12.886719 10.941406 13.054688 C 11.226562 13.636719 13.507812 18.300781 13.792969 18.882812 C 13.824219 18.933594 13.839844 18.996094 13.839844 19.054688 C 13.839844 19.242188 13.691406 19.394531 13.503906 19.394531 Z M 13.503906 19.394531 " fill-opacity="1" fill-rule="nonzero"/><path fill="#ffffff" d="M 16.472656 19.835938 C 16.472656 19.175781 16.472656 13.867188 16.472656 13.203125 C 16.472656 13.015625 16.621094 12.863281 16.808594 12.863281 C 16.996094 12.863281 17.144531 13.015625 17.144531 13.203125 C 17.144531 13.867188 17.144531 19.175781 17.144531 19.835938 C 17.144531 20.023438 16.996094 20.175781 16.808594 20.175781 C 16.621094 20.175781 16.472656 20.023438 16.472656 19.835938 Z M 16.472656 19.835938 " fill-opacity="1" fill-rule="nonzero"/></svg>