<svg xmlns="http://www.w3.org/2000/svg" xmlns:xlink="http://www.w3.org/1999/xlink" width="500" zoomAndPan="magnify" viewBox="0 0 375 374.999991" height="500" preserveAspectRatio="xMidYMid meet" version="1.0"><defs><clipPath id="04acefe108"><path d="M 14 8.523438 L 367 8.523438 L 367 366.273438 L 14 366.273438 Z M 14 8.523438 " clip-rule="nonzero"/></clipPath></defs><g clip-path="url(#04acefe108)"><path fill="#000000" d="M 153.359375 53.78125 L 152.371094 17.929688 C 153.878906 17.117188 154.929688 15.453125 154.929688 13.550781 C 154.929688 10.835938 152.886719 8.625 150.359375 8.625 C 147.820312 8.625 145.785156 10.835938 145.785156 13.550781 C 145.785156 15.769531 147.171875 17.644531 149.101562 18.242188 L 149.101562 53.023438 C 148.5 52.921875 147.90625 52.8125 147.304688 52.710938 L 147.304688 20.765625 C 147.304688 20.765625 121.183594 13.625 109.519531 27.695312 C 97.871094 41.769531 92.804688 43.035156 84.679688 34.5625 C 84.679688 34.5625 86.550781 50.421875 102.769531 55.46875 C 116.019531 59.574219 132.121094 35.664062 147.304688 61.628906 L 147.304688 53.074219 C 147.671875 53.472656 148.285156 54.140625 149.101562 55.050781 L 149.101562 276.6875 C 137.46875 286.125 123.566406 295.28125 107.042969 304.015625 C 107.042969 304.015625 124.707031 302.265625 149.101562 299.261719 L 149.101562 312.066406 C 112.695312 313.191406 70.0625 313.777344 20.242188 313.515625 C 20.242188 313.515625 14.574219 312.621094 14.746094 322.28125 C 14.882812 331.929688 11.515625 366.195312 23.007812 366.195312 L 52.03125 366.195312 C 53.472656 365.316406 55.175781 364.640625 57.242188 364.242188 C 68.035156 362.175781 81.261719 350.074219 92.484375 353.84375 C 97.585938 355.558594 102.589844 358.261719 107.453125 360.574219 C 112.554688 362.964844 118.375 363.554688 123.636719 365.59375 C 124.144531 365.773438 124.621094 365.984375 125.082031 366.191406 L 150.445312 366.191406 C 151.488281 365.746094 152.621094 365.402344 153.878906 365.136719 C 164.960938 362.945312 174.324219 355.242188 185.753906 354.441406 C 196.25 353.710938 205.28125 360.878906 214.875 364.238281 C 216.359375 364.753906 217.644531 365.421875 218.828125 366.191406 L 254.816406 366.191406 C 255.027344 366.058594 255.234375 365.925781 255.445312 365.773438 C 259.980469 363.042969 265.046875 361.324219 269.675781 358.6875 C 274.820312 355.765625 279.984375 353.578125 286.023438 353.738281 C 293.359375 353.96875 298.597656 358.355469 304.769531 361.546875 C 307.457031 362.929688 310.371094 363.851562 313.382812 364.613281 C 322.078125 359.9375 345.3125 343.285156 356.761719 294.902344 C 356.761719 294.902344 361.546875 287.953125 344 293.015625 C 330.675781 296.847656 282.886719 307.367188 160.472656 311.6875 L 160.09375 297.878906 C 197.164062 293.113281 244.605469 285.964844 271.164062 277.847656 C 319.117188 263.207031 364.691406 281.09375 366.289062 291.179688 C 366.289062 291.183594 375.046875 94.492188 153.359375 53.78125 Z M 159.261719 267.847656 L 153.539062 60.234375 C 176.476562 87.96875 246.28125 186.398438 159.261719 267.847656 Z M 159.261719 267.847656 " fill-opacity="1" fill-rule="nonzero"/></g><path fill="#000000" d="M 143.324219 276.070312 L 143.324219 69.882812 C 56.5 275.492188 0 276.070312 0 276.070312 C 20.847656 306.367188 143.324219 276.070312 143.324219 276.070312 Z M 143.324219 276.070312 " fill-opacity="1" fill-rule="nonzero"/></svg>